<svg xmlns="http://www.w3.org/2000/svg"  viewBox="0 0 48 48" width="24px" height="24px"><path d="M 24 4 C 12.972066 4 4 12.972074 4 24 C 4 35.027926 12.972066 44 24 44 C 35.027934 44 44 35.027926 44 24 C 44 12.972074 35.027934 4 24 4 z M 24 7 C 33.406615 7 41 14.593391 41 24 C 41 33.406609 33.406615 41 24 41 C 14.593385 41 7 33.406609 7 24 C 7 14.593391 14.593385 7 24 7 z M 17.714844 16.875 C 14.935844 16.875 13.302 18.671953 13.125 18.876953 C 12.579 19.509953 12.649437 20.455766 13.273438 21.009766 C 13.898438 21.562766 14.859828 21.505672 15.423828 20.888672 C 15.459828 20.849672 16.313844 19.929688 17.714844 19.929688 C 18.813844 19.929687 19.369141 20.357172 19.369141 21.201172 C 19.369141 22.239172 18.256234 22.472656 17.865234 22.472656 L 17.335938 22.472656 C 16.491937 22.472656 15.808594 23.156 15.808594 24 C 15.808594 24.844 16.492938 25.527344 17.335938 25.527344 C 18.281938 25.527344 19.880859 25.794828 19.880859 26.798828 C 19.880859 27.904828 18.688516 28.070312 17.978516 28.070312 C 16.330516 28.070312 15.4575 27.147953 15.4375 27.126953 C 14.8845 26.488953 13.921203 26.41775 13.283203 26.96875 C 12.644203 27.52075 12.574 28.485047 13.125 29.123047 C 13.302 29.328047 14.941516 31.125 17.978516 31.125 C 20.941516 31.125 22.931641 29.385828 22.931641 26.798828 C 22.931641 25.575828 22.428922 24.542969 21.544922 23.792969 C 22.086922 23.106969 22.423828 22.233172 22.423828 21.201172 C 22.423828 18.654172 20.487844 16.875 17.714844 16.875 z M 26.5 17 C 25.671 17 25 17.671 25 18.5 L 25 29.5 C 25 30.329 25.671 31 26.5 31 L 29 31 C 32.86 31 36 27.86 36 24 C 36 20.14 32.86 17 29 17 L 26.5 17 z M 28 20 L 29 20 C 31.206 20 33 21.794 33 24 C 33 26.206 31.206 28 29 28 L 28 28 L 28 20 z"/></svg>