<svg xmlns="http://www.w3.org/2000/svg"  viewBox="0 0 48 48" width="24px" height="24px"><path d="M 24 5 C 17.390343 5 12 10.390343 12 17 C 12 19.957072 13.753582 23.246157 15.742188 26.515625 C 17.730792 29.785093 20.049071 32.896406 21.482422 34.744141 C 22.734795 36.357775 25.265205 36.357775 26.517578 34.744141 C 27.950929 32.896406 30.269207 29.785093 32.257812 26.515625 C 34.246418 23.246157 36 19.957072 36 17 C 36 10.390343 30.609657 5 24 5 z M 24 8 C 28.988343 8 33 12.011657 33 17 C 33 18.549928 31.582254 21.851499 29.693359 24.957031 C 27.804465 28.062563 25.539133 31.110985 24.146484 32.90625 C 24.046854 33.034616 23.953143 33.034616 23.853516 32.90625 C 22.460867 31.110985 20.195535 28.062563 18.306641 24.957031 C 16.417746 21.851499 15 18.549928 15 17 C 15 12.011657 19.011657 8 24 8 z M 24 14 A 3 3 0 0 0 24 20 A 3 3 0 0 0 24 14 z M 11.724609 30 C 10.342609 30 9.0853906 30.816125 8.5253906 32.078125 L 6.3046875 37.078125 C 5.8216875 38.165125 5.9184062 39.40925 6.5664062 40.40625 C 7.2154063 41.40425 8.3129531 42 9.5019531 42 L 38.496094 42 C 39.685094 42 40.783641 41.40425 41.431641 40.40625 C 42.080641 39.40925 42.178313 38.166125 41.695312 37.078125 L 39.474609 32.078125 C 38.913609 30.816125 37.658391 30 36.275391 30 L 33.019531 30 C 32.382531 30.965 31.691312 31.964 30.945312 33 L 36.275391 33 C 36.472391 33 36.652422 33.115875 36.732422 33.296875 L 38.953125 38.296875 C 39.049125 38.512875 38.972016 38.688437 38.916016 38.773438 C 38.860016 38.858438 38.734047 39 38.498047 39 L 9.5019531 39 C 9.2659531 39 9.1370312 38.856484 9.0820312 38.771484 C 9.0270313 38.686484 8.9499219 38.512875 9.0449219 38.296875 L 11.267578 33.296875 C 11.347578 33.116875 11.527609 33 11.724609 33 L 17.052734 33 C 16.305734 31.964 15.616469 30.965 14.980469 30 L 11.724609 30 z"/></svg>