<svg xmlns="http://www.w3.org/2000/svg"  viewBox="0 0 48 48" width="24px" height="24px"><path d="M 23 4 C 17.495178 4 13 8.4951777 13 14 C 13 19.504822 17.495178 24 23 24 C 26.903846 24 30.668433 21.656029 33.591797 19.447266 C 36.515161 17.238502 38.591797 15.027344 38.591797 15.027344 A 1.50015 1.50015 0 0 0 38.591797 12.972656 C 38.591797 12.972656 36.515161 10.761498 33.591797 8.5527344 C 30.668433 6.3439707 26.903846 4 23 4 z M 23 7 C 25.596154 7 29.081567 8.9060289 31.783203 10.947266 C 33.804742 12.47465 34.574006 13.328143 35.244141 14 C 34.574006 14.671857 33.804742 15.52535 31.783203 17.052734 C 29.081567 19.093971 25.596154 21 23 21 C 19.116822 21 16 17.883178 16 14 C 16 10.116822 19.116822 7 23 7 z M 36 24 C 35.413 24 34.838344 24.049531 34.277344 24.144531 L 33.931641 25.576172 C 33.394641 27.801172 31.105156 29.123609 28.910156 28.474609 L 27.705078 28.117188 C 26.981078 29.050187 26.401 30.110813 26 31.257812 L 26.894531 32.117188 C 28.529531 33.691187 28.529531 36.308813 26.894531 37.882812 L 26 38.744141 C 26.401 39.891141 26.980078 40.948812 27.705078 41.882812 L 28.910156 41.527344 C 31.105156 40.878344 33.394641 42.200781 33.931641 44.425781 L 34.277344 45.857422 C 34.838344 45.951422 35.414 46 36 46 C 36.587 46 37.161656 45.950469 37.722656 45.855469 L 38.068359 44.423828 C 38.605359 42.198828 40.894844 40.876391 43.089844 41.525391 L 44.294922 41.882812 C 45.018922 40.949813 45.599 39.889187 46 38.742188 L 45.105469 37.882812 C 43.470469 36.309812 43.470469 33.690188 45.105469 32.117188 L 46 31.257812 C 45.599 30.110813 45.019922 29.051187 44.294922 28.117188 L 43.089844 28.474609 C 40.894844 29.123609 38.605359 27.801172 38.068359 25.576172 L 37.722656 24.144531 C 37.161656 24.049531 36.587 24 36 24 z M 12.5 28 C 10.019 28 8 30.019 8 32.5 L 8 33.699219 C 8 39.475219 15.028 44 24 44 C 24.859 44 25.693719 43.945234 26.511719 43.865234 C 25.707719 43.005234 25.01675 42.041328 24.46875 40.986328 C 24.31075 40.989328 24.16 41 24 41 C 15.971 41 11 37.210219 11 33.699219 L 11 32.5 C 11 31.673 11.673 31 12.5 31 L 23.634766 31 C 23.979766 29.932 24.463594 28.927 25.058594 28 L 12.5 28 z M 36 32 C 37.657 32 39 33.343 39 35 C 39 36.657 37.657 38 36 38 C 34.343 38 33 36.657 33 35 C 33 33.343 34.343 32 36 32 z"/></svg>