<svg xmlns="http://www.w3.org/2000/svg"  viewBox="0 0 48 48" width="24px" height="24px"><path d="M 23.976562 6.9785156 A 1.50015 1.50015 0 0 0 22.5 8.5 L 22.5 15.142578 C 20.107798 15.573682 18.060389 17.01101 16.808594 19 L 3 19 C 1.3604058 19 0 20.360406 0 22 C 0 23.670995 1.2061862 24.842915 2.6191406 25.212891 C 2.9037887 25.287421 3.1209695 25.320126 3.5664062 25.400391 C 4.0118431 25.480661 4.5959708 25.581352 5.2734375 25.697266 C 5.4582949 25.728895 5.7281446 25.773049 5.9257812 25.806641 C 5.3534092 26.561647 5 27.489158 5 28.5 C 5 30.967501 7.0324991 33 9.5 33 C 11.967501 33 14 30.967501 14 28.5 C 14 28.011861 13.900625 27.549145 13.753906 27.107422 C 14.717929 27.265192 16.455551 27.552172 16.542969 27.566406 C 17.990258 30.202541 20.794453 32 24 32 C 27.205547 32 30.009742 30.202541 31.457031 27.566406 C 31.544449 27.552172 33.282071 27.265192 34.246094 27.107422 C 34.099375 27.549145 34 28.011861 34 28.5 C 34 30.967501 36.032499 33 38.5 33 C 40.967501 33 43 30.967501 43 28.5 C 43 27.489158 42.646591 26.561647 42.074219 25.806641 C 42.271855 25.773049 42.541705 25.728895 42.726562 25.697266 C 43.40403 25.581352 43.988157 25.480656 44.433594 25.400391 C 44.879031 25.320121 45.096211 25.287424 45.380859 25.212891 C 46.793814 24.842915 48 23.670995 48 22 C 48 20.360406 46.639594 19 45 19 L 31.191406 19 C 29.939611 17.01101 27.892202 15.573682 25.5 15.142578 L 25.5 8.5 A 1.50015 1.50015 0 0 0 23.976562 6.9785156 z M 24 18 C 27.055336 18 29.5 20.444666 29.5 23.5 C 29.5 26.555334 27.055336 29 24 29 C 20.944664 29 18.5 26.555334 18.5 23.5 C 18.5 20.444666 20.944664 18 24 18 z M 22.5 20 A 1.50015 1.50015 0 1 0 22.5 23 L 25.5 23 A 1.50015 1.50015 0 1 0 25.5 20 L 22.5 20 z M 3 22 L 15.642578 22 C 15.554582 22.488293 15.5 22.987281 15.5 23.5 C 15.5 23.790975 15.516036 24.077675 15.544922 24.361328 C 14.451088 24.182796 13.083431 23.961443 10.546875 23.541016 C 8.8483604 23.259491 7.124551 22.970406 5.7792969 22.740234 C 5.1066698 22.625148 4.5274929 22.524719 4.0976562 22.447266 C 3.6678196 22.369812 3.2967113 22.288513 3.3808594 22.310547 C 3.1898138 22.260522 3 21.985005 3 22 z M 32.357422 22 L 45 22 C 45 21.98501 44.810186 22.260522 44.619141 22.310547 C 44.703291 22.288517 44.33218 22.369807 43.902344 22.447266 C 43.472507 22.524716 42.89333 22.625148 42.220703 22.740234 C 40.875449 22.970406 39.15164 23.259491 37.453125 23.541016 C 34.916569 23.961443 33.548912 24.182796 32.455078 24.361328 C 32.483964 24.077675 32.5 23.790975 32.5 23.5 C 32.5 22.987281 32.445418 22.488293 32.357422 22 z M 9.5 27 C 10.346499 27 11 27.653501 11 28.5 C 11 29.346499 10.346499 30 9.5 30 C 8.6535009 30 8 29.346499 8 28.5 C 8 27.653501 8.6535009 27 9.5 27 z M 38.5 27 C 39.346499 27 40 27.653501 40 28.5 C 40 29.346499 39.346499 30 38.5 30 C 37.653501 30 37 29.346499 37 28.5 C 37 27.653501 37.653501 27 38.5 27 z"/></svg>