<svg width="16" height="16" viewBox="0 0 16 16" fill="none" xmlns="http://www.w3.org/2000/svg">
<path d="M10.4924 3.66022C10.3599 3.66229 10.2336 3.71686 10.1413 3.81195C10.049 3.90705 9.99826 4.03488 10.0002 4.16738V5.14264C9.30663 4.24421 8.30746 3.66738 7.16683 3.66738C5.00162 3.66738 3.3335 5.73306 3.3335 8.16738C3.3335 10.6017 5.00162 12.6674 7.16683 12.6674C8.38119 12.6674 9.43858 12.0171 10.1336 11.017C10.2048 11.2986 10.2972 11.5285 10.3993 11.7071C10.508 11.8975 10.6252 12.0331 10.7248 12.1244C10.8244 12.2157 10.9435 12.2813 10.9435 12.2813C11.002 12.3146 11.0666 12.3358 11.1334 12.3435C11.2002 12.3513 11.2679 12.3454 11.3325 12.3264C11.397 12.3074 11.457 12.2755 11.5089 12.2327C11.5609 12.1899 11.6036 12.1371 11.6347 12.0774C11.6657 12.0177 11.6844 11.9524 11.6895 11.8853C11.6947 11.8182 11.6863 11.7508 11.6648 11.687C11.6433 11.6233 11.6092 11.5645 11.5645 11.5143C11.5197 11.464 11.4653 11.4233 11.4045 11.3946C11.4083 11.3963 11.4113 11.3973 11.4006 11.3874C11.3751 11.3641 11.3256 11.3123 11.2677 11.211C11.152 11.0084 11.0002 10.6007 11.0002 9.83405V8.16738V4.16738C11.0011 4.10046 10.9886 4.03402 10.9635 3.97202C10.9383 3.91001 10.9009 3.85369 10.8535 3.80639C10.8062 3.7591 10.7498 3.72179 10.6878 3.69668C10.6257 3.67157 10.5593 3.65917 10.4924 3.66022ZM7.16683 4.66738C8.68352 4.66738 10.0002 6.18342 10.0002 8.16738C10.0002 10.1513 8.68352 11.6674 7.16683 11.6674C5.65014 11.6674 4.3335 10.1513 4.3335 8.16738C4.3335 6.18342 5.65014 4.66738 7.16683 4.66738Z" fill="#1A1A1A"/>
</svg>
