<svg width="16" height="16" viewBox="0 0 16 16" fill="none" xmlns="http://www.w3.org/2000/svg">
<path d="M4.52588 1.00012C3.36327 0.989379 2.35659 1.68868 1.9113 2.68827L1.08903 2.894C0.840697 2.956 0.666504 3.17902 0.666504 3.43502C0.666504 3.58302 0.725249 3.72522 0.829915 3.82955L1.76546 4.7651C1.8145 4.97542 1.87968 5.17238 1.97249 5.35103C2.14154 5.67641 2.40449 5.91626 2.69775 6.1108C2.7844 9.40086 4.24302 11.3825 5.91325 12.3061C5.95694 12.3303 6.0009 12.351 6.04476 12.3738C6.04727 12.3791 6.04988 12.3843 6.05257 12.3894L6.85791 13.9995H5.49984C5.43358 13.9985 5.3678 14.0108 5.30632 14.0355C5.24483 14.0602 5.18887 14.0969 5.14169 14.1434C5.0945 14.1899 5.05703 14.2453 5.03146 14.3065C5.00589 14.3676 4.99272 14.4332 4.99272 14.4995C4.99272 14.5657 5.00589 14.6313 5.03146 14.6925C5.05703 14.7536 5.0945 14.809 5.14169 14.8556C5.18887 14.9021 5.24483 14.9388 5.30632 14.9635C5.3678 14.9882 5.43358 15.0004 5.49984 14.9995H7.6665C7.75169 14.9994 7.83546 14.9776 7.90986 14.9362C7.98426 14.8947 8.04683 14.8349 8.09163 14.7624C8.13643 14.69 8.16198 14.6073 8.16586 14.5222C8.16973 14.4371 8.1518 14.3524 8.11377 14.2762L7.4152 12.8797C7.77502 12.9622 8.12673 13.0078 8.45817 13.017C9.08687 13.0346 9.61423 12.9078 10.0558 12.67L13.8885 14.5861C14.5336 14.9086 15.3332 14.4139 15.3332 13.6928C15.3332 13.4436 15.2391 13.2029 15.0708 13.019L12.3013 9.93827C12.2119 7.56857 10.8755 6.06527 9.57145 5.21301C8.89699 4.77221 8.23409 4.48333 7.75244 4.28788C7.54232 4.20262 7.38768 4.14225 7.27067 4.09322C7.3208 2.49762 6.18789 1.01516 4.52588 1.00012ZM4.51676 1.99947C5.67314 2.00993 6.48425 3.1256 6.30192 4.30806C6.28604 4.41146 6.30494 4.50339 6.33447 4.5789C5.3452 5.01743 4.6665 6.00044 4.6665 7.16614C4.6665 8.58723 5.74232 9.56577 6.8527 10.1505C7.96308 10.7353 9.12996 10.9995 9.83317 10.9995C9.89943 11.0004 9.96521 10.9882 10.0267 10.9635C10.0882 10.9388 10.1441 10.9021 10.1913 10.8556C10.2385 10.809 10.276 10.7536 10.3015 10.6925C10.3271 10.6313 10.3403 10.5657 10.3403 10.4995C10.3403 10.4332 10.3271 10.3676 10.3015 10.3065C10.276 10.2453 10.2385 10.1899 10.1913 10.1434C10.1441 10.0969 10.0882 10.0602 10.0267 10.0355C9.96521 10.0108 9.89943 9.99853 9.83317 9.99947C9.43171 9.99947 8.26563 9.76369 7.31885 9.2651C6.37206 8.76651 5.6665 8.07838 5.6665 7.16614C5.6665 6.0828 6.4165 5.3328 7.49984 5.3328C7.54172 5.33326 7.5835 5.32844 7.62419 5.31848C8.04147 5.49614 8.5335 5.7293 9.02458 6.05025C10.2052 6.82189 11.3332 8.01427 11.3332 10.1661C11.3331 10.2897 11.3788 10.4089 11.4614 10.5008L14.3273 13.6876L10.3 11.6739C10.2127 11.6304 10.1147 11.6133 10.0179 11.6248C9.92106 11.6362 9.8297 11.6757 9.75505 11.7384C9.60746 11.8624 9.11178 12.0345 8.48617 12.017C7.86055 11.9996 7.10842 11.8245 6.39697 11.4311C4.97408 10.6442 3.6665 9.02447 3.6665 5.8328C3.66648 5.73991 3.64058 5.64886 3.59171 5.56986C3.54284 5.49086 3.47292 5.42703 3.38981 5.38554C3.12797 5.25462 2.97695 5.11421 2.86051 4.8901C2.74407 4.66598 2.6665 4.33248 2.6665 3.8328C2.6665 2.80849 3.48982 1.98998 4.51676 1.99947ZM4.1665 2.99947C4.0339 2.99947 3.90672 3.05215 3.81295 3.14592C3.71918 3.23969 3.6665 3.36686 3.6665 3.49947C3.6665 3.63208 3.71918 3.75926 3.81295 3.85302C3.90672 3.94679 4.0339 3.99947 4.1665 3.99947C4.29911 3.99947 4.42629 3.94679 4.52006 3.85302C4.61383 3.75926 4.6665 3.63208 4.6665 3.49947C4.6665 3.36686 4.61383 3.23969 4.52006 3.14592C4.42629 3.05215 4.29911 2.99947 4.1665 2.99947Z" fill="#1A1A1A"/>
</svg>
