<svg xmlns="http://www.w3.org/2000/svg"  viewBox="0 0 48 48" width="24px" height="24px"><path d="M 27.5 3 C 23.652437 3 21.298828 6.6035156 21.298828 6.6035156 A 1.50015 1.50015 0 0 0 21.275391 6.6367188 C 19.894817 5.6539583 18.157184 5 16 5 A 1.50015 1.50015 0 1 0 16 8 C 19.022643 8 20.351443 9.2183331 21.289062 11.060547 C 21.934153 12.328006 22.25101 13.929509 22.394531 15.472656 C 22.099055 15.34862 21.844855 15.240224 21.423828 15.072266 C 20.104178 14.545823 18.207402 14 15.25 14 C 9.6149486 14 5.1695593 18.812676 5 23.966797 A 1.50015 1.50015 0 0 0 5 24.017578 C 5 24.097258 5.0024063 24.294018 5.0039062 24.527344 C 5.0054063 24.76067 5.0058594 25.057423 5.0058594 25 A 1.50015 1.50015 0 0 0 5.0058594 25.019531 C 5.0766407 30.311276 6.6226569 35.209757 9.2050781 38.871094 C 11.787499 42.53243 15.511283 45 19.757812 45 L 20.021484 45 C 21.875999 45 23.13158 44.227102 24 43.529297 C 24.868241 44.227102 26.12239 45 27.976562 45 L 28.242188 45 C 32.488716 45 36.212501 42.53243 38.794922 38.871094 C 41.377343 35.209757 42.921405 30.311274 42.992188 25.019531 C 42.997388 24.803739 42.994494 24.746766 42.996094 24.517578 C 42.997028 24.381005 42.997447 24.316893 42.998047 24.220703 A 1.50015 1.50015 0 0 0 43 24.189453 L 43 24.140625 L 43 24 A 1.50015 1.50015 0 0 0 42.990234 23.849609 A 1.50015 1.50015 0 0 0 42.806641 23.283203 A 1.50015 1.50015 0 0 0 42.796875 23.265625 C 42.182148 18.446166 38.091465 14 32.75 14 C 29.792598 14 27.895822 14.545823 26.576172 15.072266 C 26.059302 15.278458 25.722404 15.426009 25.384766 15.564453 C 25.238508 14.143893 24.939469 12.612673 24.40625 11.119141 C 25.293822 11.607233 26.2907 12 27.5 12 C 31.347563 12 33.701172 8.3964844 33.701172 8.3964844 A 1.50015 1.50015 0 0 0 33.701172 6.6035156 C 33.701172 6.6035156 31.347563 3 27.5 3 z M 27.5 6 C 28.547857 6 29.57856 6.7974066 30.347656 7.5 C 29.57856 8.2025934 28.547857 9 27.5 9 C 26.452143 9 25.42144 8.2025934 24.652344 7.5 C 25.42144 6.7974066 26.452143 6 27.5 6 z M 15.25 17 C 17.860598 17 19.2119 17.420317 20.3125 17.859375 C 21.268266 18.240655 22.172664 18.768109 23.412109 18.900391 A 1.50015 1.50015 0 0 0 24.591797 18.900391 C 25.829215 18.767411 26.73275 18.24025 27.6875 17.859375 C 28.7881 17.420317 30.139402 17 32.75 17 C 36.561579 17 39.88078 20.815206 39.998047 24.232422 C 39.997469 24.331382 39.996994 24.371704 39.996094 24.498047 C 39.994494 24.734941 39.989041 25.160156 39.994141 24.960938 A 1.50015 1.50015 0 0 0 39.992188 24.980469 C 39.92911 29.706727 38.519079 34.058414 36.34375 37.142578 C 34.168421 40.226742 31.332657 42 28.242188 42 L 27.976562 42 C 26.805647 42 25.078125 40.515625 25.078125 40.515625 A 1.50015 1.50015 0 0 0 22.921875 40.515625 C 22.921875 40.515625 21.193841 42 20.021484 42 L 19.757812 42 C 16.667343 42 13.831579 40.226742 11.65625 37.142578 C 9.4809213 34.058414 8.0690774 29.706726 8.0058594 24.980469 C 8.005745 24.88277 8.0053464 24.731734 8.0039062 24.507812 C 8.0025562 24.297861 8.0002507 24.099361 8 24.066406 L 8 24.064453 C 8.1135655 20.647155 11.399746 17 15.25 17 z M 20.5 25 C 20.5 25 19 26.343 19 28 C 19 29.657 20.5 31 20.5 31 C 20.5 31 22 29.657 22 28 C 22 26.343 20.5 25 20.5 25 z M 27.5 25 C 27.5 25 26 26.343 26 28 C 26 29.657 27.5 31 27.5 31 C 27.5 31 29 29.657 29 28 C 29 26.343 27.5 25 27.5 25 z"/></svg>