<svg xmlns="http://www.w3.org/2000/svg"  viewBox="0 0 48 48" width="24px" height="24px"><path d="M 27.5 3 C 23.652437 3 21.298828 6.6035156 21.298828 6.6035156 A 1.50015 1.50015 0 0 0 21.275391 6.6367188 C 19.894817 5.6539583 18.157184 5 16 5 A 1.50015 1.50015 0 1 0 16 8 C 19.022643 8 20.351443 9.2183331 21.289062 11.060547 C 21.934153 12.328006 22.25101 13.929509 22.394531 15.472656 C 22.099055 15.34862 21.844855 15.240224 21.423828 15.072266 C 20.104178 14.545823 18.207402 14 15.25 14 C 14.506617 14 13.78626 14.09205 13.099609 14.251953 A 1.50015 1.50015 0 0 0 12.5 16.880859 C 13.415726 17.616359 14 18.728977 14 20 C 14 20.696531 13.824805 21.340653 13.515625 21.910156 A 1.50015 1.50015 0 0 0 13.646484 23.541016 C 14.495768 24.642392 15 26.003229 15 27.5 C 15 30.984976 12.292281 33.793012 8.859375 33.980469 A 1.50015 1.50015 0 0 0 7.5976562 36.144531 C 10.153084 41.296137 14.530919 45 19.757812 45 L 20.021484 45 C 21.875999 45 23.13158 44.227102 24 43.529297 C 24.868241 44.227102 26.12239 45 27.976562 45 L 28.242188 45 C 32.488716 45 36.212501 42.53243 38.794922 38.871094 C 41.377343 35.209757 42.921405 30.311274 42.992188 25.019531 C 42.993488 24.968171 42.993741 24.955031 42.994141 24.910156 C 42.994604 24.852456 42.995494 24.776873 42.996094 24.693359 C 42.997194 24.526332 42.997008 24.32882 42.998047 24.189453 A 1.50015 1.50015 0 0 0 42.998047 24.126953 C 42.821211 18.978772 38.416622 14 32.75 14 C 29.792598 14 27.895822 14.545823 26.576172 15.072266 C 26.059302 15.278458 25.722404 15.426009 25.384766 15.564453 C 25.238508 14.143893 24.939469 12.612673 24.40625 11.119141 C 25.293822 11.607233 26.2907 12 27.5 12 C 31.347563 12 33.701172 8.3964844 33.701172 8.3964844 A 1.50015 1.50015 0 0 0 33.701172 6.6035156 C 33.701172 6.6035156 31.347563 3 27.5 3 z M 27.5 6 C 28.547857 6 29.57856 6.7974066 30.347656 7.5 C 29.57856 8.2025934 28.547857 9 27.5 9 C 26.452143 9 25.42144 8.2025934 24.652344 7.5 C 25.42144 6.7974066 26.452143 6 27.5 6 z M 32.75 17 C 36.560698 17 39.881572 20.811166 40 24.228516 C 40 24.228516 40 24.230469 40 24.230469 C 39.999069 24.365616 39.997094 24.528361 39.996094 24.673828 C 39.995533 24.756818 39.994641 24.831667 39.994141 24.886719 C 39.993698 24.941769 39.990041 25.067785 39.994141 24.949219 A 1.50015 1.50015 0 0 0 39.992188 24.980469 C 39.929057 29.706679 38.519079 34.058414 36.34375 37.142578 C 34.168421 40.226742 31.332657 42 28.242188 42 L 27.976562 42 C 26.805647 42 25.078125 40.515625 25.078125 40.515625 A 1.50015 1.50015 0 0 0 22.921875 40.515625 C 22.921875 40.515625 21.193841 42 20.021484 42 L 19.757812 42 C 16.461365 42 13.472276 39.858525 11.28125 36.40625 C 15.133109 35.195103 18 31.739963 18 27.5 C 18 25.600788 17.355658 23.877994 16.392578 22.394531 C 16.680727 21.627089 17 20.86377 17 20 C 17 18.959304 16.737354 17.982994 16.326172 17.091797 C 18.147099 17.202288 19.403075 17.496582 20.3125 17.859375 C 21.268266 18.240655 22.172664 18.768109 23.412109 18.900391 A 1.50015 1.50015 0 0 0 24.591797 18.900391 C 25.829215 18.767411 26.73275 18.24025 27.6875 17.859375 C 28.7881 17.420317 30.139402 17 32.75 17 z"/></svg>