<svg xmlns="http://www.w3.org/2000/svg"  viewBox="0 0 48 48" width="24px" height="24px"><path d="M 10.5 6 C 10.311158 6 10.123459 6.0106094 9.9394531 6.0292969 C 7.3546484 6.2927266 5.2927266 8.3546484 5.0292969 10.939453 C 5.0292969 10.939453 5.0292969 10.941406 5.0292969 10.941406 C 5.0106094 11.125412 5 11.311158 5 11.5 L 5 13.5 L 5 36.5 C 5 39.519774 7.4802259 42 10.5 42 L 37.5 42 C 40.519774 42 43 39.519774 43 36.5 L 43 13.5 L 43 11.5 C 43 11.311264 42.989606 11.1235 42.970703 10.939453 C 42.707273 8.3546484 40.643398 6.2927266 38.058594 6.0292969 C 37.874547 6.0103939 37.688736 6 37.5 6 L 10.5 6 z M 10.5 9 C 11.328 9 12 9.672 12 10.5 C 12 11.328 11.328 12 10.5 12 C 9.672 12 9 11.328 9 10.5 C 9 9.672 9.672 9 10.5 9 z M 15.5 9 C 16.328 9 17 9.672 17 10.5 C 17 11.328 16.328 12 15.5 12 C 14.672 12 14 11.328 14 10.5 C 14 9.672 14.672 9 15.5 9 z M 21.5 9 L 37.5 9 C 38.328 9 39 9.672 39 10.5 C 39 11.328 38.328 12 37.5 12 L 21.5 12 C 20.672 12 20 11.328 20 10.5 C 20 9.672 20.672 9 21.5 9 z M 8 15 L 40 15 L 40 36.5 C 40 37.898226 38.898226 39 37.5 39 L 10.5 39 C 9.1017741 39 8 37.898226 8 36.5 L 8 15 z M 16 21 C 14.895 21 14 21.895 14 23 L 14 24 C 14 25.105 14.895 26 16 26 L 17 26 C 18.105 26 19 25.105 19 24 L 19 23 C 19 21.895 18.105 21 17 21 L 16 21 z M 23.5 21 C 23.361875 21 23.227881 21.014385 23.097656 21.041016 C 22.186084 21.227432 21.5 22.033125 21.5 23 L 21.5 24 C 21.5 25.105 22.395 26 23.5 26 L 24.5 26 C 25.605 26 26.5 25.105 26.5 24 L 26.5 23 C 26.5 21.895 25.605 21 24.5 21 L 23.5 21 z M 31 21 C 30.861875 21 30.727881 21.014385 30.597656 21.041016 C 29.686084 21.227432 29 22.033125 29 23 L 29 24 C 29 25.105 29.895 26 31 26 L 32 26 C 33.105 26 34 25.105 34 24 L 34 23 C 34 21.895 33.105 21 32 21 L 31 21 z M 16 28 C 14.895 28 14 28.895 14 30 L 14 31 C 14 32.105 14.895 33 16 33 L 17 33 C 18.105 33 19 32.105 19 31 L 19 30 C 19 28.895 18.105 28 17 28 L 16 28 z M 23.5 28 C 22.395 28 21.5 28.895 21.5 30 L 21.5 31 C 21.5 32.105 22.395 33 23.5 33 L 24.5 33 C 25.605 33 26.5 32.105 26.5 31 L 26.5 30 C 26.5 28.895 25.605 28 24.5 28 L 23.5 28 z M 31 28 C 29.895 28 29 28.895 29 30 L 29 31 C 29 32.105 29.895 33 31 33 L 32 33 C 33.105 33 34 32.105 34 31 L 34 30 C 34 28.895 33.105 28 32 28 L 31 28 z"/></svg>