<svg width="16" height="16" viewBox="0 0 16 16" fill="none" xmlns="http://www.w3.org/2000/svg">
<path d="M11.4946 4.32812C11.3951 4.32815 11.2979 4.35786 11.2154 4.41346C11.1328 4.46906 11.0688 4.54801 11.0314 4.64022C10.994 4.73243 10.9849 4.83371 11.0054 4.93108C11.0259 5.02846 11.0749 5.11751 11.1463 5.18685L13.6261 7.66667H6.1665C6.10025 7.66573 6.03447 7.67797 5.97298 7.70268C5.9115 7.72738 5.85554 7.76406 5.80835 7.81059C5.76117 7.85711 5.7237 7.91255 5.69813 7.97367C5.67255 8.0348 5.65938 8.1004 5.65938 8.16667C5.65938 8.23293 5.67255 8.29853 5.69813 8.35966C5.7237 8.42079 5.76117 8.47622 5.80835 8.52275C5.85554 8.56927 5.9115 8.60595 5.97298 8.63066C6.03447 8.65536 6.10025 8.6676 6.1665 8.66667H13.6261L11.1463 11.1465C11.0983 11.1926 11.06 11.2477 11.0336 11.3088C11.0072 11.3699 10.9933 11.4356 10.9926 11.5021C10.9919 11.5686 11.0046 11.6346 11.0297 11.6962C11.0548 11.7578 11.092 11.8137 11.1391 11.8608C11.1861 11.9078 11.242 11.945 11.3036 11.9701C11.3652 11.9953 11.4312 12.0079 11.4977 12.0072C11.5643 12.0065 11.63 11.9926 11.691 11.9662C11.7521 11.9398 11.8073 11.9015 11.8534 11.8535L15.1867 8.52018C15.2804 8.42641 15.3331 8.29925 15.3331 8.16667C15.3331 8.03408 15.2804 7.90692 15.1867 7.81315L11.8534 4.47982C11.8067 4.43182 11.751 4.39367 11.6894 4.36761C11.6277 4.34155 11.5615 4.32813 11.4946 4.32812ZM1.1665 7.66667C1.0339 7.66667 0.906719 7.71935 0.812951 7.81311C0.719182 7.90688 0.666504 8.03406 0.666504 8.16667C0.666504 8.29928 0.719182 8.42645 0.812951 8.52022C0.906719 8.61399 1.0339 8.66667 1.1665 8.66667C1.29911 8.66667 1.42629 8.61399 1.52006 8.52022C1.61383 8.42645 1.6665 8.29928 1.6665 8.16667C1.6665 8.03406 1.61383 7.90688 1.52006 7.81311C1.42629 7.71935 1.29911 7.66667 1.1665 7.66667ZM2.83317 7.66667C2.70056 7.66667 2.57339 7.71935 2.47962 7.81311C2.38585 7.90688 2.33317 8.03406 2.33317 8.16667C2.33317 8.29928 2.38585 8.42645 2.47962 8.52022C2.57339 8.61399 2.70056 8.66667 2.83317 8.66667C2.96578 8.66667 3.09296 8.61399 3.18672 8.52022C3.28049 8.42645 3.33317 8.29928 3.33317 8.16667C3.33317 8.03406 3.28049 7.90688 3.18672 7.81311C3.09296 7.71935 2.96578 7.66667 2.83317 7.66667ZM4.49984 7.66667C4.36723 7.66667 4.24005 7.71935 4.14628 7.81311C4.05252 7.90688 3.99984 8.03406 3.99984 8.16667C3.99984 8.29928 4.05252 8.42645 4.14628 8.52022C4.24005 8.61399 4.36723 8.66667 4.49984 8.66667C4.63245 8.66667 4.75962 8.61399 4.85339 8.52022C4.94716 8.42645 4.99984 8.29928 4.99984 8.16667C4.99984 8.03406 4.94716 7.90688 4.85339 7.81311C4.75962 7.71935 4.63245 7.66667 4.49984 7.66667Z" fill="#1A1A1A"/>
</svg>
