<svg xmlns="http://www.w3.org/2000/svg"  viewBox="0 0 48 48" width="24px" height="24px"><path d="M 23.976562 2.9785156 A 1.50015 1.50015 0 0 0 22.802734 3.5761719 L 17.939453 8.4394531 A 1.50015 1.50015 0 1 0 20.060547 10.560547 L 22.5 8.1210938 L 22.5 15.5 A 1.50015 1.50015 0 1 0 25.5 15.5 L 25.5 8.1210938 L 27.939453 10.560547 A 1.50015 1.50015 0 1 0 30.060547 8.4394531 L 25.189453 3.5683594 A 1.50015 1.50015 0 0 0 23.976562 2.9785156 z M 38.484375 17.484375 A 1.50015 1.50015 0 0 0 37.439453 20.060547 L 39.878906 22.5 L 32.5 22.5 A 1.50015 1.50015 0 1 0 32.5 25.5 L 39.878906 25.5 L 37.439453 27.939453 A 1.50015 1.50015 0 1 0 39.560547 30.060547 L 44.431641 25.189453 A 1.50015 1.50015 0 0 0 44.423828 22.802734 L 39.560547 17.939453 A 1.50015 1.50015 0 0 0 38.484375 17.484375 z M 9.4707031 17.486328 A 1.50015 1.50015 0 0 0 8.4394531 17.939453 L 3.5683594 22.810547 A 1.50015 1.50015 0 0 0 3.5761719 25.197266 L 8.4394531 30.060547 A 1.50015 1.50015 0 1 0 10.560547 27.939453 L 8.1210938 25.5 L 15.5 25.5 A 1.50015 1.50015 0 1 0 15.5 22.5 L 8.1210938 22.5 L 10.560547 20.060547 A 1.50015 1.50015 0 0 0 9.4707031 17.486328 z M 24 19 C 22.458334 19 21.112148 19.632133 20.253906 20.597656 C 19.395664 21.563179 19 22.791667 19 24 C 19 25.208333 19.395664 26.436821 20.253906 27.402344 C 21.112148 28.367867 22.458334 29 24 29 C 25.541666 29 26.887852 28.367867 27.746094 27.402344 C 28.604336 26.436821 29 25.208333 29 24 C 29 22.791667 28.604336 21.563179 27.746094 20.597656 C 26.887852 19.632133 25.541666 19 24 19 z M 24 22 C 24.791666 22 25.195482 22.242867 25.503906 22.589844 C 25.81233 22.936821 26 23.458333 26 24 C 26 24.541667 25.81233 25.063179 25.503906 25.410156 C 25.195482 25.757133 24.791666 26 24 26 C 23.208334 26 22.804518 25.757133 22.496094 25.410156 C 22.18767 25.063179 22 24.541667 22 24 C 22 23.458333 22.18767 22.936821 22.496094 22.589844 C 22.804518 22.242867 23.208334 22 24 22 z M 23.976562 30.978516 A 1.50015 1.50015 0 0 0 22.5 32.5 L 22.5 39.878906 L 20.060547 37.439453 A 1.50015 1.50015 0 1 0 17.939453 39.560547 L 22.810547 44.431641 A 1.50015 1.50015 0 0 0 25.197266 44.423828 L 30.060547 39.560547 A 1.50015 1.50015 0 1 0 27.939453 37.439453 L 25.5 39.878906 L 25.5 32.5 A 1.50015 1.50015 0 0 0 23.976562 30.978516 z"/></svg>