<svg xmlns="http://www.w3.org/2000/svg"  viewBox="0 0 48 48" width="24px" height="24px"><path d="M 11.5 7 C 8.4802259 7 6 9.4802259 6 12.5 L 6 36.5 C 6 39.519774 8.4802259 42 11.5 42 L 36.5 42 C 39.519774 42 42 39.519774 42 36.5 L 42 12.5 C 42 9.4802259 39.519774 7 36.5 7 L 11.5 7 z M 11.5 10 L 36.5 10 C 37.898226 10 39 11.101774 39 12.5 L 39 36.5 C 39 37.898226 37.898226 39 36.5 39 L 11.5 39 C 10.101774 39 9 37.898226 9 36.5 L 9 12.5 C 9 11.101774 10.101774 10 11.5 10 z M 23.476562 11.978516 A 1.50015 1.50015 0 0 0 22 13.5 L 22 15.101562 C 19.222969 15.36892 17 17.657171 17 20.5 C 17 23.519774 19.480226 26 22.5 26 L 25.5 26 C 26.898226 26 28 27.101774 28 28.5 C 28 29.898226 26.898226 31 25.5 31 L 23.746094 31 A 1.50015 1.50015 0 0 0 23.259766 31 L 22.5 31 C 21.322258 31 20.358942 30.20345 20.080078 29.132812 A 1.50015 1.50015 0 1 0 17.177734 29.888672 C 17.752415 32.095033 19.686351 33.697787 22 33.916016 L 22 35.5 A 1.50015 1.50015 0 1 0 25 35.5 L 25 34 L 25.5 34 C 28.519774 34 31 31.519774 31 28.5 C 31 25.480226 28.519774 23 25.5 23 L 22.5 23 C 21.101774 23 20 21.898226 20 20.5 C 20 19.101774 21.101774 18 22.5 18 L 23.253906 18 A 1.50015 1.50015 0 0 0 23.740234 18 L 24.5 18 C 25.669144 18 26.62787 18.786788 26.914062 19.845703 A 1.5002527 1.5002527 0 1 0 29.810547 19.0625 C 29.220588 16.879651 27.296986 15.300333 25 15.083984 L 25 13.5 A 1.50015 1.50015 0 0 0 23.476562 11.978516 z"/></svg>