<svg xmlns="http://www.w3.org/2000/svg"  viewBox="0 0 48 48" width="24px" height="24px"><path d="M 13 1.859375 C 12.80775 1.859375 12.616234 1.9465469 12.490234 2.1230469 C 11.633234 3.3250469 10 5.778 10 7 C 10 8.657 11.343 10 13 10 C 14.657 10 16 8.657 16 7 C 16 5.778 14.367719 3.3250469 13.511719 2.1230469 C 13.385719 1.9465469 13.19225 1.859375 13 1.859375 z M 13 10 L 11.5 10 C 10.136406 10 9 11.136406 9 12.5 L 9 18.039062 C 7.2014064 19.199096 6 21.214942 6 23.5 L 6 25.177734 A 1.50015 1.50015 0 0 0 6 25.712891 L 6 35.5 C 6 39.071938 8.9280619 42 12.5 42 L 35.5 42 C 39.071938 42 42 39.071938 42 35.5 L 42 25.714844 A 1.50015 1.50015 0 0 0 42 25.175781 L 42 23.5 C 42 21.214942 40.798594 19.199096 39 18.039062 L 39 12.5 C 39 11.136406 37.863594 10 36.5 10 L 35 10 L 33.5 10 C 32.136406 10 31 11.136406 31 12.5 L 31 17 L 28 17 L 28 12.5 C 28 11.136406 26.863594 10 25.5 10 L 24 10 L 22.5 10 C 21.136406 10 20 11.136406 20 12.5 L 20 17 L 17 17 L 17 12.5 C 17 11.136406 15.863594 10 14.5 10 L 13 10 z M 24 10 C 25.657 10 27 8.657 27 7 C 27 5.778 25.367719 3.3250469 24.511719 2.1230469 C 24.259719 1.7700469 23.742234 1.7700469 23.490234 2.1230469 C 22.633234 3.3250469 21 5.778 21 7 C 21 8.657 22.343 10 24 10 z M 35 10 C 36.657 10 38 8.657 38 7 C 38 5.778 36.367719 3.3250469 35.511719 2.1230469 C 35.259719 1.7700469 34.742234 1.7700469 34.490234 2.1230469 C 33.633234 3.3250469 32 5.778 32 7 C 32 8.657 33.343 10 35 10 z M 12 13 L 14 13 L 14 17 L 12.5 17 C 12.331408 17 12.165483 17.012585 12 17.025391 L 12 13 z M 23 13 L 25 13 L 25 17 L 23 17 L 23 13 z M 34 13 L 36 13 L 36 17.025391 C 35.834517 17.012585 35.668592 17 35.5 17 L 34 17 L 34 13 z M 12.5 20 L 15.253906 20 A 1.50015 1.50015 0 0 0 15.740234 20 L 21.253906 20 A 1.50015 1.50015 0 0 0 21.740234 20 L 26.253906 20 A 1.50015 1.50015 0 0 0 26.740234 20 L 32.253906 20 A 1.50015 1.50015 0 0 0 32.740234 20 L 35.5 20 C 37.450062 20 39 21.549938 39 23.5 L 39 25.138672 C 38.700459 25.677995 37.749376 27 35.5 27 C 32.776632 27 31.952142 25.046969 31.90625 24.935547 A 1.50015 1.50015 0 0 0 30.724609 23.998047 A 1.50015 1.50015 0 0 0 30.628906 23.988281 A 1.50015 1.50015 0 0 0 30.542969 23.982422 A 1.50015 1.50015 0 0 0 30.392578 23.986328 A 1.50015 1.50015 0 0 0 29.169922 24.775391 C 29.150512 24.809111 28.923403 25.216716 28.138672 25.785156 C 27.322404 26.376521 26.040501 27 24 27 C 21.959499 27 20.677596 26.37644 19.861328 25.785156 C 19.078098 25.217804 18.852346 24.812579 18.832031 24.777344 A 1.50015 1.50015 0 0 0 17.568359 23.982422 A 1.50015 1.50015 0 0 0 17.5625 23.982422 A 1.50015 1.50015 0 0 0 17.560547 23.982422 A 1.50015 1.50015 0 0 0 17.529297 23.980469 A 1.50015 1.50015 0 0 0 17.4375 23.984375 A 1.50015 1.50015 0 0 0 17.412109 23.984375 A 1.50015 1.50015 0 0 0 17.400391 23.986328 A 1.50015 1.50015 0 0 0 17.351562 23.990234 A 1.50015 1.50015 0 0 0 17.230469 24.005859 A 1.50015 1.50015 0 0 0 16.09375 24.9375 C 16.046869 25.051207 15.221675 27 12.5 27 C 10.250624 27 9.2995412 25.677995 9 25.138672 L 9 23.5 C 9 21.549938 10.549938 20 12.5 20 z M 17.621094 27.71875 C 17.859858 27.947547 17.782516 27.983733 18.101562 28.214844 C 19.356046 29.12356 21.323501 30 24 30 C 26.676499 30 28.643955 29.12356 29.898438 28.214844 C 30.217485 27.983733 30.140142 27.947547 30.378906 27.71875 C 31.366928 28.8237 32.877762 30 35.5 30 C 36.919101 30 38.077078 29.606487 39 29.070312 L 39 35.5 C 39 37.450062 37.450062 39 35.5 39 L 12.5 39 C 10.549938 39 9 37.450062 9 35.5 L 9 29.070312 C 9.922922 29.606487 11.080899 30 12.5 30 C 15.122238 30 16.633072 28.8237 17.621094 27.71875 z"/></svg>