<svg xmlns="http://www.w3.org/2000/svg"  viewBox="0 0 48 48" width="24px" height="24px"><path d="M 14 5.0078125 C 10.925805 5.0078186 7.852227 6.1765 5.515625 8.5136719 C 3.1779554 10.851341 2.0008111 13.932257 2.0019531 17.001953 C 2.0030931 20.069189 3.1803167 23.147927 5.515625 25.484375 C 6.5479603 26.51732 8.2341588 27.739871 10.101562 29.220703 C 11.968967 30.701535 13.971787 32.389402 15.371094 33.988281 C 18.597202 37.675263 19.535156 41.826172 19.535156 41.826172 A 1.50015 1.50015 0 0 0 21.371094 42.953125 C 21.371094 42.953125 27.459081 41.408187 33.566406 37.445312 C 39.673731 33.482439 46 26.887644 46 17.003906 C 46 13.934954 44.82417 10.853467 42.486328 8.515625 C 37.812194 3.8414909 30.188829 3.8412812 25.515625 8.515625 C 24.867295 9.1633249 24.442997 9.8739075 24 10.560547 C 23.55701 9.8735221 23.134463 9.1618063 22.486328 8.5136719 C 20.149261 6.1766048 17.074195 5.0078064 14 5.0078125 z M 14 7.9902344 C 16.300055 7.9902405 18.601301 8.8708323 20.365234 10.634766 C 21.547036 11.816568 22.628906 14.107422 22.628906 14.107422 A 1.50015 1.50015 0 0 0 25.371094 14.107422 C 25.371094 14.107422 26.454679 11.817183 27.636719 10.636719 C 31.163515 7.1090622 36.837368 7.1088525 40.365234 10.636719 C 42.129392 12.400877 43 14.696859 43 17.003906 C 43 25.617168 37.576269 31.268312 31.933594 34.929688 C 27.333038 37.914861 23.482662 39.150133 21.935547 39.609375 C 21.438397 38.001238 20.406612 35.186239 17.628906 32.011719 C 15.992213 30.141598 13.879393 28.387762 11.966797 26.871094 C 10.054201 25.354426 8.2963835 24.023336 7.6367188 23.363281 C 5.874027 21.599729 5.0028112 19.306717 5.0019531 17.001953 C 5.0010951 14.695649 5.8723883 12.399096 7.6367188 10.634766 C 9.4001167 8.8709371 11.699945 7.9902282 14 7.9902344 z"/></svg>