<svg xmlns="http://www.w3.org/2000/svg"  viewBox="0 0 48 48" width="24px" height="24px"><path d="M 24 4 C 19.599415 4 16 7.599415 16 12 C 16 13.461669 16.415588 14.818349 17.105469 16 L 11.5 16 C 8.4802259 16 6 18.480226 6 21.5 L 6 38.5 C 6 41.519774 8.4802259 44 11.5 44 L 36.5 44 C 39.519774 44 42 41.519774 42 38.5 L 42 21.5 C 42 18.480226 39.519774 16 36.5 16 L 30.894531 16 C 31.584412 14.818349 32 13.461669 32 12 C 32 7.599415 28.400585 4 24 4 z M 24 7 C 26.779415 7 29 9.220585 29 12 C 29 13.678123 28.133409 15.092316 26.875 16 L 21.125 16 C 19.866591 15.092316 19 13.678123 19 12 C 19 9.220585 21.220585 7 24 7 z M 11.5 19 L 36.5 19 C 37.898226 19 39 20.101774 39 21.5 L 39 38.5 C 39 39.898226 37.898226 41 36.5 41 L 33 41 L 33 37.5 C 33 35.585045 31.414955 34 29.5 34 L 18.5 34 C 16.585045 34 15 35.585045 15 37.5 L 15 41 L 11.5 41 C 10.101774 41 9 39.898226 9 38.5 L 9 21.5 C 9 20.101774 10.101774 19 11.5 19 z M 24 22 C 22.458334 22 21.112148 22.632133 20.253906 23.597656 C 19.395664 24.563179 19 25.791667 19 27 C 19 28.208333 19.395664 29.436821 20.253906 30.402344 C 21.112148 31.367867 22.458334 32 24 32 C 25.541666 32 26.887852 31.367867 27.746094 30.402344 C 28.604336 29.436821 29 28.208333 29 27 C 29 25.791667 28.604336 24.563179 27.746094 23.597656 C 26.887852 22.632133 25.541666 22 24 22 z M 24 25 C 24.791666 25 25.195482 25.242867 25.503906 25.589844 C 25.81233 25.936821 26 26.458333 26 27 C 26 27.541667 25.81233 28.063179 25.503906 28.410156 C 25.195482 28.757133 24.791666 29 24 29 C 23.208334 29 22.804518 28.757133 22.496094 28.410156 C 22.18767 28.063179 22 27.541667 22 27 C 22 26.458333 22.18767 25.936821 22.496094 25.589844 C 22.804518 25.242867 23.208334 25 24 25 z M 18.5 37 L 29.5 37 C 29.795045 37 30 37.204955 30 37.5 L 30 41 L 18 41 L 18 37.5 C 18 37.204955 18.204955 37 18.5 37 z"/></svg>