<svg xmlns="http://www.w3.org/2000/svg"  viewBox="0 0 48 48" width="24px" height="24px"><path d="M 14.5 4 C 11.480226 4 9 6.4802259 9 9.5 L 9 41.5 C 9 42.863594 10.136406 44 11.5 44 L 19.5 44 C 20.863594 44 22 42.863594 22 41.5 L 22 37.5 C 22 37.204955 22.204955 37 22.5 37 L 25.5 37 C 25.795045 37 26 37.204955 26 37.5 L 26 41.5 C 26 42.863594 27.136406 44 28.5 44 L 36.5 44 C 37.863594 44 39 42.863594 39 41.5 L 39 9.5 C 39 6.4802259 36.519774 4 33.5 4 L 14.5 4 z M 14.5 7 L 33.5 7 C 34.898226 7 36 8.1017741 36 9.5 L 36 41 L 29 41 L 29 37.5 C 29 35.585045 27.414955 34 25.5 34 L 22.5 34 C 20.585045 34 19 35.585045 19 37.5 L 19 41 L 12 41 L 12 9.5 C 12 8.1017741 13.101774 7 14.5 7 z M 16.5 10 A 1.50015 1.50015 0 1 0 16.5 13 L 17.5 13 A 1.50015 1.50015 0 1 0 17.5 10 L 16.5 10 z M 23.5 10 A 1.50015 1.50015 0 1 0 23.5 13 L 24.5 13 A 1.50015 1.50015 0 1 0 24.5 10 L 23.5 10 z M 30.5 10 A 1.50015 1.50015 0 1 0 30.5 13 L 31.5 13 A 1.50015 1.50015 0 1 0 31.5 10 L 30.5 10 z M 16.5 16 A 1.50015 1.50015 0 1 0 16.5 19 L 17.5 19 A 1.50015 1.50015 0 1 0 17.5 16 L 16.5 16 z M 23.5 16 A 1.50015 1.50015 0 1 0 23.5 19 L 24.5 19 A 1.50015 1.50015 0 1 0 24.5 16 L 23.5 16 z M 30.5 16 A 1.50015 1.50015 0 1 0 30.5 19 L 31.5 19 A 1.50015 1.50015 0 1 0 31.5 16 L 30.5 16 z M 16.5 22 A 1.50015 1.50015 0 1 0 16.5 25 L 17.5 25 A 1.50015 1.50015 0 1 0 17.5 22 L 16.5 22 z M 23.5 22 A 1.50015 1.50015 0 1 0 23.5 25 L 24.5 25 A 1.50015 1.50015 0 1 0 24.5 22 L 23.5 22 z M 30.5 22 A 1.50015 1.50015 0 1 0 30.5 25 L 31.5 25 A 1.50015 1.50015 0 1 0 31.5 22 L 30.5 22 z M 16.5 28 A 1.50015 1.50015 0 1 0 16.5 31 L 17.5 31 A 1.50015 1.50015 0 1 0 17.5 28 L 16.5 28 z M 23.5 28 A 1.50015 1.50015 0 1 0 23.5 31 L 24.5 31 A 1.50015 1.50015 0 1 0 24.5 28 L 23.5 28 z M 30.5 28 A 1.50015 1.50015 0 1 0 30.5 31 L 31.5 31 A 1.50015 1.50015 0 1 0 31.5 28 L 30.5 28 z"/></svg>