<svg xmlns="http://www.w3.org/2000/svg"  viewBox="0 0 48 48" width="24px" height="24px"><path d="M 14.5 6 C 10.375499 6 7 9.3754991 7 13.5 L 7 16.066406 A 1.50015 1.50015 0 0 0 6.4765625 15.978516 A 1.50015 1.50015 0 0 0 5 17.5 L 5 22.5 A 1.50015 1.50015 0 0 0 7 23.933594 L 7 35 L 7 36.5 L 7 41 C 7 42.105 7.895 43 9 43 L 10 43 C 11.105 43 12 42.105 12 41 L 36 41 C 36 42.105 36.895 43 38 43 L 39 43 C 40.105 43 41 42.105 41 41 L 41 36.5 L 41 35 L 41 23.933594 A 1.50015 1.50015 0 0 0 43 22.5 L 43 17.5 A 1.50015 1.50015 0 0 0 41.476562 15.978516 A 1.50015 1.50015 0 0 0 41 16.066406 L 41 13.5 C 41 9.3754991 37.624501 6 33.5 6 L 14.5 6 z M 14.5 9 L 33.5 9 C 36.003499 9 38 10.996501 38 13.5 L 38 25 L 10 25 L 10 13.5 C 10 10.996501 11.996501 9 14.5 9 z M 21.5 11 A 1.50015 1.50015 0 1 0 21.5 14 L 26.5 14 A 1.50015 1.50015 0 1 0 26.5 11 L 21.5 11 z M 10 28 L 38 28 L 38 36.5 C 38 37.346499 37.346499 38 36.5 38 L 11.5 38 C 10.653501 38 10 37.346499 10 36.5 L 10 28 z M 15 31 A 2 2 0 0 0 15 35 A 2 2 0 0 0 15 31 z M 33 31 A 2 2 0 0 0 33 35 A 2 2 0 0 0 33 31 z"/></svg>