<svg width="16" height="16" viewBox="0 0 16 16" fill="none" xmlns="http://www.w3.org/2000/svg">
<path d="M12.4753 2.02068C12.3673 2.01485 12.2586 2.03118 12.1536 2.06951L11.9967 2.12225L1.77995 5.72902C1.62661 5.78235 1.50016 5.8792 1.41016 5.9992H4.02669L11.3867 3.39894C11.5334 3.80894 11.9167 4.06561 12.3301 4.06561C12.4401 4.06561 12.5534 4.04896 12.6634 4.00896L13.3665 5.9992H14.4264L13.2734 2.73227L13.2168 2.57602C13.1435 2.36602 12.993 2.19938 12.7897 2.10271C12.6897 2.05438 12.5832 2.02652 12.4753 2.02068ZM11.474 5.36834C11.3872 5.36308 11.2978 5.37527 11.2103 5.4061C10.9503 5.49943 10.7835 5.7392 10.7702 5.9992H12.0964C12.0964 5.93587 12.0865 5.87568 12.0632 5.81235C11.9707 5.55235 11.7343 5.38412 11.474 5.36834ZM8.0332 5.38266C7.8632 5.38266 7.6901 5.41258 7.52344 5.46925C7.2301 5.57258 6.98331 5.7592 6.80664 5.9992H9.32682C8.99349 5.6092 8.51654 5.38266 8.0332 5.38266ZM2.5 6.9992C2.04547 6.9992 1.66667 7.378 1.66667 7.83253V13.1659C1.66667 13.6204 2.04547 13.9992 2.5 13.9992H13.5C13.9545 13.9992 14.3333 13.6204 14.3333 13.1659V7.83253C14.3333 7.378 13.9545 6.9992 13.5 6.9992H2.5ZM3.66667 7.9992H12.3333C12.3333 8.55153 12.781 8.9992 13.3333 8.9992V11.9992C12.781 11.9992 12.3333 12.4469 12.3333 12.9992H3.66667C3.66667 12.4469 3.219 11.9992 2.66667 11.9992V8.9992C3.219 8.9992 3.66667 8.55153 3.66667 7.9992ZM8 8.66587C7.07967 8.66587 6.33333 9.48653 6.33333 10.4992C6.33333 11.5119 7.07967 12.3325 8 12.3325C8.92033 12.3325 9.66667 11.5119 9.66667 10.4992C9.66667 9.48653 8.92033 8.66587 8 8.66587ZM8 9.66587C8.36133 9.66587 8.66667 10.0475 8.66667 10.4992C8.66667 10.9509 8.36133 11.3325 8 11.3325C7.63867 11.3325 7.33333 10.9509 7.33333 10.4992C7.33333 10.0475 7.63867 9.66587 8 9.66587ZM4.5 9.83253C4.32319 9.83253 4.15362 9.90277 4.0286 10.0278C3.90357 10.1528 3.83333 10.3224 3.83333 10.4992C3.83333 10.676 3.90357 10.8456 4.0286 10.9706C4.15362 11.0956 4.32319 11.1659 4.5 11.1659C4.67681 11.1659 4.84638 11.0956 4.9714 10.9706C5.09643 10.8456 5.16667 10.676 5.16667 10.4992C5.16667 10.3224 5.09643 10.1528 4.9714 10.0278C4.84638 9.90277 4.67681 9.83253 4.5 9.83253ZM11.5 9.83253C11.3232 9.83253 11.1536 9.90277 11.0286 10.0278C10.9036 10.1528 10.8333 10.3224 10.8333 10.4992C10.8333 10.676 10.9036 10.8456 11.0286 10.9706C11.1536 11.0956 11.3232 11.1659 11.5 11.1659C11.6768 11.1659 11.8464 11.0956 11.9714 10.9706C12.0964 10.8456 12.1667 10.676 12.1667 10.4992C12.1667 10.3224 12.0964 10.1528 11.9714 10.0278C11.8464 9.90277 11.6768 9.83253 11.5 9.83253Z" fill="#1A1A1A"/>
</svg>
