<svg xmlns="http://www.w3.org/2000/svg"  viewBox="0 0 48 48" width="24px" height="24px"><path d="M 18.5 3 C 16.203405 3 14.305701 4.7666235 14.050781 7 L 10.5 7 C 8.0324991 7 6 9.0324991 6 11.5 L 6 38.5 C 6 40.967501 8.0324991 43 10.5 43 L 23.5 43 L 37.5 43 C 39.967501 43 42 40.967501 42 38.5 L 42 21.5 C 42 19.203405 40.233377 17.305701 38 17.050781 L 38 11.5 C 38 9.0324991 35.967501 7 33.5 7 L 29.949219 7 C 29.694299 4.7666235 27.796595 3 25.5 3 L 18.5 3 z M 18.5 6 L 25.5 6 C 26.346499 6 27 6.6535009 27 7.5 C 27 8.3464991 26.346499 9 25.5 9 L 18.5 9 C 17.653501 9 17 8.3464991 17 7.5 C 17 6.6535009 17.653501 6 18.5 6 z M 10.5 10 L 14.769531 10 C 15.581237 11.2019 16.954719 12 18.5 12 L 25.5 12 C 27.045281 12 28.418763 11.2019 29.230469 10 L 33.5 10 C 34.346499 10 35 10.653501 35 11.5 L 35 17 L 23.5 17 C 21.032499 17 19 19.032499 19 21.5 L 19 38.5 C 19 39.027452 19.109157 39.527904 19.279297 40 L 10.5 40 C 9.6535009 40 9 39.346499 9 38.5 L 9 11.5 C 9 10.653501 9.6535009 10 10.5 10 z M 23.5 20 L 37.5 20 C 38.346499 20 39 20.653501 39 21.5 L 39 38.5 C 39 39.346499 38.346499 40 37.5 40 L 23.5 40 C 22.653501 40 22 39.346499 22 38.5 L 22 21.5 C 22 20.653501 22.653501 20 23.5 20 z M 26 23 C 25.448 23 25 23.448 25 24 L 25 26 C 25 26.552 25.448 27 26 27 L 35 27 C 35.552 27 36 26.552 36 26 L 36 24 C 36 23.448 35.552 23 35 23 L 26 23 z M 25.5 29 A 1.5 1.5 0 0 0 25.5 32 A 1.5 1.5 0 0 0 25.5 29 z M 30.5 29 A 1.5 1.5 0 0 0 30.5 32 A 1.5 1.5 0 0 0 30.5 29 z M 35.5 29 C 34.672 29 34 29.672 34 30.5 L 34 35.5 C 34 36.328 34.672 37 35.5 37 C 36.328 37 37 36.328 37 35.5 L 37 30.5 C 37 29.672 36.328 29 35.5 29 z M 25.5 34 A 1.5 1.5 0 0 0 25.5 37 A 1.5 1.5 0 0 0 25.5 34 z M 30.5 34 A 1.5 1.5 0 0 0 30.5 37 A 1.5 1.5 0 0 0 30.5 34 z"/></svg>