<svg xmlns="http://www.w3.org/2000/svg"  viewBox="0 0 48 48" width="24px" height="24px"><path d="M 16.335938 6 C 13.342225 6 10.720435 8.0626715 10.017578 10.972656 L 9.2851562 14 L 7.5 14 A 1.50015 1.50015 0 1 0 7.5 17 L 8.5605469 17 L 8.1308594 18.779297 C 6.8820636 19.582889 6 20.91886 6 22.5 L 6 35 L 6 35.5 L 6 39 C 6 40.105 6.895 41 8 41 L 10 41 C 11.105 41 12 40.105 12 39 L 12 37 L 36 37 L 36 39 C 36 40.105 36.895 41 38 41 L 40 41 C 41.105 41 42 40.105 42 39 L 42 35.5 L 42 35 L 42 22.5 C 42 20.91886 41.117936 19.582889 39.869141 18.779297 L 39.439453 17 L 40.5 17 A 1.50015 1.50015 0 1 0 40.5 14 L 38.714844 14 L 37.982422 10.972656 C 37.279565 8.0626715 34.657775 6 31.664062 6 L 16.335938 6 z M 16.335938 9 L 31.664062 9 C 33.288351 9 34.685264 10.099719 35.066406 11.677734 L 36.59375 18 L 11.40625 18 L 12.933594 11.677734 C 13.314736 10.099719 14.711649 9 16.335938 9 z M 10.5 21 L 37.5 21 C 38.346499 21 39 21.653501 39 22.5 L 39 34 L 9 34 L 9 22.5 C 9 21.653501 9.6535009 21 10.5 21 z M 14 24 A 2 2 0 0 0 14 28 A 2 2 0 0 0 14 24 z M 34 24 A 2 2 0 0 0 34 28 A 2 2 0 0 0 34 24 z M 20.5 28 A 1.50015 1.50015 0 1 0 20.5 31 L 27.5 31 A 1.50015 1.50015 0 1 0 27.5 28 L 20.5 28 z"/></svg>