<svg width="24" height="24" viewBox="0 0 24 24" fill="#0000008c" xmlns="http://www.w3.org/2000/svg">
<path d="M5.28808 2.5C5.08458 2.5 4.90489 2.62879 4.83789 2.82129L4.36621 4.19238H2.80273C2.59873 4.19238 2.41706 4.3231 2.35156 4.5166C2.28656 4.7101 2.35215 4.92435 2.51465 5.04785L3.78222 6.00879L3.35254 7.38184C3.29104 7.57884 3.36372 7.79311 3.53222 7.91211C3.70072 8.03161 3.92777 8.02927 4.09277 7.90527L5.28808 7.00977L6.4834 7.90527C6.5679 7.96827 6.66805 8 6.76855 8C6.86505 8 6.96144 7.97061 7.04394 7.91211C7.21244 7.79311 7.28513 7.57884 7.22363 7.38184L6.79492 6.00879L8.06152 5.04785C8.22452 4.92435 8.29011 4.70963 8.22461 4.51562C8.15961 4.32213 7.97794 4.19238 7.77344 4.19238H6.20996L5.73828 2.82129C5.67228 2.62929 5.49158 2.5 5.28808 2.5ZM10.25 4.5C10.1506 4.49859 10.0519 4.51696 9.95972 4.55402C9.86749 4.59108 9.78355 4.6461 9.71277 4.71588C9.64199 4.78566 9.58579 4.86882 9.54743 4.96051C9.50907 5.0522 9.48932 5.15061 9.48932 5.25C9.48932 5.34939 9.50907 5.4478 9.54743 5.53949C9.58579 5.63118 9.64199 5.71434 9.71277 5.78412C9.78355 5.8539 9.86749 5.90892 9.95972 5.94598C10.0519 5.98304 10.1506 6.00141 10.25 6H20.75C20.8494 6.00141 20.9481 5.98304 21.0403 5.94598C21.1325 5.90892 21.2164 5.8539 21.2872 5.78412C21.358 5.71434 21.4142 5.63118 21.4526 5.53949C21.4909 5.4478 21.5107 5.34939 21.5107 5.25C21.5107 5.15061 21.4909 5.0522 21.4526 4.96051C21.4142 4.86882 21.358 4.78566 21.2872 4.71588C21.2164 4.6461 21.1325 4.59108 21.0403 4.55402C20.9481 4.51696 20.8494 4.49859 20.75 4.5H10.25ZM5.28808 9.25098C5.08508 9.25098 4.90389 9.37929 4.83789 9.57129L4.36719 10.9424H2.80273C2.59873 10.9424 2.41706 11.0731 2.35156 11.2666C2.28656 11.4601 2.35262 11.6744 2.51562 11.7979L3.78222 12.7588L3.35351 14.1318C3.29201 14.3288 3.3647 14.5431 3.5332 14.6621C3.7017 14.7816 3.92777 14.7793 4.09277 14.6553L5.28808 13.7598L6.48437 14.6553C6.56887 14.7183 6.66903 14.75 6.76953 14.75C6.86553 14.75 6.96144 14.7206 7.04394 14.6621C7.21244 14.5431 7.28513 14.3288 7.22363 14.1318L6.79492 12.7588L8.06152 11.7979C8.22452 11.6744 8.28963 11.4601 8.22363 11.2666C8.15863 11.0731 7.97794 10.9424 7.77344 10.9424H6.20898L5.73828 9.57129C5.67228 9.37929 5.49158 9.25098 5.28808 9.25098ZM10.25 11.25C10.1506 11.2486 10.0519 11.267 9.95972 11.304C9.86749 11.3411 9.78355 11.3961 9.71277 11.4659C9.64199 11.5357 9.58579 11.6188 9.54743 11.7105C9.50907 11.8022 9.48932 11.9006 9.48932 12C9.48932 12.0994 9.50907 12.1978 9.54743 12.2895C9.58579 12.3812 9.64199 12.4643 9.71277 12.5341C9.78355 12.6039 9.86749 12.6589 9.95972 12.696C10.0519 12.733 10.1506 12.7514 10.25 12.75H20.75C20.8494 12.7514 20.9481 12.733 21.0403 12.696C21.1325 12.6589 21.2164 12.6039 21.2872 12.5341C21.358 12.4643 21.4142 12.3812 21.4526 12.2895C21.4909 12.1978 21.5107 12.0994 21.5107 12C21.5107 11.9006 21.4909 11.8022 21.4526 11.7105C21.4142 11.6188 21.358 11.5357 21.2872 11.4659C21.2164 11.3961 21.1325 11.3411 21.0403 11.304C20.9481 11.267 20.8494 11.2486 20.75 11.25H10.25ZM5.28808 16C5.08458 16 4.90489 16.1288 4.83789 16.3213L4.36621 17.6924H2.80273C2.59873 17.6924 2.41706 17.8231 2.35156 18.0166C2.28656 18.2101 2.35165 18.4244 2.51465 18.5479L3.78222 19.5088L3.35254 20.8818C3.29104 21.0788 3.36372 21.2931 3.53222 21.4121C3.70072 21.5316 3.92777 21.5293 4.09277 21.4053L5.28808 20.5098L6.4834 21.4053C6.5679 21.4683 6.66805 21.5 6.76855 21.5C6.86505 21.5 6.96144 21.4706 7.04394 21.4121C7.21244 21.2931 7.28513 21.0788 7.22363 20.8818L6.79492 19.5088L8.06152 18.5479C8.22452 18.4244 8.29011 18.2096 8.22461 18.0156C8.15961 17.8221 7.97794 17.6924 7.77344 17.6924H6.20996L5.73828 16.3213C5.67228 16.1293 5.49158 16 5.28808 16ZM10.25 18C10.1506 17.9986 10.0519 18.017 9.95972 18.054C9.86749 18.0911 9.78355 18.1461 9.71277 18.2159C9.64199 18.2857 9.58579 18.3688 9.54743 18.4605C9.50907 18.5522 9.48932 18.6506 9.48932 18.75C9.48932 18.8494 9.50907 18.9478 9.54743 19.0395C9.58579 19.1312 9.64199 19.2143 9.71277 19.2841C9.78355 19.3539 9.86749 19.4089 9.95972 19.446C10.0519 19.483 10.1506 19.5014 10.25 19.5H20.75C20.8494 19.5014 20.9481 19.483 21.0403 19.446C21.1325 19.4089 21.2164 19.3539 21.2872 19.2841C21.358 19.2143 21.4142 19.1312 21.4526 19.0395C21.4909 18.9478 21.5107 18.8494 21.5107 18.75C21.5107 18.6506 21.4909 18.5522 21.4526 18.4605C21.4142 18.3688 21.358 18.2857 21.2872 18.2159C21.2164 18.1461 21.1325 18.0911 21.0403 18.054C20.9481 18.017 20.8494 17.9986 20.75 18H10.25Z" />
</svg>
