<svg xmlns="http://www.w3.org/2000/svg"  viewBox="0 0 48 48" width="24px" height="24px"><path d="M 16.5 4 C 13.480226 4 11 6.4802259 11 9.5 L 11 38.5 C 11 41.519774 13.480226 44 16.5 44 L 31.5 44 C 34.519774 44 37 41.519774 37 38.5 L 37 9.5 C 37 6.4802259 34.519774 4 31.5 4 L 16.5 4 z M 16.5 7 L 31.5 7 C 32.898226 7 34 8.1017741 34 9.5 L 34 38 L 14 38 L 14 9.5 C 14 8.1017741 15.101774 7 16.5 7 z M 18.958984 16.988281 A 1.0001 1.0001 0 0 0 18.130859 18.496094 L 19.408203 20.730469 C 17.935283 22.011645 17 23.893664 17 26 C 17 27.104 17.895 28 19 28 L 24 28 L 29 28 C 30.105 28 31 27.104 31 26 C 31 23.893664 30.064717 22.011645 28.591797 20.730469 L 29.869141 18.496094 A 1.0001 1.0001 0 0 0 29.011719 16.988281 A 1.0001 1.0001 0 0 0 28.130859 17.503906 L 26.908203 19.644531 C 26.021637 19.239181 25.038691 19.008081 24 19.007812 C 22.961309 19.008081 21.978363 19.239181 21.091797 19.644531 L 19.869141 17.503906 A 1.0001 1.0001 0 0 0 18.958984 16.988281 z M 21 23 C 21.552 23 22 23.448 22 24 C 22 24.552 21.552 25 21 25 C 20.448 25 20 24.552 20 24 C 20 23.448 20.448 23 21 23 z M 27 23 C 27.552 23 28 23.448 28 24 C 28 24.552 27.552 25 27 25 C 26.448 25 26 24.552 26 24 C 26 23.448 26.448 23 27 23 z"/></svg>