<svg width="16" height="16" viewBox="0 0 16 16" fill="none" xmlns="http://www.w3.org/2000/svg">
<path d="M8.00016 1.66602C4.32426 1.66602 1.3335 4.65678 1.3335 8.33268V8.49935C1.3335 9.32185 2.011 9.99935 2.8335 9.99935C2.89244 9.99935 2.94291 9.97226 3.00016 9.9655V14.166C2.99923 14.2323 3.01147 14.2981 3.03617 14.3595C3.06088 14.421 3.09756 14.477 3.14408 14.5242C3.1906 14.5714 3.24604 14.6088 3.30717 14.6344C3.3683 14.66 3.4339 14.6731 3.50016 14.6731C3.56643 14.6731 3.63203 14.66 3.69316 14.6344C3.75428 14.6088 3.80972 14.5714 3.85624 14.5242C3.90276 14.477 3.93945 14.421 3.96415 14.3595C3.98886 14.2981 4.0011 14.2323 4.00016 14.166V9.49935C4.00052 9.46903 3.99813 9.43874 3.993 9.40885C4.19419 9.15345 4.3335 8.84635 4.3335 8.49935C4.33443 8.43309 4.32219 8.36731 4.29749 8.30583C4.27278 8.24434 4.2361 8.18838 4.18958 8.1412C4.14305 8.09401 4.08762 8.05654 4.02649 8.03097C3.96536 8.0054 3.89976 7.99223 3.8335 7.99223C3.76723 7.99223 3.70163 8.0054 3.6405 8.03097C3.57937 8.05654 3.52394 8.09401 3.47742 8.1412C3.43089 8.18838 3.39421 8.24434 3.36951 8.30583C3.3448 8.36731 3.33256 8.43309 3.3335 8.49935C3.3335 8.78152 3.11566 8.99935 2.8335 8.99935C2.55133 8.99935 2.3335 8.78152 2.3335 8.49935V8.33268C2.3335 5.19725 4.86473 2.66602 8.00016 2.66602C11.1356 2.66602 13.6668 5.19725 13.6668 8.33268V8.49935C13.6668 8.78152 13.449 8.99935 13.1668 8.99935C12.8847 8.99935 12.6668 8.78152 12.6668 8.49935C12.6678 8.43309 12.6555 8.36731 12.6308 8.30583C12.6061 8.24434 12.5694 8.18838 12.5229 8.1412C12.4764 8.09401 12.421 8.05654 12.3598 8.03097C12.2987 8.0054 12.2331 7.99223 12.1668 7.99223C12.1006 7.99223 12.035 8.0054 11.9738 8.03097C11.9127 8.05654 11.8573 8.09401 11.8107 8.1412C11.7642 8.18838 11.7275 8.24434 11.7028 8.30583C11.6781 8.36731 11.6659 8.43309 11.6668 8.49935C11.6668 8.84635 11.8061 9.15345 12.0073 9.40885C12.0022 9.43874 11.9998 9.46903 12.0002 9.49935V14.166C11.9992 14.2323 12.0115 14.2981 12.0362 14.3595C12.0609 14.421 12.0976 14.477 12.1441 14.5242C12.1906 14.5714 12.246 14.6088 12.3072 14.6344C12.3683 14.66 12.4339 14.6731 12.5002 14.6731C12.5664 14.6731 12.632 14.66 12.6932 14.6344C12.7543 14.6088 12.8097 14.5714 12.8562 14.5242C12.9028 14.477 12.9394 14.421 12.9642 14.3595C12.9889 14.2981 13.0011 14.2323 13.0002 14.166V9.9655C13.0574 9.97226 13.1079 9.99935 13.1668 9.99935C13.9893 9.99935 14.6668 9.32185 14.6668 8.49935V8.33268C14.6668 4.65678 11.6761 1.66602 8.00016 1.66602ZM5.66683 4.33268C5.15294 4.33268 4.70421 4.54339 4.41813 4.86523C4.13205 5.18708 4.00016 5.59657 4.00016 5.99935C4.00016 6.40213 4.13205 6.81162 4.41813 7.13346C4.63869 7.38159 4.95645 7.56243 5.32568 7.63281C5.27302 7.72296 5.22598 7.81506 5.18831 7.90885C4.8571 8.73359 5.00417 9.53266 5.18376 9.99284V9.99349C5.40027 10.5463 5.81925 10.9993 6.43311 10.9993C7.00181 10.9993 7.44992 10.6181 7.6486 10.2253C7.80385 9.91831 7.86849 9.61057 7.92139 9.32878C7.94796 9.32957 7.97319 9.33268 8.00016 9.33268C8.02736 9.33268 8.0528 9.32958 8.07959 9.32878C8.13224 9.61092 8.19641 9.91909 8.35172 10.2259C8.55058 10.6187 8.9986 10.9993 9.56722 10.9993C10.1811 10.9993 10.5988 10.5462 10.8159 9.99414L10.8166 9.99349V9.99284C10.9962 9.53266 11.1432 8.73359 10.812 7.90885C10.7743 7.81506 10.7273 7.72296 10.6746 7.63281C11.0439 7.56243 11.3616 7.38159 11.5822 7.13346C11.8683 6.81162 12.0002 6.40213 12.0002 5.99935C12.0002 5.59657 11.8683 5.18708 11.5822 4.86523C11.2961 4.54339 10.8474 4.33268 10.3335 4.33268C9.81961 4.33268 9.37088 4.54339 9.0848 4.86523C8.79872 5.18708 8.66683 5.59657 8.66683 5.99935C8.66683 6.1364 8.68814 6.27331 8.71956 6.4082C8.49861 6.3685 8.267 6.33843 8.01123 6.33268H8.00016H7.98909C7.73333 6.33843 7.50171 6.3685 7.28076 6.4082C7.31218 6.27331 7.3335 6.1364 7.3335 5.99935C7.3335 5.59657 7.20161 5.18708 6.91553 4.86523C6.62945 4.54339 6.18072 4.33268 5.66683 4.33268ZM5.66683 5.33268C5.93072 5.33268 6.06532 5.41364 6.16813 5.5293C6.27094 5.64496 6.3335 5.81879 6.3335 5.99935C6.3335 6.1799 6.27094 6.35374 6.16813 6.4694C6.06532 6.58506 5.93072 6.66602 5.66683 6.66602C5.40294 6.66602 5.26834 6.58506 5.16553 6.4694C5.06272 6.35374 5.00016 6.1799 5.00016 5.99935C5.00016 5.81879 5.06272 5.64496 5.16553 5.5293C5.26834 5.41364 5.40294 5.33268 5.66683 5.33268ZM10.3335 5.33268C10.5974 5.33268 10.732 5.41364 10.8348 5.5293C10.9376 5.64496 11.0002 5.81879 11.0002 5.99935C11.0002 6.1799 10.9376 6.35374 10.8348 6.4694C10.732 6.58506 10.5974 6.66602 10.3335 6.66602C10.0696 6.66602 9.935 6.58506 9.83219 6.4694C9.72939 6.35374 9.66683 6.1799 9.66683 5.99935C9.66683 5.81879 9.72939 5.64496 9.83219 5.5293C9.935 5.41364 10.0696 5.33268 10.3335 5.33268ZM8.00016 7.33398C9.29137 7.36587 9.69108 7.80179 9.88363 8.28125C10.0767 8.76208 9.96667 9.41904 9.88493 9.62891V9.62956C9.78219 9.88785 9.53809 9.99935 9.56722 9.99935C9.3525 9.99935 9.3407 9.96451 9.2443 9.77409C9.16437 9.61618 9.10401 9.3506 9.04899 9.07292C9.22443 8.96004 9.3335 8.82012 9.3335 8.66602C9.3335 8.29768 8.73683 7.99935 8.00016 7.99935C7.2635 7.99935 6.66683 8.29768 6.66683 8.66602C6.66683 8.82012 6.7759 8.96004 6.95133 9.07292C6.89616 9.35069 6.83584 9.61628 6.75602 9.77409C6.6597 9.96452 6.64806 9.99935 6.43311 9.99935C6.46157 9.99935 6.21723 9.88766 6.1154 9.62956C6.03365 9.42007 5.9235 8.76234 6.1167 8.28125C6.30925 7.80179 6.70896 7.36587 8.00016 7.33398Z" fill="#1A1A1A"/>
</svg>
