<svg xmlns="http://www.w3.org/2000/svg"  viewBox="0 0 48 48" width="24px" height="24px"><path d="M 20 5 C 11.181436 5 4 12.179358 4 20.998047 C 4 23.56659 4.6768614 25.965053 5.7558594 28.117188 L 4.0859375 34.101562 C 3.6285107 35.741605 5.2580896 37.372751 6.8984375 36.916016 L 12.886719 35.246094 C 13.510823 35.558717 14.158569 35.832136 14.822266 36.070312 C 17.707133 40.254344 22.543102 42.998047 28 42.998047 C 30.566391 42.998047 32.962873 42.323264 35.113281 41.246094 L 41.101562 42.916016 C 42.741911 43.372751 44.37149 41.741605 43.914062 40.101562 L 42.244141 34.117188 C 43.323139 31.965053 44 29.56659 44 26.998047 C 44 19.960689 39.43702 13.97329 33.097656 11.841797 C 30.200507 7.7128323 25.412777 5 20 5 z M 20 8 C 27.197436 8 33 13.801588 33 21 C 33 28.197311 27.197436 33.998047 20 33.998047 C 17.703142 33.998047 15.557515 33.401093 13.685547 32.357422 A 1.50015 1.50015 0 0 0 12.552734 32.222656 L 7.3164062 33.683594 L 8.7792969 28.451172 A 1.50015 1.50015 0 0 0 8.6445312 27.316406 C 7.5988741 25.442301 7 23.296719 7 20.998047 C 7 13.800736 12.802564 8 20 8 z M 35.273438 16.232422 C 38.724295 18.565483 41 22.505359 41 26.998047 C 41 29.296719 40.401126 31.442301 39.355469 33.316406 A 1.50015 1.50015 0 0 0 39.220703 34.451172 L 40.683594 39.683594 L 35.447266 38.222656 A 1.50015 1.50015 0 0 0 34.314453 38.357422 C 32.442485 39.401093 30.296858 39.998047 28 39.998047 C 24.83731 39.998047 21.961884 38.857239 19.712891 36.988281 C 19.808847 36.990173 19.903559 36.998047 20 36.998047 C 28.818564 36.998047 36 29.818689 36 21 C 36 19.340448 35.745041 17.738981 35.273438 16.232422 z"/></svg>