<svg xmlns="http://www.w3.org/2000/svg"  viewBox="0 0 48 48" width="24px" height="24px"><path d="M 26.478516 3 A 1.50015 1.50015 0 0 0 25.439453 3.4394531 L 21.113281 7.765625 A 1.50015 1.50015 0 0 0 20.767578 8.1113281 L 12.619141 16.259766 A 1.50015 1.50015 0 0 0 12.265625 16.613281 L 10.90625 17.972656 C 7.0364013 21.842505 7.0360568 28.159101 10.902344 32.03125 L 12.755859 33.886719 A 1.50015 1.50015 0 0 0 13.113281 34.246094 L 20.927734 42.070312 A 1.50015 1.50015 0 0 0 20.927734 42.072266 C 21.156498 42.30096 21.460304 42.384117 21.705078 42.585938 A 1.50015 1.50015 0 0 0 22.992188 43.441406 C 26.82516 45.699357 31.786073 45.356505 35.070312 42.072266 C 38.356327 38.785262 38.696398 33.821585 36.433594 29.988281 A 1.50015 1.50015 0 0 0 35.589844 28.714844 C 35.386184 28.467397 35.301417 28.160791 35.070312 27.929688 A 1.50015 1.50015 0 0 0 34.923828 27.802734 L 33.623047 26.501953 C 32.781478 25.660384 32.781478 24.339616 33.623047 23.498047 L 34.886719 22.234375 A 1.50015 1.50015 0 0 0 35.232422 21.888672 L 39.560547 17.560547 A 1.50015 1.50015 0 0 0 39.560547 15.439453 L 27.560547 3.4394531 A 1.50015 1.50015 0 0 0 26.478516 3 z M 26.5 6.6210938 L 36.378906 16.5 L 34 18.878906 L 24.121094 9 L 26.5 6.6210938 z M 22 11.121094 L 31.878906 21 L 31.501953 21.376953 C 29.513522 23.365384 29.513522 26.634616 31.501953 28.623047 L 32.878906 30 L 22.990234 39.888672 L 16.115234 33.005859 L 17.457031 31.664062 C 20.849192 28.271902 20.849192 22.728098 17.457031 19.335938 L 15.621094 17.5 L 22 11.121094 z M 13.5 19.621094 L 15.335938 21.457031 C 17.581777 23.702871 17.581777 27.297129 15.335938 29.542969 L 13.996094 30.882812 L 13.025391 29.912109 C 10.303671 27.186259 10.303145 22.817901 13.027344 20.09375 L 13.5 19.621094 z M 34.537109 32.583984 C 35.456839 35.06558 34.952568 37.947219 32.949219 39.951172 C 30.946051 41.95434 28.06595 42.456911 25.583984 41.537109 L 34.537109 32.583984 z"/></svg>