<svg width="40" height="40" viewBox="0 0 40 40" fill="none" xmlns="http://www.w3.org/2000/svg">
<g clip-path="url(#clip0_2378_195834)">
<path d="M20.2383 10.9883C19.8242 10.9961 19.4941 11.3359 19.5 11.75V26.4395L13.7812 20.7188C13.5918 20.5234 13.3125 20.4453 13.0508 20.5137C12.7871 20.582 12.582 20.7871 12.5137 21.0508C12.4453 21.3125 12.5234 21.5918 12.7187 21.7813L19.7187 28.7813C20.0117 29.0723 20.4883 29.0723 20.7812 28.7813L27.7812 21.7813C27.9766 21.5918 28.0547 21.3125 27.9863 21.0508C27.918 20.7871 27.7129 20.582 27.4492 20.5137C27.1875 20.4453 26.9082 20.5234 26.7187 20.7188L21 26.4395V11.75C21.0019 11.5469 20.9238 11.3516 20.7793 11.209C20.6367 11.0645 20.4414 10.9863 20.2383 10.9883Z" fill="black" fill-opacity="0.4"/>
<circle cx="20" cy="20" r="20" fill="black" fill-opacity="0.03"/>
</g>
<defs>
<clipPath id="clip0_2378_195834">
<rect width="40" height="40" fill="white"/>
</clipPath>
</defs>
</svg>
