<svg xmlns="http://www.w3.org/2000/svg"  viewBox="0 0 48 48" width="24px" height="24px"><path d="M 12.5 6 C 8.9280619 6 6 8.9280619 6 12.5 L 6 21.5 A 1.50015 1.50015 0 1 0 9 21.5 L 9 12.5 C 9 10.549938 10.549938 9 12.5 9 L 35.5 9 C 37.450062 9 39 10.549938 39 12.5 L 39 35.5 C 39 37.450062 37.450062 39 35.5 39 L 12.5 39 C 10.549938 39 9 37.450062 9 35.5 A 1.50015 1.50015 0 1 0 6 35.5 C 6 39.071938 8.9280619 42 12.5 42 L 35.5 42 C 39.071938 42 42 39.071938 42 35.5 L 42 12.5 C 42 8.9280619 39.071938 6 35.5 6 L 12.5 6 z M 20.476562 11.978516 A 1.50015 1.50015 0 0 0 19 13.5 L 19 15 L 17.5 15 A 1.50015 1.50015 0 1 0 17.5 18 L 19 18 L 19 19.5 A 1.50015 1.50015 0 1 0 22 19.5 L 22 18 L 23.5 18 A 1.50015 1.50015 0 1 0 23.5 15 L 22 15 L 22 13.5 A 1.50015 1.50015 0 0 0 20.476562 11.978516 z M 10.476562 23.978516 A 1.50015 1.50015 0 0 0 9 25.5 L 9 27 L 7.5 27 A 1.50015 1.50015 0 1 0 7.5 30 L 9 30 L 9 31.5 A 1.50015 1.50015 0 1 0 12 31.5 L 12 30 L 13.5 30 A 1.50015 1.50015 0 1 0 13.5 27 L 12 27 L 12 25.5 A 1.50015 1.50015 0 0 0 10.476562 23.978516 z M 31.476562 25.978516 A 1.50015 1.50015 0 0 0 30 27.5 L 30 29 L 28.5 29 A 1.50015 1.50015 0 1 0 28.5 32 L 30 32 L 30 33.5 A 1.50015 1.50015 0 1 0 33 33.5 L 33 32 L 34.5 32 A 1.50015 1.50015 0 1 0 34.5 29 L 33 29 L 33 27.5 A 1.50015 1.50015 0 0 0 31.476562 25.978516 z"/></svg>