<svg width="12" height="12" viewBox="0 0 12 12" fill="none" xmlns="http://www.w3.org/2000/svg">
<g opacity="0.5">
<path d="M9.06504 2.58603C8.97501 2.58816 8.88947 2.62582 8.82711 2.69079L5.99996 5.51794L3.17282 2.69079C3.14104 2.65807 3.10302 2.63205 3.06101 2.61429C3.019 2.59652 2.97385 2.58737 2.92823 2.58736C2.86039 2.58738 2.79409 2.60764 2.73782 2.64555C2.68155 2.68345 2.63787 2.73729 2.61237 2.80016C2.58687 2.86303 2.58071 2.93208 2.59467 2.99847C2.60863 3.06487 2.64208 3.12558 2.69075 3.17286L5.5179 6.00001L2.69075 8.82715C2.65803 8.85857 2.63191 8.89619 2.61392 8.93783C2.59592 8.97946 2.58642 9.02427 2.58596 9.06962C2.58549 9.11498 2.59409 9.15997 2.61123 9.20196C2.62838 9.24395 2.65373 9.2821 2.6858 9.31417C2.71787 9.34624 2.75602 9.3716 2.79801 9.38874C2.84 9.40588 2.88499 9.41448 2.93035 9.41402C2.9757 9.41355 3.02051 9.40405 3.06214 9.38605C3.10378 9.36806 3.1414 9.34194 3.17282 9.30922L5.99996 6.48207L8.82711 9.30922C8.85853 9.34194 8.89615 9.36806 8.93779 9.38605C8.97942 9.40405 9.02423 9.41355 9.06958 9.41401C9.11494 9.41448 9.15993 9.40588 9.20192 9.38874C9.24391 9.37159 9.28206 9.34624 9.31413 9.31417C9.3462 9.2821 9.37155 9.24395 9.3887 9.20196C9.40584 9.15997 9.41443 9.11498 9.41397 9.06962C9.41351 9.02427 9.40401 8.97946 9.38601 8.93783C9.36802 8.89619 9.3419 8.85857 9.30918 8.82715L6.48203 6.00001L9.30918 3.17286C9.35875 3.12528 9.39279 3.06383 9.40684 2.99656C9.42088 2.9293 9.41427 2.85936 9.38788 2.79592C9.36148 2.73248 9.31654 2.67849 9.25893 2.64103C9.20132 2.60358 9.13373 2.58441 9.06504 2.58603Z" fill="black" fill-opacity="0.9"/>
</g>
</svg>
