<svg xmlns="http://www.w3.org/2000/svg"  viewBox="0 0 48 48" width="24px" height="24px"><path d="M 24 4 C 22.791667 4 21.695482 4.5071334 21.003906 5.2851562 C 20.312331 6.0631791 20 7.0416668 20 8 C 20 8.4076756 20.08884 8.8148104 20.207031 9.2128906 L 12.972656 15 L 3.5 15 A 1.50015 1.50015 0 1 0 3.5 18 L 44.5 18 A 1.50015 1.50015 0 1 0 44.5 15 L 35.027344 15 L 27.792969 9.2128906 C 27.911158 8.8148104 28 8.4076756 28 8 C 28 7.0416668 27.687669 6.0631791 26.996094 5.2851562 C 26.304518 4.5071334 25.208333 4 24 4 z M 24 7 C 24.458333 7 24.612149 7.1178666 24.753906 7.2773438 C 24.895664 7.4368209 25 7.7083332 25 8 C 25 8.2916668 24.895664 8.5631791 24.753906 8.7226562 C 24.612149 8.8821335 24.458333 9 24 9 C 23.541667 9 23.387851 8.8821335 23.246094 8.7226562 C 23.104336 8.5631791 23 8.2916668 23 8 C 23 7.7083332 23.104336 7.4368209 23.246094 7.2773438 C 23.387851 7.1178666 23.541667 7 24 7 z M 22.128906 11.519531 C 22.689905 11.804192 23.312553 12 24 12 C 24.688045 12 25.311717 11.80465 25.873047 11.519531 L 30.222656 15 L 17.777344 15 L 22.128906 11.519531 z M 4.1464844 22 C 1.8214844 22 0 24.636 0 28 C 0 31.364 1.8214844 34 4.1464844 34 C 5.3944844 34 6.5559844 33.224047 7.3339844 31.873047 C 7.6779844 31.274047 7.4720469 30.511969 6.8730469 30.167969 C 6.2750469 29.821969 5.5110156 30.027953 5.1660156 30.626953 C 4.8510156 31.173953 4.4694844 31.5 4.1464844 31.5 C 3.4754844 31.5 2.5 30.137 2.5 28 C 2.5 25.863 3.4744844 24.5 4.1464844 24.5 C 4.4694844 24.5 4.8510156 24.825047 5.1660156 25.373047 C 5.5110156 25.972047 6.2750469 26.176984 6.8730469 25.833984 C 7.4720469 25.489984 7.6779844 24.725953 7.3339844 24.126953 C 6.5559844 22.774953 5.3944844 22 4.1464844 22 z M 10.25 22 C 9.56 22 9 22.56 9 23.25 L 9 32.75 C 9 33.44 9.56 34 10.25 34 L 13.25 34 C 13.94 34 14.5 33.44 14.5 32.75 C 14.5 32.06 13.94 31.5 13.25 31.5 L 11.5 31.5 L 11.5 23.25 C 11.5 22.56 10.94 22 10.25 22 z M 18.5 22 C 16.019 22 14 24.691 14 28 C 14 31.309 16.019 34 18.5 34 C 20.981 34 23 31.309 23 28 C 23 24.691 20.981 22 18.5 22 z M 27.9375 22 C 25.9045 22 24.251953 23.626 24.251953 25.625 C 24.251953 27.624 25.9045 29.25 27.9375 29.25 L 28.3125 29.25 C 28.9685 29.25 29.501953 29.755 29.501953 30.375 C 29.501953 30.995 28.9675 31.5 28.3125 31.5 L 27.539062 31.5 C 26.883063 31.5 26.392297 31.169016 26.279297 31.041016 C 25.892297 30.480016 25.124641 30.331937 24.556641 30.710938 C 23.981641 31.092938 23.827938 31.869359 24.210938 32.443359 C 24.725938 33.217359 26.033109 34 27.537109 34 L 28.3125 34 C 30.3455 34 32.001953 32.374 32.001953 30.375 C 32.001953 28.376 30.3455 26.75 28.3125 26.75 L 27.9375 26.75 C 27.2825 26.75 26.751953 26.245 26.751953 25.625 C 26.751953 25.005 27.2825 24.5 27.9375 24.5 L 28.251953 24.5 C 28.878953 24.5 29.176406 24.894109 29.191406 24.912109 C 29.557406 25.498109 30.328109 25.678547 30.912109 25.310547 C 31.497109 24.944547 31.676547 24.172891 31.310547 23.587891 C 31.208547 23.425891 30.26 22 28.25 22 L 27.9375 22 z M 34.25 22 C 33.56 22 33 22.56 33 23.25 L 33 28 L 33 32.75 C 33 33.44 33.56 34 34.25 34 L 37.75 34 C 38.44 34 39 33.44 39 32.75 C 39 32.06 38.44 31.5 37.75 31.5 L 35.5 31.5 L 35.5 29.25 L 36.75 29.25 C 37.44 29.25 38 28.69 38 28 C 38 27.31 37.44 26.75 36.75 26.75 L 35.5 26.75 L 35.5 24.5 L 37.75 24.5 C 38.44 24.5 39 23.94 39 23.25 C 39 22.56 38.44 22 37.75 22 L 34.25 22 z M 41.25 22 C 40.56 22 40 22.56 40 23.25 L 40 32.75 C 40 33.44 40.56 34 41.25 34 L 42 34 C 45.309 34 48 31.309 48 28 C 48 24.691 45.308 22 42 22 L 41.25 22 z M 18.5 24.5 C 19.425 24.5 20.5 26.029 20.5 28 C 20.5 29.971 19.425 31.5 18.5 31.5 C 17.575 31.5 16.5 29.971 16.5 28 C 16.5 26.029 17.575 24.5 18.5 24.5 z M 42.5 24.550781 C 44.192 24.795781 45.5 26.240047 45.5 27.998047 C 45.5 29.756047 44.191 31.204219 42.5 31.449219 L 42.5 24.550781 z M 3.5 38 A 1.50015 1.50015 0 1 0 3.5 41 L 44.5 41 A 1.50015 1.50015 0 1 0 44.5 38 L 3.5 38 z"/></svg>