<svg xmlns="http://www.w3.org/2000/svg"  viewBox="0 0 48 48" width="24px" height="24px"><path d="M 12.546875 5 C 10.570374 5 8.9638113 6.6871605 9.0449219 8.65625 C 9.5198178 20.20794 13.579866 31.652988 15.326172 36.134766 C 15.997513 37.858721 17.668916 39 19.517578 39 L 28.482422 39 C 30.331084 39 32.002477 37.858049 32.675781 36.136719 A 1.50015 1.50015 0 0 0 32.675781 36.134766 C 33.162132 34.886592 33.831321 33.057114 34.548828 30.876953 C 35.217007 30.742011 35.912972 30.502425 36.722656 30.167969 C 37.960455 29.656672 39.354416 28.923149 40.695312 27.974609 C 43.377106 26.07753 46 23.232583 46 19.5 C 46 16.480226 43.519774 14 40.5 14 C 39.737878 14 39.047215 14.182075 38.427734 14.476562 C 38.684919 12.560649 38.874522 10.611515 38.955078 8.65625 C 39.036225 6.6862863 37.429357 5 35.453125 5 L 12.546875 5 z M 12.546875 8 L 35.453125 8 C 35.758893 8 35.971838 8.2211668 35.958984 8.5332031 C 35.508938 19.4568 31.566714 30.718101 29.880859 35.044922 C 29.652164 35.629591 29.10976 36 28.482422 36 L 19.517578 36 C 18.89024 36 18.347753 35.62892 18.121094 35.046875 C 16.435399 30.720652 12.492073 19.457513 12.042969 8.5332031 C 12.030079 8.2202926 12.239376 8 12.546875 8 z M 40.5 17 C 41.898226 17 43 18.101774 43 19.5 C 43 21.767417 41.228847 23.92247 38.962891 25.525391 C 37.848459 26.31373 36.651752 26.94495 35.630859 27.371094 C 36.136715 25.63522 36.631443 23.774891 37.085938 21.787109 L 37.089844 21.787109 C 37.282994 20.799607 37.728062 19.438739 38.359375 18.466797 C 38.990688 17.494855 39.621667 17 40.5 17 z M 7.5 41 A 1.50015 1.50015 0 1 0 7.5 44 L 40.5 44 A 1.50015 1.50015 0 1 0 40.5 41 L 7.5 41 z"/></svg>