<svg width="16" height="16" viewBox="0 0 16 16" fill="none" xmlns="http://www.w3.org/2000/svg">
<path d="M3.49967 2.33594C2.86136 2.33594 2.33301 2.86429 2.33301 3.5026V4.5026C2.33301 5.14092 2.86136 5.66927 3.49967 5.66927H4.49967C5.13799 5.66927 5.66634 5.14092 5.66634 4.5026V3.5026C5.66634 2.86429 5.13799 2.33594 4.49967 2.33594H3.49967ZM11.4997 2.33594C10.8614 2.33594 10.333 2.86429 10.333 3.5026V4.5026C10.333 5.14092 10.8614 5.66927 11.4997 5.66927H12.4997C13.138 5.66927 13.6663 5.14092 13.6663 4.5026V3.5026C13.6663 2.86429 13.138 2.33594 12.4997 2.33594H11.4997ZM7.49967 2.35482C6.86136 2.35482 6.33301 2.88317 6.33301 3.52148V4.52148C6.33301 5.1598 6.86136 5.68815 7.49967 5.68815H8.49967C9.13799 5.68815 9.66634 5.1598 9.66634 4.52148V3.52148C9.66634 2.88317 9.13799 2.35482 8.49967 2.35482H7.49967ZM3.49967 3.33594H4.49967C4.59802 3.33594 4.66634 3.40426 4.66634 3.5026V4.5026C4.66634 4.60095 4.59802 4.66927 4.49967 4.66927H3.49967C3.40133 4.66927 3.33301 4.60095 3.33301 4.5026V3.5026C3.33301 3.40426 3.40133 3.33594 3.49967 3.33594ZM11.4997 3.33594H12.4997C12.598 3.33594 12.6663 3.40426 12.6663 3.5026V4.5026C12.6663 4.60095 12.598 4.66927 12.4997 4.66927H11.4997C11.4013 4.66927 11.333 4.60095 11.333 4.5026V3.5026C11.333 3.40426 11.4013 3.33594 11.4997 3.33594ZM7.49967 3.35482H8.49967C8.59802 3.35482 8.66634 3.42314 8.66634 3.52148V4.52148C8.66634 4.61983 8.59802 4.68815 8.49967 4.68815H7.49967C7.40133 4.68815 7.33301 4.61983 7.33301 4.52148V3.52148C7.33301 3.42314 7.40133 3.35482 7.49967 3.35482ZM3.49967 6.31706C2.86105 6.31706 2.33301 6.84549 2.33301 7.48372V8.48372C2.33301 9.12204 2.86136 9.65039 3.49967 9.65039H4.49967C5.13799 9.65039 5.66634 9.12204 5.66634 8.48372V7.48372C5.66634 6.84541 5.13799 6.31706 4.49967 6.31706H3.49967ZM11.4997 6.31706C10.8611 6.31706 10.333 6.84549 10.333 7.48372V8.48372C10.333 9.12204 10.8614 9.65039 11.4997 9.65039H12.4997C13.138 9.65039 13.6663 9.12204 13.6663 8.48372V7.48372C13.6663 6.84541 13.138 6.31706 12.4997 6.31706H11.4997ZM7.49967 6.33594C6.86136 6.33594 6.33301 6.86429 6.33301 7.5026V8.5026C6.33301 9.14092 6.86136 9.66927 7.49967 9.66927H8.49967C9.13799 9.66927 9.66634 9.14092 9.66634 8.5026V7.5026C9.66634 6.86429 9.13799 6.33594 8.49967 6.33594H7.49967ZM3.49967 7.31706H4.49967C4.59802 7.31706 4.66634 7.38538 4.66634 7.48372V8.48372C4.66634 8.58207 4.59802 8.65039 4.49967 8.65039H3.49967C3.40133 8.65039 3.33301 8.58207 3.33301 8.48372V7.48372C3.33301 7.38595 3.40163 7.31706 3.49967 7.31706ZM11.4997 7.31706H12.4997C12.598 7.31706 12.6663 7.38538 12.6663 7.48372V8.48372C12.6663 8.58207 12.598 8.65039 12.4997 8.65039H11.4997C11.4013 8.65039 11.333 8.58207 11.333 8.48372V7.48372C11.333 7.38595 11.4016 7.31706 11.4997 7.31706ZM7.49967 7.33594H8.49967C8.59802 7.33594 8.66634 7.40426 8.66634 7.5026V8.5026C8.66634 8.60095 8.59802 8.66927 8.49967 8.66927H7.49967C7.40133 8.66927 7.33301 8.60095 7.33301 8.5026V7.5026C7.33301 7.40426 7.40133 7.33594 7.49967 7.33594ZM3.49967 10.3359C2.86136 10.3359 2.33301 10.8643 2.33301 11.5026V12.5026C2.33301 13.1409 2.86136 13.6693 3.49967 13.6693H4.49967C5.13799 13.6693 5.66634 13.1409 5.66634 12.5026V11.5026C5.66634 10.8643 5.13799 10.3359 4.49967 10.3359H3.49967ZM11.4997 10.3359C10.8614 10.3359 10.333 10.8643 10.333 11.5026V12.5026C10.333 13.1409 10.8614 13.6693 11.4997 13.6693H12.4997C13.138 13.6693 13.6663 13.1409 13.6663 12.5026V11.5026C13.6663 10.8643 13.138 10.3359 12.4997 10.3359H11.4997ZM7.49967 10.3548C6.86136 10.3548 6.33301 10.8832 6.33301 11.5215V12.5215C6.33301 13.1598 6.86136 13.6882 7.49967 13.6882H8.49967C9.13799 13.6882 9.66634 13.1598 9.66634 12.5215V11.5215C9.66634 10.8832 9.13799 10.3548 8.49967 10.3548H7.49967ZM3.49967 11.3359H4.49967C4.59802 11.3359 4.66634 11.4043 4.66634 11.5026V12.5026C4.66634 12.601 4.59802 12.6693 4.49967 12.6693H3.49967C3.40133 12.6693 3.33301 12.601 3.33301 12.5026V11.5026C3.33301 11.4043 3.40133 11.3359 3.49967 11.3359ZM11.4997 11.3359H12.4997C12.598 11.3359 12.6663 11.4043 12.6663 11.5026V12.5026C12.6663 12.601 12.598 12.6693 12.4997 12.6693H11.4997C11.4013 12.6693 11.333 12.601 11.333 12.5026V11.5026C11.333 11.4043 11.4013 11.3359 11.4997 11.3359ZM7.49967 11.3548H8.49967C8.59802 11.3548 8.66634 11.4231 8.66634 11.5215V12.5215C8.66634 12.6198 8.59802 12.6882 8.49967 12.6882H7.49967C7.40133 12.6882 7.33301 12.6198 7.33301 12.5215V11.5215C7.33301 11.4231 7.40133 11.3548 7.49967 11.3548Z" fill="black"/>
</svg>
