<svg xmlns="http://www.w3.org/2000/svg"  viewBox="0 0 48 48" width="24px" height="24px"><path d="M 24 4 C 12.972066 4 4 12.972074 4 24 C 4 35.027926 12.972066 44 24 44 C 35.027934 44 44 35.027926 44 24 C 44 12.972074 35.027934 4 24 4 z M 24 7 C 33.406615 7 41 14.593391 41 24 C 41 33.406609 33.406615 41 24 41 C 14.593385 41 7 33.406609 7 24 C 7 14.593391 14.593385 7 24 7 z M 13.078125 18 C 11.861125 18 10.925656 19.078203 11.097656 20.283203 L 11.527344 23.283203 C 11.668344 24.268203 12.512813 25 13.507812 25 L 19.064453 25 C 19.957453 25 20.740328 24.407828 20.986328 23.548828 L 21.84375 20.548828 C 22.20875 19.271828 21.250875 18 19.921875 18 L 13.078125 18 z M 28.078125 18 C 26.749125 18 25.79125 19.271828 26.15625 20.548828 L 27.013672 23.548828 C 27.259672 24.407828 28.042547 25 28.935547 25 L 34.492188 25 C 35.487187 25 36.331656 24.268203 36.472656 23.283203 L 36.902344 20.283203 C 37.074344 19.078203 36.138875 18 34.921875 18 L 28.078125 18 z M 32.179688 28.984375 A 1.50015 1.50015 0 0 0 31.060547 29.572266 C 29.414845 31.663678 26.872934 33 24 33 C 21.9028 33 19.597161 32.081719 18.322266 31.246094 A 1.50015 1.50015 0 1 0 16.677734 33.753906 C 18.432839 34.904281 21.0972 36 24 36 C 27.807066 36 31.22367 34.216322 33.417969 31.427734 A 1.50015 1.50015 0 0 0 32.179688 28.984375 z"/></svg>