<svg xmlns="http://www.w3.org/2000/svg"  viewBox="0 0 48 48" width="24px" height="24px"><path d="M 12.5 6 C 9.4802259 6 7 8.4802259 7 11.5 L 7 14.5 C 7 16.084839 7.7052607 17.492917 8.7910156 18.5 C 7.7052607 19.507083 7 20.915161 7 22.5 L 7 25.5 C 7 27.084839 7.7052607 28.492917 8.7910156 29.5 C 7.7052607 30.507083 7 31.915161 7 33.5 L 7 36.5 C 7 39.519774 9.4802259 42 12.5 42 L 35.5 42 C 38.519774 42 41 39.519774 41 36.5 L 41 33.5 C 41 31.915161 40.294739 30.507083 39.208984 29.5 C 40.294739 28.492917 41 27.084839 41 25.5 L 41 22.5 C 41 20.915161 40.294739 19.507083 39.208984 18.5 C 40.294739 17.492917 41 16.084839 41 14.5 L 41 11.5 C 41 8.4802259 38.519774 6 35.5 6 L 12.5 6 z M 12.5 9 L 35.5 9 C 36.898226 9 38 10.101774 38 11.5 L 38 14.5 C 38 15.898226 36.898226 17 35.5 17 L 12.5 17 C 11.101774 17 10 15.898226 10 14.5 L 10 11.5 C 10 10.101774 11.101774 9 12.5 9 z M 12.5 20 L 35.5 20 C 36.898226 20 38 21.101774 38 22.5 L 38 25.5 C 38 26.898226 36.898226 28 35.5 28 L 12.5 28 C 11.101774 28 10 26.898226 10 25.5 L 10 22.5 C 10 21.101774 11.101774 20 12.5 20 z M 12.5 31 L 35.5 31 C 36.898226 31 38 32.101774 38 33.5 L 38 36.5 C 38 37.898226 36.898226 39 35.5 39 L 12.5 39 C 11.101774 39 10 37.898226 10 36.5 L 10 33.5 C 10 32.101774 11.101774 31 12.5 31 z"/></svg>