<svg xmlns="http://www.w3.org/2000/svg"  viewBox="0 0 48 48" width="24px" height="24px"><path d="M 11.5 6 C 8.4802259 6 6 8.4802259 6 11.5 L 6 33.253906 A 1.50015 1.50015 0 0 0 6 33.740234 L 6 36.5 C 6 39.519774 8.4802259 42 11.5 42 L 36.5 42 C 39.519774 42 42 39.519774 42 36.5 L 42 33.746094 A 1.50015 1.50015 0 0 0 42 33.259766 L 42 11.5 C 42 8.4802259 39.519774 6 36.5 6 L 11.5 6 z M 11.5 9 L 36.5 9 C 37.898226 9 39 10.101774 39 11.5 L 39 32 L 9 32 L 9 11.5 C 9 10.101774 10.101774 9 11.5 9 z M 14.5 12 C 13.136406 12 12 13.136406 12 14.5 L 12 17.5 C 12 18.863594 13.136406 20 14.5 20 L 17.5 20 C 18.863594 20 20 18.863594 20 17.5 L 20 14.5 C 20 13.136406 18.863594 12 17.5 12 L 14.5 12 z M 15 15 L 17 15 L 17 17 L 15 17 L 15 15 z M 14.5 22 C 13.136406 22 12 23.136406 12 24.5 L 12 27.5 C 12 28.863594 13.136406 30 14.5 30 L 17.5 30 C 18.863594 30 20 28.863594 20 27.5 L 20 24.5 C 20 23.136406 18.863594 22 17.5 22 L 14.5 22 z M 15 25 L 17 25 L 17 27 L 15 27 L 15 25 z M 9 35 L 39 35 L 39 36.5 C 39 37.898226 37.898226 39 36.5 39 L 11.5 39 C 10.101774 39 9 37.898226 9 36.5 L 9 35 z"/></svg>