<svg width="16" height="16" viewBox="0 0 16 16" fill="none" xmlns="http://www.w3.org/2000/svg">
<path d="M3.5 2C2.6775 2 2 2.6775 2 3.5V6.16667C2 6.98917 2.6775 7.66667 3.5 7.66667H6.16667C6.98917 7.66667 7.66667 6.98917 7.66667 6.16667V3.5C7.66667 2.6775 6.98917 2 6.16667 2H3.5ZM9.83333 2C9.01083 2 8.33333 2.6775 8.33333 3.5V6.16667C8.33333 6.98917 9.01083 7.66667 9.83333 7.66667H12.5C13.3225 7.66667 14 6.98917 14 6.16667V3.5C14 2.6775 13.3225 2 12.5 2H9.83333ZM3.5 3H6.16667C6.44883 3 6.66667 3.21783 6.66667 3.5V6.16667C6.66667 6.44883 6.44883 6.66667 6.16667 6.66667H3.5C3.21783 6.66667 3 6.44883 3 6.16667V3.5C3 3.21783 3.21783 3 3.5 3ZM9.83333 3H12.5C12.7822 3 13 3.21783 13 3.5V6.16667C13 6.44883 12.7822 6.66667 12.5 6.66667H9.83333C9.55117 6.66667 9.33333 6.44883 9.33333 6.16667V3.5C9.33333 3.21783 9.55117 3 9.83333 3ZM3.5 8.33333C2.6775 8.33333 2 9.01083 2 9.83333V12.5C2 13.3225 2.6775 14 3.5 14H6.16667C6.98917 14 7.66667 13.3225 7.66667 12.5V9.83333C7.66667 9.01083 6.98917 8.33333 6.16667 8.33333H3.5ZM9.83333 8.33333C9.01083 8.33333 8.33333 9.01083 8.33333 9.83333V12.5C8.33333 13.3225 9.01083 14 9.83333 14H12.5C13.3225 14 14 13.3225 14 12.5V9.83333C14 9.01083 13.3225 8.33333 12.5 8.33333H9.83333ZM3.5 9.33333H6.16667C6.44883 9.33333 6.66667 9.55117 6.66667 9.83333V12.5C6.66667 12.7822 6.44883 13 6.16667 13H3.5C3.21783 13 3 12.7822 3 12.5V9.83333C3 9.55117 3.21783 9.33333 3.5 9.33333ZM9.83333 9.33333H12.5C12.7822 9.33333 13 9.55117 13 9.83333V12.5C13 12.7822 12.7822 13 12.5 13H9.83333C9.55117 13 9.33333 12.7822 9.33333 12.5V9.83333C9.33333 9.55117 9.55117 9.33333 9.83333 9.33333Z" fill="black"/>
</svg>
