<svg xmlns="http://www.w3.org/2000/svg"  viewBox="0 0 48 48" width="24px" height="24px"><path d="M 24 3 C 16.838262 3 11 8.8382615 11 16 C 11 18.584851 11.80481 20.970718 13.111328 23 L 11.5 23 A 1.50015 1.50015 0 1 0 11.5 26 L 16.001953 26 A 1.50015 1.50015 0 0 0 16.574219 26 L 36.5 26 A 1.50015 1.50015 0 1 0 36.5 23 L 34.902344 23 C 36.205597 20.972217 37 18.581676 37 16 C 37 8.8382615 31.161738 3 24 3 z M 24 6 C 29.540262 6 34 10.459738 34 16 C 34 18.753286 32.851429 21.192478 31.060547 23 L 25.216797 23 A 1.250125 1.250125 0 0 0 25.25 22.699219 L 25.25 21.957031 C 27.076009 21.741402 28.501953 20.226731 28.501953 18.375 C 28.501953 16.376 26.8455 14.75 24.8125 14.75 L 23.4375 14.75 C 22.7825 14.75 22.251953 14.245 22.251953 13.625 C 22.251953 13.005 22.7825 12.5 23.4375 12.5 L 24.751953 12.5 C 25.378953 12.5 25.676406 12.894109 25.691406 12.912109 C 26.057406 13.498109 26.828109 13.678547 27.412109 13.310547 C 27.997109 12.944547 28.176547 12.172891 27.810547 11.587891 C 27.717589 11.440252 26.911753 10.255929 25.25 10.044922 L 25.25 9.3007812 A 1.250125 1.250125 0 0 0 23.980469 8.0332031 A 1.250125 1.250125 0 0 0 22.75 9.3007812 L 22.75 10.068359 C 21.045283 10.386438 19.751953 11.85745 19.751953 13.625 C 19.751953 15.624 21.4045 17.25 23.4375 17.25 L 24.8125 17.25 C 25.4685 17.25 26.001953 17.755 26.001953 18.375 C 26.001953 18.995 25.4675 19.5 24.8125 19.5 L 23.039062 19.5 C 22.383063 19.5 21.892297 19.169016 21.779297 19.041016 C 21.392297 18.480016 20.624641 18.331937 20.056641 18.710938 C 19.481641 19.092937 19.327938 19.869359 19.710938 20.443359 C 20.192504 21.167112 21.369675 21.890479 22.75 21.982422 L 22.75 22.699219 A 1.250125 1.250125 0 0 0 22.783203 23 L 16.984375 23 C 15.181088 21.192032 14 18.764008 14 16 C 14 10.459738 18.459738 6 24 6 z M 8.5 7 C 6.019 7 4 9.019 4 11.5 L 4 31.5 C 4 33.981 6.019 36 8.5 36 L 17 36 L 17 41 L 13.5 41 A 1.50015 1.50015 0 1 0 13.5 44 L 34.5 44 A 1.50015 1.50015 0 1 0 34.5 41 L 31 41 L 31 36 L 39.5 36 C 41.981 36 44 33.981 44 31.5 L 44 11.5 C 44 9.019 41.981 7 39.5 7 L 35.992188 7 C 36.687188 7.923 37.279047 8.929 37.748047 10 L 39.5 10 C 40.327 10 41 10.673 41 11.5 L 41 31.5 C 41 32.327 40.327 33 39.5 33 L 8.5 33 C 7.673 33 7 32.327 7 31.5 L 7 11.5 C 7 10.673 7.673 10 8.5 10 L 10.253906 10 C 10.722906 8.929 11.312812 7.923 12.007812 7 L 8.5 7 z M 20 36 L 28 36 L 28 41 L 20 41 L 20 36 z"/></svg>