<svg width="16" height="16" viewBox="0 0 16 16" fill="none" xmlns="http://www.w3.org/2000/svg">
<path d="M3.16683 3.33398C2.16024 3.33398 1.3335 4.16073 1.3335 5.16732V10.1673C1.3335 11.1739 2.16024 12.0007 3.16683 12.0007H11.8335C12.8401 12.0007 13.6668 11.1739 13.6668 10.1673V5.16732C13.6668 4.16073 12.8401 3.33398 11.8335 3.33398H3.16683ZM3.16683 4.33398H11.8335C12.2996 4.33398 12.6668 4.70124 12.6668 5.16732V5.66732H2.3335V5.16732C2.3335 4.70124 2.70075 4.33398 3.16683 4.33398ZM14.3335 5.01042V10.1673C14.3335 11.5473 13.2135 12.6673 11.8335 12.6673H3.34326C3.72993 13.2673 4.4035 13.6673 5.16683 13.6673H11.8335C13.7635 13.6673 15.3335 12.0973 15.3335 10.1673V6.83398C15.3335 6.07065 14.9335 5.39708 14.3335 5.01042ZM2.3335 6.66732H12.6668V10.1673C12.6668 10.6334 12.2996 11.0007 11.8335 11.0007H3.16683C2.70075 11.0007 2.3335 10.6334 2.3335 10.1673V6.66732ZM9.50016 9.00065C9.43391 8.99971 9.36813 9.01195 9.30664 9.03666C9.24516 9.06137 9.1892 9.09805 9.14201 9.14457C9.09483 9.19109 9.05736 9.24653 9.03178 9.30766C9.00621 9.36879 8.99304 9.43439 8.99304 9.50065C8.99304 9.56691 9.00621 9.63252 9.03178 9.69364C9.05736 9.75477 9.09483 9.81021 9.14201 9.85673C9.1892 9.90325 9.24516 9.93993 9.30664 9.96464C9.36813 9.98935 9.43391 10.0016 9.50016 10.0007H11.1668C11.2331 10.0016 11.2989 9.98935 11.3604 9.96464C11.4218 9.93993 11.4778 9.90325 11.525 9.85673C11.5722 9.81021 11.6096 9.75477 11.6352 9.69364C11.6608 9.63252 11.674 9.56691 11.674 9.50065C11.674 9.43439 11.6608 9.36879 11.6352 9.30766C11.6096 9.24653 11.5722 9.19109 11.525 9.14457C11.4778 9.09805 11.4218 9.06137 11.3604 9.03666C11.2989 9.01195 11.2331 8.99971 11.1668 9.00065H9.50016Z" fill="#1A1A1A"/>
</svg>
