<svg width="16" height="16" viewBox="0 0 16 16" fill="none" xmlns="http://www.w3.org/2000/svg">
<path d="M11.9999 1.66992C11.4017 1.66992 10.8035 1.89671 10.3502 2.35026L2.9719 9.72786C2.83191 9.86786 2.72938 10.042 2.67503 10.2331L1.68609 13.696C1.66171 13.7817 1.66065 13.8723 1.68304 13.9585C1.70543 14.0448 1.75046 14.1234 1.81345 14.1864C1.87645 14.2494 1.95513 14.2945 2.04137 14.3169C2.1276 14.3392 2.21824 14.3382 2.30393 14.3138L5.76747 13.3249L5.76813 13.3242C5.95797 13.2696 6.13163 13.1684 6.27203 13.028L13.6496 5.64974C14.5567 4.7427 14.5567 3.2573 13.6496 2.35026C13.1963 1.89671 12.5981 1.66992 11.9999 1.66992ZM11.9999 2.66406C12.3402 2.66406 12.68 2.79517 12.942 3.05729H12.9426C13.4676 3.58225 13.4676 4.41775 12.9426 4.94271L12.2961 5.58919L10.4107 3.70378L11.0572 3.05729C11.3192 2.79517 11.6596 2.66406 11.9999 2.66406ZM9.70367 4.41081L11.5891 6.29622L5.56435 12.321C5.54481 12.3404 5.52005 12.3552 5.49208 12.3633L2.89443 13.1055L3.63662 10.5072V10.5065C3.64426 10.4796 3.65826 10.4556 3.67893 10.4349L9.70367 4.41081Z" fill="#1A1A1A"/>
</svg>
