<svg xmlns="http://www.w3.org/2000/svg"  viewBox="0 0 48 48" width="24px" height="24px"><path d="M 24 4 C 12.972066 4 4 12.972074 4 24 C 4 35.027926 12.972066 44 24 44 C 35.027934 44 44 35.027926 44 24 C 44 12.972074 35.027934 4 24 4 z M 24 7 C 33.406615 7 41 14.593391 41 24 C 41 33.406609 33.406615 41 24 41 C 14.593385 41 7 33.406609 7 24 C 7 14.593391 14.593385 7 24 7 z M 24 15.011719 C 23.314348 15.011719 22.628577 15.164061 22.001953 15.46875 L 11.84375 20.414062 A 1.50015 1.50015 0 0 0 11.902344 23.138672 L 16 24.919922 L 16 30 A 1.50015 1.50015 0 0 0 16.400391 31.019531 C 16.400391 31.019531 19.219343 34 24 34 C 28.780657 34 31.599609 31.019531 31.599609 31.019531 A 1.50015 1.50015 0 0 0 32 30 L 32 24.921875 L 34 24.050781 L 34 27.5 A 1.50015 1.50015 0 1 0 37 27.5 L 37 22 A 1.50015 1.50015 0 0 0 36.994141 21.865234 A 1.50015 1.50015 0 0 0 36.15625 20.414062 L 25.998047 15.46875 C 25.371423 15.164061 24.685652 15.011719 24 15.011719 z M 24 17.986328 C 24.220085 17.986328 24.440171 18.046704 24.685547 18.166016 L 31.916016 21.685547 L 24.744141 24.804688 A 1.50015 1.50015 0 0 0 24.685547 24.832031 C 24.193149 25.071744 23.806851 25.071744 23.314453 24.832031 A 1.50015 1.50015 0 0 0 23.255859 24.804688 L 16.083984 21.685547 L 23.314453 18.166016 C 23.559829 18.046704 23.779915 17.986328 24 17.986328 z M 19 26.224609 L 22.060547 27.556641 L 22.001953 27.529297 C 23.255555 28.139584 24.746398 28.139584 26 27.529297 L 25.941406 27.556641 L 29 26.226562 L 29 29.279297 C 28.543741 29.712853 27.055456 31 24 31 C 20.944544 31 19.456259 29.712853 19 29.279297 L 19 26.224609 z"/></svg>