<svg xmlns="http://www.w3.org/2000/svg"  viewBox="0 0 48 48" width="24px" height="24px"><path d="M 27.5 2 C 22.336224 2 20.24469 5.8882665 19.650391 7.1152344 C 12.651432 7.4136097 7.8654674 11.072957 5.3300781 17.310547 C 2.6859181 23.815735 2 32.936587 2 44.5 A 1.50015 1.50015 0 1 0 5 44.5 C 5 33.063413 5.774285 24.184265 8.109375 18.439453 C 10.444465 12.694642 13.920049 10 20.5 10 A 1.50015 1.50015 0 0 0 21.892578 9.0566406 C 21.892578 9.0566406 23.167995 6.2359698 26 5.3710938 L 26 9.5 A 1.50015 1.50015 0 0 0 26.667969 10.748047 L 28.957031 12.273438 C 31.085867 13.692661 32.679666 15.778349 33.488281 18.205078 A 1.50015 1.50015 0 0 0 33.488281 18.208984 L 33.541016 18.365234 C 34.65611 21.708808 37.224828 24.373904 40.525391 25.611328 C 42.017768 26.173132 43 27.58904 43 29.183594 C 43 31.267773 41.35585 32.980022 39.298828 33 C 36.508851 33.02713 31.276539 31.138435 26.990234 29.162109 C 22.70393 27.185784 19.248047 25.199219 19.248047 25.199219 A 1.50015 1.50015 0 0 0 17.007812 26.648438 L 17.011719 26.699219 C 17.68994 33.480389 20.211757 39.947664 24.300781 45.400391 A 1.50015 1.50015 0 1 0 26.699219 43.599609 C 23.507473 39.343407 21.430359 34.399355 20.470703 29.193359 C 21.862837 29.955536 22.817567 30.541839 25.734375 31.886719 C 30.158071 33.926393 35.330102 36.03692 39.328125 35.998047 C 43.037111 35.962026 46 32.865414 46 29.183594 C 46 26.347106 44.23224 23.799627 41.578125 22.802734 A 1.50015 1.50015 0 0 0 41.578125 22.800781 C 39.123248 21.880416 37.215928 19.901691 36.386719 17.414062 A 1.50015 1.50015 0 0 0 36.386719 17.412109 L 36.333984 17.255859 L 36.333984 17.253906 C 35.945337 16.088009 35.410952 14.985192 34.751953 13.966797 L 41.234375 5.0546875 C 41.675375 4.4476875 41.609125 3.609125 41.078125 3.078125 C 40.482125 2.482125 39.517875 2.482125 38.921875 3.078125 L 31.548828 10.451172 C 31.24934 10.215385 30.940127 9.9900327 30.621094 9.7773438 L 29 8.6972656 L 29 3.5 A 1.50015 1.50015 0 0 0 27.5 2 z M 28.5 17 A 1.5 1.5 0 0 0 28.5 20 A 1.5 1.5 0 0 0 28.5 17 z"/></svg>