<svg width="16" height="16" viewBox="0 0 16 16" fill="none" xmlns="http://www.w3.org/2000/svg">
<path d="M8.00016 1.33398C4.32418 1.33398 1.3335 4.32468 1.3335 8.00065C1.3335 11.6766 4.32418 14.6673 8.00016 14.6673C11.6761 14.6673 14.6668 11.6766 14.6668 8.00065C14.6668 4.32468 11.6761 1.33398 8.00016 1.33398ZM8.00016 2.33398C11.1357 2.33398 13.6668 4.86511 13.6668 8.00065C13.6668 11.1362 11.1357 13.6673 8.00016 13.6673C4.86462 13.6673 2.3335 11.1362 2.3335 8.00065C2.3335 4.86511 4.86462 2.33398 8.00016 2.33398ZM5.16683 5.33398C5.10057 5.33305 5.03479 5.34529 4.97331 5.36999C4.91182 5.3947 4.85586 5.43138 4.80868 5.4779C4.76149 5.52443 4.72403 5.57986 4.69845 5.64099C4.67288 5.70212 4.65971 5.76772 4.65971 5.83398C4.65971 5.90025 4.67288 5.96585 4.69845 6.02698C4.72403 6.08811 4.76149 6.14354 4.80868 6.19006C4.85586 6.23659 4.91182 6.27327 4.97331 6.29797C5.03479 6.32268 5.10057 6.33492 5.16683 6.33398H6.50016C6.56642 6.33492 6.6322 6.32268 6.69368 6.29797C6.75517 6.27327 6.81113 6.23659 6.85831 6.19006C6.9055 6.14354 6.94297 6.08811 6.96854 6.02698C6.99411 5.96585 7.00728 5.90025 7.00728 5.83398C7.00728 5.76772 6.99411 5.70212 6.96854 5.64099C6.94297 5.57986 6.9055 5.52443 6.85831 5.4779C6.81113 5.43138 6.75517 5.3947 6.69368 5.36999C6.6322 5.34529 6.56642 5.33305 6.50016 5.33398H5.16683ZM9.50016 5.33398C9.43391 5.33305 9.36812 5.34529 9.30664 5.36999C9.24516 5.3947 9.1892 5.43138 9.14201 5.4779C9.09483 5.52443 9.05736 5.57986 9.03178 5.64099C9.00621 5.70212 8.99304 5.76772 8.99304 5.83398C8.99304 5.90025 9.00621 5.96585 9.03178 6.02698C9.05736 6.08811 9.09483 6.14354 9.14201 6.19006C9.1892 6.23659 9.24516 6.27327 9.30664 6.29797C9.36812 6.32268 9.43391 6.33492 9.50016 6.33398H10.8335C10.8998 6.33492 10.9655 6.32268 11.027 6.29797C11.0885 6.27327 11.1445 6.23659 11.1916 6.19006C11.2388 6.14354 11.2763 6.08811 11.3019 6.02698C11.3274 5.96585 11.3406 5.90025 11.3406 5.83398C11.3406 5.76772 11.3274 5.70212 11.3019 5.64099C11.2763 5.57986 11.2388 5.52443 11.1916 5.4779C11.1445 5.43138 11.0885 5.3947 11.027 5.36999C10.9655 5.34529 10.8998 5.33305 10.8335 5.33398H9.50016ZM5.16683 8.00065C5.03423 8.00066 4.90706 8.05335 4.81329 8.14711C4.71953 8.24088 4.66684 8.36805 4.66683 8.50065C4.66683 10.3356 6.12972 12.0007 8.00016 12.0007C9.87061 12.0007 11.3335 10.3356 11.3335 8.50065C11.3335 8.36805 11.2808 8.24088 11.187 8.14711C11.0933 8.05335 10.9661 8.00066 10.8335 8.00065H5.16683ZM5.76709 9.00065H10.2332C9.99849 10.0846 9.09107 11.0007 8.00016 11.0007C6.90926 11.0007 6.00184 10.0846 5.76709 9.00065Z" fill="#1A1A1A"/>
</svg>
