<svg xmlns="http://www.w3.org/2000/svg"  viewBox="0 0 48 48" width="24px" height="24px"><path d="M 9 4 A 4 4 0 0 0 9 12 A 4 4 0 0 0 9 4 z M 38.064453 6 C 35.819453 6 34 7.791 34 10 C 34 12.209 35.819453 14 38.064453 14 C 40.320453 14 42.955469 11.894281 44.230469 10.738281 C 44.670469 10.339281 44.670469 9.6597187 44.230469 9.2617188 C 42.955469 8.1057188 40.320453 6 38.064453 6 z M 8.5 14 C 5.4802259 14 3 16.480226 3 19.5 L 3 31 A 1.50015 1.50015 0 0 0 4 32.433594 L 4 42.5 A 1.50015 1.50015 0 1 0 7 42.5 L 7 32 L 11 32 L 11 42.5 A 1.50015 1.50015 0 1 0 14 42.5 L 14 32.433594 A 1.50015 1.50015 0 0 0 14.369141 32.242188 A 1.50015 1.50015 0 0 0 15.748047 32.037109 L 19 29.695312 L 19 37 L 19 42.5 A 1.50015 1.50015 0 1 0 22 42.5 L 22 37 L 25 37 L 25 42.5 A 1.50015 1.50015 0 1 0 28 42.5 L 28 37 L 28 29.720703 L 31.121094 31.96875 L 31.011719 32.808594 A 1.5005388 1.5005388 0 0 0 33 34.414062 L 33 42.5 A 1.50015 1.50015 0 1 0 36 42.5 L 36 34 L 40 34 L 40 42.5 A 1.50015 1.50015 0 1 0 43 42.5 L 43 34.416016 A 1.5005388 1.5005388 0 0 0 44.988281 32.808594 L 43.435547 20.779297 C 43.084577 18.057907 40.744258 16 38 16 C 35.255742 16 32.915423 18.057907 32.564453 20.779297 L 31.556641 28.585938 L 26.845703 25.195312 C 26.120257 24.459234 25.115033 24 24 24 L 23 24 C 21.98136 24 21.061708 24.392477 20.355469 25.019531 L 15 28.878906 L 15 19.5 C 15 16.480226 12.519774 14 9.5 14 L 8.5 14 z M 23.5 15 A 3.5 3.5 0 1 0 23.5 22 A 3.5 3.5 0 1 0 23.5 15 z"/></svg>