<svg xmlns="http://www.w3.org/2000/svg"  viewBox="0 0 48 48" width="24px" height="24px"><path d="M 22.5 5 A 1.50015 1.50015 0 0 0 21 6.5 L 21 10 L 20.5 10 C 19.34203 10 18.301263 10.474942 17.5 11.205078 C 16.698737 10.474942 15.65797 10 14.5 10 L 12 10 L 12 7.5 A 1.50015 1.50015 0 0 0 10.476562 5.9785156 A 1.50015 1.50015 0 0 0 9 7.5 L 9 10.306641 C 7.267923 10.934802 6 12.56309 6 14.5 L 6 37.5 C 6 39.967501 8.0324991 42 10.5 42 L 14.5 42 C 15.65797 42 16.698737 41.525058 17.5 40.794922 C 18.301263 41.525058 19.34203 42 20.5 42 L 37.5 42 C 39.967501 42 42 39.967501 42 37.5 L 42 14.5 C 42 12.032499 39.967501 10 37.5 10 L 37 10 L 37 6.5 A 1.50015 1.50015 0 0 0 35.5 5 L 22.5 5 z M 24 8 L 34 8 L 34 11.253906 A 1.50015 1.50015 0 0 0 34 11.740234 L 34 17 L 24 17 L 24 11.746094 A 1.50015 1.50015 0 0 0 24 11.259766 L 24 8 z M 10.740234 13 L 14.5 13 C 15.346499 13 16 13.653501 16 14.5 L 16 37.5 C 16 38.346499 15.346499 39 14.5 39 L 10.5 39 C 9.6535009 39 9 38.346499 9 37.5 L 9 14.5 C 9 13.672153 9.6338142 13.047477 10.453125 13.019531 A 1.50015 1.50015 0 0 0 10.740234 13 z M 20.5 13 L 21 13 L 21 18.5 A 1.50015 1.50015 0 0 0 22.5 20 L 35.5 20 A 1.50015 1.50015 0 0 0 37 18.5 L 37 13 L 37.5 13 C 38.346499 13 39 13.653501 39 14.5 L 39 37.5 C 39 38.346499 38.346499 39 37.5 39 L 20.5 39 C 19.653501 39 19 38.346499 19 37.5 L 19 14.5 C 19 13.653501 19.653501 13 20.5 13 z M 23.5 23 A 1.5 1.5 0 0 0 23.5 26 A 1.5 1.5 0 0 0 23.5 23 z M 29 23 A 1.5 1.5 0 0 0 29 26 A 1.5 1.5 0 0 0 29 23 z M 34.5 23 A 1.5 1.5 0 0 0 34.5 26 A 1.5 1.5 0 0 0 34.5 23 z M 23.5 28 A 1.5 1.5 0 0 0 23.5 31 A 1.5 1.5 0 0 0 23.5 28 z M 29 28 A 1.5 1.5 0 0 0 29 31 A 1.5 1.5 0 0 0 29 28 z M 34.5 28 A 1.5 1.5 0 0 0 34.5 31 A 1.5 1.5 0 0 0 34.5 28 z M 23.5 33 A 1.5 1.5 0 0 0 23.5 36 A 1.5 1.5 0 0 0 23.5 33 z M 29 33 A 1.5 1.5 0 0 0 29 36 A 1.5 1.5 0 0 0 29 33 z M 34.5 33 A 1.5 1.5 0 0 0 34.5 36 A 1.5 1.5 0 0 0 34.5 33 z"/></svg>