<svg width="16" height="16" viewBox="0 0 16 16" fill="none" xmlns="http://www.w3.org/2000/svg">
<path d="M6.82536 1.3262C6.80091 1.3268 6.77654 1.32919 6.75244 1.33336H4.1665C3.344 1.33336 2.6665 2.01086 2.6665 2.83336V13.1667C2.6665 13.9892 3.344 14.6667 4.1665 14.6667H11.8332C12.6557 14.6667 13.3332 13.9892 13.3332 13.1667V2.83336C13.3332 2.01086 12.6557 1.33336 11.8332 1.33336H9.24854C9.19486 1.32454 9.1401 1.32454 9.08643 1.33336H6.9152C6.88553 1.32828 6.85546 1.32588 6.82536 1.3262ZM4.1665 2.33336H6.33317V2.50003C6.33318 2.63263 6.38587 2.7598 6.47963 2.85357C6.5734 2.94733 6.70057 3.00002 6.83317 3.00003H9.1665C9.29911 3.00002 9.42628 2.94733 9.52004 2.85357C9.61381 2.7598 9.66649 2.63263 9.6665 2.50003V2.33336H11.8332C12.1153 2.33336 12.3332 2.5512 12.3332 2.83336V13.1667C12.3332 13.4489 12.1153 13.6667 11.8332 13.6667H4.1665C3.88434 13.6667 3.6665 13.4489 3.6665 13.1667V2.83336C3.6665 2.5512 3.88434 2.33336 4.1665 2.33336ZM6.83317 3.6667C6.76691 3.66576 6.70113 3.678 6.63965 3.70271C6.57817 3.72741 6.5222 3.76409 6.47502 3.81062C6.42783 3.85714 6.39037 3.91257 6.36479 3.9737C6.33922 4.03483 6.32605 4.10043 6.32605 4.1667C6.32605 4.23296 6.33922 4.29856 6.36479 4.35969C6.39037 4.42082 6.42783 4.47625 6.47502 4.52278C6.5222 4.5693 6.57817 4.60598 6.63965 4.63068C6.70113 4.65539 6.76691 4.66763 6.83317 4.6667H9.1665C9.23276 4.66763 9.29854 4.65539 9.36003 4.63068C9.42151 4.60598 9.47747 4.5693 9.52466 4.52278C9.57184 4.47625 9.60931 4.42082 9.63488 4.35969C9.66046 4.29856 9.67363 4.23296 9.67363 4.1667C9.67363 4.10043 9.66046 4.03483 9.63488 3.9737C9.60931 3.91257 9.57184 3.85714 9.52466 3.81062C9.47747 3.76409 9.42151 3.72741 9.36003 3.70271C9.29854 3.678 9.23276 3.66576 9.1665 3.6667H6.83317ZM6.83317 5.33336C6.76691 5.33242 6.70113 5.34467 6.63965 5.36937C6.57817 5.39408 6.5222 5.43076 6.47502 5.47728C6.42783 5.5238 6.39037 5.57924 6.36479 5.64037C6.33922 5.7015 6.32605 5.7671 6.32605 5.83336C6.32605 5.89962 6.33922 5.96523 6.36479 6.02635C6.39037 6.08748 6.42783 6.14292 6.47502 6.18944C6.5222 6.23596 6.57817 6.27264 6.63965 6.29735C6.70113 6.32206 6.76691 6.3343 6.83317 6.33336H9.1665C9.23276 6.3343 9.29854 6.32206 9.36003 6.29735C9.42151 6.27264 9.47747 6.23596 9.52466 6.18944C9.57184 6.14292 9.60931 6.08748 9.63488 6.02635C9.66046 5.96523 9.67363 5.89962 9.67363 5.83336C9.67363 5.7671 9.66046 5.7015 9.63488 5.64037C9.60931 5.57924 9.57184 5.5238 9.52466 5.47728C9.47747 5.43076 9.42151 5.39408 9.36003 5.36937C9.29854 5.34467 9.23276 5.33242 9.1665 5.33336H6.83317ZM6.83317 7.00003C6.73323 7.00006 6.6356 7.03003 6.55286 7.08608C6.47012 7.14213 6.40607 7.22168 6.36898 7.31448C6.36898 7.31448 5.6665 8.97622 5.6665 10.3334C5.6665 11.6162 6.71704 12.6667 7.99984 12.6667C9.28264 12.6667 10.3332 11.6162 10.3332 10.3334C10.3332 8.97622 9.6307 7.31448 9.6307 7.31448C9.5936 7.22168 9.52956 7.14213 9.44682 7.08608C9.36408 7.03003 9.26644 7.00006 9.1665 7.00003H6.83317ZM7.19385 8.00003H8.80583C8.95055 8.40544 9.33317 9.51744 9.33317 10.3334C9.33317 11.0759 8.74237 11.6667 7.99984 11.6667C7.2573 11.6667 6.6665 11.0759 6.6665 10.3334C6.6665 9.51744 7.04912 8.40544 7.19385 8.00003ZM7.99984 9.66669C7.82303 9.66669 7.65346 9.73693 7.52843 9.86196C7.40341 9.98698 7.33317 10.1566 7.33317 10.3334C7.33317 10.5102 7.40341 10.6797 7.52843 10.8048C7.65346 10.9298 7.82303 11 7.99984 11C8.17665 11 8.34622 10.9298 8.47124 10.8048C8.59627 10.6797 8.6665 10.5102 8.6665 10.3334C8.6665 10.1566 8.59627 9.98698 8.47124 9.86196C8.34622 9.73693 8.17665 9.66669 7.99984 9.66669Z" fill="#1A1A1A"/>
</svg>
