<svg width="16" height="16" viewBox="0 0 16 16" fill="none" xmlns="http://www.w3.org/2000/svg">
<path d="M6.00016 2.33398C2.87647 2.33398 0.333496 4.87696 0.333496 8.00065C0.333496 11.1243 2.87647 13.6673 6.00016 13.6673C6.34182 13.6673 6.67497 13.6318 7.00016 13.5736C7.32421 13.6318 7.65735 13.6673 8.00016 13.6673C8.34197 13.6673 8.67483 13.6319 9.00016 13.5736C9.32421 13.6318 9.65735 13.6673 10.0002 13.6673C13.1237 13.6673 15.6668 11.1242 15.6668 8.00065C15.6668 4.87707 13.1237 2.33398 10.0002 2.33398C9.65735 2.33398 9.32421 2.3695 9.00016 2.42773C8.67483 2.3694 8.34197 2.33398 8.00016 2.33398C7.65735 2.33398 7.32421 2.3695 7.00016 2.42773C6.67497 2.36946 6.34182 2.33398 6.00016 2.33398ZM6.00016 3.33398C6.29068 3.33398 6.5735 3.36362 6.84912 3.41406C6.88622 3.42496 6.92445 3.43151 6.96305 3.43359C9.0818 3.87578 10.6668 5.7478 10.6668 8.00065C10.6668 10.2537 9.08146 12.1258 6.9624 12.5677C6.92336 12.5697 6.88468 12.5762 6.84717 12.5872C6.57214 12.6375 6.29001 12.6673 6.00016 12.6673C3.41691 12.6673 1.3335 10.5839 1.3335 8.00065C1.3335 5.4174 3.41691 3.33398 6.00016 3.33398ZM9.57829 3.61198C11.3803 4.25762 12.6668 5.97267 12.6668 8.00065C12.6668 10.0286 11.3803 11.7437 9.57829 12.3893C10.8516 11.3492 11.6668 9.76854 11.6668 8.00065C11.6668 6.23276 10.8516 4.65212 9.57829 3.61198ZM11.5783 3.61198C13.3803 4.25762 14.6668 5.97267 14.6668 8.00065C14.6668 10.0286 13.3803 11.7437 11.5783 12.3893C12.8517 11.3492 13.6668 9.76848 13.6668 8.00065C13.6668 6.23283 12.8517 4.65214 11.5783 3.61198ZM5.28206 5.66732C5.04173 5.66732 4.83486 5.83854 4.79053 6.07487L4.50863 7.57487C4.48129 7.7212 4.5204 7.87199 4.6154 7.98633C4.71006 8.10066 4.8515 8.16732 5.00016 8.16732H6.0835C6.40516 8.16732 6.66683 8.42898 6.66683 8.75065C6.66683 9.23265 6.3045 9.33398 6.00016 9.33398C5.46183 9.33398 5.1618 9.12147 5.14014 9.10547C4.92447 8.9378 4.61354 8.97415 4.44287 9.18815C4.2702 9.40382 4.30533 9.71861 4.521 9.89128C4.57766 9.93661 5.10083 10.334 6.00016 10.334C6.9815 10.334 7.66651 9.68298 7.66618 8.75065C7.66618 7.87765 6.95584 7.16732 6.08284 7.16732H5.60303L5.69678 6.66732H7.00016C7.2765 6.66732 7.50016 6.44365 7.50016 6.16732C7.50016 5.89098 7.2765 5.66732 7.00016 5.66732H5.28206Z" fill="#1A1A1A"/>
</svg>
