<svg xmlns="http://www.w3.org/2000/svg"  viewBox="0 0 48 48" width="24px" height="24px"><path d="M 24 4 C 12.972066 4 4 12.972074 4 24 C 4 35.027926 12.972066 44 24 44 C 35.027934 44 44 35.027926 44 24 C 44 12.972074 35.027934 4 24 4 z M 24.025391 7.0019531 C 25.025955 7.0034282 26.000703 7.1051452 26.953125 7.2714844 C 26.242613 8.8892295 25.353101 10.403273 24.318359 11.808594 C 24.119359 10.56774 24 9.2988318 24 8 C 24 7.6664771 24.010979 7.3336453 24.025391 7.0019531 z M 21.017578 7.2753906 C 21.010665 7.5167102 21 7.7562773 21 8 C 21 10.306192 21.298335 12.542506 21.845703 14.679688 C 20.525529 15.990989 19.068413 17.166799 17.484375 18.164062 C 16.713979 17.481271 15.692963 17 14.5 17 C 13.125 17 11.903815 17.569633 11.128906 18.441406 C 10.417481 19.24176 10.098581 20.240204 10.044922 21.236328 C 9.0930895 21.459768 8.1344501 21.665165 7.15625 21.806641 C 8.1043897 14.42803 13.750545 8.5575412 21.017578 7.2753906 z M 29.884766 8.0644531 C 36.376168 10.455003 41 16.666599 41 24 C 41 26.306887 40.53711 28.502333 39.708984 30.505859 C 37.954283 29.855796 36.298015 29.004272 34.759766 27.978516 C 34.915385 27.497147 35 26.99723 35 26.5 C 35 25.416667 34.646003 24.313179 33.871094 23.441406 C 33.096185 22.569633 31.875 22 30.5 22 C 29.888245 22 29.31026 22.118355 28.785156 22.320312 C 27.24608 20.262052 26.034611 17.956199 25.214844 15.466797 C 27.143055 13.279929 28.739757 10.798621 29.884766 8.0644531 z M 22.867188 17.841797 C 23.78803 20.181869 25.039245 22.350199 26.539062 24.318359 C 26.180854 25.001691 26 25.753359 26 26.5 C 26 27.583333 26.353997 28.686821 27.128906 29.558594 C 27.903815 30.430367 29.125 31 30.5 31 C 31.394673 31 32.208714 30.740677 32.892578 30.332031 C 34.569982 31.472063 36.37122 32.446321 38.294922 33.191406 C 36.841089 35.451271 34.869085 37.337573 32.541016 38.691406 C 30.131282 36.124601 27.235645 34.02155 23.998047 32.527344 C 23.998097 32.518236 24 32.509105 24 32.5 C 24 31.416667 23.646003 30.313179 22.871094 29.441406 C 22.096185 28.569633 20.875 28 19.5 28 C 18.125 28 16.903815 28.569633 16.128906 29.441406 C 15.919138 29.677396 15.745111 29.932313 15.595703 30.197266 C 14.579117 30.081053 13.551277 30 12.5 30 C 11.047231 30 9.6207262 30.118081 8.2285156 30.335938 C 7.5441578 28.628764 7.1383862 26.782591 7.0429688 24.851562 C 8.3474699 24.695548 9.6146729 24.420517 10.869141 24.119141 C 10.967541 24.261163 11.011375 24.426371 11.128906 24.558594 C 11.903815 25.430367 13.125 26 14.5 26 C 15.875 26 17.096185 25.430367 17.871094 24.558594 C 18.646003 23.686821 19 22.583333 19 21.5 C 19 21.273168 18.916418 21.05249 18.884766 20.826172 C 20.302972 19.950072 21.630207 18.945226 22.867188 17.841797 z M 14.5 20 C 15.124999 20 15.403816 20.180367 15.628906 20.433594 C 15.853997 20.686821 16 21.083333 16 21.5 C 16 21.916667 15.853997 22.313179 15.628906 22.566406 C 15.403816 22.819633 15.124999 23 14.5 23 C 13.875001 23 13.596184 22.819633 13.371094 22.566406 C 13.146003 22.313179 13 21.916667 13 21.5 C 13 21.083333 13.146003 20.686821 13.371094 20.433594 C 13.596184 20.180367 13.875001 20 14.5 20 z M 30.5 25 C 31.124999 25 31.403816 25.180367 31.628906 25.433594 C 31.853997 25.686821 32 26.083333 32 26.5 C 32 26.916667 31.853997 27.313179 31.628906 27.566406 C 31.403816 27.819633 31.124999 28 30.5 28 C 29.875001 28 29.596184 27.819633 29.371094 27.566406 C 29.146003 27.313179 29 26.916667 29 26.5 C 29 26.083333 29.146003 25.686821 29.371094 25.433594 C 29.596184 25.180367 29.875001 25 30.5 25 z M 19.5 31 C 20.124999 31 20.403816 31.180367 20.628906 31.433594 C 20.853997 31.686821 21 32.083333 21 32.5 C 21 32.916667 20.853997 33.313179 20.628906 33.566406 C 20.403816 33.819633 20.124999 34 19.5 34 C 18.875001 34 18.596184 33.819633 18.371094 33.566406 C 18.146003 33.313179 18 32.916667 18 32.5 C 18 32.083333 18.146003 31.686821 18.371094 31.433594 C 18.596184 31.180367 18.875001 31 19.5 31 z M 12.5 33 C 13.363289 33 14.212382 33.063145 15.054688 33.152344 C 15.170425 34.016591 15.509534 34.8618 16.128906 35.558594 C 16.903815 36.430367 18.125 37 19.5 37 C 20.875 37 22.096185 36.430367 22.871094 35.558594 C 22.923899 35.499188 22.958895 35.430619 23.007812 35.369141 C 25.477803 36.545173 27.715297 38.127999 29.646484 40.023438 C 27.878464 40.644458 25.983441 41 24 41 C 17.975872 41 12.708085 37.876392 9.6894531 33.166016 C 10.612121 33.059854 11.548797 33 12.5 33 z"/></svg>