<svg xmlns="http://www.w3.org/2000/svg"  viewBox="0 0 48 48" width="24px" height="24px"><path d="M 24 4 C 12.972066 4 4 12.972074 4 24 C 4 35.027926 12.972066 44 24 44 C 35.027934 44 44 35.027926 44 24 C 44 12.972074 35.027934 4 24 4 z M 24 7 C 26.356324 7 28.598804 7.4777508 30.636719 8.3398438 L 28.693359 12.021484 C 27.235045 11.453328 25.655557 11.130859 24 11.130859 C 22.344443 11.130859 20.764955 11.453328 19.306641 12.021484 L 17.363281 8.3398438 C 19.401196 7.4777508 21.643676 7 24 7 z M 14.720703 9.7578125 L 16.654297 13.419922 C 13.24523 15.767154 11 19.693071 11 24.130859 C 11 31.292793 16.838061 37.13086 24 37.130859 C 31.161939 37.130859 37 31.292793 37 24.130859 C 37 19.693071 34.75477 15.767154 31.345703 13.419922 L 33.279297 9.7578125 C 37.92748 12.787936 41 18.023365 41 24 C 41 33.406609 33.406615 41 24 41 C 14.593385 41 7 33.406609 7 24 C 7 18.023365 10.07252 12.787936 14.720703 9.7578125 z M 24 14.130859 C 25.153568 14.130859 26.255816 14.33333 27.285156 14.689453 L 25.326172 18.400391 C 24.88399 18.305578 24.48445 18.130859 24 18.130859 C 23.51555 18.130859 23.11601 18.305578 22.673828 18.400391 L 20.714844 14.689453 C 21.744184 14.33333 22.846432 14.130859 24 14.130859 z M 18.060547 16.087891 L 19.970703 19.705078 C 19.830773 19.832134 19.627686 19.89981 19.503906 20.039062 C 18.478997 21.192085 18 22.672526 18 24.130859 C 18 25.589193 18.478997 27.06768 19.503906 28.220703 C 20.528815 29.373726 22.125 30.130859 24 30.130859 C 25.875 30.130859 27.471185 29.373726 28.496094 28.220703 C 29.521003 27.06768 30 25.589193 30 24.130859 C 30 22.672526 29.521003 21.192085 28.496094 20.039062 C 28.372314 19.89981 28.169227 19.832134 28.029297 19.705078 L 29.939453 16.087891 C 32.402109 17.905873 34 20.820973 34 24.130859 C 34 29.671475 29.540619 34.130859 24 34.130859 C 18.459381 34.13086 14 29.671475 14 24.130859 C 14 20.820973 15.597891 17.905873 18.060547 16.087891 z M 24 21.130859 C 25.124999 21.130859 25.778816 21.498726 26.253906 22.033203 C 26.728997 22.56768 27 23.339193 27 24.130859 C 27 24.922526 26.728997 25.692085 26.253906 26.226562 C 25.778816 26.761041 25.124999 27.130859 24 27.130859 C 22.875001 27.130859 22.221184 26.761041 21.746094 26.226562 C 21.271003 25.692085 21 24.922526 21 24.130859 C 21 23.339193 21.271003 22.56768 21.746094 22.033203 C 22.221184 21.498726 22.875001 21.130859 24 21.130859 z"/></svg>