<svg xmlns="http://www.w3.org/2000/svg"  viewBox="0 0 48 48" width="24px" height="24px"><path d="M 24.019531 2.984375 A 1.50015 1.50015 0 0 0 23.019531 3.3496094 C 23.019531 3.3496094 19.285906 6.5759653 15.5625 11.40625 C 11.839094 16.236535 8 22.717802 8 29.566406 C 8 38.105071 15.212904 45 24 45 C 32.787096 45 40 38.105071 40 29.566406 C 40 22.717802 36.160906 16.236535 32.4375 11.40625 C 28.714094 6.5759653 24.980469 3.3496094 24.980469 3.3496094 A 1.50015 1.50015 0 0 0 24.019531 2.984375 z M 24 6.5527344 C 25.082955 7.548903 27.322088 9.683211 30.0625 13.238281 C 33.589094 17.813247 37 23.87401 37 29.566406 C 37 33.803154 34.790232 37.550639 31.396484 39.796875 C 31.48725 39.566535 31.571448 39.331457 31.642578 39.091797 C 31.874852 38.30919 32 37.480637 32 36.625 C 32 33.006205 30.246422 29.131773 28.570312 26.029297 C 26.894205 22.926821 25.212891 20.617187 25.212891 20.617188 A 1.50015 1.50015 0 0 0 23.912109 20.001953 A 1.50015 1.50015 0 0 0 22.787109 20.617188 C 22.787109 20.617188 21.105795 22.926821 19.429688 26.029297 C 17.753578 29.131773 16 33.006205 16 36.625 C 16 37.480637 16.125148 38.30919 16.357422 39.091797 C 16.428552 39.331457 16.51275 39.566535 16.603516 39.796875 C 13.209768 37.550639 11 33.803154 11 29.566406 C 11 23.87401 14.410906 17.813247 17.9375 13.238281 C 20.677912 9.6832109 22.917045 7.548903 24 6.5527344 z M 24 24.339844 C 24.60075 25.234894 24.963104 25.665933 25.929688 27.455078 C 27.503578 30.368352 29 34.056795 29 36.625 C 29 39.655605 26.732618 42 24 42 C 21.267382 42 19 39.655605 19 36.625 C 19 36.303974 19.022414 35.965612 19.066406 35.613281 C 19.374349 33.146964 20.693158 30.004193 22.070312 27.455078 C 23.036896 25.665933 23.39925 25.234894 24 24.339844 z"/></svg>