<svg xmlns="http://www.w3.org/2000/svg"  viewBox="0 0 48 48" width="24px" height="24px"><path d="M 3.4980469 8 A 1.50015 1.50015 0 0 0 1.9980469 9.5 L 1.9980469 38.5 A 1.50015 1.50015 0 0 0 3.4980469 40 L 44.498047 40 A 1.50015 1.50015 0 0 0 45.998047 38.5 L 45.998047 9.5 A 1.50015 1.50015 0 0 0 44.498047 8 L 3.4980469 8 z M 4.9980469 11 L 42.998047 11 L 42.998047 37 L 4.9980469 37 L 4.9980469 11 z M 20.291016 19.988281 C 18.476016 19.988281 16.998047 21.782281 16.998047 23.988281 C 16.998047 26.194281 18.476016 27.988281 20.291016 27.988281 C 21.733016 27.988281 22.605531 27.012547 22.894531 26.435547 C 22.963531 26.297547 22.998047 26.143281 22.998047 25.988281 L 22.998047 24.988281 C 22.998047 24.436281 22.551047 23.988281 21.998047 23.988281 C 21.446047 23.988281 20.998047 24.436281 20.998047 24.988281 L 20.998047 25.679688 C 20.873047 25.817688 20.647016 25.988281 20.291016 25.988281 C 19.603016 25.988281 18.998047 25.053281 18.998047 23.988281 C 18.998047 22.923281 19.603016 21.988281 20.291016 21.988281 C 20.827016 21.988281 21.071469 22.376547 21.105469 22.435547 C 21.352469 22.929547 21.952266 23.130813 22.447266 22.882812 C 22.941266 22.634813 23.141531 22.035016 22.894531 21.541016 C 22.605531 20.964016 21.733016 19.988281 20.291016 19.988281 z M 12 19.994141 C 11.448 19.994141 11 20.442141 11 20.994141 L 11 26.994141 C 11 27.546141 11.448 27.994141 12 27.994141 L 15 27.994141 C 15.552 27.994141 16 27.546141 16 26.994141 C 16 26.442141 15.552 25.994141 15 25.994141 L 13 25.994141 L 13 20.994141 C 13 20.442141 12.552 19.994141 12 19.994141 z M 25.996094 19.994141 C 25.444094 19.994141 24.996094 20.442141 24.996094 20.994141 L 24.996094 26.994141 C 24.996094 27.546141 25.444094 27.994141 25.996094 27.994141 L 28.412109 27.990234 C 28.490109 27.996234 28.567531 28 28.644531 28 C 29.210531 28 29.721859 27.81875 30.130859 27.46875 C 30.485859 27.16375 30.922141 26.5865 30.994141 25.5625 C 31.038141 24.9195 30.817141 24.2985 30.369141 23.8125 C 30.608141 23.4295 30.746094 22.978141 30.746094 22.494141 C 30.746094 21.116141 29.624094 19.994141 28.246094 19.994141 L 25.996094 19.994141 z M 32.998047 20 C 32.446047 20 31.998047 20.448 31.998047 21 C 31.998047 21.552 32.446047 22 32.998047 22 L 33.998047 22 L 33.998047 27 C 33.998047 27.552 34.446047 28 34.998047 28 C 35.550047 28 35.998047 27.552 35.998047 27 L 35.998047 22 L 36.998047 22 C 37.550047 22 37.998047 21.552 37.998047 21 C 37.998047 20.448 37.550047 20 36.998047 20 L 32.998047 20 z M 26.996094 21.994141 L 28.246094 21.994141 C 28.522094 21.994141 28.746094 22.218141 28.746094 22.494141 C 28.746094 22.770141 28.522094 22.994141 28.246094 22.994141 L 26.996094 22.994141 L 26.996094 21.994141 z M 26.996094 24.994141 L 28.285156 24.994141 L 28.496094 24.994141 C 28.772094 24.994141 28.996094 25.218141 28.996094 25.494141 C 28.996094 25.770141 28.772094 25.994141 28.496094 25.994141 L 26.996094 25.994141 L 26.996094 24.994141 z"/></svg>