<svg xmlns="http://www.w3.org/2000/svg"  viewBox="0 0 48 48" width="24px" height="24px"><path d="M 24.533203 2.0117188 C 20.8681 2.0117188 18.365949 4.7795043 16.828125 7.2324219 C 15.847215 8.7970296 15.304823 10.089428 14.958984 11.007812 C 14.841306 11.005452 14.868538 11 14.736328 11 C 13.321097 11 11.033787 11.129604 8.7714844 11.976562 C 6.5091819 12.823522 4.1842051 14.534485 3.3398438 17.492188 C 2.2596565 21.271639 4.063808 24.566829 5.9433594 26.716797 C 7.113704 28.055522 8.1752273 28.888873 8.9589844 29.449219 C 8.689944 30.364841 8.366628 31.662145 8.2382812 33.417969 C 8.031391 36.248294 8.4685583 39.915684 11.367188 42.339844 C 12.800486 43.538217 14.505401 44.011719 16.099609 44.011719 C 20.240936 44.011719 23.351409 41.689942 24.517578 40.753906 C 25.664025 41.715642 28.630616 44.011719 32.789062 44.011719 C 34.211481 44.011719 35.699612 43.694434 37.019531 42.837891 A 1.50015 1.50015 0 0 0 37.021484 42.837891 C 40.063337 40.858854 40.569982 37.071389 40.525391 34.056641 C 40.493901 31.927663 40.211634 30.385886 40.013672 29.449219 C 40.73917 28.880881 41.82554 27.967881 43.064453 26.474609 C 44.888663 24.275875 46.705289 21.066585 45.734375 17.507812 C 44.855905 14.290558 41.988044 12.662416 39.416016 11.882812 C 37.229173 11.219962 35.300985 11.108345 34.134766 11.080078 C 33.800355 10.178041 33.258867 8.8566593 32.240234 7.2324219 C 30.702279 4.7801098 28.199502 2.0117188 24.533203 2.0117188 z M 24.533203 5.0117188 C 26.632904 5.0117188 28.404674 6.7619839 29.699219 8.8261719 C 30.993764 10.89036 31.646484 12.986328 31.646484 12.986328 A 1.50015 1.50015 0 0 0 33.128906 14.044922 C 33.128906 14.044922 33.222436 14.041016 33.419922 14.041016 C 34.198717 14.041016 36.4602 14.122006 38.544922 14.753906 C 40.629644 15.385803 42.334267 16.43813 42.841797 18.296875 C 43.430883 20.456103 42.28515 22.717281 40.755859 24.560547 C 39.226569 26.403813 37.501953 27.615234 37.501953 27.615234 A 1.50015 1.50015 0 0 0 36.908203 29.216797 C 36.908203 29.216797 37.486982 31.504811 37.525391 34.101562 C 37.563801 36.698315 36.990913 39.277302 35.384766 40.322266 C 34.637053 40.806988 33.77795 41.011719 32.789062 41.011719 C 29.421923 41.011719 25.533203 37.798828 25.533203 37.798828 A 1.50015 1.50015 0 0 0 23.572266 37.767578 C 23.572266 37.767578 19.37875 41.011719 16.099609 41.011719 C 15.055818 41.011719 14.151717 40.758691 13.291016 40.039062 C 11.434729 38.487215 11.058888 35.984001 11.230469 33.636719 C 11.40205 31.289436 12.113281 29.373047 12.113281 29.373047 A 1.50015 1.50015 0 0 0 11.484375 27.5625 C 11.484375 27.5625 9.7326205 26.49397 8.2011719 24.742188 C 6.6697233 22.990405 5.5107966 20.813955 6.2246094 18.316406 C 6.766248 16.419108 8.1093181 15.428401 9.8222656 14.787109 C 11.535213 14.145818 13.530559 14 14.736328 14 C 15.441828 14 15.837891 14.041016 15.837891 14.041016 A 1.50015 1.50015 0 0 0 17.419922 12.990234 C 17.419922 12.990234 18.076418 10.891254 19.371094 8.8261719 C 20.66577 6.7610894 22.436306 5.0117188 24.533203 5.0117188 z M 24.496094 17 C 21.937094 17 24.068359 23.978516 24.068359 23.978516 C 24.068359 23.978516 18.487078 19.713094 17.580078 22.246094 C 16.672078 24.778094 23.806641 24.826172 23.806641 24.826172 C 23.806641 24.826172 18.384656 29.084328 20.222656 30.736328 C 22.059656 32.388328 24.496094 25.353516 24.496094 25.353516 C 24.496094 25.353516 26.747438 32.438328 28.773438 30.736328 C 30.794438 29.032328 25.189453 24.826172 25.189453 24.826172 C 25.189453 24.826172 32.361063 24.772094 31.414062 22.246094 C 30.469062 19.720094 24.925781 23.978516 24.925781 23.978516 C 24.925781 23.978516 27.055094 17 24.496094 17 z"/></svg>