<svg xmlns="http://www.w3.org/2000/svg"  viewBox="0 0 48 48" width="24px" height="24px"><path d="M 8.5 8 C 6.0324991 8 4 10.032499 4 12.5 L 4 35.5 C 4 37.967501 6.0324991 40 8.5 40 L 39.5 40 C 41.967501 40 44 37.967501 44 35.5 L 44 17.5 C 44 15.032499 41.967501 13 39.5 13 L 24.042969 13 L 19.574219 9.2753906 A 1.50015 1.50015 0 0 0 19.572266 9.2753906 C 18.584102 8.4521105 17.339162 8 16.052734 8 L 8.5 8 z M 8.5 11 L 16.052734 11 C 16.638307 11 17.202555 11.205358 17.652344 11.580078 L 22.539062 15.652344 A 1.50015 1.50015 0 0 0 23.5 16 L 39.5 16 C 40.346499 16 41 16.653501 41 17.5 L 41 35.5 C 41 36.346499 40.346499 37 39.5 37 L 8.5 37 C 7.6535009 37 7 36.346499 7 35.5 L 7 12.5 C 7 11.653501 7.6535009 11 8.5 11 z M 23.976562 18.990234 A 1.50015 1.50015 0 0 0 22.5 20.511719 L 22.5 29.160156 L 20.496094 27.378906 A 1.50015 1.50015 0 0 0 19.544922 26.986328 A 1.50015 1.50015 0 0 0 18.503906 29.621094 L 23.003906 33.621094 A 1.50015 1.50015 0 0 0 24.996094 33.621094 L 29.496094 29.621094 A 1.50015 1.50015 0 1 0 27.503906 27.378906 L 25.5 29.160156 L 25.5 20.511719 A 1.50015 1.50015 0 0 0 23.976562 18.990234 z"/></svg>