<svg width="16" height="16" viewBox="0 0 16 16" fill="none" xmlns="http://www.w3.org/2000/svg">
<path d="M2.8335 2.66602C2.011 2.66602 1.3335 3.34352 1.3335 4.16602V11.8327C1.3335 12.6552 2.011 13.3327 2.8335 13.3327H13.1668C13.9893 13.3327 14.6668 12.6552 14.6668 11.8327V5.83268C14.6668 5.01018 13.9893 4.33268 13.1668 4.33268H8.01449L6.52425 3.09115C6.19485 2.81672 5.77988 2.66602 5.35107 2.66602H2.8335ZM2.8335 3.66602H5.35107C5.54626 3.66602 5.73435 3.73447 5.88428 3.85938L7.05225 4.83268L5.88428 5.80599C5.73435 5.9309 5.54626 5.99935 5.35107 5.99935H2.3335V4.16602C2.3335 3.88385 2.55133 3.66602 2.8335 3.66602ZM8.01449 5.33268H13.1668C13.449 5.33268 13.6668 5.55052 13.6668 5.83268V11.8327C13.6668 12.1148 13.449 12.3327 13.1668 12.3327H2.8335C2.55133 12.3327 2.3335 12.1148 2.3335 11.8327V6.99935H5.35107C5.77988 6.99935 6.19485 6.84865 6.52425 6.57422L8.01449 5.33268Z" fill="#1A1A1A"/>
</svg>
