<svg xmlns="http://www.w3.org/2000/svg"  viewBox="0 0 48 48" width="24px" height="24px"><path d="M 21.755859 7 C 16.749726 7 13.465042 8.9656146 11.568359 10.96875 C 9.6716767 12.971885 9.0585937 15.087891 9.0585938 15.087891 A 1.50015 1.50015 0 1 0 11.941406 15.912109 C 11.941406 15.912109 12.328777 14.528115 13.746094 13.03125 C 15.163411 11.534385 17.505992 10 21.755859 10 L 23.005859 10 C 21.855645 14.662245 20.830741 18.66555 19.921875 22 L 17.5 22 A 1.50015 1.50015 0 1 0 17.5 25 L 19.083984 25 C 17.680253 29.903374 16.530449 33.247053 15.517578 35.347656 C 14.588589 37.274295 13.822414 38.115172 13.21875 38.501953 C 12.615086 38.888734 11.97947 39 10.767578 39 C 10.001412 39 8.6822633 38.668636 7.6523438 38.294922 C 6.6224242 37.921208 5.8886719 37.556641 5.8886719 37.556641 A 2.0002433 2.0002433 0 1 0 4.1113281 41.140625 C 4.1113281 41.140625 5.0439821 41.602901 6.2890625 42.054688 C 7.5341429 42.506473 9.0977446 43 10.767578 43 C 12.262686 43 13.889618 42.824063 15.376953 41.871094 C 16.864289 40.918125 18.018629 39.366346 19.119141 37.083984 C 20.403597 34.420138 21.699747 30.582961 23.259766 25 L 32.5 25 A 1.50015 1.50015 0 1 0 32.5 22 L 24.078125 22 C 24.98209 18.617831 25.968879 14.733331 27.105469 10.105469 A 2.0002 2.0002 0 0 0 27.126953 10 L 41.5 10 A 1.50015 1.50015 0 1 0 41.5 7 L 21.755859 7 z"/></svg>