<svg xmlns="http://www.w3.org/2000/svg"  viewBox="0 0 48 48" width="24px" height="24px"><path d="M 29.476562 5.9785156 A 1.50015 1.50015 0 0 0 28 7.5 L 28 17.5 C 28 21.093388 30.612615 23.975872 34 24.695312 L 34 41.5 A 1.50015 1.50015 0 1 0 37 41.5 L 37 24.695312 C 40.387385 23.975872 43 21.093388 43 17.5 L 43 7.5 A 1.50015 1.50015 0 1 0 40 7.5 L 40 17.5 C 40 19.470069 38.746834 21.084867 37 21.701172 L 37 7.5 A 1.50015 1.50015 0 1 0 34 7.5 L 34 21.701172 C 32.253166 21.084867 31 19.470069 31 17.5 L 31 7.5 A 1.50015 1.50015 0 0 0 29.476562 5.9785156 z M 6.5 6 A 1.50015 1.50015 0 0 0 5 7.5 L 5 20.5 C 5 25.197332 8.5082829 28.946073 13 29.695312 L 13 40 L 9.5 40 A 1.50015 1.50015 0 1 0 9.5 43 L 14.253906 43 A 1.50015 1.50015 0 0 0 14.740234 43 L 19.5 43 A 1.50015 1.50015 0 1 0 19.5 40 L 16 40 L 16 29.695312 C 20.491717 28.946073 24 25.197332 24 20.5 L 24 7.5 A 1.50015 1.50015 0 0 0 22.5 6 L 6.5 6 z M 8 9 L 21 9 L 21 20.5 C 21 24.076654 18.150429 26.933959 14.585938 26.982422 A 1.50015 1.50015 0 0 0 14.414062 26.982422 C 10.849571 26.933959 8 24.076654 8 20.5 L 8 9 z"/></svg>