<svg width="16" height="16" viewBox="0 0 16 16" fill="none" xmlns="http://www.w3.org/2000/svg">
<path d="M8.00016 0.333984C7.36033 0.333984 6.81749 0.791334 6.69352 1.40104C6.67885 1.46598 6.67729 1.5332 6.68894 1.59875C6.70058 1.66431 6.72521 1.72687 6.76136 1.78278C6.79751 1.83869 6.84446 1.88682 6.89946 1.92434C6.95446 1.96186 7.0164 1.98802 7.08164 2.00129C7.14688 2.01455 7.21412 2.01466 7.27941 2.00159C7.34469 1.98853 7.40671 1.96255 7.46182 1.9252C7.51693 1.88785 7.56403 1.83986 7.60036 1.78407C7.63668 1.72827 7.66149 1.66578 7.67334 1.60026C7.70403 1.4493 7.834 1.33398 8.00016 1.33398C8.1904 1.33398 8.3335 1.47708 8.3335 1.66732C8.3335 2.34162 7.85038 2.65978 7.78206 2.70313C7.17978 2.74085 6.6124 2.92591 6.09717 3.22526C5.70436 3.08204 5.28795 3.00065 4.85824 3.00065C3.56772 3.00065 2.41549 3.69898 1.61344 4.76172C0.8114 5.82446 0.333496 7.25919 0.333496 8.83398C0.333496 10.4088 0.8114 11.8435 1.61344 12.9063C2.41549 13.969 3.56772 14.6673 4.85824 14.6673C5.27932 14.6673 5.68746 14.5894 6.07308 14.4518C6.65526 14.8013 7.30645 15.0007 8.00016 15.0007C8.69418 15.0007 9.34552 14.8009 9.9279 14.4512C10.3138 14.589 10.7223 14.6673 11.1434 14.6673C12.1388 14.6673 13.0595 14.2491 13.7892 13.5697L13.7899 13.569C14.9507 12.4915 15.6662 10.7672 15.6662 8.83268C15.6662 7.25867 15.1887 5.82429 14.3869 4.76172C13.585 3.69916 12.4327 3.00065 11.1427 3.00065C10.7107 3.00065 10.2928 3.08282 9.8986 3.22721C9.60429 3.05614 9.29447 2.9188 8.96956 2.82747C9.16403 2.52348 9.3335 2.15612 9.3335 1.66732C9.3335 0.93689 8.73059 0.333984 8.00016 0.333984ZM8.01644 3.66992C9.17253 3.6773 10.2328 4.44851 10.924 5.73698C10.955 5.79486 10.9972 5.84606 11.048 5.88766C11.0988 5.92926 11.1573 5.96044 11.2202 5.97942C11.2831 5.9984 11.3491 6.00482 11.4144 5.99829C11.4798 5.99177 11.5432 5.97244 11.6011 5.94141C11.659 5.91037 11.7102 5.86824 11.7518 5.81742C11.7934 5.76659 11.8245 5.70808 11.8435 5.6452C11.8625 5.58233 11.8689 5.51633 11.8624 5.45098C11.8559 5.38563 11.8365 5.3222 11.8055 5.26432C11.5535 4.79456 11.2469 4.37401 10.8979 4.01367C10.9788 4.00602 11.0603 4.00065 11.1427 4.00065C12.0744 4.00065 12.9341 4.49651 13.5887 5.36393C14.2433 6.23136 14.6662 7.4627 14.6662 8.83268C14.6662 10.5178 14.0256 11.986 13.1089 12.8366V12.8372H13.1082C12.5327 13.3734 11.8623 13.6673 11.1434 13.6673C11.0646 13.6673 10.9871 13.6614 10.9097 13.6543C11.2535 13.2914 11.5557 12.8694 11.8055 12.4036C11.8365 12.3458 11.8559 12.2823 11.8624 12.217C11.8689 12.1516 11.8625 12.0856 11.8435 12.0228C11.8245 11.9599 11.7934 11.9014 11.7518 11.8506C11.7102 11.7997 11.659 11.7576 11.6011 11.7266C11.5432 11.6955 11.4798 11.6762 11.4144 11.6697C11.3491 11.6632 11.2831 11.6696 11.2202 11.6885C11.1573 11.7075 11.0988 11.7387 11.048 11.7803C10.9972 11.8219 10.955 11.8731 10.924 11.931C10.2294 13.2257 9.16273 14.0007 8.00016 14.0007C6.8376 14.0007 5.77088 13.2257 5.07633 11.931C5.03389 11.849 4.96958 11.7803 4.89052 11.7327C4.81146 11.685 4.72074 11.6601 4.62842 11.6608C4.54165 11.6614 4.45653 11.6846 4.38144 11.7281C4.30634 11.7716 4.24385 11.8338 4.20011 11.9088C4.15637 11.9837 4.13288 12.0687 4.13195 12.1555C4.13102 12.2423 4.15269 12.3278 4.19482 12.4036C4.44475 12.8695 4.74665 13.292 5.09066 13.6549C5.01371 13.6619 4.93657 13.6673 4.85824 13.6673C3.92575 13.6673 3.06633 13.1715 2.41162 12.304C1.75692 11.4365 1.3335 10.2049 1.3335 8.83398C1.3335 7.46311 1.75692 6.23144 2.41162 5.36393C3.06633 4.49642 3.92575 4.00065 4.85824 4.00065C4.93948 4.00065 5.01939 4.00622 5.09912 4.01367C4.75134 4.37414 4.44634 4.79549 4.19482 5.26432C4.13215 5.38122 4.11847 5.51823 4.15681 5.6452C4.19515 5.77218 4.28236 5.87873 4.39925 5.94141C4.51615 6.00408 4.65315 6.01776 4.78013 5.97942C4.90711 5.94108 5.01366 5.85387 5.07633 5.73698C5.76663 4.45024 6.82505 3.67999 7.97933 3.67057C7.9917 3.67082 8.00408 3.6706 8.01644 3.66992ZM6.00016 8.00065C5.82335 8.00065 5.65378 8.07089 5.52876 8.19591C5.40373 8.32094 5.3335 8.49051 5.3335 8.66732C5.3335 8.84413 5.40373 9.0137 5.52876 9.13872C5.65378 9.26375 5.82335 9.33398 6.00016 9.33398C6.17697 9.33398 6.34654 9.26375 6.47157 9.13872C6.59659 9.0137 6.66683 8.84413 6.66683 8.66732C6.66683 8.49051 6.59659 8.32094 6.47157 8.19591C6.34654 8.07089 6.17697 8.00065 6.00016 8.00065ZM10.0002 8.00065C9.82335 8.00065 9.65378 8.07089 9.52876 8.19591C9.40373 8.32094 9.3335 8.49051 9.3335 8.66732C9.3335 8.84413 9.40373 9.0137 9.52876 9.13872C9.65378 9.26375 9.82335 9.33398 10.0002 9.33398C10.177 9.33398 10.3465 9.26375 10.4716 9.13872C10.5966 9.0137 10.6668 8.84413 10.6668 8.66732C10.6668 8.49051 10.5966 8.32094 10.4716 8.19591C10.3465 8.07089 10.177 8.00065 10.0002 8.00065ZM6.66683 10.334C6.55116 10.334 6.44364 10.3939 6.38298 10.4922C6.32231 10.5905 6.31699 10.7131 6.36865 10.8164C6.38632 10.8514 6.80783 11.6673 8.00016 11.6673C9.1925 11.6673 9.61401 10.8511 9.63167 10.8164C9.68334 10.7131 9.67835 10.5905 9.61735 10.4922C9.55635 10.3939 9.44916 10.334 9.3335 10.334H6.66683Z" fill="#1A1A1A"/>
</svg>
