<svg xmlns="http://www.w3.org/2000/svg"  viewBox="0 0 48 48" width="24px" height="24px"><path d="M 14.5 8 C 11.791667 8 9.7225292 10.074973 8.0996094 12.695312 C 6.4766896 15.315653 5.1998284 18.708542 4.296875 22.255859 C 3.3939216 25.803176 2.875 29.492147 2.875 32.703125 C 2.875 35.914103 3.2423343 38.678983 4.8847656 40.503906 C 5.6413024 41.344503 6.6311052 41.888949 7.6503906 41.998047 C 8.669676 42.107145 9.6316635 41.820974 10.486328 41.378906 C 12.195658 40.49477 13.656633 38.966991 15.023438 37.339844 C 16.39024 35.712697 17.627286 33.964797 18.595703 32.658203 C 19.079912 32.004906 19.502217 31.458519 19.792969 31.132812 C 19.860909 31.056703 19.877019 31.048192 19.925781 31 L 24 31 L 24.007812 31 L 28.082031 31 C 28.130711 31.04814 28.147131 31.056961 28.214844 31.132812 C 28.505595 31.458519 28.927901 32.004906 29.412109 32.658203 C 30.380526 33.964797 31.617572 35.712697 32.984375 37.339844 C 34.351178 38.966991 35.812155 40.49477 37.521484 41.378906 C 38.376149 41.820974 39.336183 42.107145 40.355469 41.998047 C 41.374754 41.888949 42.364557 41.344503 43.121094 40.503906 C 44.763654 38.678839 45.131436 35.914106 45.130859 32.703125 C 45.130295 29.492144 44.61042 25.801161 43.707031 22.253906 C 42.803642 18.706652 41.52678 15.315521 39.904297 12.695312 C 38.281814 10.075106 36.215174 8 33.507812 8 C 30.700813 8 28.803738 8.9413107 27.4375 9.7402344 C 26.071262 10.539158 25.319242 11.070314 24.007812 11.070312 L 24 11.070312 C 22.688571 11.070312 21.936551 10.539158 20.570312 9.7402344 C 19.204075 8.9413107 17.307 8 14.5 8 z M 14.5 11 C 16.693 11 17.795925 11.594002 19.054688 12.330078 C 20.31345 13.066154 21.811429 14.070313 24 14.070312 L 24.007812 14.070312 C 26.196385 14.070312 27.692409 13.066154 28.951172 12.330078 C 30.209946 11.594002 31.314814 11 33.507812 11 C 34.546951 11 35.976655 12.049895 37.353516 14.273438 C 38.730376 16.49698 39.953295 19.668348 40.800781 22.996094 C 41.648267 26.323839 42.130342 29.820356 42.130859 32.703125 C 42.131377 35.585894 41.500017 37.821161 40.892578 38.496094 C 40.524115 38.905497 40.295168 38.986051 40.037109 39.013672 C 39.779051 39.041292 39.403148 38.975902 38.898438 38.714844 C 37.889017 38.19273 36.539447 36.908009 35.28125 35.410156 C 34.023053 33.912303 32.822599 32.222703 31.822266 30.873047 C 31.322099 30.198219 30.877217 29.611795 30.453125 29.136719 C 30.241079 28.899181 30.039013 28.687096 29.783203 28.486328 C 29.527394 28.28556 29.226562 28 28.507812 28 L 24.007812 28 L 24 28 L 19.5 28 C 18.78125 28 18.480419 28.28556 18.224609 28.486328 C 17.9688 28.687096 17.766734 28.899181 17.554688 29.136719 C 17.130595 29.611795 16.685713 30.198219 16.185547 30.873047 C 15.185214 32.222703 13.98476 33.912303 12.726562 35.410156 C 11.468367 36.908009 10.116842 38.19273 9.1074219 38.714844 C 8.6027116 38.975901 8.2287615 39.041293 7.9707031 39.013672 C 7.7126448 38.986051 7.4836976 38.905497 7.1152344 38.496094 C 6.5076657 37.821017 5.875 35.585897 5.875 32.703125 C 5.875 29.820353 6.3560784 26.321824 7.203125 22.994141 C 8.0501716 19.666458 9.27331 16.496848 10.650391 14.273438 C 12.027471 12.050027 13.458333 11 14.5 11 z M 32.5 16 A 1.5 1.5 0 0 0 32.5 19 A 1.5 1.5 0 0 0 32.5 16 z M 15.476562 16.978516 A 1.50015 1.50015 0 0 0 14 18.5 L 14 20 L 12.5 20 A 1.50015 1.50015 0 1 0 12.5 23 L 14 23 L 14 24.5 A 1.50015 1.50015 0 1 0 17 24.5 L 17 23 L 18.5 23 A 1.50015 1.50015 0 1 0 18.5 20 L 17 20 L 17 18.5 A 1.50015 1.50015 0 0 0 15.476562 16.978516 z M 28.5 20 A 1.5 1.5 0 0 0 28.5 23 A 1.5 1.5 0 0 0 28.5 20 z M 36.5 20 A 1.5 1.5 0 0 0 36.5 23 A 1.5 1.5 0 0 0 36.5 20 z M 32.5 24 A 1.5 1.5 0 0 0 32.5 27 A 1.5 1.5 0 0 0 32.5 24 z"/></svg>