<svg width="16" height="16" viewBox="0 0 16 16" fill="none" xmlns="http://www.w3.org/2000/svg">
<path d="M8.00016 1.33398C5.816 1.33398 4.13213 2.46308 3.02555 3.76823C1.91897 5.07338 1.3335 6.50053 1.3335 7.50065C1.3335 8.61706 1.96784 9.29405 2.45264 9.65039C2.37934 9.82212 2.3335 10.0161 2.3335 10.2298C2.3335 10.8228 2.51005 11.2885 2.82243 11.5723C3.01267 11.7451 3.21259 11.8303 3.40381 11.8919C3.49442 12.8416 3.91008 13.4923 4.40706 13.849C4.96612 14.2502 5.57171 14.3925 5.72152 14.4792C6.00397 14.6425 6.24673 14.8441 6.59912 15.0247C6.95151 15.2054 7.40212 15.334 8.00016 15.334C8.5982 15.334 9.04878 15.2048 9.4012 15.0241C9.75363 14.8434 9.9963 14.642 10.2788 14.4785C10.4286 14.3918 11.0342 14.2502 11.5933 13.849C12.0902 13.4923 12.5059 12.8416 12.5965 11.8919C12.7878 11.8304 12.9876 11.7451 13.1779 11.5723C13.4903 11.2885 13.6668 10.8228 13.6668 10.2298C13.6668 10.0361 13.6275 9.85994 13.5659 9.70052C13.6522 9.64471 13.741 9.58191 13.8289 9.50521C14.2518 9.13634 14.6668 8.4704 14.6668 7.50065C14.6668 6.49615 14.0702 5.07108 12.9591 3.76693C11.848 2.46277 10.1659 1.33398 8.00016 1.33398ZM8.00016 2.33398C9.82043 2.33398 11.2217 3.27075 12.1974 4.41602C13.1732 5.56128 13.6668 6.96949 13.6668 7.50065C13.6668 8.2049 13.4152 8.53867 13.1714 8.7513C13.0789 8.83197 12.9956 8.88364 12.922 8.92383C12.8361 8.87247 12.7507 8.83039 12.6668 8.79362V7.50065C12.6668 7.12097 12.4363 6.84365 12.1759 6.63867C11.9156 6.43369 11.5863 6.27151 11.1857 6.13086C10.3845 5.84957 9.29643 5.66732 8.00016 5.66732C6.70383 5.66732 5.61581 5.84944 4.81462 6.13086C4.41402 6.27157 4.08468 6.43445 3.82438 6.63932C3.56408 6.84419 3.3335 7.12085 3.3335 7.50065V8.79362C3.25536 8.82787 3.17574 8.86673 3.09587 8.91276C2.7986 8.73708 2.3335 8.33362 2.3335 7.50065C2.3335 6.96511 2.8184 5.55898 3.78857 4.41471C4.75874 3.27045 6.158 2.33398 8.00016 2.33398ZM7.09066 3.0026C7.02139 2.99107 6.94903 3.02761 6.91553 3.09961L6.0861 4.8737C6.04077 4.9707 6.08612 5.08806 6.18245 5.1224L6.82959 5.35352C6.92159 5.38618 7.02012 5.32788 7.04378 5.22721L7.3335 3.98828L7.88232 4.57487C7.94732 4.64454 8.053 4.64454 8.118 4.57487L8.66683 3.98828L8.95654 5.22721C8.98021 5.32788 9.07905 5.38618 9.17139 5.35352L9.81787 5.1224C9.9142 5.0884 9.95956 4.9707 9.91422 4.8737L9.0848 3.09961C9.0398 3.00361 8.92659 2.97127 8.84326 3.0306L8.09261 3.56575C8.03661 3.60575 7.96371 3.60575 7.90771 3.56575L7.15771 3.0306C7.1368 3.01577 7.11375 3.00645 7.09066 3.0026ZM8.00016 6.66732C9.20089 6.66732 10.1965 6.84326 10.8543 7.07422C11.052 7.14362 11.2061 7.21701 11.3361 7.28841C10.5398 7.46595 9.34977 7.66732 8.00016 7.66732C6.65126 7.66732 5.46182 7.46588 4.66553 7.28841C4.79534 7.21708 4.94903 7.1434 5.146 7.07422C5.80389 6.84314 6.7995 6.66732 8.00016 6.66732ZM4.3335 8.23828C5.18461 8.43417 6.50081 8.66732 8.00016 8.66732C9.49952 8.66732 10.8157 8.43417 11.6668 8.23828V9.16732C11.6668 9.23506 11.6806 9.30209 11.7073 9.36434C11.734 9.42659 11.7731 9.48277 11.8222 9.52947C11.8712 9.57617 11.9293 9.61241 11.9928 9.63599C12.0563 9.65957 12.1239 9.67001 12.1916 9.66667C12.1992 9.66857 12.2022 9.66873 12.2183 9.67448C12.2707 9.69329 12.3514 9.73317 12.4233 9.78711C12.5672 9.89499 12.6668 10.0175 12.6668 10.2298C12.6668 10.6509 12.582 10.7624 12.5054 10.832C12.4287 10.9016 12.2688 10.9584 12.0184 11.0176C11.9089 11.0435 11.8113 11.1056 11.7415 11.1939C11.6717 11.2821 11.6337 11.3914 11.6336 11.5039V11.5397C11.6336 12.4541 11.3564 12.7878 11.0099 13.0365C10.6635 13.2851 10.2164 13.3597 9.77816 13.6133C9.41799 13.8218 9.1794 14.0145 8.94482 14.1348C8.71025 14.2551 8.46812 14.334 8.00016 14.334C7.5322 14.334 7.29011 14.255 7.0555 14.1348C6.82089 14.0145 6.58238 13.8216 6.22217 13.6133C5.78397 13.3597 5.33684 13.2851 4.9904 13.0365C4.64395 12.7878 4.3667 12.4541 4.3667 11.5397V11.5046C4.36679 11.3919 4.32884 11.2825 4.25901 11.1942C4.18917 11.1058 4.09154 11.0435 3.98193 11.0176C3.73138 10.9582 3.57166 10.9017 3.49495 10.832C3.41825 10.7624 3.3335 10.6509 3.3335 10.2298C3.3335 10.0175 3.4331 9.89499 3.57699 9.78711C3.64893 9.73317 3.72959 9.69329 3.78206 9.67448C3.79856 9.66857 3.80194 9.66788 3.80941 9.66602C3.87696 9.66927 3.94446 9.65878 4.00784 9.6352C4.07122 9.61161 4.12916 9.57542 4.17815 9.5288C4.22714 9.48218 4.26617 9.42611 4.29287 9.36398C4.31957 9.30185 4.33339 9.23494 4.3335 9.16732V8.23828ZM6.50016 9.00065C6.36755 9.00065 6.24038 9.08845 6.14661 9.24473C6.05284 9.40101 6.00016 9.61297 6.00016 9.83398C6.00016 10.055 6.05284 10.267 6.14661 10.4232C6.24038 10.5795 6.36755 10.6673 6.50016 10.6673C6.63277 10.6673 6.75995 10.5795 6.85372 10.4232C6.94748 10.267 7.00016 10.055 7.00016 9.83398C7.00016 9.61297 6.94748 9.40101 6.85372 9.24473C6.75995 9.08845 6.63277 9.00065 6.50016 9.00065ZM9.50016 9.00065C9.36755 9.00065 9.24038 9.08845 9.14661 9.24473C9.05284 9.40101 9.00016 9.61297 9.00016 9.83398C9.00016 10.055 9.05284 10.267 9.14661 10.4232C9.24038 10.5795 9.36755 10.6673 9.50016 10.6673C9.63277 10.6673 9.75995 10.5795 9.85372 10.4232C9.94748 10.267 10.0002 10.055 10.0002 9.83398C10.0002 9.61297 9.94748 9.40101 9.85372 9.24473C9.75995 9.08845 9.63277 9.00065 9.50016 9.00065ZM5.18115 10.334C5.18115 10.334 4.99951 10.497 4.99951 11.2227C4.99951 12.077 5.57829 12.1204 5.57829 12.1204C5.57829 12.1204 5.64231 12.9486 6.25797 12.9486C6.52397 12.9486 6.67905 12.818 6.69938 12.8066C6.73405 12.8483 7.01176 13.334 7.43376 13.334C7.76176 13.334 7.993 13.0996 7.993 13.0996C7.993 13.0996 8.24979 13.3216 8.59912 13.3216C8.99612 13.3216 9.30094 12.8145 9.30094 12.8145C9.30094 12.8145 9.45828 12.9473 9.75928 12.9473C10.0603 12.9473 10.3584 12.697 10.4338 12.11C10.6784 12.11 11.0002 11.7337 11.0002 11.2474C11.0002 10.5184 10.8257 10.3431 10.8257 10.3431C10.6437 10.6511 10.0405 10.9868 9.48779 11.1888C9.42279 11.8291 8.78516 12.334 8.00016 12.334C7.21416 12.334 6.57653 11.8285 6.51253 11.1875C5.65387 10.8688 5.18115 10.334 5.18115 10.334Z" fill="#1A1A1A"/>
</svg>
