<svg xmlns="http://www.w3.org/2000/svg"  viewBox="0 0 48 48" width="24px" height="24px"><path d="M 20.5 4 A 1.50015 1.50015 0 0 0 19 5.5 L 19 6.0957031 C 19 7.0631554 18.425741 7.9217531 17.53125 8.2910156 C 17.49798 8.3049316 17.451898 8.3256107 17.455078 8.3242188 L 17.478516 8.3125 C 16.575201 8.6887257 15.562466 8.4915367 14.875 7.8046875 L 14.453125 7.3847656 A 1.50015 1.50015 0 0 0 12.332031 7.3847656 L 7.3828125 12.333984 A 1.50015 1.50015 0 0 0 7.3828125 14.455078 L 7.8027344 14.876953 C 8.4885984 15.562817 8.6863247 16.57885 8.3105469 17.480469 C 8.3081569 17.486169 8.3005644 17.506923 8.3027344 17.501953 A 1.50015 1.50015 0 0 0 8.2890625 17.533203 C 7.9218444 18.425105 7.0631554 19 6.0957031 19 L 5.5 19 A 1.50015 1.50015 0 0 0 4 20.5 L 4 27.5 A 1.50015 1.50015 0 0 0 5.5 29 L 6.0957031 29 C 7.0631554 29 7.9217531 29.574259 8.2910156 30.46875 C 8.3049316 30.50202 8.3256107 30.548102 8.3242188 30.544922 L 8.3125 30.521484 C 8.6887257 31.424799 8.4908689 32.438819 7.8046875 33.125 L 7.3847656 33.544922 A 1.50015 1.50015 0 0 0 7.3847656 35.666016 L 12.333984 40.617188 A 1.50015 1.50015 0 0 0 14.455078 40.617188 L 14.876953 40.195312 C 15.562338 39.509929 16.577368 39.312786 17.478516 39.6875 C 17.478516 39.6875 17.480469 39.6875 17.480469 39.6875 C 17.486769 39.6901 17.507083 39.699476 17.501953 39.697266 A 1.50015 1.50015 0 0 0 17.53125 39.708984 C 18.425741 40.078247 19.001953 40.936845 19.001953 41.904297 L 19.001953 42.5 A 1.50015 1.50015 0 0 0 20.501953 44 L 27.501953 44 A 1.50015 1.50015 0 0 0 29.001953 42.5 L 29.001953 41.904297 C 29.001953 40.936845 29.576212 40.078247 30.470703 39.708984 C 30.48663 39.702539 30.515703 39.690273 30.521484 39.6875 C 31.424799 39.311274 32.438819 39.509131 33.125 40.195312 L 33.546875 40.615234 A 1.50015 1.50015 0 0 0 35.667969 40.615234 L 40.617188 35.666016 A 1.50015 1.50015 0 0 0 40.617188 33.544922 L 40.197266 33.123047 C 39.511402 32.437183 39.313675 31.42115 39.689453 30.519531 C 39.691853 30.513831 39.699466 30.493077 39.697266 30.498047 A 1.50015 1.50015 0 0 0 39.710938 30.46875 C 40.080199 29.574259 40.938798 28.998047 41.90625 28.998047 L 42.5 28.998047 L 41.001953 27.5 L 44 27.5 L 44 27.498047 L 44 20.5 A 1.50015 1.50015 0 0 0 42.5 19 L 41.904297 19 C 40.936845 19 40.078247 18.425741 39.708984 17.53125 C 39.695064 17.49798 39.674391 17.451898 39.675781 17.455078 L 39.6875 17.478516 C 39.31127 16.575197 39.509132 15.561181 40.195312 14.875 L 40.615234 14.455078 A 1.50015 1.50015 0 0 0 40.615234 12.333984 L 35.666016 7.3828125 A 1.50015 1.50015 0 0 0 33.544922 7.3828125 L 33.123047 7.8046875 C 32.437183 8.4905515 31.42262 8.6886319 30.519531 8.3125 C 30.511731 8.30925 30.490584 8.3003254 30.496094 8.3027344 A 1.50015 1.50015 0 0 0 30.466797 8.2910156 C 29.575213 7.9230626 29 7.0631554 29 6.0957031 L 29 5.5 A 1.50015 1.50015 0 0 0 27.5 4 L 20.5 4 z M 21.724609 7 L 26.275391 7 C 26.601003 8.770985 27.618382 10.356844 29.318359 11.060547 C 29.324659 11.063147 29.344974 11.072522 29.339844 11.070312 A 1.50015 1.50015 0 0 0 29.365234 11.082031 C 31.372145 11.917899 33.702005 11.467917 35.244141 9.9257812 L 34.605469 10.564453 L 37.628906 13.589844 C 36.604933 15.078171 36.210427 16.926514 36.917969 18.628906 A 1.50015 1.50015 0 0 0 36.927734 18.658203 A 1.50015 1.50015 0 0 0 36.935547 18.675781 C 37.638875 20.379502 39.227035 21.398519 41 21.724609 L 41 26.273438 C 39.227836 26.600033 37.640597 27.621057 36.9375 29.324219 C 36.9361 29.327619 36.927888 29.345977 36.929688 29.341797 A 1.50015 1.50015 0 0 0 36.919922 29.365234 C 36.210004 31.068568 36.607451 32.918425 37.632812 34.408203 L 34.410156 37.630859 C 32.920695 36.60594 31.072566 36.208501 29.369141 36.917969 A 1.50015 1.50015 0 0 0 29.34375 36.927734 A 1.50015 1.50015 0 0 0 29.326172 36.935547 C 27.622488 37.638842 26.603481 39.227109 26.277344 41 L 21.726562 41 C 21.40081 39.228873 20.380652 37.643767 18.679688 36.939453 C 18.673388 36.936853 18.653073 36.927478 18.658203 36.929688 A 1.50015 1.50015 0 0 0 18.634766 36.917969 C 16.930968 36.207858 15.079784 36.604779 13.589844 37.630859 L 10.566406 34.605469 L 9.9257812 35.246094 C 11.466642 33.705233 11.915691 31.376934 11.082031 29.371094 A 1.50015 1.50015 0 0 0 11.072266 29.341797 A 1.50015 1.50015 0 0 0 11.064453 29.324219 C 10.361128 27.620498 8.7729647 26.601481 7 26.275391 L 7 21.724609 C 8.7730332 21.398572 10.360813 20.380047 11.0625 18.675781 C 11.0639 18.672381 11.072113 18.654023 11.070312 18.658203 A 1.50015 1.50015 0 0 0 11.080078 18.634766 C 11.789996 16.931432 11.392549 15.081575 10.367188 13.591797 L 13.587891 10.371094 C 15.076879 11.395874 16.925756 11.789888 18.628906 11.082031 A 1.50015 1.50015 0 0 0 18.658203 11.072266 A 1.50015 1.50015 0 0 0 18.675781 11.064453 C 20.379516 10.361135 21.398519 8.7729647 21.724609 7 z M 24 12 C 17.390347 12 12 17.390352 12 24 C 12 30.609648 17.390347 36 24 36 C 30.609653 36 36 30.609648 36 24 C 36 17.390352 30.609653 12 24 12 z M 22.5 15.132812 L 22.5 19.308594 C 21.614196 19.572933 20.809782 19.972296 20.253906 20.597656 C 19.395664 21.563179 19 22.791667 19 24 C 19 24.36587 19.109189 24.724174 19.183594 25.085938 L 15.574219 27.154297 C 15.20859 26.172349 15 25.112867 15 24 C 15 19.524208 18.233033 15.84374 22.5 15.132812 z M 25.5 15.132812 C 29.766967 15.84374 33 19.524208 33 24 C 33 25.113754 32.790014 26.17365 32.423828 27.15625 L 28.814453 25.09375 C 28.88996 24.729437 29 24.368537 29 24 C 29 22.791667 28.604336 21.563179 27.746094 20.597656 C 27.190218 19.972296 26.385804 19.572933 25.5 19.308594 L 25.5 15.132812 z M 24 22 C 24.791666 22 25.195482 22.242867 25.503906 22.589844 C 25.81233 22.936821 26 23.458333 26 24 C 26 24.541667 25.81233 25.063179 25.503906 25.410156 C 25.195482 25.757133 24.791666 26 24 26 C 23.208334 26 22.804518 25.757133 22.496094 25.410156 C 22.18767 25.063179 22 24.541667 22 24 C 22 23.458333 22.18767 22.936821 22.496094 22.589844 C 22.804518 22.242867 23.208334 22 24 22 z M 20.662109 27.695312 C 21.515585 28.461174 22.652933 29 24 29 C 25.342671 29 26.475197 28.462687 27.328125 27.701172 L 30.927734 29.757812 C 29.279828 31.740917 26.793452 33 24 33 C 21.205551 33 18.718208 31.740189 17.070312 29.755859 L 20.662109 27.695312 z"/></svg>