<svg xmlns="http://www.w3.org/2000/svg"  viewBox="0 0 48 48" width="24px" height="24px"><path d="M 16 5 C 12.151772 5 9 8.1517752 9 12 C 9 15.848225 12.151772 19 16 19 C 19.848228 19 23 15.848225 23 12 C 23 8.1517752 19.848228 5 16 5 z M 32 5 A 7 7 0 1 0 32 19 A 7 7 0 1 0 32 5 z M 16 8 C 18.226909 8 20 9.7730927 20 12 C 20 14.226907 18.226909 16 16 16 C 13.773091 16 12 14.226907 12 12 C 12 9.7730927 13.773091 8 16 8 z M 9.5 21 C 7.57 21 6 22.57 6 24.5 L 6 32 C 6 37.514 10.486 42 16 42 C 18.133 42 20.107422 41.322688 21.732422 40.179688 C 21.204422 39.305687 20.781281 38.363281 20.488281 37.363281 C 19.271281 38.383281 17.707 39 16 39 C 12.141 39 9 35.859 9 32 L 9 24.5 C 9 24.225 9.225 24 9.5 24 L 20.025391 24 C 20.128391 22.867 20.573719 21.831 21.261719 21 L 9.5 21 z M 25.5 21 C 23.57 21 22 22.57 22 24.5 L 22 34 C 22 39.514 26.486 44 32 44 C 37.514 44 42 39.514 42 34 L 42 24.5 C 42 22.57 40.43 21 38.5 21 L 25.5 21 z"/></svg>