<svg xmlns="http://www.w3.org/2000/svg"  viewBox="0 0 48 48" width="24px" height="24px"><path d="M 19.5 5 C 12.213124 5 6 10.062226 6 17.5 A 1.50015 1.50015 0 0 0 6.0859375 17.996094 L 5.3457031 19.84375 C 4.6634508 21.549989 5.5346987 23.353319 7 24.169922 L 7 27.306641 C 5.267923 27.934802 4 29.56309 4 31.5 C 4 33.024886 4.8245741 34.317223 6 35.132812 L 6 35.5 C 6 39.624501 9.3754991 43 13.5 43 L 34.5 43 C 38.624501 43 42 39.624501 42 35.5 L 42 35.132812 C 43.175426 34.317223 44 33.024886 44 31.5 C 44 29.56309 42.732077 27.934802 41 27.306641 L 41 24.169922 C 42.464865 23.353162 43.334459 21.549645 42.652344 19.84375 L 41.914062 17.996094 A 1.50015 1.50015 0 0 0 42 17.5 C 42 10.062226 35.786876 5 28.5 5 L 19.5 5 z M 19.5 8 L 28.5 8 C 33.898854 8 37.939597 11.117885 38.695312 16 L 9.3046875 16 C 10.060403 11.117885 14.101146 8 19.5 8 z M 17.5 10 A 1.5 1.5 0 0 0 17.5 13 A 1.5 1.5 0 0 0 17.5 10 z M 22.5 12 A 1.5 1.5 0 0 0 22.5 15 A 1.5 1.5 0 0 0 22.5 12 z M 8.9121094 19 L 39.085938 19 A 1.50015 1.50015 0 0 0 39.107422 19.056641 L 39.867188 20.957031 C 40.032392 21.37019 39.789858 21.689792 39.347656 21.640625 L 34.839844 21.140625 C 33.786383 21.023879 32.719702 21.213395 31.771484 21.6875 L 30.435547 22.355469 C 29.796173 22.675156 29.053498 22.705137 28.388672 22.439453 L 26.417969 21.650391 L 26.417969 21.652344 C 25.209826 21.167986 23.869801 21.128494 22.636719 21.539062 L 19.748047 22.501953 C 19.064738 22.729931 18.315531 22.652284 17.693359 22.287109 A 1.50015 1.50015 0 0 0 17.693359 22.285156 L 16.90625 21.824219 L 16.904297 21.824219 C 15.881457 21.223872 14.692675 20.971084 13.515625 21.101562 A 1.50015 1.50015 0 0 0 13.513672 21.101562 L 8.6523438 21.640625 C 8.2092199 21.689599 7.9655635 21.370418 8.1308594 20.957031 L 8.8925781 19.056641 A 1.50015 1.50015 0 0 0 8.9121094 19 z M 14.248047 24.070312 C 14.647953 24.090808 15.038152 24.207376 15.386719 24.412109 L 16.173828 24.873047 C 17.541656 25.675873 19.192575 25.849678 20.697266 25.347656 L 23.583984 24.386719 C 24.146902 24.199288 24.754877 24.215903 25.302734 24.435547 A 1.50015 1.50015 0 0 0 25.302734 24.4375 L 27.275391 25.226562 C 28.732564 25.808884 30.372718 25.741376 31.777344 25.039062 L 33.113281 24.371094 C 33.545064 24.155202 34.027274 24.06784 34.507812 24.121094 L 38 24.509766 L 38 27 L 10 27 L 10 24.509766 L 13.845703 24.082031 C 13.979788 24.067169 14.114745 24.063481 14.248047 24.070312 z M 8.5 30 L 39.5 30 C 40.346499 30 41 30.653501 41 31.5 C 41 32.346499 40.346499 33 39.5 33 L 8.5 33 C 7.6535009 33 7 32.346499 7 31.5 C 7 30.653501 7.6535009 30 8.5 30 z M 9.0996094 36 L 38.900391 36 C 38.643912 38.251806 36.825689 40 34.5 40 L 13.5 40 C 11.174311 40 9.3560878 38.251806 9.0996094 36 z"/></svg>