<svg width="16" height="16" viewBox="0 0 16 16" fill="none" xmlns="http://www.w3.org/2000/svg">
<path d="M9.48189 2.18225C9.147 2.19775 8.81335 2.28377 8.50208 2.43941C8.49304 2.44391 8.48413 2.44869 8.47538 2.45373L7.53007 2.99996C7.5201 2.99944 7.51011 2.99922 7.50012 2.9993H1.16679C1.10053 2.99837 1.03475 3.01061 0.973268 3.03532C0.911784 3.06002 0.855823 3.0967 0.808638 3.14322C0.761453 3.18975 0.723985 3.24518 0.698411 3.30631C0.672838 3.36744 0.659668 3.43304 0.659668 3.4993C0.659668 3.56557 0.672838 3.63117 0.698411 3.6923C0.723985 3.75343 0.761453 3.80886 0.808638 3.85538C0.855823 3.90191 0.911784 3.93859 0.973268 3.96329C1.03475 3.988 1.10053 4.00024 1.16679 3.9993H5.42135L5.2039 4.0898C5.1931 4.0942 5.18246 4.09898 5.172 4.10412C4.61788 4.38118 4.36224 4.97139 4.41744 5.50256C4.47264 6.03373 4.8529 6.56327 5.46236 6.71545C5.69994 6.77464 5.96383 6.8092 6.25142 6.8092C7.7093 6.8092 9.13786 6.35493 9.56067 6.2148C9.8387 6.52521 11.2098 8.05751 11.6681 8.52665C11.9999 8.86621 12.0335 9.19773 11.948 9.43355C11.8625 9.66937 11.6684 9.85153 11.2456 9.85282C11.1307 9.85316 11.0195 9.89301 10.9306 9.96569C10.8417 10.0384 10.7805 10.1394 10.7573 10.2519C10.6326 10.8548 10.4126 10.9404 10.1883 10.9993C9.96394 11.0582 9.74752 11.0071 9.74752 11.0071C9.6746 10.9872 9.59812 10.9841 9.52383 10.998C9.44954 11.0119 9.37936 11.0425 9.31858 11.0874C9.2578 11.1323 9.20799 11.1904 9.1729 11.2574C9.13782 11.3243 9.11837 11.3984 9.11601 11.4739C9.11601 11.4739 9.09941 11.7321 8.97213 11.9531C8.84485 12.1741 8.7123 12.3604 8.11861 12.2955C7.99261 12.2817 7.86605 12.3162 7.76453 12.3921C7.663 12.468 7.5941 12.5796 7.57174 12.7044C7.5037 13.0849 7.29676 13.2501 6.98645 13.3072C6.67615 13.3644 6.25475 13.2628 5.88619 12.8984C5.41428 12.432 3.6936 10.6772 2.91484 9.88212C2.57003 9.52998 2.09781 9.33264 1.60624 9.33264H1.16679C1.10053 9.3317 1.03475 9.34394 0.973268 9.36865C0.911784 9.39336 0.855823 9.43004 0.808638 9.47656C0.761453 9.52308 0.723985 9.57852 0.698411 9.63964C0.672838 9.70077 0.659668 9.76638 0.659668 9.83264C0.659668 9.8989 0.672838 9.9645 0.698411 10.0256C0.723985 10.0868 0.761453 10.1422 0.808638 10.1887C0.855823 10.2352 0.911784 10.2719 0.973268 10.2966C1.03475 10.3213 1.10053 10.3336 1.16679 10.3326H1.60624C1.83201 10.3326 2.04345 10.4215 2.20064 10.582C2.97987 11.3776 4.68431 13.1164 5.18307 13.6093C5.75817 14.1779 6.49975 14.4139 7.16744 14.291C7.70884 14.1913 8.18299 13.8137 8.42004 13.2753C8.99024 13.2278 9.42836 12.9659 9.69283 12.6536C9.69955 12.654 9.70628 12.6542 9.71301 12.6543C9.71301 12.6543 11.2177 12.6805 12.0548 12.6543C12.6372 12.6362 13.2243 12.4385 13.7423 11.9843C13.976 11.7796 14.2571 11.6653 14.5431 11.6653H14.8335C14.8997 11.6663 14.9655 11.654 15.027 11.6293C15.0885 11.6046 15.1444 11.5679 15.1916 11.5214C15.2388 11.4749 15.2763 11.4194 15.3018 11.3583C15.3274 11.2972 15.3406 11.2316 15.3406 11.1653C15.3406 11.0991 15.3274 11.0335 15.3018 10.9723C15.2763 10.9112 15.2388 10.8558 15.1916 10.8092C15.1444 10.7627 15.0885 10.726 15.027 10.7013C14.9655 10.6766 14.8997 10.6644 14.8335 10.6653H14.5431C13.9917 10.6653 13.4798 10.8851 13.0835 11.2324C12.7195 11.5515 12.4305 11.6423 12.0242 11.6549H12.0236C11.7506 11.6635 11.3704 11.6617 11.0125 11.6614C11.2676 11.4512 11.4963 11.1455 11.6375 10.7369C12.2152 10.6049 12.7048 10.2805 12.8881 9.7747C13.1145 9.15043 12.9384 8.39587 12.3829 7.82743C11.962 7.39651 10.0932 5.31441 10.0932 5.31441C10.0277 5.24125 9.94201 5.18903 9.84695 5.16425C9.75189 5.13947 9.65165 5.14324 9.55872 5.17509C9.55872 5.17509 7.65447 5.8092 6.25142 5.8092C6.04369 5.8092 5.86298 5.78487 5.70455 5.7454C5.50501 5.69558 5.42962 5.56637 5.41223 5.39904C5.39494 5.23267 5.4497 5.08578 5.61731 5.00061L7.18241 4.35087C7.20257 4.34239 7.22214 4.33261 7.24101 4.32157L8.95195 3.33264C9.32999 3.14445 9.73166 3.13028 10.0958 3.276L12.3491 4.17704C12.6052 4.27991 12.8786 4.33191 13.1538 4.33199L14.8335 4.33264C14.8997 4.33358 14.9655 4.32133 15.027 4.29663C15.0885 4.27192 15.1444 4.23524 15.1916 4.18872C15.2388 4.1422 15.2763 4.08676 15.3018 4.02563C15.3274 3.9645 15.3406 3.8989 15.3406 3.83264C15.3406 3.76638 15.3274 3.70077 15.3018 3.63965C15.2763 3.57852 15.2388 3.52308 15.1916 3.47656C15.1444 3.43004 15.0885 3.39336 15.027 3.36865C14.9655 3.34394 14.8997 3.3317 14.8335 3.33264L13.1544 3.33199C13.0058 3.33199 12.8592 3.30436 12.7221 3.2493L12.7208 3.24865L10.4676 2.34761C10.1527 2.22163 9.81679 2.16674 9.48189 2.18225Z" fill="#1A1A1A"/>
</svg>
