<svg xmlns="http://www.w3.org/2000/svg"  viewBox="0 0 48 48" width="24px" height="24px"><path d="M 25.5 3 C 23.754966 3 22.242915 4.0261064 21.498047 5.4941406 C 20.892204 5.1882196 20.219375 5 19.5 5 C 17.032499 5 15 7.0324991 15 9.5 L 15 27.982422 C 13.532319 27.146146 11.708491 26.090523 10.414062 25.527344 C 9.684944 25.210007 8.8755533 25 8.015625 25 C 5.9639452 25 4.4991914 26.063693 3.8066406 27.103516 C 3.1140899 28.143338 3.0078125 29.210937 3.0078125 29.210938 A 1.50015 1.50015 0 0 0 3.4980469 30.486328 C 3.4980469 30.486328 11.840444 37.99726 14.191406 40.484375 C 16.166093 42.572769 18.864614 44.059852 21.921875 44 L 30.435547 44 C 36.776395 44.057404 41.942729 38.890626 42 32.564453 A 1.50015 1.50015 0 0 0 42 32.550781 L 42 13.5 C 42 11.032499 39.967501 9 37.5 9 C 36.964767 9 36.45651 9.1101969 35.978516 9.2851562 C 35.862526 6.9175706 33.894076 5 31.5 5 C 30.770226 5 30.106488 5.2189624 29.494141 5.5332031 C 28.753902 4.0519691 27.254741 3 25.5 3 z M 25.5 6 C 26.346499 6 27 6.6535009 27 7.5 L 27 9.5 L 27 22.5 A 1.50015 1.50015 0 1 0 30 22.5 L 30 9.5 C 30 8.6535009 30.653501 8 31.5 8 C 32.346499 8 33 8.6535009 33 9.5 L 33 13.5 L 33 23.5 A 1.50015 1.50015 0 1 0 36 23.5 L 36 13.5 C 36 12.653501 36.653501 12 37.5 12 C 38.346499 12 39 12.653501 39 13.5 L 39 32.537109 C 38.957271 37.256936 35.168042 41.042596 30.462891 41 A 1.50015 1.50015 0 0 0 30.449219 41 L 21.892578 41 A 1.50015 1.50015 0 0 0 21.863281 41 C 19.813044 41.04014 17.906167 40.044729 16.373047 38.423828 L 16.371094 38.423828 C 13.860231 35.76774 7.2001896 29.805816 6.2324219 28.9375 C 6.2718109 28.85515 6.2434474 28.85464 6.3027344 28.765625 C 6.5659341 28.370447 6.8583048 28 8.015625 28 C 8.3836967 28 8.7879159 28.09263 9.2167969 28.279297 C 10.344238 28.769824 12.745336 30.12732 14.265625 30.992188 C 15.870932 31.908128 18 30.660979 18 28.818359 L 18 9.5 C 18 8.6535009 18.653501 8 19.5 8 C 20.346499 8 21 8.6535009 21 9.5 L 21 22.5 A 1.50015 1.50015 0 1 0 24 22.5 L 24 9.5 L 24 7.5 C 24 6.6535009 24.653501 6 25.5 6 z"/></svg>