<svg width="16" height="16" viewBox="0 0 16 16" fill="none" xmlns="http://www.w3.org/2000/svg">
<path d="M6.16683 1.66602C5.52851 1.66602 5.00016 2.19436 5.00016 2.83268V4.33268H3.16683C2.16024 4.33268 1.3335 5.15942 1.3335 6.16602V12.4993C1.3335 13.5059 2.16024 14.3327 3.16683 14.3327H12.8335C13.8401 14.3327 14.6668 13.5059 14.6668 12.4993V6.16602C14.6668 5.15942 13.8401 4.33268 12.8335 4.33268H11.0002V2.83268C11.0002 2.19436 10.4718 1.66602 9.8335 1.66602H6.16683ZM6.16683 2.66602H9.8335C9.93184 2.66602 10.0002 2.73433 10.0002 2.83268V4.33268H6.00016V2.83268C6.00016 2.73433 6.06848 2.66602 6.16683 2.66602ZM3.16683 5.33268H12.8335C13.2996 5.33268 13.6668 5.69994 13.6668 6.16602V6.33268H2.3335V6.16602C2.3335 5.69994 2.70075 5.33268 3.16683 5.33268ZM2.3335 7.33268H13.6668V12.4993C13.6668 12.9654 13.2996 13.3327 12.8335 13.3327H3.16683C2.70075 13.3327 2.3335 12.9654 2.3335 12.4993V7.33268ZM7.99235 8.65885C7.85986 8.66092 7.7336 8.7155 7.64131 8.81059C7.54903 8.90568 7.49826 9.03352 7.50016 9.16602V9.83268H6.8335C6.76724 9.83175 6.70146 9.84399 6.63997 9.86869C6.57849 9.8934 6.52253 9.93008 6.47534 9.9766C6.42816 10.0231 6.39069 10.0786 6.36512 10.1397C6.33954 10.2008 6.32637 10.2664 6.32637 10.3327C6.32637 10.3989 6.33954 10.4645 6.36512 10.5257C6.39069 10.5868 6.42816 10.6422 6.47534 10.6888C6.52253 10.7353 6.57849 10.772 6.63997 10.7967C6.70146 10.8214 6.76724 10.8336 6.8335 10.8327H7.50016V11.4993C7.49923 11.5656 7.51147 11.6314 7.53617 11.6929C7.56088 11.7544 7.59756 11.8103 7.64408 11.8575C7.6906 11.9047 7.74604 11.9422 7.80717 11.9677C7.8683 11.9933 7.9339 12.0065 8.00016 12.0065C8.06642 12.0065 8.13203 11.9933 8.19316 11.9677C8.25428 11.9422 8.30972 11.9047 8.35624 11.8575C8.40276 11.8103 8.43944 11.7544 8.46415 11.6929C8.48886 11.6314 8.5011 11.5656 8.50016 11.4993V10.8327H9.16683C9.23308 10.8336 9.29887 10.8214 9.36035 10.7967C9.42183 10.772 9.4778 10.7353 9.52498 10.6888C9.57216 10.6422 9.60963 10.5868 9.63521 10.5257C9.66078 10.4645 9.67395 10.3989 9.67395 10.3327C9.67395 10.2664 9.66078 10.2008 9.63521 10.1397C9.60963 10.0786 9.57216 10.0231 9.52498 9.9766C9.4778 9.93008 9.42183 9.8934 9.36035 9.86869C9.29887 9.84399 9.23308 9.83175 9.16683 9.83268H8.50016V9.16602C8.50112 9.09909 8.48864 9.03266 8.46345 8.97065C8.43826 8.90864 8.40088 8.85232 8.35353 8.80503C8.30617 8.75773 8.2498 8.72042 8.18776 8.69532C8.12572 8.67021 8.05927 8.65781 7.99235 8.65885Z" fill="#1A1A1A"/>
</svg>
