<svg xmlns="http://www.w3.org/2000/svg"  viewBox="0 0 48 48" width="24px" height="24px"><path d="M 24 2.0605469 C 22.69451 2.0603273 21.38904 2.7122363 20.740234 4.015625 A 1.50015 1.50015 0 0 0 20.738281 4.0175781 L 15.912109 13.748047 L 5.1132812 15.308594 C 2.2327862 15.724793 1.011725 19.466982 3.1015625 21.494141 L 10.910156 29.066406 L 9.0664062 39.757812 C 8.5716739 42.628585 11.758566 44.929035 14.337891 43.580078 L 23.998047 38.527344 L 33.658203 43.580078 A 1.50015 1.50015 0 0 0 33.660156 43.580078 C 36.239747 44.928314 39.424325 42.628032 38.929688 39.757812 L 37.085938 29.066406 L 44.896484 21.494141 C 46.986322 19.466982 45.763308 15.724793 42.882812 15.308594 L 32.085938 13.75 L 27.257812 4.0175781 C 26.610905 2.7130209 25.30549 2.0607665 24 2.0605469 z M 23.998047 4.9394531 C 24.215806 4.9392335 24.434221 5.0751666 24.570312 5.3496094 A 1.50015 1.50015 0 0 0 24.570312 5.3515625 L 29.498047 15.285156 C 29.872846 16.042009 30.598588 16.565575 31.433594 16.685547 L 42.455078 18.279297 C 43.076583 18.369097 43.250803 18.909003 42.806641 19.339844 L 34.832031 27.074219 C 34.225984 27.661027 33.948231 28.515673 34.089844 29.34375 A 1.50015 1.50015 0 0 0 34.089844 29.345703 L 35.974609 40.267578 C 36.077972 40.867358 35.603237 41.211639 35.048828 40.921875 L 25.191406 35.765625 C 24.445966 35.374928 23.552081 35.374928 22.806641 35.765625 L 12.947266 40.921875 C 12.394591 41.210918 11.92017 40.866805 12.023438 40.267578 L 13.90625 29.345703 A 1.50015 1.50015 0 0 0 13.90625 29.34375 C 14.048489 28.514426 13.771582 27.662451 13.164062 27.074219 L 5.1894531 19.339844 C 4.7452906 18.909003 4.9214639 18.369097 5.5429688 18.279297 L 16.5625 16.685547 C 17.397906 16.565517 18.121656 16.040338 18.496094 15.289062 A 1.50015 1.50015 0 0 0 18.498047 15.287109 L 23.425781 5.3515625 C 23.562976 5.0759512 23.780287 4.9396727 23.998047 4.9394531 z M 23.873047 18 C 21.142047 18 19.538234 19.765797 19.365234 19.966797 C 18.828234 20.587797 18.898719 21.516547 19.511719 22.060547 C 20.124719 22.604547 21.069047 22.547406 21.623047 21.941406 C 21.658047 21.903406 22.497047 21 23.873047 21 C 24.952047 21 25.5 21.42 25.5 22.25 C 25.5 23.271 24.405484 23.5 24.021484 23.5 L 23.5 23.5 C 22.671 23.5 22 24.171 22 25 C 22 25.829 22.671 26.5 23.5 26.5 C 24.429 26.5 26 26.763 26 27.75 C 26 28.837 24.829812 29 24.132812 29 C 22.512812 29 21.655719 28.093266 21.636719 28.072266 C 21.093719 27.445266 20.145531 27.376969 19.519531 27.917969 C 18.892531 28.459969 18.823234 29.406203 19.365234 30.033203 C 19.539234 30.234203 21.149812 32 24.132812 32 C 27.043812 32 29 30.292 29 27.75 C 29 26.548 28.506672 25.533875 27.638672 24.796875 C 28.169672 24.123875 28.5 23.264 28.5 22.25 C 28.5 19.748 26.597047 18 23.873047 18 z"/></svg>