<svg width="25" height="16" viewBox="0 0 25 16" fill="none" xmlns="http://www.w3.org/2000/svg">
<mask id="path-1-inside-1_11026_166011" fill="white">
<path d="M0 6.4C0 4.15979 0 3.03969 0.435974 2.18404C0.819467 1.43139 1.43139 0.819467 2.18404 0.435974C3.03969 0 4.15979 0 6.4 0H18.6C20.8402 0 21.9603 0 22.816 0.435974C23.5686 0.819467 24.1805 1.43139 24.564 2.18404C25 3.03969 25 4.15979 25 6.4V9.6C25 11.8402 25 12.9603 24.564 13.816C24.1805 14.5686 23.5686 15.1805 22.816 15.564C21.9603 16 20.8402 16 18.6 16H6.4C4.15979 16 3.03969 16 2.18404 15.564C1.43139 15.1805 0.819467 14.5686 0.435974 13.816C0 12.9603 0 11.8402 0 9.6V6.4Z"/>
</mask>
<path d="M0 6.4C0 4.15979 0 3.03969 0.435974 2.18404C0.819467 1.43139 1.43139 0.819467 2.18404 0.435974C3.03969 0 4.15979 0 6.4 0H18.6C20.8402 0 21.9603 0 22.816 0.435974C23.5686 0.819467 24.1805 1.43139 24.564 2.18404C25 3.03969 25 4.15979 25 6.4V9.6C25 11.8402 25 12.9603 24.564 13.816C24.1805 14.5686 23.5686 15.1805 22.816 15.564C21.9603 16 20.8402 16 18.6 16H6.4C4.15979 16 3.03969 16 2.18404 15.564C1.43139 15.1805 0.819467 14.5686 0.435974 13.816C0 12.9603 0 11.8402 0 9.6V6.4Z" fill="#F7F7F7"/>
<path d="M-1 4C-1 1.23858 1.23858 -1 4 -1H21C23.7614 -1 26 1.23858 26 4H24C24 2.34315 22.6569 1 21 1H4C2.34315 1 1 2.34315 1 4H-1ZM26 13C26 15.7614 23.7614 18 21 18H4C1.23858 18 -1 15.7614 -1 13L1 12C1 13.1046 2.34315 14 4 14H21C22.6569 14 24 13.1046 24 12L26 13ZM4 18C1.23858 18 -1 15.7614 -1 13V4C-1 1.23858 1.23858 -1 4 -1V1C2.34315 1 1 2.34315 1 4V12C1 13.1046 2.34315 14 4 14V18ZM21 -1C23.7614 -1 26 1.23858 26 4V13C26 15.7614 23.7614 18 21 18V14C22.6569 14 24 13.1046 24 12V4C24 2.34315 22.6569 1 21 1V-1Z" fill="black" fill-opacity="0.26" mask="url(#path-1-inside-1_11026_166011)"/>
<path d="M10.0411 6.18111H8.71298C8.6751 5.9633 8.60526 5.77036 8.50346 5.60227C8.40166 5.43182 8.27501 5.28741 8.12349 5.16903C7.97198 5.05066 7.79915 4.96188 7.60502 4.9027C7.41326 4.84115 7.20611 4.81037 6.98358 4.81037C6.58822 4.81037 6.23784 4.9098 5.93244 5.10866C5.62704 5.30516 5.38793 5.59399 5.21511 5.97514C5.04229 6.35393 4.95588 6.81676 4.95588 7.36364C4.95588 7.91998 5.04229 8.38873 5.21511 8.76989C5.3903 9.14867 5.62941 9.43513 5.93244 9.62926C6.23784 9.82102 6.58703 9.9169 6.98002 9.9169C7.19783 9.9169 7.40143 9.88849 7.59082 9.83168C7.78258 9.77249 7.95422 9.68608 8.10574 9.57244C8.25962 9.45881 8.38864 9.31913 8.49281 9.15341C8.59934 8.98769 8.67273 8.7983 8.71298 8.58523L10.0411 8.59233C9.99139 8.93797 9.88367 9.26231 9.71795 9.56534C9.5546 9.86837 9.34035 10.1359 9.0752 10.3679C8.81004 10.5975 8.49991 10.7775 8.1448 10.9077C7.78968 11.0355 7.39551 11.0994 6.96227 11.0994C6.32306 11.0994 5.75252 10.9515 5.25062 10.6555C4.74873 10.3596 4.35337 9.93229 4.06454 9.37358C3.77572 8.81487 3.6313 8.14489 3.6313 7.36364C3.6313 6.58002 3.7769 5.91004 4.06809 5.35369C4.35929 4.79498 4.75583 4.36766 5.25772 4.07173C5.75962 3.7758 6.3278 3.62784 6.96227 3.62784C7.3671 3.62784 7.74352 3.68466 8.09153 3.7983C8.43954 3.91193 8.74967 4.07884 9.02193 4.29901C9.29418 4.51681 9.5179 4.78433 9.69309 5.10156C9.87065 5.41643 9.98665 5.77628 10.0411 6.18111ZM13.9145 5.54545V6.53977H10.7789V5.54545H13.9145ZM11.553 4.23864H12.8385V9.35938C12.8385 9.5322 12.8646 9.66477 12.9166 9.7571C12.9711 9.84706 13.0421 9.90862 13.1297 9.94176C13.2173 9.97491 13.3144 9.99148 13.4209 9.99148C13.5014 9.99148 13.5748 9.98556 13.6411 9.97372C13.7097 9.96188 13.7618 9.95123 13.7973 9.94176L14.0139 10.9467C13.9453 10.9704 13.847 10.9964 13.7192 11.0249C13.5937 11.0533 13.4398 11.0698 13.2575 11.0746C12.9356 11.084 12.6456 11.0355 12.3875 10.929C12.1295 10.8201 11.9247 10.652 11.7732 10.4247C11.624 10.1974 11.5506 9.91335 11.553 9.57244V4.23864ZM14.9896 11V5.54545H16.2361V6.45455H16.2929C16.3923 6.13968 16.5628 5.89702 16.8042 5.72656C17.0481 5.55374 17.3263 5.46733 17.6388 5.46733C17.7098 5.46733 17.7891 5.47088 17.8767 5.47798C17.9666 5.48272 18.0412 5.491 18.1004 5.50284V6.68537C18.046 6.66643 17.9595 6.64986 17.8412 6.63565C17.7252 6.61908 17.6127 6.6108 17.5038 6.6108C17.2694 6.6108 17.0587 6.66169 16.8717 6.76349C16.6871 6.86293 16.5415 7.00142 16.4349 7.17898C16.3284 7.35653 16.2751 7.56132 16.2751 7.79332V11H14.9896ZM20.24 3.72727V11H18.9545V3.72727H20.24Z" fill="black" fill-opacity="0.55"/>
</svg>
