<svg width="16" height="16" viewBox="0 0 16 16" fill="none" xmlns="http://www.w3.org/2000/svg">
<mask id="path-1-inside-1_10909_128114" fill="white">
<path d="M0 6.4C0 4.15979 0 3.03969 0.435974 2.18404C0.819467 1.43139 1.43139 0.819467 2.18404 0.435974C3.03969 0 4.15979 0 6.4 0H9.6C11.8402 0 12.9603 0 13.816 0.435974C14.5686 0.819467 15.1805 1.43139 15.564 2.18404C16 3.03969 16 4.15979 16 6.4V9.6C16 11.8402 16 12.9603 15.564 13.816C15.1805 14.5686 14.5686 15.1805 13.816 15.564C12.9603 16 11.8402 16 9.6 16H6.4C4.15979 16 3.03969 16 2.18404 15.564C1.43139 15.1805 0.819467 14.5686 0.435974 13.816C0 12.9603 0 11.8402 0 9.6V6.4Z"/>
</mask>
<path d="M0 6.4C0 4.15979 0 3.03969 0.435974 2.18404C0.819467 1.43139 1.43139 0.819467 2.18404 0.435974C3.03969 0 4.15979 0 6.4 0H9.6C11.8402 0 12.9603 0 13.816 0.435974C14.5686 0.819467 15.1805 1.43139 15.564 2.18404C16 3.03969 16 4.15979 16 6.4V9.6C16 11.8402 16 12.9603 15.564 13.816C15.1805 14.5686 14.5686 15.1805 13.816 15.564C12.9603 16 11.8402 16 9.6 16H6.4C4.15979 16 3.03969 16 2.18404 15.564C1.43139 15.1805 0.819467 14.5686 0.435974 13.816C0 12.9603 0 11.8402 0 9.6V6.4Z" fill="#F7F7F7"/>
<path d="M-1 4C-1 1.23858 1.23858 -1 4 -1H12C14.7614 -1 17 1.23858 17 4H15C15 2.34315 13.6569 1 12 1H4C2.34315 1 1 2.34315 1 4H-1ZM17 13C17 15.7614 14.7614 18 12 18H4C1.23858 18 -1 15.7614 -1 13L1 12C1 13.1046 2.34315 14 4 14H12C13.6569 14 15 13.1046 15 12L17 13ZM4 18C1.23858 18 -1 15.7614 -1 13V4C-1 1.23858 1.23858 -1 4 -1V1C2.34315 1 1 2.34315 1 4V12C1 13.1046 2.34315 14 4 14V18ZM12 -1C14.7614 -1 17 1.23858 17 4V13C17 15.7614 14.7614 18 12 18V14C13.6569 14 15 13.1046 15 12V4C15 2.34315 13.6569 1 12 1V-1Z" fill="black" fill-opacity="0.26" mask="url(#path-1-inside-1_10909_128114)"/>
<path d="M6.03311 11H4.62686L7.18723 3.72727H8.81365L11.3776 11H9.97132L8.02885 5.21875H7.97203L6.03311 11ZM6.07928 8.14844H9.91451V9.20668H6.07928V8.14844Z" fill="black" fill-opacity="0.55"/>
</svg>
