<svg width="16" height="16" viewBox="0 0 16 16" fill="none" xmlns="http://www.w3.org/2000/svg">
<mask id="path-1-inside-1_10909_128106" fill="white">
<path d="M0 6.4C0 4.15979 0 3.03969 0.435974 2.18404C0.819467 1.43139 1.43139 0.819467 2.18404 0.435974C3.03969 0 4.15979 0 6.4 0H9.6C11.8402 0 12.9603 0 13.816 0.435974C14.5686 0.819467 15.1805 1.43139 15.564 2.18404C16 3.03969 16 4.15979 16 6.4V9.6C16 11.8402 16 12.9603 15.564 13.816C15.1805 14.5686 14.5686 15.1805 13.816 15.564C12.9603 16 11.8402 16 9.6 16H6.4C4.15979 16 3.03969 16 2.18404 15.564C1.43139 15.1805 0.819467 14.5686 0.435974 13.816C0 12.9603 0 11.8402 0 9.6V6.4Z"/>
</mask>
<path d="M0 6.4C0 4.15979 0 3.03969 0.435974 2.18404C0.819467 1.43139 1.43139 0.819467 2.18404 0.435974C3.03969 0 4.15979 0 6.4 0H9.6C11.8402 0 12.9603 0 13.816 0.435974C14.5686 0.819467 15.1805 1.43139 15.564 2.18404C16 3.03969 16 4.15979 16 6.4V9.6C16 11.8402 16 12.9603 15.564 13.816C15.1805 14.5686 14.5686 15.1805 13.816 15.564C12.9603 16 11.8402 16 9.6 16H6.4C4.15979 16 3.03969 16 2.18404 15.564C1.43139 15.1805 0.819467 14.5686 0.435974 13.816C0 12.9603 0 11.8402 0 9.6V6.4Z" fill="#F7F7F7"/>
<path d="M-1 4C-1 1.23858 1.23858 -1 4 -1H12C14.7614 -1 17 1.23858 17 4H15C15 2.34315 13.6569 1 12 1H4C2.34315 1 1 2.34315 1 4H-1ZM17 13C17 15.7614 14.7614 18 12 18H4C1.23858 18 -1 15.7614 -1 13L1 12C1 13.1046 2.34315 14 4 14H12C13.6569 14 15 13.1046 15 12L17 13ZM4 18C1.23858 18 -1 15.7614 -1 13V4C-1 1.23858 1.23858 -1 4 -1V1C2.34315 1 1 2.34315 1 4V12C1 13.1046 2.34315 14 4 14V18ZM12 -1C14.7614 -1 17 1.23858 17 4V13C17 15.7614 14.7614 18 12 18V14C13.6569 14 15 13.1046 15 12V4C15 2.34315 13.6569 1 12 1V-1Z" fill="black" fill-opacity="0.26" mask="url(#path-1-inside-1_10909_128106)"/>
<path d="M11.2267 6.18111H9.89853C9.86065 5.9633 9.79081 5.77036 9.68901 5.60227C9.58721 5.43182 9.46055 5.28741 9.30904 5.16903C9.15752 5.05066 8.9847 4.96188 8.79057 4.9027C8.59881 4.84115 8.39166 4.81037 8.16912 4.81037C7.77376 4.81037 7.42338 4.9098 7.11799 5.10866C6.81259 5.30516 6.57348 5.59399 6.40066 5.97514C6.22784 6.35393 6.14142 6.81676 6.14142 7.36364C6.14142 7.91998 6.22784 8.38873 6.40066 8.76989C6.57585 9.14867 6.81496 9.43513 7.11799 9.62926C7.42338 9.82102 7.77258 9.9169 8.16557 9.9169C8.38337 9.9169 8.58697 9.88849 8.77637 9.83168C8.96813 9.77249 9.13977 9.68608 9.29128 9.57244C9.44516 9.45881 9.57419 9.31913 9.67836 9.15341C9.78489 8.98769 9.85828 8.7983 9.89853 8.58523L11.2267 8.59233C11.1769 8.93797 11.0692 9.26231 10.9035 9.56534C10.7401 9.86837 10.5259 10.1359 10.2607 10.3679C9.99559 10.5975 9.68546 10.7775 9.33034 10.9077C8.97523 11.0355 8.58105 11.0994 8.14782 11.0994C7.50861 11.0994 6.93806 10.9515 6.43617 10.6555C5.93427 10.3596 5.53891 9.93229 5.25009 9.37358C4.96126 8.81487 4.81685 8.14489 4.81685 7.36364C4.81685 6.58002 4.96245 5.91004 5.25364 5.35369C5.54483 4.79498 5.94138 4.36766 6.44327 4.07173C6.94516 3.7758 7.51335 3.62784 8.14782 3.62784C8.55265 3.62784 8.92907 3.68466 9.27708 3.7983C9.62509 3.91193 9.93522 4.07884 10.2075 4.29901C10.4797 4.51681 10.7035 4.78433 10.8786 5.10156C11.0562 5.41643 11.1722 5.77628 11.2267 6.18111Z" fill="black" fill-opacity="0.55"/>
</svg>
