<svg width="16" height="16" viewBox="0 0 16 16" fill="none" xmlns="http://www.w3.org/2000/svg">
<mask id="path-1-inside-1_11026_166003" fill="white">
<path d="M0 6.4C0 4.15979 0 3.03969 0.435974 2.18404C0.819467 1.43139 1.43139 0.819467 2.18404 0.435974C3.03969 0 4.15979 0 6.4 0H9.6C11.8402 0 12.9603 0 13.816 0.435974C14.5686 0.819467 15.1805 1.43139 15.564 2.18404C16 3.03969 16 4.15979 16 6.4V9.6C16 11.8402 16 12.9603 15.564 13.816C15.1805 14.5686 14.5686 15.1805 13.816 15.564C12.9603 16 11.8402 16 9.6 16H6.4C4.15979 16 3.03969 16 2.18404 15.564C1.43139 15.1805 0.819467 14.5686 0.435974 13.816C0 12.9603 0 11.8402 0 9.6V6.4Z"/>
</mask>
<path d="M0 6.4C0 4.15979 0 3.03969 0.435974 2.18404C0.819467 1.43139 1.43139 0.819467 2.18404 0.435974C3.03969 0 4.15979 0 6.4 0H9.6C11.8402 0 12.9603 0 13.816 0.435974C14.5686 0.819467 15.1805 1.43139 15.564 2.18404C16 3.03969 16 4.15979 16 6.4V9.6C16 11.8402 16 12.9603 15.564 13.816C15.1805 14.5686 14.5686 15.1805 13.816 15.564C12.9603 16 11.8402 16 9.6 16H6.4C4.15979 16 3.03969 16 2.18404 15.564C1.43139 15.1805 0.819467 14.5686 0.435974 13.816C0 12.9603 0 11.8402 0 9.6V6.4Z" fill="#E7F9EB"/>
<path d="M-1 4C-1 1.23858 1.23858 -1 4 -1H12C14.7614 -1 17 1.23858 17 4H15C15 2.34315 13.6569 1 12 1H4C2.34315 1 1 2.34315 1 4H-1ZM17 13C17 15.7614 14.7614 18 12 18H4C1.23858 18 -1 15.7614 -1 13L1 12C1 13.1046 2.34315 14 4 14H12C13.6569 14 15 13.1046 15 12L17 13ZM4 18C1.23858 18 -1 15.7614 -1 13V4C-1 1.23858 1.23858 -1 4 -1V1C2.34315 1 1 2.34315 1 4V12C1 13.1046 2.34315 14 4 14V18ZM12 -1C14.7614 -1 17 1.23858 17 4V13C17 15.7614 14.7614 18 12 18V14C13.6569 14 15 13.1046 15 12V4C15 2.34315 13.6569 1 12 1V-1Z" fill="#88DD9F" mask="url(#path-1-inside-1_11026_166003)"/>
<path d="M7.55877 11H5.09428V3.72727H7.60849C8.33055 3.72727 8.95082 3.87287 9.46928 4.16406C9.99012 4.45289 10.3902 4.86837 10.6696 5.41051C10.9489 5.95265 11.0886 6.60133 11.0886 7.35653C11.0886 8.11411 10.9477 8.76515 10.666 9.30966C10.3867 9.85417 9.98301 10.272 9.45508 10.5632C8.92951 10.8544 8.29741 11 7.55877 11ZM6.41175 9.86009H7.49485C8.00148 9.86009 8.42406 9.76776 8.76261 9.5831C9.10115 9.39607 9.35565 9.1179 9.5261 8.74858C9.69656 8.37689 9.78178 7.91288 9.78178 7.35653C9.78178 6.80019 9.69656 6.33854 9.5261 5.97159C9.35565 5.60227 9.10352 5.32647 8.76971 5.14418C8.43827 4.95952 8.02634 4.86719 7.53391 4.86719H6.41175V9.86009Z" fill="#189A2E"/>
</svg>
