<svg width="16" height="16" viewBox="0 0 16 16" fill="none" xmlns="http://www.w3.org/2000/svg">
<path d="M4.66666 1.33398C3.38385 1.33398 2.33332 2.38452 2.33332 3.66732V7.00065H1.16666C1.04348 6.9993 0.924134 7.04347 0.831511 7.12469C0.738887 7.2059 0.679501 7.31845 0.664738 7.44074C0.649975 7.56304 0.680874 7.68649 0.751512 7.78741C0.822149 7.88833 0.927553 7.95963 1.04751 7.98763L1.77017 12.1999V12.2005C1.91519 13.0453 2.54362 13.7085 3.34048 13.9251C3.35946 14.0346 3.41437 14.1347 3.49653 14.2095C3.5787 14.2843 3.68344 14.3296 3.79422 14.3382C3.905 14.3469 4.0155 14.3184 4.10829 14.2573C4.20108 14.1962 4.27087 14.1059 4.30663 14.0007H11.6933C11.7291 14.1059 11.7989 14.1962 11.8917 14.2573C11.9845 14.3184 12.095 14.3469 12.2058 14.3382C12.3165 14.3296 12.4213 14.2843 12.5034 14.2095C12.5856 14.1347 12.6405 14.0346 12.6595 13.9251C13.4566 13.7084 14.0857 13.0449 14.2305 12.1999H14.2298L14.9525 7.98763C15.0724 7.95963 15.1778 7.88833 15.2485 7.78741C15.3191 7.68649 15.35 7.56304 15.3352 7.44074C15.3205 7.31845 15.2611 7.2059 15.1685 7.12469C15.0758 7.04347 14.9565 6.9993 14.8333 7.00065H3.33332V3.66732C3.33332 2.92478 3.92412 2.33398 4.66666 2.33398C5.38213 2.33398 5.95124 2.88429 5.99218 3.58854C5.51633 3.75978 5.152 4.16511 5.03775 4.66536C4.99808 4.83836 5.14264 5.00065 5.3203 5.00065H7.67968C7.85734 5.00065 8.0019 4.83836 7.96223 4.66536C7.84702 4.16094 7.47712 3.754 6.99543 3.58529C6.95144 2.34035 5.92177 1.33398 4.66666 1.33398ZM2.06444 8.00065H13.9355L13.2448 12.0313C13.1527 12.5692 12.707 12.96 12.1693 12.9941C12.1658 12.9939 12.1623 12.9937 12.1588 12.9935C12.1344 12.9941 12.11 12.9965 12.0859 13.0007H3.91535C3.8859 12.9956 3.85605 12.9932 3.82616 12.9935H3.82551H3.82421C3.28942 12.9565 2.84721 12.5673 2.7552 12.0313L2.06444 8.00065Z" fill="#1A1A1A"/>
</svg>
