<svg xmlns="http://www.w3.org/2000/svg"  viewBox="0 0 48 48" width="24px" height="24px"><path d="M 10.669922 6 C 8.1857363 6 5.9957488 7.6813242 5.3554688 10.082031 L 3.1542969 18.339844 C 2.5386027 20.648696 3.8894272 22.967795 6 23.734375 L 6 37.5 C 6 39.967501 8.0324991 42 10.5 42 L 20.5 42 A 1.50015 1.50015 0 0 0 22 40.5 L 22 31.929688 C 22 30.805408 22.875721 29.929688 24 29.929688 C 25.124279 29.929688 26 30.805408 26 31.929688 L 26 40.5 A 1.50015 1.50015 0 0 0 27.5 42 L 37.5 42 C 39.967501 42 42 39.967501 42 37.5 L 42 23.732422 C 44.110006 22.965579 45.461328 20.648437 44.845703 18.339844 L 42.644531 10.082031 C 42.004251 7.6813242 39.814264 6 37.330078 6 L 10.669922 6 z M 10.669922 9 L 37.330078 9 C 38.469893 9 39.452374 9.7541757 39.746094 10.855469 L 41.947266 19.113281 C 42.21103 20.102399 41.519824 21 40.498047 21 L 32.546875 21 C 31.742031 21 30.990507 20.614866 30.519531 19.962891 L 26.388672 14.244141 C 25.237616 12.652975 22.761414 12.651561 21.611328 14.244141 L 17.482422 19.962891 C 17.011816 20.614355 16.258549 21 15.455078 21 L 7.5019531 21 C 6.4786954 21 5.7889696 20.102399 6.0527344 19.113281 L 8.2539062 10.855469 C 8.5476263 9.7541757 9.5301072 9 10.669922 9 z M 24 16.0625 L 28.087891 21.720703 C 29.120915 23.150727 30.781719 24 32.546875 24 L 39 24 L 39 37.5 C 39 38.346499 38.346499 39 37.5 39 L 29 39 L 29 31.929688 C 29 29.185966 26.743721 26.929688 24 26.929688 C 21.256279 26.929688 19 29.185967 19 31.929688 L 19 39 L 10.5 39 C 9.6535009 39 9 38.346499 9 37.5 L 9 24 L 15.455078 24 C 17.219608 24 18.880669 23.151239 19.914062 21.720703 L 24 16.0625 z M 14 28 C 12.895 28 12 28.895 12 30 L 12 32 C 12 33.105 12.895 34 14 34 C 15.105 34 16 33.105 16 32 L 16 30 C 16 28.895 15.105 28 14 28 z M 34 28 C 32.895 28 32 28.895 32 30 L 32 32 C 32 33.105 32.895 34 34 34 C 35.105 34 36 33.105 36 32 L 36 30 C 36 28.895 35.105 28 34 28 z"/></svg>