<svg xmlns="http://www.w3.org/2000/svg"  viewBox="0 0 48 48" width="24px" height="24px"><path d="M 26.003906 1.9921875 C 24.329262 2.0090035 18.734375 2.0332031 18.734375 2.0332031 L 18.001953 2.0371094 L 15.978516 4.6523438 C 15.103418 4.8843822 11.264068 5.9985597 8.5976562 9.9628906 C 5.2189091 14.983268 7.8945312 21.886719 7.8945312 21.886719 L 7.9511719 22.050781 C 5.2562034 22.134411 3.0136719 24.288951 3.0136719 26.990234 C 3.0136719 28.290353 3.4695408 29.617421 4.4570312 30.595703 C 5.3591542 31.489414 6.6769812 32.012039 8.1933594 32.042969 C 8.8286857 35.686166 10.890331 38.879476 13.464844 41.273438 C 16.574965 44.165444 20.437853 45.998047 23.992188 45.998047 C 27.546605 45.998047 31.409182 44.165675 34.519531 41.273438 C 37.357653 38.634337 39.572561 35.023823 39.939453 30.910156 C 42.68997 30.891321 44.994141 28.686299 44.994141 25.943359 C 44.994141 23.256995 42.774628 21.117728 40.099609 21.011719 L 40.128906 18.404297 L 40.082031 18.404297 C 40.078163 18.000497 40.081888 17.679004 40.070312 17.222656 C 40.021732 15.307405 39.93463 13.158069 39.529297 11.617188 L 39.529297 11.615234 C 39.19541 10.347217 38.251586 8.0396654 36.138672 5.9121094 C 34.025057 3.783848 30.685046 1.9464115 26.003906 1.9921875 z M 26.033203 4.9921875 C 29.942064 4.9539635 32.37138 6.377605 34.009766 8.0273438 C 35.648151 9.6770823 36.440469 11.662701 36.628906 12.378906 L 36.628906 12.380859 C 36.855758 13.242539 37.019654 15.41858 37.068359 17.246094 C 36.906652 17.101696 36.824641 17.008031 36.683594 16.888672 L 36.683594 16.886719 C 35.772358 16.116396 35.007165 16.27357 34.214844 16.324219 C 33.422523 16.374869 32.539873 16.519195 31.552734 16.685547 C 29.578457 17.018251 27.207033 17.445896 24.941406 17.501953 C 23.772763 17.531103 22.101125 16.70063 20.804688 15.730469 C 19.50825 14.760308 18.621094 13.785156 18.621094 13.785156 L 17.148438 12.162109 L 16.167969 14.123047 C 14.361202 17.737228 11.922789 18.852844 10.451172 19.361328 C 10.05252 17.588966 9.4288014 14.101908 11.087891 11.636719 C 13.320823 8.3168695 17.267578 7.3398437 17.267578 7.3398438 L 17.785156 7.21875 L 19.480469 5.0292969 C 20.402936 5.0250969 24.4939 5.0076435 26.033203 4.9921875 z M 17.734375 16.994141 C 18.191236 17.428501 18.253369 17.568241 19.007812 18.132812 C 20.553376 19.289402 22.616269 20.561803 25.015625 20.501953 C 27.599998 20.438013 30.111559 19.971328 32.050781 19.644531 C 33.020393 19.481133 33.852258 19.353773 34.40625 19.318359 C 34.710823 19.298892 34.906448 19.363532 34.955078 19.369141 C 35.669314 19.994288 36.602481 20.886231 37.09375 21.361328 L 36.998047 29.705078 L 36.998047 29.714844 C 36.998047 33.286092 35.116713 36.62116 32.476562 39.076172 C 29.836413 41.531184 26.44777 42.998047 23.992188 42.998047 C 21.536521 42.998047 18.147692 41.530915 15.507812 39.076172 C 12.867935 36.621429 10.986328 33.286153 10.986328 29.714844 L 11.042969 22.359375 C 12.735168 21.654216 15.577158 20.104221 17.734375 16.994141 z M 40.064453 24.025391 C 41.170923 24.110043 41.994141 24.921821 41.994141 25.943359 C 41.994141 26.984822 41.158953 27.843844 40.019531 27.900391 L 40.064453 24.025391 z M 8.0234375 25.029297 L 7.9921875 29.03125 C 7.2852258 28.976977 6.8563002 28.7501 6.5683594 28.464844 C 6.2153498 28.115126 6.0136719 27.606115 6.0136719 26.990234 C 6.0136719 25.937838 6.8655827 25.069151 8.0234375 25.029297 z M 17 26 C 15.9 26 15 26.9 15 28 C 15 29.1 15.9 30 17 30 C 18.1 30 19 29.1 19 28 C 19 26.9 18.1 26 17 26 z M 31 26 C 29.9 26 29 26.9 29 28 C 29 29.1 29.9 30 31 30 C 32.1 30 33 29.1 33 28 C 33 26.9 32.1 26 31 26 z M 20 37 L 20 39 L 28 39 L 28 37 L 20 37 z"/></svg>