<svg width="16" height="16" viewBox="0 0 16 16" fill="none" xmlns="http://www.w3.org/2000/svg">
<path d="M7.9922 1.32619C7.96332 1.32696 7.93457 1.33023 7.90626 1.33596C4.27353 1.38653 1.33334 4.3555 1.33334 8.00002C1.33334 11.6459 4.27562 14.6163 7.91017 14.6647C7.97067 14.6758 8.03269 14.6755 8.09311 14.6641C11.7261 14.6139 14.6667 11.6448 14.6667 8.00002C14.6667 4.35484 11.7254 1.38483 8.09181 1.33531C8.05899 1.32895 8.02562 1.32589 7.9922 1.32619ZM7.50001 2.45119V5.33335H5.70053C5.84258 4.80012 5.99602 4.27626 6.20574 3.86786C6.59 3.11956 7.04461 2.65226 7.50001 2.45119ZM8.50001 2.45119C8.95541 2.65226 9.41002 3.11956 9.79428 3.86786C10.004 4.27626 10.1574 4.80012 10.2995 5.33335H8.50001V2.45119ZM5.65496 2.84377C5.53441 3.02249 5.41928 3.20925 5.31577 3.41083C5.02958 3.96814 4.81394 4.62867 4.6478 5.33335H2.99871C3.58329 4.2367 4.51835 3.36016 5.65496 2.84377ZM10.3444 2.84377C11.4813 3.36013 12.4166 4.23652 13.0013 5.33335H11.3522C11.1861 4.62867 10.9704 3.96814 10.6843 3.41083C10.5807 3.20912 10.465 3.02259 10.3444 2.84377ZM2.58269 6.33335H4.50522C4.4289 6.87783 4.33334 7.41065 4.33334 8.00002C4.33334 8.58939 4.4289 9.12221 4.50522 9.66669H2.58269C2.42145 9.13991 2.33334 8.58044 2.33334 8.00002C2.33334 7.4196 2.42145 6.86013 2.58269 6.33335ZM5.50717 6.33335H7.50001V9.66669H5.50717C5.42381 9.12939 5.33334 8.59319 5.33334 8.00002C5.33334 7.40685 5.42381 6.87065 5.50717 6.33335ZM8.50001 6.33335H10.4928C10.5762 6.87065 10.6667 7.40685 10.6667 8.00002C10.6667 8.59319 10.5762 9.12939 10.4928 9.66669H8.50001V6.33335ZM11.4948 6.33335H13.4173C13.5786 6.86013 13.6667 7.4196 13.6667 8.00002C13.6667 8.58044 13.5786 9.13991 13.4173 9.66669H11.4948C11.5711 9.12221 11.6667 8.58939 11.6667 8.00002C11.6667 7.41065 11.5711 6.87783 11.4948 6.33335ZM2.99871 10.6667H4.6478C4.81394 11.3714 5.02958 12.0319 5.31577 12.5892C5.41934 12.7909 5.53497 12.9775 5.65561 13.1563C4.51876 12.6399 3.58338 11.7635 2.99871 10.6667ZM5.70053 10.6667H7.50001V13.5488C7.04461 13.3478 6.59 12.8805 6.20574 12.1322C5.99602 11.7238 5.84258 11.1999 5.70053 10.6667ZM8.50001 10.6667H10.2995C10.1574 11.1999 10.004 11.7238 9.79428 12.1322C9.41002 12.8805 8.95541 13.3478 8.50001 13.5488V10.6667ZM11.3522 10.6667H13.0013C12.4167 11.7633 11.4817 12.6399 10.3451 13.1563C10.4656 12.9775 10.5807 12.7908 10.6843 12.5892C10.9704 12.0319 11.1861 11.3714 11.3522 10.6667Z" fill="#1A1A1A"/>
</svg>
