<svg width="24" height="24" viewBox="0 0 24 24" fill="none" xmlns="http://www.w3.org/2000/svg">
<path d="M10.75 4C10.0684 4 9.5 4.56836 9.5 5.25V5.5H3.83008C3.54102 4.88867 2.92578 4.5 2.25 4.5C1.2832 4.5 0.5 5.2832 0.5 6.25C0.5 7.2168 1.2832 8 2.25 8C2.92578 8 3.53906 7.60938 3.82812 7H7.03125C4.73438 8.52734 3.18164 11.0801 3.02148 14H2.75C2.06836 14 1.5 14.5684 1.5 15.25V17.25C1.5 17.9316 2.06836 18.5 2.75 18.5H4.75C5.43164 18.5 6 17.9316 6 17.25V15.25C6 14.5684 5.43164 14 4.75 14H4.52148C4.72266 10.9492 6.73828 8.40625 9.5 7.42969V7.75C9.5 8.43164 10.0684 9 10.75 9H13.25C13.9316 9 14.5 8.43164 14.5 7.75V7.43359C17.2598 8.41016 19.2773 10.9492 19.4785 14H19.25C18.5684 14 18 14.5684 18 15.25V17.25C18 17.9316 18.5684 18.5 19.25 18.5H21.25C21.9316 18.5 22.5 17.9316 22.5 17.25V15.25C22.5 14.5684 21.9316 14 21.25 14H20.9844C20.8223 11.0703 19.2422 8.52539 16.9297 7H20.1699C20.459 7.61133 21.0742 8 21.75 8C22.7168 8 23.5 7.2168 23.5 6.25C23.5 5.2832 22.7168 4.5 21.75 4.5C21.0742 4.5 20.4609 4.89062 20.1719 5.5H14.5V5.25C14.5 4.56836 13.9316 4 13.25 4H10.75ZM11 5.5H13V6.13477C12.9883 6.21094 12.9883 6.28906 13 6.36523V7.5H11V6.37305C11.0137 6.29297 11.0137 6.21094 11 6.13086V5.5ZM11.9883 10.0156C11.8672 10.0176 11.75 10.0488 11.6445 10.1074C11.2246 10.1953 10.8262 10.3945 10.5801 10.7949L7.92578 15.127C7.37305 16.0273 7.35938 17.1602 7.88477 18.0742L9.06445 20.125C9.19922 20.3574 9.44727 20.5 9.7168 20.5H14.2852C14.5527 20.5 14.8008 20.3555 14.9355 20.125L16.1152 18.0742C16.6406 17.1602 16.627 16.0273 16.0762 15.127V15.125L13.4199 10.7949C13.1738 10.3945 12.7754 10.1953 12.3555 10.1074C12.2422 10.0449 12.1172 10.0137 11.9883 10.0156ZM11.25 12.5723V16.75C11.2461 17.0195 11.3887 17.2715 11.6211 17.4082C11.8555 17.5449 12.1445 17.5449 12.3789 17.4082C12.6113 17.2715 12.7539 17.0195 12.75 16.75V12.5723L14.7969 15.9102C15.0625 16.3438 15.0684 16.8848 14.8145 17.3262L13.8516 19H10.1484L9.18555 17.3262C8.93164 16.8848 8.9375 16.3438 9.20312 15.9121C9.20508 15.9102 9.20508 15.9102 9.20312 15.9102L11.25 12.5723ZM3 15.5H4.5V17H3V15.5ZM19.5 15.5H21V17H19.5V15.5Z" fill="#1A1A1A"/>
</svg>
