<svg width="16" height="16" viewBox="0 0 16 16" fill="none" xmlns="http://www.w3.org/2000/svg">
<path d="M3.83333 2C2.82674 2 2 2.82674 2 3.83333V12.1667C2 13.1733 2.82674 14 3.83333 14H12.1667C13.1733 14 14 13.1733 14 12.1667V3.83333C14 2.82674 13.1733 2 12.1667 2H3.83333ZM3.83333 3H12.1667C12.6327 3 13 3.36726 13 3.83333V10.6517L10.9961 8.71289C10.9959 8.71267 10.9957 8.71246 10.9954 8.71224C10.7361 8.4618 10.3956 8.33333 10.0579 8.33333C9.72041 8.33333 9.37996 8.4618 9.12044 8.71289L8.4375 9.3737L6.3776 7.38086C6.11879 7.12992 5.77869 7 5.43945 7C5.09969 7 4.76033 7.13072 4.50195 7.38021C4.50174 7.38043 4.50152 7.38064 4.5013 7.38086L3 8.83333V3.83333C3 3.36726 3.36726 3 3.83333 3ZM10.1667 4.33333C9.70833 4.33333 9.30127 4.52321 9.04297 4.8138C8.78467 5.10439 8.66667 5.47222 8.66667 5.83333C8.66667 6.19444 8.78467 6.56227 9.04297 6.85286C9.30127 7.14346 9.70833 7.33333 10.1667 7.33333C10.625 7.33333 11.0321 7.14346 11.2904 6.85286C11.5487 6.56227 11.6667 6.19444 11.6667 5.83333C11.6667 5.47222 11.5487 5.10439 11.2904 4.8138C11.0321 4.52321 10.625 4.33333 10.1667 4.33333ZM10.1667 5.33333C10.375 5.33333 10.4679 5.39346 10.543 5.47786C10.618 5.56227 10.6667 5.69444 10.6667 5.83333C10.6667 5.97222 10.618 6.10439 10.543 6.1888C10.4679 6.27321 10.375 6.33333 10.1667 6.33333C9.95833 6.33333 9.86539 6.27321 9.79036 6.1888C9.71533 6.10439 9.66667 5.97222 9.66667 5.83333C9.66667 5.69444 9.71533 5.56227 9.79036 5.47786C9.86539 5.39346 9.95833 5.33333 10.1667 5.33333ZM5.43945 8C5.52621 8 5.61178 8.03122 5.68164 8.09896C5.68186 8.09918 5.68207 8.09939 5.68229 8.09961L7.7181 10.069L4.68815 13H3.83333C3.36726 13 3 12.6327 3 12.1667V10.2246L5.19661 8.09961C5.26759 8.03108 5.35321 8 5.43945 8ZM10.0579 9.33333C10.1463 9.33333 10.2308 9.3641 10.3008 9.43164L13 12.043V12.1667C13 12.6327 12.6327 13 12.1667 13H6.12695L9.81576 9.43164C9.8849 9.36474 9.97015 9.33333 10.0579 9.33333Z" fill="#1A1A1A"/>
</svg>
