<svg width="24" height="24" viewBox="0 0 24 24" fill="none" xmlns="http://www.w3.org/2000/svg">
<path d="M18 2.50391C17.1035 2.50391 16.2051 2.8457 15.5254 3.52539L11.5781 7.4707L8.20118 3.71484C8.19923 3.71484 8.19923 3.71289 8.19923 3.71289C7.57423 3.02344 6.71876 2.66406 5.85353 2.64258C4.99025 2.62109 4.1172 2.9375 3.459 3.59375C2.14259 4.91016 2.19728 7.08594 3.57618 8.33398L3.57814 8.33594L13.084 17.0977C13.1016 18.041 13.3906 18.9844 14.1074 19.7031C14.5625 20.1582 15.1719 20.4375 15.877 20.7188C16.584 20.998 17.3828 21.2461 18.1406 21.4551C19.6543 21.875 21.0098 22.1406 21.0098 22.1406C21.2559 22.1895 21.5098 22.1133 21.6856 21.9355C21.8633 21.7598 21.9395 21.5059 21.8906 21.2598C21.8906 21.2598 21.625 19.9043 21.2051 18.3906C20.9961 17.6328 20.7481 16.834 20.4688 16.127C20.1875 15.4219 19.9082 14.8125 19.4531 14.3574C18.7363 13.6406 17.793 13.3516 16.8516 13.334L16.2656 12.6816L20.4746 8.47461C21.8359 7.11328 21.8359 4.88672 20.4746 3.52539C19.7949 2.8457 18.8965 2.50391 18 2.50391ZM18 3.99609C18.5098 3.99609 19.0195 4.19336 19.4141 4.58594C20.2012 5.37305 20.2012 6.62695 19.4141 7.41406L18.4453 8.38281L15.6172 5.55469L16.5859 4.58594C16.9785 4.19336 17.4902 3.99609 18 3.99609ZM5.81642 4.13086C6.28126 4.14258 6.74415 4.33984 7.08595 4.71875L12.7129 10.9766L10.7656 12.9219L4.58986 7.22656C4.5879 7.22656 4.58595 7.22461 4.584 7.22266C3.82423 6.53516 3.79493 5.37891 4.51954 4.65625C4.88087 4.29297 5.35157 4.11914 5.81642 4.13086ZM14.5547 6.61719L17.3828 9.44531L15.2637 11.5645L14.3984 10.6074C14.3496 10.5234 14.2852 10.4512 14.209 10.3926L12.584 8.58789L14.5547 6.61719ZM13.7188 12.0938L15.4082 13.9727L13.7285 15.6543L11.8692 13.9395L13.7188 12.0938ZM6.58595 12.4648L4.46095 14.5898C4.25001 14.8008 4.09376 15.0645 4.01564 15.3496L2.53126 20.5449C2.45509 20.8047 2.5254 21.0898 2.71876 21.2812C2.85939 21.4258 3.0547 21.5 3.25001 21.5C3.32032 21.5 3.39064 21.4902 3.45509 21.4688L8.6504 19.9844C8.93556 19.9062 9.19923 19.75 9.41017 19.5391L11.7344 17.2148L10.6309 16.2012L8.34962 18.4805C8.31446 18.5098 8.27931 18.5352 8.24025 18.5449L4.33986 19.6602L5.45509 15.7598C5.46486 15.7207 5.49025 15.6855 5.51954 15.6504L7.68556 13.4844L6.58595 12.4648ZM16.7149 14.7891C17.3203 14.7715 17.9277 14.9551 18.3906 15.418C18.5274 15.5527 18.8242 16.0547 19.0723 16.6816C19.3223 17.3086 19.5586 18.0664 19.7598 18.791C19.9922 19.6328 20.0293 19.873 20.1426 20.3926C19.6231 20.2793 19.3828 20.2422 18.541 20.0098C17.8164 19.8086 17.0586 19.5723 16.4317 19.3223C15.8067 19.0742 15.3047 18.7773 15.168 18.6406C14.7051 18.1777 14.5215 17.5703 14.5391 16.9648L16.7149 14.7891Z" fill="#1A1A1A"/>
</svg>
