<svg xmlns="http://www.w3.org/2000/svg"  viewBox="0 0 48 48" width="24px" height="24px"><path d="M 33.5 4 C 31.58477 4 30 5.5847703 30 7.5 L 30 18 L 26 18 L 26 13.5 A 1.50015 1.50015 0 0 0 23.667969 12.251953 L 17 16.697266 L 17 13.5 A 1.50015 1.50015 0 0 0 14.667969 12.251953 L 6.5566406 17.662109 C 5.5869011 18.309104 5.0021584 19.400648 5 20.566406 A 1.50015 1.50015 0 0 0 5 20.570312 L 5 38.5 C 5 40.41523 6.5847703 42 8.5 42 L 39.5 42 C 41.41523 42 43 40.41523 43 38.5 L 43 7.5 C 43 5.5847703 41.41523 4 39.5 4 L 33.5 4 z M 33.5 7 L 39.5 7 C 39.793909 7 40 7.2060907 40 7.5 L 40 38.5 C 40 38.793909 39.793909 39 39.5 39 L 8.5 39 C 8.2060907 39 8 38.793909 8 38.5 L 8 20.572266 L 8 20.570312 C 8.0009062 20.402522 8.0829851 20.25139 8.2226562 20.158203 L 14 16.304688 L 14 19.5 A 1.50015 1.50015 0 0 0 16.332031 20.748047 L 23 16.302734 L 23 19.5 A 1.50015 1.50015 0 0 0 24.5 21 L 31.5 21 A 1.50015 1.50015 0 0 0 33 19.5 L 33 7.5 C 33 7.2060907 33.206091 7 33.5 7 z M 13 24 C 12.446 24 12 24.446 12 25 L 12 27 C 12 27.554 12.446 28 13 28 L 15 28 C 15.554 28 16 27.554 16 27 L 16 25 C 16 24.446 15.554 24 15 24 L 13 24 z M 23 24 C 22.446 24 22 24.446 22 25 L 22 27 C 22 27.554 22.446 28 23 28 L 25 28 C 25.554 28 26 27.554 26 27 L 26 25 C 26 24.446 25.554 24 25 24 L 23 24 z M 33 24 C 32.446 24 32 24.446 32 25 L 32 27 C 32 27.554 32.446 28 33 28 L 35 28 C 35.554 28 36 27.554 36 27 L 36 25 C 36 24.446 35.554 24 35 24 L 33 24 z M 13 32 C 12.446 32 12 32.446 12 33 L 12 35 C 12 35.554 12.446 36 13 36 L 15 36 C 15.554 36 16 35.554 16 35 L 16 33 C 16 32.446 15.554 32 15 32 L 13 32 z M 23 32 C 22.446 32 22 32.446 22 33 L 22 35 C 22 35.554 22.446 36 23 36 L 25 36 C 25.554 36 26 35.554 26 35 L 26 33 C 26 32.446 25.554 32 25 32 L 23 32 z M 33 32 C 32.446 32 32 32.446 32 33 L 32 35 C 32 35.554 32.446 36 33 36 L 35 36 C 35.554 36 36 35.554 36 35 L 36 33 C 36 32.446 35.554 32 35 32 L 33 32 z"/></svg>