<svg xmlns="http://www.w3.org/2000/svg"  viewBox="0 0 48 48" width="24px" height="24px"><path d="M 13.5 6 C 9.3754991 6 6 9.3754991 6 13.5 L 6 34.5 C 6 38.624501 9.3754991 42 13.5 42 L 34.5 42 C 38.624501 42 42 38.624501 42 34.5 L 42 13.5 C 42 9.3754991 38.624501 6 34.5 6 L 13.5 6 z M 13.5 9 L 34.5 9 C 37.003499 9 39 10.996501 39 13.5 L 39 34.5 C 39 37.003499 37.003499 39 34.5 39 L 13.5 39 C 10.996501 39 9 37.003499 9 34.5 L 9 13.5 C 9 10.996501 10.996501 9 13.5 9 z M 13.353516 18 A 1.5 1.5 0 0 0 13.353516 21 A 1.5 1.5 0 0 0 13.353516 18 z M 21.396484 18 C 18.501484 18 16.146484 20.691 16.146484 24 C 16.146484 27.309 18.501484 30 21.396484 30 C 24.291484 30 26.646484 27.309 26.646484 24 C 26.646484 20.691 24.291484 18 21.396484 18 z M 31.083984 18 C 29.050984 18 27.398438 19.626 27.398438 21.625 C 27.398437 23.624 29.052937 25.25 31.085938 25.25 L 32.460938 25.25 C 33.116938 25.25 33.648438 25.755 33.648438 26.375 C 33.648437 26.995 33.115938 27.5 32.460938 27.5 L 30.685547 27.5 C 30.029547 27.5 29.540734 27.169016 29.427734 27.041016 C 29.040734 26.480016 28.271125 26.331937 27.703125 26.710938 C 27.128125 27.092938 26.974422 27.869359 27.357422 28.443359 C 27.872422 29.217359 29.181547 30 30.685547 30 L 32.458984 30 C 34.491984 30 36.148438 28.374 36.148438 26.375 C 36.148438 24.376 34.493938 22.75 32.460938 22.75 L 31.085938 22.75 C 30.430938 22.75 29.898438 22.245 29.898438 21.625 C 29.898437 21.005 30.430937 20.5 31.085938 20.5 L 32.398438 20.5 C 33.025437 20.5 33.322891 20.894109 33.337891 20.912109 C 33.703891 21.498109 34.476547 21.678547 35.060547 21.310547 C 35.645547 20.944547 35.823031 20.172891 35.457031 19.587891 C 35.355031 19.425891 34.406484 18 32.396484 18 L 31.083984 18 z M 21.396484 20.5 C 22.912484 20.5 24.146484 22.07 24.146484 24 C 24.146484 25.93 22.913484 27.5 21.396484 27.5 C 19.879484 27.5 18.646484 25.93 18.646484 24 C 18.646484 22.07 19.879484 20.5 21.396484 20.5 z M 13.337891 22 C 12.647891 22 12.087891 22.56 12.087891 23.25 L 12.087891 28.75 C 12.087891 29.44 12.647891 30 13.337891 30 C 14.027891 30 14.587891 29.44 14.587891 28.75 L 14.587891 23.25 C 14.587891 22.56 14.027891 22 13.337891 22 z"/></svg>