<svg xmlns="http://www.w3.org/2000/svg"  viewBox="0 0 48 48" width="24px" height="24px"><path d="M 8.5 9 C 6.5850452 9 5 10.585045 5 12.5 L 5 31.5 C 5 33.414955 6.5850452 35 8.5 35 L 39.5 35 C 41.414955 35 43 33.414955 43 31.5 L 43 12.5 C 43 10.585045 41.414955 9 39.5 9 L 8.5 9 z M 8.5 12 L 39.5 12 C 39.795045 12 40 12.204955 40 12.5 L 40 31.5 C 40 31.795045 39.795045 32 39.5 32 L 8.5 32 C 8.2049548 32 8 31.795045 8 31.5 L 8 12.5 C 8 12.204955 8.2049548 12 8.5 12 z M 2.5 38 A 1.50015 1.50015 0 1 0 2.5 41 L 45.5 41 A 1.50015 1.50015 0 1 0 45.5 38 L 2.5 38 z"/></svg>