<svg width="24" height="24" viewBox="0 0 24 24" fill="#0000008c" xmlns="http://www.w3.org/2000/svg">
<path d="M12.0001 2C10.1329 2 8.26877 2.52572 6.63677 3.56543C6.53935 3.54913 6.44142 3.53711 6.34282 3.53711C5.89342 3.53711 5.44405 3.70639 5.10552 4.04492L4.04497 5.10547C3.63218 5.51827 3.47492 6.09525 3.56548 6.63672C1.48601 9.90111 1.48596 14.0993 3.56548 17.3633C3.47492 17.9048 3.63218 18.4817 4.04497 18.8945L5.10552 19.9551C5.51832 20.3679 6.0953 20.5251 6.63677 20.4346C9.90117 22.514 14.0994 22.5141 17.3633 20.4346C17.9048 20.5251 18.4818 20.3679 18.8946 19.9551L19.9551 18.8945C20.3679 18.4817 20.5252 17.9048 20.4346 17.3633C22.5141 14.0989 22.5141 9.9007 20.4346 6.63672C20.5252 6.09525 20.3679 5.51827 19.9551 5.10547L18.8946 4.04492C18.5561 3.70639 18.1067 3.53711 17.6573 3.53711C17.5587 3.53711 17.4608 3.54913 17.3633 3.56543C15.7312 2.52574 13.8672 2 12.0001 2ZM12.0001 3.5C13.3686 3.49999 14.7348 3.83368 15.9747 4.49023L13.6944 6.77051C13.1599 6.59639 12.5913 6.5 12.0001 6.5C11.4088 6.5 10.8402 6.59639 10.3057 6.77051L8.02544 4.49023C9.26513 3.8337 10.6316 3.50001 12.0001 3.5ZM6.34282 5.02734C6.40522 5.02734 6.46761 5.0535 6.51958 5.10547L8.88677 7.47266C8.33409 7.8543 7.85435 8.33404 7.47271 8.88672L5.10552 6.51953C5.00157 6.41559 5.00157 6.26996 5.10552 6.16602L6.16607 5.10547C6.21804 5.0535 6.28043 5.02734 6.34282 5.02734ZM17.6573 5.02734C17.7197 5.02734 17.7821 5.0535 17.834 5.10547L18.8946 6.16602C18.9985 6.26996 18.9985 6.41559 18.8946 6.51953L16.5274 8.88672C16.1458 8.33404 15.666 7.8543 15.1133 7.47266L17.4805 5.10547C17.5325 5.0535 17.5949 5.02734 17.6573 5.02734ZM12.0001 8C14.2181 8 16.0001 9.78198 16.0001 12C16.0001 14.218 14.2181 16 12.0001 16C9.78203 16 8.00005 14.218 8.00005 12C8.00005 9.78198 9.78203 8 12.0001 8ZM4.49029 8.02539L6.77056 10.3057C6.59644 10.8402 6.50005 11.4088 6.50005 12C6.50005 12.5912 6.59644 13.1598 6.77056 13.6943L4.49029 15.9746C3.17721 13.4952 3.17719 10.5051 4.49029 8.02539ZM19.5098 8.02539C20.8229 10.5048 20.8229 13.4949 19.5098 15.9746L17.2295 13.6943C17.4037 13.1598 17.5001 12.5912 17.5001 12C17.5001 11.4088 17.4037 10.8402 17.2295 10.3057L19.5098 8.02539ZM7.47271 15.1133C7.85435 15.666 8.33409 16.1457 8.88677 16.5273L6.51958 18.8945C6.41564 18.9985 6.27001 18.9985 6.16607 18.8945L5.10552 17.834C5.00157 17.73 5.00157 17.5844 5.10552 17.4805L7.47271 15.1133ZM16.5274 15.1133L18.8946 17.4805C18.9985 17.5844 18.9985 17.73 18.8946 17.834L17.834 18.8945C17.7301 18.9985 17.5845 18.9985 17.4805 18.8945L15.1133 16.5273C15.666 16.1457 16.1458 15.666 16.5274 15.1133ZM10.3057 17.2295C10.8402 17.4036 11.4088 17.5 12.0001 17.5C12.5913 17.5 13.1599 17.4036 13.6944 17.2295L15.9747 19.5098C13.4953 20.8228 10.5052 20.8229 8.02544 19.5098L10.3057 17.2295Z" />
</svg>
