<svg xmlns="http://www.w3.org/2000/svg"  viewBox="0 0 48 48" width="24px" height="24px"><path d="M 24 3 C 21.830255 3 20.109528 4.4566262 18.716797 6.2929688 C 17.324066 8.1293113 16.160057 10.499947 15.177734 13.033203 C 13.213089 18.099715 12 23.695171 12 27 C 12 30.768573 13.695581 34.393722 16.445312 36.740234 A 1.50015 1.50015 0 0 0 16.53125 37.056641 C 17.01014 39.295005 17.510293 41.462055 17.513672 41.476562 C 17.513672 41.476562 17.513672 41.478516 17.513672 41.478516 C 17.970196 43.528058 19.80599 45 21.90625 45 L 26.09375 45 C 28.19401 45 30.029959 43.527432 30.486328 41.478516 C 30.489228 41.465866 30.983747 39.317302 31.457031 37.109375 A 1.50015 1.50015 0 0 0 31.566406 36.730469 C 34.30929 34.383655 36 30.763265 36 27 C 36 23.695171 34.786911 18.099715 32.822266 13.033203 C 31.839943 10.499947 30.675934 8.1293113 29.283203 6.2929688 C 27.890472 4.4566261 26.169745 3 24 3 z M 24 6 C 24.729755 6 25.772903 6.6311082 26.892578 8.1074219 C 28.012254 9.5837356 29.107588 11.750318 30.025391 14.117188 C 31.697149 18.42839 32.675549 23.244262 32.857422 26 L 15.142578 26 C 15.324451 23.244262 16.302851 18.428389 17.974609 14.117188 C 18.892412 11.750319 19.987746 9.5837356 21.107422 8.1074219 C 22.227097 6.6311082 23.270245 6 24 6 z M 15.269531 29 L 32.730469 29 C 32.192937 31.456396 30.749911 33.6922 28.835938 35 L 19.164062 35 C 17.25009 33.6922 15.807063 31.456396 15.269531 29 z M 19.814453 38 L 28.185547 38 C 27.920191 39.187006 27.560547 40.810547 27.560547 40.810547 A 1.50015 1.50015 0 0 0 27.558594 40.826172 C 27.404331 41.520307 26.804871 42 26.09375 42 L 21.90625 42 C 21.195129 42 20.595565 41.519634 20.441406 40.826172 A 1.50015 1.50015 0 0 0 20.439453 40.810547 C 20.439453 40.810547 20.079809 39.187006 19.814453 38 z"/></svg>