<svg width="16" height="16" viewBox="0 0 16 16" fill="none" xmlns="http://www.w3.org/2000/svg">
<path d="M4.33332 4.33355C2.31414 4.33355 0.666656 5.98103 0.666656 8.00021C0.666656 10.0194 2.31414 11.6669 4.33332 11.6669H5.83332C5.89958 11.6678 5.96536 11.6556 6.02684 11.6309C6.08833 11.6062 6.14429 11.5695 6.19147 11.523C6.23866 11.4764 6.27613 11.421 6.3017 11.3599C6.32727 11.2987 6.34044 11.2331 6.34044 11.1669C6.34044 11.1006 6.32727 11.035 6.3017 10.9739C6.27613 10.9128 6.23866 10.8573 6.19147 10.8108C6.14429 10.7643 6.08833 10.7276 6.02684 10.7029C5.96536 10.6782 5.89958 10.6659 5.83332 10.6669H4.33332C2.85451 10.6669 1.66666 9.47903 1.66666 8.00021C1.66666 6.5214 2.85451 5.33355 4.33332 5.33355H5.83332C5.89958 5.33448 5.96536 5.32224 6.02684 5.29754C6.08833 5.27283 6.14429 5.23615 6.19147 5.18963C6.23866 5.1431 6.27613 5.08767 6.3017 5.02654C6.32727 4.96541 6.34044 4.89981 6.34044 4.83355C6.34044 4.76728 6.32727 4.70168 6.3017 4.64055C6.27613 4.57942 6.23866 4.52399 6.19147 4.47747C6.14429 4.43094 6.08833 4.39426 6.02684 4.36956C5.96536 4.34485 5.89958 4.33261 5.83332 4.33355H4.33332ZM10.1667 4.33355C10.1004 4.33261 10.0346 4.34485 9.97313 4.36956C9.91165 4.39426 9.85569 4.43094 9.80851 4.47747C9.76132 4.52399 9.72385 4.57942 9.69828 4.64055C9.6727 4.70168 9.65953 4.76728 9.65953 4.83355C9.65953 4.89981 9.6727 4.96541 9.69828 5.02654C9.72385 5.08767 9.76132 5.1431 9.80851 5.18963C9.85569 5.23615 9.91165 5.27283 9.97313 5.29754C10.0346 5.32224 10.1004 5.33448 10.1667 5.33355H11.6667C13.1455 5.33355 14.3333 6.5214 14.3333 8.00021C14.3333 9.47903 13.1455 10.6669 11.6667 10.6669H10.1667C10.1004 10.6659 10.0346 10.6782 9.97313 10.7029C9.91165 10.7276 9.85569 10.7643 9.80851 10.8108C9.76132 10.8573 9.72385 10.9128 9.69828 10.9739C9.6727 11.035 9.65953 11.1006 9.65953 11.1669C9.65953 11.2331 9.6727 11.2987 9.69828 11.3599C9.72385 11.421 9.76132 11.4764 9.80851 11.523C9.85569 11.5695 9.91165 11.6062 9.97313 11.6309C10.0346 11.6556 10.1004 11.6678 10.1667 11.6669H11.6667C13.6858 11.6669 15.3333 10.0194 15.3333 8.00021C15.3333 5.98103 13.6858 4.33355 11.6667 4.33355H10.1667ZM3.83332 7.50021C3.76707 7.49928 3.70129 7.51152 3.6398 7.53622C3.57832 7.56093 3.52236 7.59761 3.47517 7.64413C3.42799 7.69066 3.39052 7.74609 3.36495 7.80722C3.33937 7.86835 3.3262 7.93395 3.3262 8.00021C3.3262 8.06648 3.33937 8.13208 3.36495 8.19321C3.39052 8.25433 3.42799 8.30977 3.47517 8.35629C3.52236 8.40281 3.57832 8.4395 3.6398 8.4642C3.70129 8.48891 3.76707 8.50115 3.83332 8.50021H12.1667C12.2329 8.50115 12.2987 8.48891 12.3602 8.4642C12.4217 8.4395 12.4776 8.40281 12.5248 8.35629C12.572 8.30977 12.6095 8.25433 12.635 8.19321C12.6606 8.13208 12.6738 8.06648 12.6738 8.00021C12.6738 7.93395 12.6606 7.86835 12.635 7.80722C12.6095 7.74609 12.572 7.69066 12.5248 7.64413C12.4776 7.59761 12.4217 7.56093 12.3602 7.53622C12.2987 7.51152 12.2329 7.49928 12.1667 7.50021H3.83332Z" fill="#1A1A1A"/>
</svg>
