<svg xmlns="http://www.w3.org/2000/svg"  viewBox="0 0 48 48" width="24px" height="24px"><path d="M 13 13 C 6.9424416 13 2 17.942442 2 24 C 2 30.057558 6.9424416 35 13 35 L 17.5 35 A 1.50015 1.50015 0 1 0 17.5 32 L 13 32 C 8.5635584 32 5 28.436442 5 24 C 5 19.563558 8.5635584 16 13 16 L 17.5 16 A 1.50015 1.50015 0 1 0 17.5 13 L 13 13 z M 30.5 13 A 1.50015 1.50015 0 1 0 30.5 16 L 35 16 C 39.436442 16 43 19.563558 43 24 C 43 28.436442 39.436442 32 35 32 L 30.5 32 A 1.50015 1.50015 0 1 0 30.5 35 L 35 35 C 41.057558 35 46 30.057558 46 24 C 46 17.942442 41.057558 13 35 13 L 30.5 13 z M 11.5 22.5 A 1.50015 1.50015 0 1 0 11.5 25.5 L 36.5 25.5 A 1.50015 1.50015 0 1 0 36.5 22.5 L 11.5 22.5 z"/></svg>