<svg width="16" height="16" viewBox="0 0 16 16" fill="none" xmlns="http://www.w3.org/2000/svg">
<g clip-path="url(#clip0_5383_96860)">
<path d="M10.4844 0.000257696C10.443 0.00159103 10.4014 0.00787228 10.3607 0.0197889C10.2833 0.0424556 9.58422 0.260414 8.86589 0.993747C8.10289 1.77275 8.00627 2.74702 8.0026 2.78802C7.98794 2.94835 8.05054 3.10586 8.17188 3.2112C8.26388 3.2912 8.38067 3.33359 8.5 3.33359C8.538 3.33359 8.57658 3.32957 8.61458 3.32057C8.65425 3.31124 9.59365 3.08205 10.2507 2.20338C10.8653 1.38238 10.9831 0.650903 10.9948 0.57057C11.0188 0.402237 10.9555 0.233654 10.8275 0.122654C10.7315 0.0389035 10.6086 -0.0037423 10.4844 0.000257696ZM5.66667 3.66692C3.67007 3.66692 2 5.44174 2 7.83359C2 9.6947 2.61444 11.3591 3.36654 12.5758C3.74259 13.1841 4.15226 13.681 4.55794 14.0426C4.96363 14.4042 5.34722 14.6669 5.83333 14.6669C6.44444 14.6669 6.88639 14.4495 7.23372 14.2861C7.58106 14.1226 7.84524 14.0003 8.33333 14.0003C8.82143 14.0003 9.08561 14.1226 9.43294 14.2861C9.78027 14.4495 10.2222 14.6669 10.8333 14.6669C11.4895 14.6669 11.9752 14.2225 12.5059 13.6161C13.0365 13.0098 13.5597 12.1766 13.9629 11.1891C13.9885 11.1261 14.001 11.0585 13.9997 10.9905C13.9983 10.9225 13.9831 10.8555 13.9549 10.7936C13.9268 10.7316 13.8863 10.6761 13.8359 10.6304C13.7856 10.5847 13.7264 10.5497 13.6621 10.5276C12.7172 10.2037 12 9.19916 12 7.91692C12 6.80236 12.5108 5.86329 13.2513 5.43255C13.3182 5.39367 13.3751 5.33981 13.4176 5.27521C13.4602 5.2106 13.4871 5.13701 13.4964 5.06022C13.5057 4.98343 13.497 4.90553 13.4711 4.83265C13.4452 4.75978 13.4027 4.69391 13.347 4.64023C12.7093 4.02493 11.8996 3.66692 11 3.66692C10.3214 3.66692 9.86361 3.88433 9.51628 4.04778C9.16894 4.21123 8.91667 4.33359 8.33333 4.33359C7.75 4.33359 7.49772 4.21123 7.15039 4.04778C6.80306 3.88433 6.34524 3.66692 5.66667 3.66692ZM5.66667 4.66692C6.15476 4.66692 6.36361 4.78285 6.72461 4.95273C7.08561 5.12261 7.58333 5.33359 8.33333 5.33359C9.08333 5.33359 9.58106 5.12261 9.94206 4.95273C10.3031 4.78285 10.5119 4.66692 11 4.66692C11.4435 4.66692 11.8179 4.81493 12.1719 5.03216C11.4335 5.73601 11 6.77508 11 7.91692C11 9.35995 11.7393 10.5818 12.8418 11.2001C12.5097 11.9068 12.1268 12.5304 11.7533 12.9573C11.3086 13.4654 10.8435 13.6669 10.8333 13.6669C10.4444 13.6669 10.2197 13.551 9.85872 13.3811C9.49772 13.2112 9.0119 13.0003 8.33333 13.0003C7.65476 13.0003 7.16894 13.2112 6.80794 13.3811C6.44694 13.551 6.22222 13.6669 5.83333 13.6669C5.81944 13.6669 5.53637 13.5755 5.22331 13.2965C4.91024 13.0174 4.54908 12.5873 4.2168 12.0497C3.55223 10.9747 3 9.47248 3 7.83359C3 5.8921 4.25727 4.66692 5.66667 4.66692Z" fill="#1A1A1A"/>
</g>
<defs>
<clipPath id="clip0_5383_96860">
<rect width="16" height="16" fill="white"/>
</clipPath>
</defs>
</svg>
