<svg xmlns="http://www.w3.org/2000/svg"  viewBox="0 0 48 48" width="24px" height="24px"><path d="M 15 7 C 8.9424416 7 4 11.942442 4 18 C 4 22.096154 7.0876448 25.952899 10.851562 29.908203 C 14.615481 33.863507 19.248379 37.869472 22.939453 41.560547 A 1.50015 1.50015 0 0 0 25.060547 41.560547 C 28.751621 37.869472 33.384518 33.863507 37.148438 29.908203 C 40.912356 25.952899 44 22.096154 44 18 C 44 11.942442 39.057558 7 33 7 C 29.523564 7 26.496821 8.8664883 24 12.037109 C 21.503179 8.8664883 18.476436 7 15 7 z M 15 10 C 17.928571 10 20.3663 11.558399 22.732422 15.300781 A 1.50015 1.50015 0 0 0 25.267578 15.300781 C 27.6337 11.558399 30.071429 10 33 10 C 33.570808 10 34.125933 10.061575 34.662109 10.173828 A 1.5 1.5 0 0 0 36 11 A 1.5 1.5 0 0 0 36.619141 10.863281 C 37.375727 11.245698 38.064853 11.739713 38.658203 12.332031 A 1.5 1.5 0 0 0 40 14.5 A 1.5 1.5 0 0 0 40.185547 14.486328 C 40.702196 15.546657 41 16.735567 41 18 C 41 18.621941 40.831243 19.328627 40.529297 20.097656 A 1.5 1.5 0 0 0 40 20 A 1.5 1.5 0 0 0 39.126953 22.71875 C 38.638313 23.470262 38.078757 24.248664 37.431641 25.052734 A 1.5 1.5 0 0 0 36 24 A 1.5 1.5 0 0 0 35.765625 26.980469 C 35.50507 27.267209 35.251557 27.55282 34.976562 27.841797 C 34.505962 28.336326 33.989721 28.839777 33.490234 29.339844 A 1.5 1.5 0 0 0 32 28 A 1.5 1.5 0 0 0 31.828125 30.988281 C 31.054765 31.73489 30.272334 32.481732 29.474609 33.232422 A 1.5 1.5 0 0 0 28 32 A 1.5 1.5 0 0 0 27.638672 34.957031 C 26.891198 35.658398 26.161067 36.355533 25.429688 37.052734 A 1.5 1.5 0 0 0 24 36 A 1.5 1.5 0 0 0 22.570312 37.052734 C 21.838276 36.354907 21.107526 35.657077 20.359375 34.955078 A 1.5 1.5 0 0 0 20 32 A 1.5 1.5 0 0 0 18.523438 33.232422 C 17.72641 32.482384 16.946533 31.734245 16.173828 30.988281 A 1.5 1.5 0 0 0 16 28 A 1.5 1.5 0 0 0 14.509766 29.341797 C 14.009935 28.841398 13.494347 28.336651 13.023438 27.841797 C 12.748443 27.55282 12.49493 27.267209 12.234375 26.980469 A 1.5 1.5 0 0 0 12 24 A 1.5 1.5 0 0 0 10.570312 25.054688 C 9.9225135 24.249889 9.3621075 23.47091 8.8730469 22.71875 A 1.5 1.5 0 0 0 8 20 A 1.5 1.5 0 0 0 7.4707031 20.099609 C 7.16836 19.329969 7 18.622364 7 18 C 7 16.735567 7.2978039 15.546657 7.8144531 14.486328 A 1.5 1.5 0 0 0 8 14.5 A 1.5 1.5 0 0 0 9.3417969 12.332031 C 9.9349516 11.739908 10.624569 11.247602 11.380859 10.865234 A 1.5 1.5 0 0 0 12 11 A 1.5 1.5 0 0 0 13.337891 10.173828 C 13.874067 10.061575 14.429192 10 15 10 z M 16 12 A 1.5 1.5 0 0 0 16 15 A 1.5 1.5 0 0 0 16 12 z M 32 12 A 1.5 1.5 0 0 0 32 15 A 1.5 1.5 0 0 0 32 12 z M 12 16 A 1.5 1.5 0 0 0 12 19 A 1.5 1.5 0 0 0 12 16 z M 20 16 A 1.5 1.5 0 0 0 20 19 A 1.5 1.5 0 0 0 20 16 z M 28 16 A 1.5 1.5 0 0 0 28 19 A 1.5 1.5 0 0 0 28 16 z M 36 16 A 1.5 1.5 0 0 0 36 19 A 1.5 1.5 0 0 0 36 16 z M 16 20 A 1.5 1.5 0 0 0 16 23 A 1.5 1.5 0 0 0 16 20 z M 24 20 A 1.5 1.5 0 0 0 24 23 A 1.5 1.5 0 0 0 24 20 z M 32 20 A 1.5 1.5 0 0 0 32 23 A 1.5 1.5 0 0 0 32 20 z M 20 24 A 1.5 1.5 0 0 0 20 27 A 1.5 1.5 0 0 0 20 24 z M 28 24 A 1.5 1.5 0 0 0 28 27 A 1.5 1.5 0 0 0 28 24 z M 24 28 A 1.5 1.5 0 0 0 24 31 A 1.5 1.5 0 0 0 24 28 z"/></svg>