<svg xmlns="http://www.w3.org/2000/svg"  viewBox="0 0 48 48" width="24px" height="24px"><path d="M 11.5 6 C 8.4802259 6 6 8.4802259 6 11.5 L 6 21.5 L 6 22.5 L 6 36.5 C 6 39.519774 8.4802259 42 11.5 42 L 36.5 42 C 39.519774 42 42 39.519774 42 36.5 L 42 22.5 L 42 21.5 L 42 11.5 C 42 8.4802259 39.519774 6 36.5 6 L 11.5 6 z M 11.5 9 L 36.5 9 C 37.898226 9 39 10.101774 39 11.5 L 39 21.5 L 39 22.5 C 39 23.898226 37.898226 25 36.5 25 L 11.5 25 C 10.101774 25 9 23.898226 9 22.5 L 9 21.5 L 9 11.5 C 9 10.101774 10.101774 9 11.5 9 z M 26.275391 12 C 25.686391 12 25.003312 12.275688 24.570312 12.679688 C 24.232312 13.013687 23.869 13.536547 24 14.060547 C 24.609 14.120547 25.267437 13.816109 25.648438 13.412109 C 26.075438 13.038109 26.312391 12.524 26.275391 12 z M 22.214844 14.175781 C 21.248844 14.190781 20.366094 14.645453 19.871094 15.314453 C 19.520094 15.794453 19.381531 16.357641 19.394531 16.931641 C 19.413531 18.014641 19.946266 19.142328 20.572266 19.861328 C 21.055266 20.410328 21.600094 21 22.371094 21 C 23.065094 21 23.323422 20.630859 24.232422 20.630859 C 25.079422 20.630859 25.341219 21 26.074219 21 C 26.845219 21 27.3545 20.440719 27.8125 19.886719 C 28.3885 19.242719 28.583422 18.628516 28.607422 18.603516 C 28.584422 18.603516 27.128266 18.134875 27.072266 16.796875 C 27.072266 15.623875 28.269313 15.095313 28.320312 15.070312 C 27.667313 14.271312 26.61375 14.175781 26.21875 14.175781 C 25.30375 14.175781 24.4955 14.580078 24.0625 14.580078 C 23.6125 14.580078 22.953844 14.156781 22.214844 14.175781 z M 9 27.386719 C 9.7522792 27.775308 10.600802 28 11.5 28 L 36.5 28 C 37.399198 28 38.247721 27.775308 39 27.386719 L 39 36.5 C 39 37.898226 37.898226 39 36.5 39 L 11.5 39 C 10.101774 39 9 37.898226 9 36.5 L 9 27.386719 z M 13.476562 31.978516 A 1.50015 1.50015 0 0 0 12 33.5 L 12 35.5 A 1.50015 1.50015 0 1 0 15 35.5 L 15 33.5 A 1.50015 1.50015 0 0 0 13.476562 31.978516 z M 19 34 A 1.50015 1.50015 0 1 0 19 37 L 25 37 A 1.50015 1.50015 0 1 0 25 34 L 19 34 z M 33.5 34 A 1.5 1.5 0 0 0 33.5 37 A 1.5 1.5 0 0 0 33.5 34 z"/></svg>