<svg xmlns="http://www.w3.org/2000/svg"  viewBox="0 0 48 48" width="24px" height="24px"><path d="M 18.542969 8 A 1.50015 1.50015 0 0 0 17.617188 8.2871094 L 6.6171875 16.287109 A 1.50015 1.50015 0 0 0 6 17.5 L 6 38.5 A 1.50015 1.50015 0 0 0 8.3828125 39.712891 L 18.5 32.355469 L 28.605469 39.712891 A 1.50015 1.50015 0 0 0 30.371094 39.712891 L 41.380859 31.712891 A 1.50015 1.50015 0 0 0 42 30.5 L 42 9.5 A 1.50015 1.50015 0 0 0 39.619141 8.2871094 L 29.490234 15.644531 L 19.382812 8.2871094 A 1.50015 1.50015 0 0 0 18.542969 8 z M 39 12.443359 L 39 29.736328 L 31 35.546875 L 31 18.255859 L 39 12.443359 z M 17 12.445312 L 17 29.736328 L 9 35.554688 L 9 18.263672 L 17 12.445312 z M 20 12.447266 L 28 18.271484 L 28 35.560547 L 20 29.736328 L 20 12.447266 z"/></svg>