<svg xmlns="http://www.w3.org/2000/svg"  viewBox="0 0 48 48" width="24px" height="24px"><path d="M 19.5 1 C 16.480226 1 14 3.4802259 14 6.5 L 14 9.8164062 C 12.603891 11.029773 9 14.77024 9 21.5 L 9 25.257812 C 7.8597735 26.168256 7 27.430675 7 29 C 7 31.361739 8.7044726 33.27003 10.919922 33.78125 C 11.816449 37.336333 13.30684 40.503248 15.40625 42.828125 C 17.708437 45.377556 20.706886 47 24 47 C 27.293114 47 30.291563 45.377556 32.59375 42.828125 C 34.69316 40.503248 36.183551 37.336333 37.080078 33.78125 C 39.295527 33.27003 41 31.361739 41 29 C 41 27.430284 40.137097 26.174656 39 25.269531 L 39 23.5 C 39 21.972289 38.692905 20.684593 38.388672 19.746094 C 39.729084 18.976372 40.404471 17.301112 39.703125 15.832031 C 38.490119 13.294704 36.058798 11.554302 34 10.183594 L 34 6.5 C 34 3.4802259 31.519774 1 28.5 1 L 19.5 1 z M 19.5 4 L 28.5 4 C 29.898226 4 31 5.1017741 31 6.5 L 31 10.894531 A 1.50015 1.50015 0 0 0 31.291016 11.78125 L 31.367188 11.886719 A 1.50015 1.50015 0 0 0 31.753906 12.253906 C 33.812796 13.605327 36.210199 15.48109 36.996094 17.125 C 37.016814 17.16839 37.0135 17.182098 36.9375 17.205078 C 35.831223 17.539665 33.155739 18 30 18 C 26.1875 18 23.651629 17.289593 22.091797 16.621094 C 20.531965 15.952594 20.060547 15.439453 20.060547 15.439453 A 1.50015 1.50015 0 0 0 17.591797 15.982422 C 17.591797 15.982422 17.257509 17.021898 15.583984 18.310547 A 1.501294 1.501294 0 1 0 17.416016 20.689453 C 18.397661 19.933566 18.998913 19.16239 19.472656 18.5 C 19.971545 18.84549 19.970136 18.976878 20.908203 19.378906 C 22.848371 20.210407 25.8125 21 30 21 C 32.191533 21 33.963016 20.797096 35.484375 20.541016 C 35.729342 21.236361 36 22.210403 36 23.5 L 36 25.878906 A 1.50015 1.50015 0 0 0 36.855469 27.234375 C 37.54264 27.561015 38 28.202806 38 29 C 38 30.122343 37.122343 31 36 31 C 36.264714 31 36.24617 30.994141 35.939453 30.994141 A 1.50015 1.50015 0 0 0 34.470703 32.185547 C 33.727184 35.728666 32.236501 38.746337 30.367188 40.816406 C 28.497877 42.886516 26.317886 44 24 44 C 21.682114 44 19.502126 42.886475 17.632812 40.816406 C 15.763499 38.746337 14.272816 35.728666 13.529297 32.185547 A 1.50015 1.50015 0 0 0 12.060547 30.994141 C 11.753833 30.994141 11.735286 31 12 31 C 10.877657 31 10 30.122343 10 29 C 10 28.196375 10.461497 27.541671 11.142578 27.21875 A 1.50015 1.50015 0 0 0 12 25.863281 L 12 21.5 C 12 14.542685 16.341797 11.742186 16.341797 11.742188 A 1.50015 1.50015 0 0 0 17 10.5 L 17 6.5 C 17 5.1017741 18.101774 4 19.5 4 z M 23.976562 5.9785156 A 1.50015 1.50015 0 0 0 22.5 7.5 L 22.5 9 L 20.5 9 A 1.50015 1.50015 0 1 0 20.5 12 L 22.5 12 L 22.5 13.5 A 1.50015 1.50015 0 1 0 25.5 13.5 L 25.5 12 L 27.5 12 A 1.50015 1.50015 0 1 0 27.5 9 L 25.5 9 L 25.5 7.5 A 1.50015 1.50015 0 0 0 23.976562 5.9785156 z M 19 27 A 2 2 0 0 0 19 31 A 2 2 0 0 0 19 27 z M 29 27 A 2 2 0 0 0 29 31 A 2 2 0 0 0 29 27 z"/></svg>