<svg width="16" height="16" viewBox="0 0 16 16" fill="none" xmlns="http://www.w3.org/2000/svg">
<path d="M3.50016 1.66602C2.30952 1.66602 1.3335 2.64204 1.3335 3.83268V9.16602V11.1497C1.3335 11.812 2.14419 12.2242 2.67985 11.8353L4.03141 10.8522C4.2007 11.8793 5.09253 12.666 6.16683 12.666H10.3374L13.3205 14.8353C13.4688 14.943 13.6429 14.998 13.8185 14.998C13.9499 14.998 14.0819 14.9673 14.2039 14.9049C14.4896 14.7596 14.6668 14.4701 14.6668 14.1497V6.83268C14.6668 5.63802 13.6948 4.66602 12.5002 4.66602H12.0002V3.83268C12.0002 2.64204 11.0241 1.66602 9.8335 1.66602H3.50016ZM3.50016 2.66602H9.8335C10.4835 2.66602 11.0002 3.18266 11.0002 3.83268V7.49935C11.0002 8.14937 10.4835 8.66602 9.8335 8.66602H5.50016C5.39442 8.666 5.2914 8.69951 5.20589 8.76172L2.3335 10.8509V9.16602V3.83268C2.3335 3.18266 2.85014 2.66602 3.50016 2.66602ZM4.50016 3.99935C4.43391 3.99841 4.36813 4.01065 4.30664 4.03536C4.24516 4.06007 4.1892 4.09675 4.14201 4.14327C4.09483 4.18979 4.05736 4.24523 4.03178 4.30636C4.00621 4.36748 3.99304 4.43309 3.99304 4.49935C3.99304 4.56561 4.00621 4.63121 4.03178 4.69234C4.05736 4.75347 4.09483 4.80891 4.14201 4.85543C4.1892 4.90195 4.24516 4.93863 4.30664 4.96334C4.36813 4.98805 4.43391 5.00029 4.50016 4.99935H8.8335C8.89975 5.00029 8.96553 4.98805 9.02702 4.96334C9.0885 4.93863 9.14446 4.90195 9.19165 4.85543C9.23883 4.80891 9.2763 4.75347 9.30187 4.69234C9.32745 4.63121 9.34062 4.56561 9.34062 4.49935C9.34062 4.43309 9.32745 4.36748 9.30187 4.30636C9.2763 4.24523 9.23883 4.18979 9.19165 4.14327C9.14446 4.09675 9.0885 4.06007 9.02702 4.03536C8.96553 4.01065 8.89975 3.99841 8.8335 3.99935H4.50016ZM12.0002 5.66602H12.5002C13.1435 5.66602 13.6668 6.18935 13.6668 6.83268V13.8509L10.7944 11.7617C10.7091 11.6997 10.6058 11.666 10.5002 11.666H6.16683C5.5235 11.666 5.00016 11.1427 5.00016 10.4993V10.1478L5.66292 9.66602H9.8335C11.0241 9.66602 12.0002 8.69 12.0002 7.49935V5.66602ZM4.50016 6.33268C4.43391 6.33175 4.36813 6.34399 4.30664 6.36869C4.24516 6.3934 4.1892 6.43008 4.14201 6.4766C4.09483 6.52312 4.05736 6.57856 4.03178 6.63969C4.00621 6.70082 3.99304 6.76642 3.99304 6.83268C3.99304 6.89895 4.00621 6.96455 4.03178 7.02568C4.05736 7.0868 4.09483 7.14224 4.14201 7.18876C4.1892 7.23528 4.24516 7.27196 4.30664 7.29667C4.36813 7.32138 4.43391 7.33362 4.50016 7.33268H7.8335C7.89975 7.33362 7.96553 7.32138 8.02702 7.29667C8.0885 7.27196 8.14446 7.23528 8.19165 7.18876C8.23883 7.14224 8.2763 7.0868 8.30187 7.02568C8.32745 6.96455 8.34062 6.89895 8.34062 6.83268C8.34062 6.76642 8.32745 6.70082 8.30187 6.63969C8.2763 6.57856 8.23883 6.52312 8.19165 6.4766C8.14446 6.43008 8.0885 6.3934 8.02702 6.36869C7.96553 6.34399 7.89975 6.33175 7.8335 6.33268H4.50016Z" fill="#1A1A1A"/>
</svg>
