<svg xmlns="http://www.w3.org/2000/svg"  viewBox="0 0 48 48" width="24px" height="24px"><path d="M 24 2 C 22.356093 2 21.001828 2.8518022 19.998047 4 L 15.5 4 A 1.50015 1.50015 0 0 0 14.095703 6.0273438 L 16.708984 12.996094 C 13.827319 15.296947 4.6482071 23.518742 5.0605469 34.875 C 5.2455187 39.961724 9.4739826 44 14.556641 44 L 33.443359 44 C 38.526017 44 42.754481 39.961724 42.939453 34.875 C 43.352709 23.5187 34.172899 15.296937 31.291016 12.996094 L 33.904297 6.0273438 A 1.50015 1.50015 0 0 0 32.5 4 L 28.001953 4 C 26.998172 2.8518022 25.643907 2 24 2 z M 24 5 C 24.929268 5 25.709157 5.4989516 26.148438 6.2539062 A 1.50015 1.50015 0 0 0 27.445312 7 L 30.335938 7 L 28.460938 12 L 19.539062 12 L 17.664062 7 L 20.554688 7 A 1.50015 1.50015 0 0 0 21.851562 6.2539062 C 22.290843 5.4989516 23.070732 5 24 5 z M 19.015625 15 L 28.984375 15 C 30.716458 16.361495 40.319252 24.382382 39.941406 34.765625 C 39.814378 38.258901 36.946702 41 33.443359 41 L 14.556641 41 C 11.053298 41 8.185622 38.258901 8.0585938 34.765625 C 7.6815819 24.382337 17.283671 16.361488 19.015625 15 z M 24.228516 19.710938 C 21.26513 19.710938 18.877441 21.735038 17.740234 24.5 L 17.5 24.5 A 1.50015 1.50015 0 0 0 17.095703 27.449219 C 17.08413 27.639617 17 27.807145 17 28 C 17 28.192855 17.084133 28.360383 17.095703 28.550781 A 1.50015 1.50015 0 0 0 17.5 31.5 L 17.740234 31.5 C 18.877441 34.264962 21.26513 36.289062 24.228516 36.289062 C 27.010993 36.289062 28.617307 34.932234 29.554688 34.005859 A 1.5005573 1.5005573 0 1 0 27.445312 31.871094 C 26.508692 32.796719 26.238038 33.289062 24.228516 33.289062 C 23.030115 33.289062 21.920961 32.593615 21.125 31.5 L 23.5 31.5 A 1.50015 1.50015 0 1 0 23.5 28.5 L 20.082031 28.5 C 20.068322 28.325341 20 28.180798 20 28 C 20 27.819202 20.068321 27.674659 20.082031 27.5 L 23.5 27.5 A 1.50015 1.50015 0 1 0 23.5 24.5 L 21.125 24.5 C 21.920961 23.406385 23.030115 22.710938 24.228516 22.710938 C 26.238038 22.710938 26.506934 23.202532 27.445312 24.128906 A 1.5005573 1.5005573 0 1 0 29.554688 21.994141 C 28.617066 21.068515 27.010993 19.710938 24.228516 19.710938 z"/></svg>