<svg xmlns="http://www.w3.org/2000/svg"  viewBox="0 0 48 48" width="24px" height="24px"><path d="M 10.5 6 C 7.4802259 6 5 8.4802259 5 11.5 L 5 36.5 C 5 39.519774 7.4802259 42 10.5 42 L 38.5 42 C 41.519774 42 44 39.519774 44 36.5 L 44 11.5 C 44 8.4802259 41.519774 6 38.5 6 L 10.5 6 z M 10.5 9 L 38.5 9 C 39.898226 9 41 10.101774 41 11.5 L 41 36.5 C 41 37.898226 39.898226 39 38.5 39 L 10.5 39 C 9.1017741 39 8 37.898226 8 36.5 L 8 11.5 C 8 10.101774 9.1017741 9 10.5 9 z M 11 10.5 C 10.448 10.5 10 10.948 10 11.5 L 10 12.5 C 10 13.052 10.448 13.5 11 13.5 L 12 13.5 C 12.552 13.5 13 13.052 13 12.5 L 13 11.5 C 13 10.948 12.552 10.5 12 10.5 L 11 10.5 z M 37 10.5 C 36.448 10.5 36 10.948 36 11.5 L 36 12.5 C 36 13.052 36.448 13.5 37 13.5 L 38 13.5 C 38.552 13.5 39 13.052 39 12.5 L 39 11.5 C 39 10.948 38.552 10.5 38 10.5 L 37 10.5 z M 11 16.5 C 10.448 16.5 10 16.948 10 17.5 L 10 18.5 C 10 19.052 10.448 19.5 11 19.5 L 12 19.5 C 12.552 19.5 13 19.052 13 18.5 L 13 17.5 C 13 16.948 12.552 16.5 12 16.5 L 11 16.5 z M 37 16.5 C 36.448 16.5 36 16.948 36 17.5 L 36 18.5 C 36 19.052 36.448 19.5 37 19.5 L 38 19.5 C 38.552 19.5 39 19.052 39 18.5 L 39 17.5 C 39 16.948 38.552 16.5 38 16.5 L 37 16.5 z M 11 22.5 C 10.448 22.5 10 22.948 10 23.5 L 10 24.5 C 10 25.052 10.448 25.5 11 25.5 L 12 25.5 C 12.552 25.5 13 25.052 13 24.5 L 13 23.5 C 13 22.948 12.552 22.5 12 22.5 L 11 22.5 z M 37 22.5 C 36.448 22.5 36 22.948 36 23.5 L 36 24.5 C 36 25.052 36.448 25.5 37 25.5 L 38 25.5 C 38.552 25.5 39 25.052 39 24.5 L 39 23.5 C 39 22.948 38.552 22.5 38 22.5 L 37 22.5 z M 11 28.5 C 10.448 28.5 10 28.948 10 29.5 L 10 30.5 C 10 31.052 10.448 31.5 11 31.5 L 12 31.5 C 12.552 31.5 13 31.052 13 30.5 L 13 29.5 C 13 28.948 12.552 28.5 12 28.5 L 11 28.5 z M 37 28.5 C 36.448 28.5 36 28.948 36 29.5 L 36 30.5 C 36 31.052 36.448 31.5 37 31.5 L 38 31.5 C 38.552 31.5 39 31.052 39 30.5 L 39 29.5 C 39 28.948 38.552 28.5 38 28.5 L 37 28.5 z M 11 34.5 C 10.448 34.5 10 34.948 10 35.5 L 10 36.5 C 10 37.052 10.448 37.5 11 37.5 L 12 37.5 C 12.552 37.5 13 37.052 13 36.5 L 13 35.5 C 13 34.948 12.552 34.5 12 34.5 L 11 34.5 z M 37 34.5 C 36.448 34.5 36 34.948 36 35.5 L 36 36.5 C 36 37.052 36.448 37.5 37 37.5 L 38 37.5 C 38.552 37.5 39 37.052 39 36.5 L 39 35.5 C 39 34.948 38.552 34.5 38 34.5 L 37 34.5 z"/></svg>