<svg width="16" height="16" viewBox="0 0 16 16" fill="none" xmlns="http://www.w3.org/2000/svg">
<path d="M13.4849 2.00022C13.4526 2.00125 13.4206 2.00539 13.3892 2.01259L6.83382 3.50218C6.1536 3.65684 5.6665 4.26789 5.6665 4.96507V5.16689V6.83356V10.7639C5.23774 10.5023 4.7309 10.3336 4.1665 10.3336C3.51289 10.3336 2.9119 10.5279 2.45231 10.8726C1.99272 11.2173 1.6665 11.7392 1.6665 12.3336C1.6665 12.9279 1.99272 13.4498 2.45231 13.7945C2.9119 14.1392 3.51289 14.3336 4.1665 14.3336C4.82012 14.3336 5.42111 14.1392 5.8807 13.7945C6.34029 13.4498 6.6665 12.9279 6.6665 12.3336C6.6665 12.316 6.65405 12.3022 6.65348 12.2847C6.66248 12.2461 6.66685 12.2065 6.6665 12.1669V7.23264L12.9998 5.79319V9.43056C12.5711 9.16901 12.0642 9.00022 11.4998 9.00022C10.8462 9.00022 10.2452 9.19459 9.78564 9.53929C9.32605 9.88398 8.99984 10.4059 8.99984 11.0002C8.99984 11.5946 9.32605 12.1165 9.78564 12.4612C10.2452 12.8059 10.8462 13.0002 11.4998 13.0002C12.1535 13.0002 12.7544 12.8059 13.214 12.4612C13.6736 12.1165 13.9998 11.5946 13.9998 11.0002C13.9998 10.9826 13.9874 10.9689 13.9868 10.9514C13.9958 10.9128 14.0002 10.8732 13.9998 10.8336V5.16689V4.16689V2.50022C13.9999 2.43328 13.9864 2.36702 13.9604 2.30537C13.9343 2.24371 13.8961 2.18791 13.8481 2.14128C13.8001 2.09465 13.7432 2.05814 13.6808 2.03391C13.6184 2.00968 13.5518 1.99822 13.4849 2.00022ZM12.9998 3.12652V4.16689V4.7678L6.6665 6.20725V5.16689V4.96507C6.6665 4.72911 6.82505 4.52966 7.05518 4.47744C7.05539 4.47744 7.05561 4.47744 7.05583 4.47744L12.9998 3.12652ZM11.4998 10.0002C11.9508 10.0002 12.3495 10.1412 12.6138 10.3394C12.878 10.5376 12.9998 10.7662 12.9998 11.0002C12.9998 11.2343 12.878 11.4628 12.6138 11.661C12.3495 11.8592 11.9508 12.0002 11.4998 12.0002C11.0489 12.0002 10.6502 11.8592 10.3859 11.661C10.1216 11.4628 9.99984 11.2343 9.99984 11.0002C9.99984 10.7662 10.1216 10.5376 10.3859 10.3394C10.6502 10.1412 11.0489 10.0002 11.4998 10.0002ZM4.1665 11.3336C4.61746 11.3336 5.01617 11.4745 5.28044 11.6727C5.5447 11.8709 5.6665 12.0995 5.6665 12.3336C5.6665 12.5676 5.5447 12.7962 5.28044 12.9944C5.01617 13.1926 4.61746 13.3336 4.1665 13.3336C3.71555 13.3336 3.31684 13.1926 3.05257 12.9944C2.7883 12.7962 2.6665 12.5676 2.6665 12.3336C2.6665 12.0995 2.7883 11.8709 3.05257 11.6727C3.31684 11.4745 3.71555 11.3336 4.1665 11.3336Z" fill="#1A1A1A"/>
</svg>
