<svg xmlns="http://www.w3.org/2000/svg"  viewBox="0 0 48 48" width="24px" height="24px"><path d="M 24.4375 4.0019531 A 1.50015 1.50015 0 0 0 23 5.5 L 23 15.255859 A 1.50015 1.50015 0 0 0 23 15.736328 L 23 30.279297 C 22.973003 30.25816 22.949133 30.233735 22.921875 30.212891 C 21.091228 28.812983 18.65717 28 16 28 C 13.34283 28 10.908772 28.812983 9.078125 30.212891 C 7.2474778 31.612798 6 33.675029 6 36 C 6 38.324971 7.2474778 40.387202 9.078125 41.787109 C 10.908772 43.187017 13.34283 44 16 44 C 18.65717 44 21.091228 43.187017 22.921875 41.787109 C 24.684898 40.438915 25.894536 38.473774 25.982422 36.253906 A 1.50015 1.50015 0 0 0 25.984375 36.232422 A 1.50015 1.50015 0 0 0 26 36 L 26 17.664062 L 39.972656 22.904297 A 1.50015 1.50015 0 0 0 42 21.5 L 42 14.964844 C 42 12.260179 40.315757 9.8286138 37.783203 8.8789062 L 25.027344 4.0957031 A 1.50015 1.50015 0 0 0 24.4375 4.0019531 z M 26 7.6640625 L 36.728516 11.6875 C 38.099962 12.201792 39 13.499508 39 14.964844 L 39 19.335938 L 26 14.460938 L 26 7.6640625 z M 16 31 C 18.037254 31 19.853864 31.643074 21.099609 32.595703 C 22.345354 33.548333 23 34.735121 23 36 C 23 37.264879 22.345354 38.451667 21.099609 39.404297 C 19.853864 40.356926 18.037254 41 16 41 C 13.962746 41 12.146136 40.356926 10.900391 39.404297 C 9.6546451 38.451667 9 37.264879 9 36 C 9 34.735121 9.6546451 33.548333 10.900391 32.595703 C 12.146136 31.643074 13.962746 31 16 31 z"/></svg>