<svg width="24" height="24" viewBox="0 0 24 24" fill="none" xmlns="http://www.w3.org/2000/svg">
<path d="M20.2266 3.00001C20.1797 3.00196 20.1309 3.00782 20.084 3.01954L10.25 5.25196C9.23047 5.48438 8.5 6.40235 8.5 7.44728V16.1465C7.85742 15.7539 7.0957 15.5 6.25 15.5C5.26953 15.5 4.36719 15.791 3.67969 16.3086C2.99023 16.8262 2.5 17.6094 2.5 18.5C2.5 19.3906 2.99023 20.1738 3.67969 20.6914C4.36719 21.209 5.26953 21.5 6.25 21.5C7.23047 21.5 8.13281 21.209 8.82031 20.6914C9.50977 20.1738 10 19.3906 10 18.5C10 18.4727 9.98047 18.4531 9.98047 18.4277C9.99414 18.3692 10 18.3086 10 18.25V10.8496L19.5 8.68946V14.1465C18.8574 13.7539 18.0957 13.5 17.25 13.5C16.2695 13.5 15.3672 13.791 14.6797 14.3086C13.9902 14.8262 13.5 15.6094 13.5 16.5C13.5 17.3906 13.9902 18.1738 14.6797 18.6914C15.3672 19.209 16.2695 19.5 17.25 19.5C18.2305 19.5 19.1328 19.209 19.8203 18.6914C20.5098 18.1738 21 17.3906 21 16.5C21 16.4727 20.9805 16.4531 20.9805 16.4277C20.9941 16.3692 21 16.3086 21 16.25V3.75001C21 3.54688 20.918 3.35353 20.7715 3.21095C20.627 3.07032 20.4297 2.99415 20.2266 3.00001ZM19.5 4.68946V7.1504L10 9.31056V7.44728C10 7.09376 10.2383 6.79493 10.584 6.71681L19.5 4.68946ZM17.25 15C17.9258 15 18.5254 15.2109 18.9219 15.5078C19.3164 15.8067 19.5 16.1484 19.5 16.5C19.5 16.8516 19.3164 17.1934 18.9219 17.4922C18.5254 17.7891 17.9258 18 17.25 18C16.5742 18 15.9746 17.7891 15.5781 17.4922C15.1836 17.1934 15 16.8516 15 16.5C15 16.1484 15.1836 15.8067 15.5781 15.5078C15.9746 15.2109 16.5742 15 17.25 15ZM6.25 17C6.92578 17 7.52539 17.2109 7.92188 17.5078C8.31641 17.8067 8.5 18.1484 8.5 18.5C8.5 18.8516 8.31641 19.1934 7.92188 19.4922C7.52539 19.7891 6.92578 20 6.25 20C5.57422 20 4.97461 19.7891 4.57812 19.4922C4.18359 19.1934 4 18.8516 4 18.5C4 18.1484 4.18359 17.8067 4.57812 17.5078C4.97461 17.2109 5.57422 17 6.25 17Z" fill="#1A1A1A"/>
</svg>
