<svg xmlns="http://www.w3.org/2000/svg"  viewBox="0 0 48 48" width="24px" height="24px"><path d="M 23.976562 2.9785156 A 1.50015 1.50015 0 0 0 22.5 4.5 L 22.5 6.0761719 C 13.771552 6.8013804 6.8013804 13.771552 6.0761719 22.5 L 4.5 22.5 A 1.50015 1.50015 0 1 0 4.5 25.5 L 6.0761719 25.5 C 6.8013804 34.228448 13.771552 41.19862 22.5 41.923828 L 22.5 43.5 A 1.50015 1.50015 0 1 0 25.5 43.5 L 25.5 41.933594 C 33.448501 41.274127 39.942409 35.429745 41.589844 27.798828 L 37.96875 29.427734 C 35.960902 34.574341 31.199218 38.345286 25.5 38.916016 L 25.5 37.5 A 1.50015 1.50015 0 0 0 23.976562 35.978516 A 1.50015 1.50015 0 0 0 22.5 37.5 L 22.5 38.923828 C 15.424519 38.217831 9.7821686 32.575481 9.0761719 25.5 L 10.5 25.5 A 1.50015 1.50015 0 1 0 10.5 22.5 L 9.0761719 22.5 C 9.7821686 15.424519 15.424519 9.7821686 22.5 9.0761719 L 22.5 10.5 A 1.50015 1.50015 0 1 0 25.5 10.5 L 25.5 9.0839844 C 31.199212 9.6547138 35.961822 13.425659 37.96875 18.572266 L 41.587891 20.201172 C 39.941398 12.570255 33.448497 6.7258732 25.5 6.0664062 L 25.5 4.5 A 1.50015 1.50015 0 0 0 23.976562 2.9785156 z M 31.673828 18.009766 C 31.223594 17.957359 30.763594 18.109609 30.433594 18.443359 C 29.993594 18.888359 29.875672 19.560859 30.138672 20.130859 L 31.931641 24 L 30.138672 27.869141 C 30.044672 28.071141 30 28.287 30 28.5 C 30 28.887 30.149594 29.267688 30.433594 29.554688 C 30.873594 29.999687 31.544234 30.124188 32.115234 29.867188 L 42.115234 25.367188 C 42.653234 25.124188 43 24.59 43 24 C 43 23.41 42.653234 22.874859 42.115234 22.630859 L 32.115234 18.130859 C 31.972484 18.066609 31.823906 18.027234 31.673828 18.009766 z"/></svg>