<svg xmlns="http://www.w3.org/2000/svg"  viewBox="0 0 48 48" width="24px" height="24px"><path d="M 24 4 C 22.08313 4 20.464358 4.9368107 19.238281 6.234375 C 17.528284 5.7246994 15.659036 5.7219807 14 6.6796875 C 12.340454 7.6376887 11.407436 9.2580689 10.994141 10.994141 C 9.25792 11.407641 7.6376752 12.341537 6.6796875 14 C 5.7219807 15.659036 5.7246994 17.528284 6.234375 19.238281 C 4.9368107 20.464358 4 22.08313 4 24 C 4 25.91687 4.9368107 27.535642 6.234375 28.761719 C 5.7246994 30.471716 5.7219807 32.340964 6.6796875 34 C 7.6376887 35.659546 9.2580689 36.592564 10.994141 37.005859 C 11.407641 38.74208 12.341537 40.362325 14 41.320312 C 15.659036 42.278019 17.528284 42.275301 19.238281 41.765625 C 20.464358 43.063189 22.08313 44 24 44 C 25.91687 44 27.535642 43.063189 28.761719 41.765625 C 30.471716 42.275301 32.340964 42.278019 34 41.320312 C 35.659546 40.362311 36.592564 38.741931 37.005859 37.005859 C 38.74208 36.592359 40.362325 35.658463 41.320312 34 C 42.278019 32.340964 42.275301 30.471716 41.765625 28.761719 C 43.063189 27.535642 44 25.91687 44 24 C 44 22.08313 43.063189 20.464358 41.765625 19.238281 C 42.275301 17.528284 42.278019 15.659036 41.320312 14 C 40.362311 12.340454 38.741931 11.407436 37.005859 10.994141 C 36.592359 9.25792 35.658463 7.6376752 34 6.6796875 C 32.340964 5.7219807 30.471716 5.7246994 28.761719 6.234375 C 27.535642 4.9368107 25.91687 4 24 4 z M 24 7 C 25.298597 7 26.421941 7.6554838 27.089844 8.6523438 A 1.50015 1.50015 0 0 0 28.998047 9.1640625 C 30.074476 8.6347645 31.374772 8.627787 32.5 9.2773438 C 33.62434 9.9268028 34.26972 11.056998 34.349609 12.253906 A 1.50015 1.50015 0 0 0 35.746094 13.650391 C 36.943594 13.730321 38.073213 14.37497 38.722656 15.5 C 39.372213 16.625228 39.365234 17.925524 38.835938 19.001953 A 1.50015 1.50015 0 0 0 39.347656 20.910156 C 40.344516 21.578059 41 22.701403 41 24 C 41 25.298597 40.344516 26.421941 39.347656 27.089844 A 1.50015 1.50015 0 0 0 38.835938 28.998047 C 39.365234 30.074476 39.372213 31.374772 38.722656 32.5 C 38.073197 33.62434 36.943002 34.26972 35.746094 34.349609 A 1.50015 1.50015 0 0 0 34.349609 35.746094 C 34.269679 36.943594 33.62503 38.073213 32.5 38.722656 C 31.374772 39.372213 30.074476 39.365234 28.998047 38.835938 A 1.50015 1.50015 0 0 0 27.089844 39.347656 C 26.421941 40.344516 25.298597 41 24 41 C 22.701403 41 21.578059 40.344516 20.910156 39.347656 A 1.50015 1.50015 0 0 0 19.001953 38.835938 C 17.925524 39.365234 16.625228 39.372213 15.5 38.722656 C 14.37566 38.073197 13.73028 36.943002 13.650391 35.746094 A 1.50015 1.50015 0 0 0 12.253906 34.349609 C 11.056406 34.269681 9.9267865 33.62503 9.2773438 32.5 C 8.6277871 31.374772 8.6347645 30.074476 9.1640625 28.998047 A 1.50015 1.50015 0 0 0 8.6523438 27.089844 C 7.6554838 26.421941 7 25.298597 7 24 C 7 22.701403 7.6554838 21.578059 8.6523438 20.910156 A 1.50015 1.50015 0 0 0 9.1640625 19.001953 C 8.6347645 17.925524 8.627787 16.625228 9.2773438 15.5 C 9.9268028 14.37566 11.056998 13.73028 12.253906 13.650391 A 1.50015 1.50015 0 0 0 13.650391 12.253906 C 13.730319 11.056406 14.37497 9.9267865 15.5 9.2773438 C 16.625228 8.6277871 17.925524 8.6347645 19.001953 9.1640625 A 1.50015 1.50015 0 0 0 20.910156 8.6523438 C 21.578059 7.6554838 22.701403 7 24 7 z M 13.029297 20 C 12.923594 19.996984 12.816187 20.010969 12.710938 20.042969 C 12.289937 20.169969 12 20.56 12 21 L 12 27 C 12 27.552 12.448 28 13 28 C 13.552 28 14 27.552 14 27 L 14 24.302734 L 16.167969 27.554688 C 16.356969 27.837688 16.672 28 17 28 C 17.097 28 17.193062 27.987031 17.289062 27.957031 C 17.710062 27.830031 18 27.44 18 27 L 18 21 C 18 20.448 17.552 20 17 20 C 16.448 20 16 20.448 16 21 L 16 23.697266 L 13.832031 20.445312 C 13.647531 20.170063 13.346406 20.009047 13.029297 20 z M 22 20 C 21.448 20 21 20.448 21 21 L 21 27 C 21 27.552 21.448 28 22 28 L 25 28 C 25.552 28 26 27.552 26 27 C 26 26.448 25.552 26 25 26 L 23 26 L 23 25 L 24.5 25 C 25.052 25 25.5 24.552 25.5 24 C 25.5 23.448 25.052 23 24.5 23 L 23 23 L 23 22 L 25 22 C 25.552 22 26 21.552 26 21 C 26 20.448 25.552 20 25 20 L 22 20 z M 28.835938 20.013672 C 28.290938 20.104672 27.922672 20.619062 28.013672 21.164062 L 29.013672 27.164062 C 29.080672 27.569062 29.388063 27.892516 29.789062 27.978516 C 30.192063 28.064516 30.604031 27.895688 30.832031 27.554688 L 32 25.802734 L 33.167969 27.554688 C 33.354969 27.835688 33.67 28 34 28 C 34.069 28 34.140937 27.993516 34.210938 27.978516 C 34.611938 27.892516 34.919328 27.569063 34.986328 27.164062 L 35.986328 21.164062 C 36.077328 20.619063 35.709063 20.104672 35.164062 20.013672 C 34.617062 19.924672 34.103672 20.291937 34.013672 20.835938 L 33.429688 24.341797 L 32.832031 23.445312 C 32.461031 22.888313 31.538969 22.888313 31.167969 23.445312 L 30.570312 24.341797 L 29.986328 20.835938 C 29.895328 20.291937 29.385938 19.923672 28.835938 20.013672 z"/></svg>