<svg xmlns="http://www.w3.org/2000/svg"  viewBox="0 0 48 48" width="24px" height="24px"><path d="M 10.5 6 C 8.0324991 6 6 8.0324991 6 10.5 L 6 37.5 C 6 39.967501 8.0324991 42 10.5 42 L 29.5 42 A 1.50015 1.50015 0 0 0 30.560547 41.560547 A 1.50015 1.50015 0 0 0 30.576172 41.544922 L 41.560547 30.560547 A 1.50015 1.50015 0 0 0 42 29.5 L 42 10.5 C 42 8.0324991 39.967501 6 37.5 6 L 10.5 6 z M 10.5 9 L 37.5 9 C 38.346499 9 39 9.6535009 39 10.5 L 39 28 L 32.5 28 C 30.032499 28 28 30.032499 28 32.5 L 28 39 L 10.5 39 C 9.6535009 39 9 38.346499 9 37.5 L 9 10.5 C 9 9.6535009 9.6535009 9 10.5 9 z M 15.5 13.998047 A 1.50015 1.50015 0 1 0 15.5 16.998047 L 32.5 16.998047 A 1.50015 1.50015 0 1 0 32.5 13.998047 L 15.5 13.998047 z M 15.5 20.998047 A 1.50015 1.50015 0 1 0 15.5 23.998047 L 28.5 23.998047 A 1.50015 1.50015 0 1 0 28.5 20.998047 L 15.5 20.998047 z M 32.5 31 L 36.878906 31 L 31 36.878906 L 31 32.5 C 31 31.653501 31.653501 31 32.5 31 z"/></svg>