<svg xmlns="http://www.w3.org/2000/svg"  viewBox="0 0 48 48" width="24px" height="24px"><path d="M 12.5 4 C 10.032499 4 8 6.0324991 8 8.5 L 8 39.5 C 8 41.967501 10.032499 44 12.5 44 L 35.5 44 C 37.967501 44 40 41.967501 40 39.5 L 40 18.5 A 1.50015 1.50015 0 0 0 39.560547 17.439453 L 39.544922 17.423828 L 26.560547 4.4394531 A 1.50015 1.50015 0 0 0 25.5 4 L 12.5 4 z M 12.5 7 L 24 7 L 24 15.5 C 24 17.967501 26.032499 20 28.5 20 L 37 20 L 37 39.5 C 37 40.346499 36.346499 41 35.5 41 L 12.5 41 C 11.653501 41 11 40.346499 11 39.5 L 11 8.5 C 11 7.6535009 11.653501 7 12.5 7 z M 27 9.1210938 L 34.878906 17 L 28.5 17 C 27.653501 17 27 16.346499 27 15.5 L 27 9.1210938 z M 22.5 21 C 21.130937 21 20 22.130937 20 23.5 C 20 25.242432 20.888952 27.126637 22.052734 28.931641 C 21.750344 29.913255 21.422075 30.874122 21.037109 31.740234 C 21.027809 31.743734 21.015109 31.7464 21.005859 31.75 C 18.475156 32.719413 16.692595 33.834085 15.755859 34.708984 C 15.226049 35.205428 15 35.878153 15 36.5 C 15 37.137472 15.247964 37.78312 15.732422 38.267578 C 16.21688 38.752036 16.862528 39 17.5 39 C 18.193028 39 18.762878 38.685238 19.191406 38.337891 C 19.717268 37.910628 20.230682 37.260603 20.837891 36.349609 C 21.365669 35.557784 21.928546 34.51531 22.470703 33.402344 C 23.33558 33.101029 24.252971 32.820054 25.269531 32.597656 C 26.849217 33.933661 28.5783 35 30.5 35 C 31.869063 35 33 33.869063 33 32.5 C 33 31.130937 31.869063 30 30.5 30 C 28.838914 30 27.308222 30.197658 25.855469 30.457031 C 25.516411 30.133474 25.13658 29.919552 24.826172 29.552734 C 24.594083 29.278469 24.474959 28.964123 24.265625 28.673828 C 24.707019 27.027583 25 25.284811 25 23.5 C 25 22.130937 23.869063 21 22.5 21 z M 22.5 23 C 22.786937 23 23 23.213063 23 23.5 C 23 24.318581 22.789657 25.121074 22.666016 25.935547 C 22.294325 25.031234 22 24.144668 22 23.5 C 22 23.213063 22.213063 23 22.5 23 z M 23.4375 30.96875 C 23.458 30.99248 23.485229 31.00762 23.505859 31.03125 C 23.471309 31.04085 23.438669 31.050887 23.404297 31.060547 C 23.415837 31.030237 23.42604 30.99918 23.4375 30.96875 z M 30.5 32 C 30.786937 32 31 32.213063 31 32.5 C 31 32.786937 30.786937 33 30.5 33 C 29.798426 33 29.004234 32.627448 28.21875 32.224609 C 28.983303 32.150325 29.684805 32 30.5 32 z M 19.480469 34.683594 C 19.379569 34.845034 19.269027 35.094477 19.171875 35.240234 C 18.627271 36.057303 18.107826 36.640419 17.929688 36.785156 C 17.71619 36.957422 17.574565 37 17.5 37 C 17.369472 37 17.248027 36.955058 17.146484 36.853516 C 17.044942 36.751973 17 36.630528 17 36.5 C 17 36.354883 17.04779 36.2396 17.121094 36.169922 L 17.123047 36.167969 C 17.491628 35.824104 18.38237 35.268734 19.480469 34.683594 z"/></svg>