<svg width="24" height="24" viewBox="0 0 24 24" fill="none" xmlns="http://www.w3.org/2000/svg">
<path d="M5.75 3C4.24023 3 3 4.24023 3 5.75V18.25C3 19.7598 4.24023 21 5.75 21H18.25C19.7598 21 21 19.7598 21 18.25V5.75C21 4.24023 19.7598 3 18.25 3H5.75ZM5.75 4.5H18.25C18.9492 4.5 19.5 5.05078 19.5 5.75V18.25C19.5 18.9492 18.9492 19.5 18.25 19.5H17V15.75C17 14.793 16.207 14 15.25 14H8.75C7.79297 14 7 14.793 7 15.75V19.5H5.75C5.05078 19.5 4.5 18.9492 4.5 18.25V5.75C4.5 5.05078 5.05078 4.5 5.75 4.5ZM12 7C11.0625 7 10.2637 7.37891 9.75195 7.95508C9.24023 8.53125 9 9.27148 9 10C9 10.7285 9.24023 11.4688 9.75195 12.0449C10.2637 12.6211 11.0625 13 12 13C12.9375 13 13.7363 12.6211 14.248 12.0449C14.7598 11.4688 15 10.7285 15 10C15 9.27148 14.7598 8.53125 14.248 7.95508C13.7363 7.37891 12.9375 7 12 7ZM12 8.5C12.5625 8.5 12.8887 8.68359 13.127 8.95117C13.3652 9.21875 13.5 9.60352 13.5 10C13.5 10.3965 13.3652 10.7812 13.127 11.0488C12.8887 11.3164 12.5625 11.5 12 11.5C11.4375 11.5 11.1113 11.3164 10.873 11.0488C10.6348 10.7812 10.5 10.3965 10.5 10C10.5 9.60352 10.6348 9.21875 10.873 8.95117C11.1113 8.68359 11.4375 8.5 12 8.5ZM8.75 15.5H15.25C15.3984 15.5 15.5 15.6016 15.5 15.75V19.5H8.5V15.75C8.5 15.6016 8.60156 15.5 8.75 15.5Z" fill="#1A1A1A"/>
</svg>
