<svg xmlns="http://www.w3.org/2000/svg"  viewBox="0 0 48 48" width="24px" height="24px"><path d="M 18.5 4 C 15.91 4 13.579531 5.17 12.019531 7 L 35.980469 7 C 34.420469 5.17 32.09 4 29.5 4 L 18.5 4 z M 12.5 9 C 10.032499 9 8 11.032499 8 13.5 L 8 31 L 6.5 31 A 1.50015 1.50015 0 0 0 5 32.5 L 5 37.5 C 5 40.519774 7.4802259 43 10.5 43 L 37.5 43 C 40.519774 43 43 40.519774 43 37.5 L 43 32.5 A 1.50015 1.50015 0 0 0 41.5 31 L 40 31 L 40 13.5 C 40 11.032499 37.967501 9 35.5 9 L 12.5 9 z M 12.5 12 L 35.5 12 C 36.346499 12 37 12.653501 37 13.5 L 37 31 L 35.121094 31 L 27.677734 23.554688 C 26.668599 22.545552 25.334013 22.041016 24 22.041016 C 22.665987 22.041016 21.333354 22.545552 20.324219 23.554688 L 12.878906 31 L 11 31 L 11 13.5 C 11 12.653501 11.653501 12 12.5 12 z M 30 15 A 3 3 0 0 0 30 21 A 3 3 0 0 0 30 15 z M 24 25.023438 C 24.559987 25.023438 25.120776 25.239916 25.556641 25.675781 L 30.878906 31 L 17.121094 31 L 22.445312 25.675781 C 22.881177 25.239916 23.440013 25.023438 24 25.023438 z M 8 34 L 40 34 L 40 37.5 C 40 38.898226 38.898226 40 37.5 40 L 10.5 40 C 9.1017741 40 8 38.898226 8 37.5 L 8 34 z"/></svg>