<svg width="16" height="16" viewBox="0 0 16 16" fill="none" xmlns="http://www.w3.org/2000/svg">
<path d="M6.82438 1.66602C6.29158 1.66602 5.79711 1.94999 5.52881 2.41016L4.79639 3.66602H3.50016C2.30952 3.66602 1.3335 4.64204 1.3335 5.83268V12.166C1.3335 13.3567 2.30952 14.3327 3.50016 14.3327H12.5002C13.6908 14.3327 14.6668 13.3567 14.6668 12.166V5.83268C14.6668 4.64204 13.6908 3.66602 12.5002 3.66602H11.2039L10.4715 2.41016C10.2032 1.94999 9.70874 1.66602 9.17594 1.66602H6.82438ZM6.82438 2.66602H9.17594C9.35448 2.66602 9.51789 2.76022 9.60758 2.91406L10.4852 4.41797C10.5292 4.49341 10.5922 4.55601 10.6679 4.59953C10.7437 4.64305 10.8295 4.66597 10.9168 4.66602H12.5002C13.1502 4.66602 13.6668 5.18266 13.6668 5.83268V12.166C13.6668 12.816 13.1502 13.3327 12.5002 13.3327H3.50016C2.85014 13.3327 2.3335 12.816 2.3335 12.166V5.83268C2.3335 5.18266 2.85014 4.66602 3.50016 4.66602H5.0835C5.17084 4.66597 5.25665 4.64305 5.33238 4.59953C5.40811 4.55601 5.47112 4.49341 5.51514 4.41797L6.39274 2.91406C6.48244 2.76022 6.64585 2.66602 6.82438 2.66602ZM8.00016 5.66602C6.34923 5.66602 5.00016 7.01508 5.00016 8.66602C5.00016 10.3169 6.34923 11.666 8.00016 11.666C9.65109 11.666 11.0002 10.3169 11.0002 8.66602C11.0002 7.01508 9.65109 5.66602 8.00016 5.66602ZM8.00016 6.66602C9.11066 6.66602 10.0002 7.55552 10.0002 8.66602C10.0002 9.77651 9.11066 10.666 8.00016 10.666C6.88967 10.666 6.00016 9.77651 6.00016 8.66602C6.00016 7.55552 6.88967 6.66602 8.00016 6.66602Z" fill="#1A1A1A"/>
</svg>
