<svg xmlns="http://www.w3.org/2000/svg"  viewBox="0 0 48 48" width="24px" height="24px"><path d="M 33 1 C 31.458334 1 30.112148 1.6321334 29.253906 2.5976562 C 28.395664 3.5631792 28 4.7916668 28 6 C 28 7.2083332 28.395664 8.4368209 29.253906 9.4023438 C 29.307699 9.4628604 29.368227 9.5183482 29.425781 9.5761719 C 31.327529 12.371592 33.913854 15.259719 35.277344 17.855469 C 35.978806 19.190881 36.329291 20.39664 36.261719 21.396484 C 36.222589 21.975488 36.003655 22.528649 35.640625 23.089844 C 31.707365 17.290812 27.948721 13.950874 24.337891 12.554688 C 20.380292 11.024415 16.689861 11.858316 13.84375 13.59375 C 8.1515272 17.064618 5.1386719 23.871094 5.1386719 23.871094 A 1.50015 1.50015 0 0 0 6.5 26 L 13.113281 26 C 13.789104 26.434108 17.5994 28.730389 22.792969 29.537109 L 17.316406 36.578125 A 1.50015 1.50015 0 0 0 18.5 39 L 25 39 L 25 45.5 A 1.50015 1.50015 0 1 0 28 45.5 L 28 39 L 30.5 39 A 1.50015 1.50015 0 1 0 30.5 36 L 28 36 L 28 29.794922 C 30.600167 29.550598 33.295302 28.67618 35.902344 26.964844 A 1.50015 1.50015 0 0 0 36.853516 26.183594 C 38.280626 24.817256 39.145565 23.229649 39.255859 21.597656 C 39.378131 19.788438 38.780257 18.072776 37.933594 16.460938 C 36.903679 14.500233 35.478768 12.632586 34.128906 10.882812 C 35.192118 10.658005 36.105241 10.123304 36.746094 9.4023438 C 37.447098 8.613713 37.823108 7.6492886 37.943359 6.6640625 C 40.133204 5.2210159 41.455065 7.2620452 42.230469 7.9394531 C 42.807469 8.4434531 43.488281 7.8821875 43.488281 7.1171875 C 43.488281 0.9991875 37.995844 2.1380469 36.214844 1.9980469 C 36.172925 1.9947165 36.133821 2.00083 36.09375 2.0039062 C 35.269829 1.3833108 34.195123 1 33 1 z M 33 4 C 33.791666 4 34.195482 4.2428666 34.503906 4.5898438 C 34.81233 4.9368209 35 5.4583332 35 6 C 35 6.5416668 34.81233 7.0631791 34.503906 7.4101562 C 34.195482 7.7571334 33.791666 8 33 8 C 32.366971 8 31.985799 7.8411926 31.699219 7.6015625 A 1.50015 1.50015 0 0 0 31.427734 7.3144531 C 31.163364 6.9706298 31 6.4970733 31 6 C 31 5.4583332 31.18767 4.9368209 31.496094 4.5898438 C 31.804518 4.2428666 32.208334 4 33 4 z M 20.275391 14.720703 C 20.53035 14.727807 20.789493 14.747897 21.052734 14.78125 C 21.754711 14.87019 22.487447 15.054443 23.255859 15.351562 C 26.091848 16.448146 29.522464 19.360208 33.292969 24.960938 C 24.469676 29.804044 14.332031 23.251953 14.332031 23.251953 A 1.50015 1.50015 0 0 0 13.5 23 L 9.1367188 23 C 10.318636 20.988938 12.256905 18.076583 15.40625 16.15625 C 16.90177 15.244347 18.490676 14.670978 20.275391 14.720703 z M 25 31.585938 L 25 36 L 21.566406 36 L 25 31.585938 z"/></svg>