<svg xmlns="http://www.w3.org/2000/svg"  viewBox="0 0 48 48" width="24px" height="24px"><path d="M 23 2 C 22.448 2 22 2.448 22 3 L 22 5 L 25 5 L 25 3 C 25 2.448 24.552 2 24 2 L 23 2 z M 25 5 L 25 10 C 25 10.552 25.448 11 26 11 L 28 11 L 28 6 C 28 5.448 27.552 5 27 5 L 25 5 z M 28 11 L 28 16 C 28 16.552 28.448 17 29 17 L 31 17 L 42 17 L 42 20 L 44 20 C 44.552 20 45 19.552 45 19 L 45 15 C 45 14.448 44.552 14 44 14 L 42 14 L 31 14 L 31 12 C 31 11.448 30.552 11 30 11 L 28 11 z M 42 20 L 40 20 C 39.448 20 39 20.448 39 21 L 39 23 L 41 23 C 41.552 23 42 22.552 42 22 L 42 20 z M 39 23 L 37 23 C 36.448 23 36 23.448 36 24 L 36 26 L 38 26 C 38.552 26 39 25.552 39 25 L 39 23 z M 36 26 L 34 26 C 33.448 26 33 26.448 33 27 L 33 28 C 33 28.552 33.448 29 34 29 L 36 29 L 36 26 z M 36 29 L 36 34 C 36 34.552 36.448 35 37 35 L 39 35 L 39 30 C 39 29.448 38.552 29 38 29 L 36 29 z M 39 35 L 39 41 L 36 41 L 36 43 C 36 43.552 36.448 44 37 44 L 41 44 C 41.552 44 42 43.552 42 43 L 42 41 L 42 36 C 42 35.448 41.552 35 41 35 L 39 35 z M 36 41 L 36 39 C 36 38.448 35.552 38 35 38 L 31 38 L 31 40 C 31 40.552 31.448 41 32 41 L 36 41 z M 31 38 L 31 36 C 31 35.448 30.552 35 30 35 L 25 35 L 25 37 C 25 37.552 25.448 38 26 38 L 31 38 z M 25 35 L 25 33 C 25 32.448 24.552 32 24 32 L 23 32 C 22.448 32 22 32.448 22 33 L 22 35 L 25 35 z M 22 35 L 17 35 C 16.448 35 16 35.448 16 36 L 16 38 L 21 38 C 21.552 38 22 37.552 22 37 L 22 35 z M 16 38 L 12 38 C 11.448 38 11 38.448 11 39 L 11 41 L 15 41 C 15.552 41 16 40.552 16 40 L 16 38 z M 11 41 L 8 41 L 8 35 L 6 35 C 5.448 35 5 35.448 5 36 L 5 41 L 5 43 C 5 43.552 5.448 44 6 44 L 10 44 C 10.552 44 11 43.552 11 43 L 11 41 z M 8 35 L 10 35 C 10.552 35 11 34.552 11 34 L 11 29 L 9 29 C 8.448 29 8 29.448 8 30 L 8 35 z M 11 29 L 13 29 C 13.552 29 14 28.552 14 28 L 14 27 C 14 26.448 13.552 26 13 26 L 11 26 L 11 29 z M 11 26 L 11 24 C 11 23.448 10.552 23 10 23 L 8 23 L 8 25 C 8 25.552 8.448 26 9 26 L 11 26 z M 8 23 L 8 21 C 8 20.448 7.552 20 7 20 L 5 20 L 5 22 C 5 22.552 5.448 23 6 23 L 8 23 z M 5 20 L 5 17 L 16 17 L 17 17 L 18 17 C 18.552 17 19 16.552 19 16 L 19 11 L 17 11 C 16.448 11 16 11.448 16 12 L 16 14 L 5 14 L 3 14 C 2.448 14 2 14.448 2 15 L 2 19 C 2 19.552 2.448 20 3 20 L 5 20 z M 19 11 L 21 11 C 21.552 11 22 10.552 22 10 L 22 5 L 20 5 C 19.448 5 19 5.448 19 6 L 19 11 z"/></svg>