<svg xmlns="http://www.w3.org/2000/svg"  viewBox="0 0 48 48" width="24px" height="24px"><path d="M 11.5 6 C 8.467 6 6 8.468 6 11.5 L 6 36.5 C 6 39.532 8.467 42 11.5 42 L 29.103516 42 C 29.041516 41.673 29 41.341 29 41 L 29 39 L 11.5 39 C 10.122 39 9 37.879 9 36.5 L 9 11.5 C 9 10.121 10.122 9 11.5 9 L 36.5 9 C 37.878 9 39 10.121 39 11.5 L 39 23.025391 C 40.099 23.109391 41.121 23.46725 42 24.03125 L 42 11.5 C 42 8.468 39.533 6 36.5 6 L 11.5 6 z M 20.970703 12.986328 A 1.50015 1.50015 0 0 0 19.939453 13.439453 L 16 17.378906 L 14.560547 15.939453 A 1.50015 1.50015 0 1 0 12.439453 18.060547 L 14.939453 20.560547 A 1.50015 1.50015 0 0 0 17.060547 20.560547 L 22.060547 15.560547 A 1.50015 1.50015 0 0 0 20.970703 12.986328 z M 25.5 16 A 1.50015 1.50015 0 1 0 25.5 19 L 34.5 19 A 1.50015 1.50015 0 1 0 34.5 16 L 25.5 16 z M 38.5 25 A 4.5 4.5 0 0 0 38.5 34 A 4.5 4.5 0 0 0 38.5 25 z M 20.970703 25.986328 A 1.50015 1.50015 0 0 0 19.939453 26.439453 L 16 30.378906 L 14.560547 28.939453 A 1.50015 1.50015 0 1 0 12.439453 31.060547 L 14.939453 33.560547 A 1.50015 1.50015 0 0 0 17.060547 33.560547 L 22.060547 28.560547 A 1.50015 1.50015 0 0 0 20.970703 25.986328 z M 25.5 29 C 24.671 29 24 29.672 24 30.5 C 24 31.328 24.671 32 25.5 32 L 32.5 32 C 32.179 31.23 32 30.386 32 29.5 C 32 29.331 32.013391 29.166 32.025391 29 L 25.5 29 z M 34 36 C 32.343 36 31 37.343 31 39 L 31 41 C 31 43.761 34.358 46 38.5 46 C 42.642 46 46 43.761 46 41 L 46 39 C 46 37.343 44.657 36 43 36 L 34 36 z"/></svg>