<svg xmlns="http://www.w3.org/2000/svg"  viewBox="0 0 48 48" width="24px" height="24px"><path d="M 4.5292969 2.0117188 C 4.4152352 2.0144504 4.3029921 2.0262032 4.1914062 2.0449219 C 2.8523755 2.2695462 1.7375004 3.6030613 2.0703125 5.0566406 C 2.881251 8.6019496 5.4909901 15.697771 11.732422 21.203125 C 10.906078 22.728386 10.300774 24.435535 10.099609 26.429688 L 10.101562 26.429688 C 9.9833238 27.595911 9.7471318 28.774593 9.4453125 29.953125 C 8.1778373 34.898556 9.9390862 39.132269 12.949219 41.861328 C 15.959351 44.590388 20.109 46 24 46 C 27.891 46 32.040649 44.590388 35.050781 41.861328 C 38.060914 39.132269 39.822163 34.898556 38.554688 29.953125 C 38.252868 28.774593 38.01663 27.595912 37.898438 26.429688 C 37.697328 24.437838 37.095784 22.733015 36.271484 21.208984 C 42.517999 15.703188 45.128434 8.6033207 45.939453 5.0566406 C 46.383203 3.1185349 44.254313 1.3945279 42.451172 2.2265625 C 35.631263 5.3703455 31.842091 11.098621 29.6875 15.904297 C 27.974604 15.352399 26.114096 15 24 15 C 21.889645 15 20.032556 15.350835 18.322266 15.900391 C 16.167024 11.096551 12.379059 5.3696245 5.5605469 2.2265625 C 5.2224579 2.070556 4.871482 2.0035239 4.5292969 2.0117188 z M 8.3359375 7.5644531 C 12.264043 10.644025 14.713341 14.759807 16.134766 18.259766 A 1.50015 1.50015 0 0 0 18.130859 19.068359 C 19.689448 18.380772 21.640714 18 24 18 C 26.362748 18 28.318739 18.382141 29.878906 19.072266 A 1.50015 1.50015 0 0 0 31.875 18.265625 C 33.294766 14.7665 35.743132 10.652508 39.667969 7.5722656 C 40.661117 10.854912 39.149932 13.372132 38.916016 13.738281 C 37.550127 15.821101 35.801855 17.916679 33.521484 19.746094 A 1.50015 1.50015 0 0 0 33.230469 21.775391 C 34.115949 23.044214 34.704801 24.659826 34.914062 26.732422 C 35.05187 28.092197 35.320256 29.415798 35.648438 30.697266 A 1.50015 1.50015 0 0 0 35.648438 30.699219 C 35.776987 31.200795 35.868369 31.683507 35.925781 32.150391 A 3 3 0 0 0 35 32 A 3 3 0 0 0 34.529297 37.960938 C 34.104073 38.56503 33.603083 39.123776 33.035156 39.638672 C 30.682539 41.771565 27.141 43 24 43 C 20.859 43 17.317461 41.771612 14.964844 39.638672 C 14.396218 39.123142 13.894301 38.563937 13.46875 37.958984 A 3 3 0 0 0 13 32 A 3 3 0 0 0 12.074219 32.148438 C 12.131647 31.682177 12.223197 31.200074 12.351562 30.699219 A 1.50015 1.50015 0 0 0 12.351562 30.697266 C 12.679744 29.415798 12.948129 28.092197 13.085938 26.732422 C 13.295153 24.658456 13.884672 23.039802 14.771484 21.771484 A 1.50015 1.50015 0 0 0 14.482422 19.742188 C 12.153907 17.872732 10.382339 15.726783 9.0058594 13.599609 C 8.6357803 12.979201 7.4049665 10.629635 8.3359375 7.5644531 z M 17.5 26 A 2.5 2.5 0 0 0 17.5 31 A 2.5 2.5 0 0 0 17.5 26 z M 30.5 26 A 2.5 2.5 0 0 0 30.5 31 A 2.5 2.5 0 0 0 30.5 26 z M 24 30 A 1 1 0 0 0 24 32 A 1 1 0 0 0 24 30 z M 23.984375 33 A 1.0001 1.0001 0 0 0 23.292969 33.292969 C 23.292969 33.292969 23.18343 33.414931 22.802734 33.605469 C 22.422039 33.796007 21.833167 34.001953 21 34.001953 A 1.0001 1.0001 0 0 0 20.017578 35.193359 L 20.613281 38.234375 A 1.0001 1.0001 0 0 0 20.615234 38.246094 C 20.94623 39.844971 22.366903 41.001953 24 41.001953 C 25.632525 41.001953 27.052729 39.844633 27.384766 38.246094 A 1.0001 1.0001 0 0 0 27.386719 38.234375 L 27.982422 35.191406 A 1.0001 1.0001 0 0 0 27 34 C 26.166667 34 25.578009 33.79584 25.197266 33.605469 C 24.816523 33.415097 24.707031 33.292969 24.707031 33.292969 A 1.0001 1.0001 0 0 0 23.984375 33 z M 24 35.1875 C 24.14032 35.28067 24.116816 35.301572 24.302734 35.394531 C 24.654717 35.570523 25.301988 35.622964 25.835938 35.738281 L 25.425781 37.84375 C 25.282155 38.524773 24.695921 39.001953 24 39.001953 C 23.30465 39.001953 22.716898 38.522458 22.574219 37.84375 L 22.164062 35.740234 C 22.69817 35.624785 23.345214 35.570733 23.697266 35.394531 C 23.883198 35.301472 23.85968 35.280758 24 35.1875 z"/></svg>