<svg xmlns="http://www.w3.org/2000/svg"  viewBox="0 0 48 48" width="24px" height="24px"><path d="M 24.607422 4.0429688 C 24.347041 4.0335549 24.0813 4.0541387 23.814453 4.1074219 L 8.6171875 7.1464844 C 6.5228355 7.5659519 5 9.4229991 5 11.558594 L 5 36.441406 C 5 38.576376 6.5230144 40.434668 8.6171875 40.853516 L 23.814453 43.892578 C 25.758786 44.281191 27.556602 42.890921 27.875 41 L 38.5 41 C 41.519774 41 44 38.519774 44 35.5 L 44 13.5 C 44 10.480226 41.519774 8 38.5 8 L 28 8 L 28 7.5390625 C 28 5.6340003 26.430086 4.1088659 24.607422 4.0429688 z M 24.402344 7.0488281 C 24.741566 6.9810934 25 7.1922764 25 7.5390625 L 25 40.460938 C 25 40.807724 24.741273 41.019122 24.402344 40.951172 A 1.50015 1.50015 0 0 0 24.402344 40.949219 L 9.2070312 37.910156 A 1.50015 1.50015 0 0 0 9.2050781 37.910156 C 8.4941947 37.768284 8 37.165812 8 36.441406 L 8 11.558594 C 8 10.834188 8.4953832 10.230423 9.2070312 10.087891 L 24.402344 7.0488281 z M 28 11 L 38.5 11 C 39.898226 11 41 12.101774 41 13.5 L 41 35.5 C 41 36.898226 39.898226 38 38.5 38 L 28 38 L 28 34 L 36.5 34 A 1.50015 1.50015 0 1 0 36.5 31 L 28 31 L 28 25.964844 C 28.840113 26.604091 29.872927 27 31 27 C 33.743 27 36 24.743 36 22 L 31 22 L 31 17 C 29.872927 17 28.840113 17.395909 28 18.035156 L 28 11 z M 33 15 L 33 20 L 38 20 C 38 18.674 37.473156 17.401844 36.535156 16.464844 C 35.597156 15.527844 34.326 15 33 15 z M 13.5 17 A 1.50015 1.50015 0 0 0 12 18.5 L 12 25.253906 A 1.50015 1.50015 0 0 0 12 25.740234 L 12 30.5 A 1.50015 1.50015 0 1 0 15 30.5 L 15 27 L 17 27 C 19.743657 27 22 24.743657 22 22 C 22 19.256343 19.743657 17 17 17 L 13.5 17 z M 15 20 L 17 20 C 18.122343 20 19 20.877657 19 22 C 19 23.122343 18.122343 24 17 24 L 15 24 L 15 20 z"/></svg>