<svg xmlns="http://www.w3.org/2000/svg"  viewBox="0 0 48 48" width="24px" height="24px"><path d="M 26.4375 1.9550781 A 1.50015 1.50015 0 0 0 25.087891 2.9960938 L 24 6.0429688 L 22.912109 2.9960938 A 1.50015 1.50015 0 0 0 21.556641 1.9804688 A 1.50015 1.50015 0 0 0 20.087891 4.0039062 L 21.152344 6.9863281 L 18.287109 5.2226562 A 1.5003825 1.5003825 0 1 0 16.712891 7.7773438 L 18.699219 9 L 8.5 9 C 7.1364058 9 6 10.136406 6 11.5 L 6 17.5 C 6 18.670167 6.9008442 19.530047 8 19.791016 L 8 37.5 C 8 41.071938 10.928062 44 14.5 44 L 23.753906 44 A 1.50015 1.50015 0 0 0 24.240234 44 L 33.5 44 C 37.071938 44 40 41.071938 40 37.5 L 40 19.791016 C 41.099156 19.530047 42 18.670167 42 17.5 L 42 11.5 C 42 10.136406 40.863594 9 39.5 9 L 29.300781 9 L 31.287109 7.7773438 A 1.5003825 1.5003825 0 1 0 29.712891 5.2226562 L 26.847656 6.9863281 L 27.912109 4.0039062 A 1.50015 1.50015 0 0 0 26.4375 1.9550781 z M 9 12 L 22.5 12 L 22.5 17 L 9 17 L 9 12 z M 25.5 12 L 39 12 L 39 17 L 25.5 17 L 25.5 12 z M 11 20 L 22.5 20 L 22.5 41 L 14.5 41 C 12.549938 41 11 39.450062 11 37.5 L 11 20 z M 25.5 20 L 37 20 L 37 37.5 C 37 39.450062 35.450062 41 33.5 41 L 25.5 41 L 25.5 20 z"/></svg>