<svg width="16" height="16" viewBox="0 0 16 16" fill="none" xmlns="http://www.w3.org/2000/svg">
<path d="M3.16667 2C1.97602 2 1 2.97602 1 4.16667V5.16667C1 5.98917 1.6775 6.66667 2.5 6.66667H3.33333V10.5C3.33335 10.6326 3.38603 10.7598 3.47979 10.8535C3.57356 10.9473 3.70073 11 3.83333 11H12.1667C12.2993 11 12.4264 10.9473 12.5202 10.8535C12.614 10.7598 12.6667 10.6326 12.6667 10.5V6.66667H13.5C14.3225 6.66667 15 5.98917 15 5.16667V4.16667C15 2.97602 14.024 2 12.8333 2H12.1667H3.83333H3.16667ZM3.16667 3H3.33333V5.66667H2.5C2.21783 5.66667 2 5.44883 2 5.16667V4.16667C2 3.51665 2.51665 3 3.16667 3ZM4.33333 3H11.6667V10H4.33333V3ZM12.6667 3H12.8333C13.4834 3 14 3.51665 14 4.16667V5.16667C14 5.44883 13.7822 5.66667 13.5 5.66667H12.6667V3ZM3.83333 11.6667C3.76708 11.6657 3.7013 11.678 3.63981 11.7027C3.57833 11.7274 3.52237 11.7641 3.47518 11.8106C3.428 11.8571 3.39053 11.9125 3.36496 11.9737C3.33938 12.0348 3.32621 12.1004 3.32621 12.1667C3.32621 12.2329 3.33938 12.2985 3.36496 12.3597C3.39053 12.4208 3.428 12.4762 3.47518 12.5227C3.52237 12.5693 3.57833 12.6059 3.63981 12.6307C3.7013 12.6554 3.76708 12.6676 3.83333 12.6667H12.1667C12.2329 12.6676 12.2987 12.6554 12.3602 12.6307C12.4217 12.6059 12.4776 12.5693 12.5248 12.5227C12.572 12.4762 12.6095 12.4208 12.635 12.3597C12.6606 12.2985 12.6738 12.2329 12.6738 12.1667C12.6738 12.1004 12.6606 12.0348 12.635 11.9737C12.6095 11.9125 12.572 11.8571 12.5248 11.8106C12.4776 11.7641 12.4217 11.7274 12.3602 11.7027C12.2987 11.678 12.2329 11.6657 12.1667 11.6667H3.83333ZM3.83333 13.3333C3.76708 13.3324 3.7013 13.3446 3.63981 13.3693C3.57833 13.3941 3.52237 13.4307 3.47518 13.4773C3.428 13.5238 3.39053 13.5792 3.36496 13.6403C3.33938 13.7015 3.32621 13.7671 3.32621 13.8333C3.32621 13.8996 3.33938 13.9652 3.36496 14.0263C3.39053 14.0875 3.428 14.1429 3.47518 14.1894C3.52237 14.2359 3.57833 14.2726 3.63981 14.2973C3.7013 14.322 3.76708 14.3343 3.83333 14.3333H12.1667C12.2329 14.3343 12.2987 14.322 12.3602 14.2973C12.4217 14.2726 12.4776 14.2359 12.5248 14.1894C12.572 14.1429 12.6095 14.0875 12.635 14.0263C12.6606 13.9652 12.6738 13.8996 12.6738 13.8333C12.6738 13.7671 12.6606 13.7015 12.635 13.6403C12.6095 13.5792 12.572 13.5238 12.5248 13.4773C12.4776 13.4307 12.4217 13.3941 12.3602 13.3693C12.2987 13.3446 12.2329 13.3324 12.1667 13.3333H3.83333Z" fill="#1A1A1A"/>
</svg>
