<svg xmlns="http://www.w3.org/2000/svg"  viewBox="0 0 48 48" width="24px" height="24px"><path d="M 12.5 4 C 10.019 4 8 6.019 8 8.5 L 8 39.5 C 8 41.981 10.019 44 12.5 44 L 29.896484 44 C 29.325484 43.094 29 42.081 29 41 L 12.5 41 C 11.673 41 11 40.327 11 39.5 L 11 8.5 C 11 7.673 11.673 7 12.5 7 L 24 7 L 24 15.5 C 24 17.981 26.019 20 28.5 20 L 37 20 L 37 23.181641 C 37.482 23.066641 37.983 23 38.5 23 C 39.017 23 39.518 23.066641 40 23.181641 L 40 18.5 C 40 18.086 39.831922 17.710953 39.560547 17.439453 L 26.560547 4.4394531 C 26.289172 4.1679531 25.9145 4 25.5 4 L 12.5 4 z M 27 9.1210938 L 34.878906 17 L 28.5 17 C 27.673 17 27 16.327 27 15.5 L 27 9.1210938 z M 38.5 25 C 36.019 25 34 27.019 34 29.5 C 34 31.981 36.019 34 38.5 34 C 40.981 34 43 31.981 43 29.5 C 43 27.019 40.981 25 38.5 25 z M 34 36 C 32.343 36 31 37.343 31 39 L 31 41 C 31 43.761 34.358 46 38.5 46 C 42.642 46 46 43.761 46 41 L 46 39 C 46 37.343 44.657 36 43 36 L 34 36 z"/></svg>