<svg xmlns="http://www.w3.org/2000/svg"  viewBox="0 0 48 48" width="24px" height="24px"><path d="M 9.5 4 C 7.0324991 4 5 6.0324991 5 8.5 L 5 37.5 A 1.50015 1.50015 0 0 0 5.0234375 37.728516 C 5.1465046 40.089678 7.1106165 42 9.5 42 L 38.5 42 C 40.967501 42 43 39.967501 43 37.5 L 43 14.5 C 43 12.032499 40.967501 10 38.5 10 L 14 10 L 14 6.5 C 14 5.1364058 12.863594 4 11.5 4 L 9.5 4 z M 9.5 7 L 11 7 L 11 11.253906 A 1.50015 1.50015 0 0 0 11 11.740234 L 11 33 L 9.5 33 C 8.9694092 33 8.4744795 33.134564 8 33.306641 L 8 8.5 C 8 7.6535009 8.6535009 7 9.5 7 z M 14 13 L 38.5 13 C 39.346499 13 40 13.653501 40 14.5 L 40 37.5 C 40 38.346499 39.346499 39 38.5 39 L 9.5 39 C 8.6535009 39 8 38.346499 8 37.5 C 8 36.653501 8.6535009 36 9.5 36 L 11.5 36 C 12.863594 36 14 34.863594 14 33.5 L 14 13 z M 35.470703 17.986328 A 1.50015 1.50015 0 0 0 35.310547 18 L 31.5 18 A 1.50015 1.50015 0 1 0 31.5 21 L 31.878906 21 L 28.5 24.378906 L 24.560547 20.439453 A 1.50015 1.50015 0 0 0 22.439453 20.439453 L 17.439453 25.439453 A 1.50015 1.50015 0 1 0 19.560547 27.560547 L 23.5 23.621094 L 27.439453 27.560547 A 1.50015 1.50015 0 0 0 29.560547 27.560547 L 34 23.121094 L 34 23.5 A 1.50015 1.50015 0 1 0 37 23.5 L 37 19.673828 A 1.50015 1.50015 0 0 0 35.470703 17.986328 z M 18.5 31 A 1.50015 1.50015 0 1 0 18.5 34 L 35.5 34 A 1.50015 1.50015 0 1 0 35.5 31 L 18.5 31 z"/></svg>