<svg xmlns="http://www.w3.org/2000/svg"  viewBox="0 0 48 48" width="24px" height="24px"><path d="M 24 5.5 C 14.626 5.5 7 12.678 7 21.5 L 7 22.427734 C 3.781 24.653734 2 27.471266 2 30.447266 C 2 37.485266 11.664 43 24 43 C 36.336 43 46 37.485266 46 30.447266 C 46 27.472266 44.219 24.653734 41 22.427734 L 41 21.5 C 41 12.678 33.374 5.5 24 5.5 z M 24 8.5 C 31.72 8.5 38 14.332 38 21.5 L 38 22.457031 C 37.502 22.642031 37.001 22.813516 36.5 22.978516 L 36.5 26.138672 C 37.001 25.985672 37.502 25.826297 38 25.654297 L 38 30.5 C 38 31.328 38.671 32 39.5 32 C 40.329 32 41 31.328 41 30.5 L 41 26.296875 C 42.295 27.601875 43 29.022266 43 30.447266 C 43 35.625266 34.299 40 24 40 C 13.701 40 5 35.625266 5 30.447266 C 5 29.022266 5.705 27.600875 7 26.296875 L 7 30.5 C 7 31.328 7.671 32 8.5 32 C 9.329 32 10 31.328 10 30.5 L 10 25.679688 C 13.562 26.941688 17.258 27.694219 21 27.949219 L 21 24.929688 C 17.246 24.654688 13.545 23.840656 10 22.472656 L 10 21.5 C 10 14.332 16.28 8.5 24 8.5 z M 33.896484 22.058594 C 33.5625 22.071367 33.225 22.2135 33 22.5 L 30.837891 24.261719 C 30.687293 23.917168 30.428768 23.705333 30 23.816406 C 29.897 23.799406 28.232187 24.0865 27.617188 24.1875 C 27.207187 24.2215 26.890625 24.699609 26.890625 25.099609 L 26.892578 25.173828 L 24.300781 24.316406 C 23.600781 24.074406 23 24.538281 23 25.238281 L 23 29.138672 C 23 29.938672 23.999219 30.499016 24.699219 30.041016 L 26.998047 28.431641 L 27 28.5 C 27.103 29.516 27.385 29.702 28 29.5 C 28.82 29.331 29.871328 29.219969 30.486328 28.917969 C 30.794328 28.766969 31 28.204687 31 27.804688 L 31 27.625 L 34 28 C 34.5 27.93 35 27.5 35 27 L 35 23 C 35 22.375 34.453125 22.037305 33.896484 22.058594 z"/></svg>