<svg xmlns="http://www.w3.org/2000/svg"  viewBox="0 0 48 48" width="24px" height="24px"><path d="M 14.5 3 C 14.13 3 13.75975 3.1553438 13.53125 3.4648438 C 12.05325 5.4668437 11.57325 7.45675 12.40625 8.71875 C 12.48225 8.83375 13.279 10 14.5 10 C 15.721 10 16.51775 8.83375 16.59375 8.71875 C 17.42675 7.45675 16.94775 5.4658438 15.46875 3.4648438 C 15.24025 3.1553438 14.87 3 14.5 3 z M 34.5 3 C 34.13 3 33.75975 3.1553438 33.53125 3.4648438 C 32.05325 5.4668437 31.57325 7.45675 32.40625 8.71875 C 32.48225 8.83375 33.279 10 34.5 10 C 35.721 10 36.51775 8.83375 36.59375 8.71875 C 37.42675 7.45675 36.94775 5.4658438 35.46875 3.4648438 C 35.24025 3.1553438 34.87 3 34.5 3 z M 11.5 11 A 1.50015 1.50015 0 0 0 10 12.5 L 10 28 L 8.5 28 L 7.5 28 A 1.50015 1.50015 0 0 0 7.3027344 30.988281 C 7.9121513 33.880498 10.109396 36.081384 13 36.695312 L 13 42 L 10.5 42 A 1.50015 1.50015 0 1 0 10.5 45 L 18.5 45 A 1.50015 1.50015 0 1 0 18.5 42 L 16 42 L 16 36.695312 C 18.890604 36.081384 21.087849 33.880498 21.697266 30.988281 A 1.50015 1.50015 0 0 0 21.5 28 L 20.5 28 L 19 28 L 19 12.5 A 1.50015 1.50015 0 0 0 17.5 11 L 11.5 11 z M 31.5 11 A 1.50015 1.50015 0 0 0 30 12.5 L 30 28 L 28.5 28 L 27.5 28 A 1.50015 1.50015 0 0 0 27.302734 30.988281 C 27.912151 33.880498 30.109396 36.081384 33 36.695312 L 33 42 L 30.5 42 A 1.50015 1.50015 0 1 0 30.5 45 L 38.5 45 A 1.50015 1.50015 0 1 0 38.5 42 L 36 42 L 36 36.695312 C 38.890604 36.081384 41.087849 33.880498 41.697266 30.988281 A 1.50015 1.50015 0 0 0 41.5 28 L 40.5 28 L 39 28 L 39 12.5 A 1.50015 1.50015 0 0 0 37.5 11 L 31.5 11 z M 13 14 L 16 14 L 16 28 L 13 28 L 13 14 z M 33 14 L 36 14 L 36 28 L 33 28 L 33 14 z M 10.298828 31 L 11.5 31 L 17.5 31 L 18.701172 31 C 18.084867 32.746834 16.470069 34 14.5 34 C 12.529931 34 10.915133 32.746834 10.298828 31 z M 30.298828 31 L 31.5 31 L 37.5 31 L 38.701172 31 C 38.084867 32.746834 36.470069 34 34.5 34 C 32.529931 34 30.915133 32.746834 30.298828 31 z"/></svg>