<svg width="24" height="24" viewBox="0 0 24 24" fill="none" xmlns="http://www.w3.org/2000/svg">
<g clip-path="url(#clip0_4255_46173)">
<path d="M1.36907 8.48908C1.28698 8.57737 1.22737 8.68414 1.1953 8.80035C1.16323 8.91657 1.15965 9.0388 1.18485 9.15669C1.21005 9.27459 1.26331 9.38467 1.34009 9.47761C1.41688 9.57055 1.51493 9.64362 1.62595 9.69061L10.538 13.4609L14.3083 22.373C14.3676 22.5134 14.4683 22.6324 14.5969 22.7141C14.7256 22.7959 14.8761 22.8365 15.0284 22.8306C15.1807 22.8246 15.3276 22.7725 15.4495 22.681C15.5714 22.5895 15.6625 22.463 15.7108 22.3184L22.2515 2.6962C22.2956 2.56404 22.302 2.42223 22.2699 2.28666C22.2379 2.15108 22.1688 2.0271 22.0703 1.92859C21.9718 1.83009 21.8478 1.76097 21.7123 1.72896C21.5767 1.69696 21.4349 1.70335 21.3027 1.7474L1.6805 8.28814C1.56152 8.32801 1.45444 8.39711 1.36907 8.48908ZM4.04006 9.08294L20.3546 3.6443L14.916 19.9589L11.9985 13.0611L16.7673 8.29228C16.8386 8.223 16.8953 8.14025 16.9344 8.04883C16.9734 7.95741 16.9938 7.85915 16.9945 7.75976C16.9952 7.66036 16.9762 7.56182 16.9385 7.46986C16.9007 7.3779 16.8451 7.29435 16.7748 7.22407C16.7046 7.15379 16.621 7.09817 16.5291 7.06046C16.4371 7.02275 16.3385 7.00369 16.2392 7.0044C16.1398 7.0051 16.0415 7.02555 15.9501 7.06456C15.8587 7.10356 15.7759 7.16035 15.7066 7.23162L10.9378 12.0004L4.04006 9.08294Z" fill="black" fill-opacity="0.55"/>
</g>
<defs>
<clipPath id="clip0_4255_46173">
<rect width="24" height="24" fill="white"/>
</clipPath>
</defs>
</svg>
