<svg xmlns="http://www.w3.org/2000/svg"  viewBox="0 0 48 48" width="24px" height="24px"><path d="M 11.5 4 C 7.4 4 4 7.4 4 11.5 C 4 15.6 7.4 19 11.5 19 C 15.6 19 19 15.6 19 11.5 C 19 7.4 15.6 4 11.5 4 z M 39.470703 5.9863281 A 1.50015 1.50015 0 0 0 39.310547 6 L 31.5 6 A 1.50015 1.50015 0 1 0 31.5 9 L 35.878906 9 L 29.878906 15 L 26.5 15 A 1.50015 1.50015 0 0 0 25.212891 15.728516 L 22.650391 20 L 18.5 20 A 1.50015 1.50015 0 0 0 17.212891 20.728516 L 14.650391 25 L 10.5 25 A 1.50015 1.50015 0 0 0 9.2128906 25.728516 L 6.2128906 30.728516 A 1.5006126 1.5006126 0 1 0 8.7871094 32.271484 L 11.349609 28 L 15.5 28 A 1.50015 1.50015 0 0 0 16.787109 27.271484 L 19.349609 23 L 23.5 23 A 1.50015 1.50015 0 0 0 24.787109 22.271484 L 27.349609 18 L 30.5 18 A 1.50015 1.50015 0 0 0 31.560547 17.560547 L 38 11.121094 L 38 15.5 A 1.50015 1.50015 0 1 0 41 15.5 L 41 7.6738281 A 1.50015 1.50015 0 0 0 39.470703 5.9863281 z M 12.025391 6.9609375 C 12.250391 6.95625 12.474219 7.0492188 12.699219 7.1992188 C 12.999219 7.3992188 13 7.7 13 8 L 13 15 C 13 15.6 12.6 16 12 16 C 11.4 16 11 15.6 11 15 L 11 9.3007812 L 10.199219 9.5 C 9.6992188 9.6 9.2 9.2992188 9 8.6992188 C 8.9 8.1992188 9.2007812 7.7 9.8007812 7.5 L 11.800781 7 C 11.875781 6.975 11.950391 6.9625 12.025391 6.9609375 z M 39.476562 19.978516 A 1.50015 1.50015 0 0 0 38 21.5 L 38 40.5 A 1.50015 1.50015 0 1 0 41 40.5 L 41 21.5 A 1.50015 1.50015 0 0 0 39.476562 19.978516 z M 31.476562 21.978516 A 1.50015 1.50015 0 0 0 30 23.5 L 30 40.5 A 1.50015 1.50015 0 1 0 33 40.5 L 33 23.5 A 1.50015 1.50015 0 0 0 31.476562 21.978516 z M 23.476562 25.978516 A 1.50015 1.50015 0 0 0 22 27.5 L 22 40.5 A 1.50015 1.50015 0 1 0 25 40.5 L 25 27.5 A 1.50015 1.50015 0 0 0 23.476562 25.978516 z M 15.476562 30.978516 A 1.50015 1.50015 0 0 0 14 32.5 L 14 40.5 A 1.50015 1.50015 0 1 0 17 40.5 L 17 32.5 A 1.50015 1.50015 0 0 0 15.476562 30.978516 z M 7.4765625 36.978516 A 1.50015 1.50015 0 0 0 6 38.5 L 6 40.5 A 1.50015 1.50015 0 1 0 9 40.5 L 9 38.5 A 1.50015 1.50015 0 0 0 7.4765625 36.978516 z"/></svg>