<svg xmlns="http://www.w3.org/2000/svg"  viewBox="0 0 48 48" width="24px" height="24px"><path d="M 23.958984 2 A 1.50015 1.50015 0 0 0 23.455078 2.1035156 L 2.9550781 10.103516 A 1.50015 1.50015 0 1 0 4.0449219 12.896484 L 24 5.109375 L 43.955078 12.896484 A 1.50015 1.50015 0 1 0 45.044922 10.103516 L 24.544922 2.1035156 A 1.50015 1.50015 0 0 0 23.958984 2 z M 9.5 15 C 7.5850452 15 6 16.585045 6 18.5 L 6 38.5 C 6 40.414955 7.5850452 42 9.5 42 L 20.564453 42 C 21.25216 43.191787 22.523388 44 24 44 C 25.476612 44 26.74784 43.191787 27.435547 42 L 38.5 42 C 40.414955 42 42 40.414955 42 38.5 L 42 18.5 C 42 16.585045 40.414955 15 38.5 15 L 28 15 C 26.257705 15 24.764255 15.877719 23.753906 17.15625 C 22.562139 15.852686 20.889643 15 19 15 L 9.5 15 z M 9.5 18 L 19 18 C 20.931818 18 22.5 19.568182 22.5 21.5 L 22.5 39 L 9.5 39 C 9.2049548 39 9 38.795045 9 38.5 L 9 18.5 C 9 18.204955 9.2049548 18 9.5 18 z M 28 18 L 38.5 18 C 38.795045 18 39 18.204955 39 18.5 L 39 38.5 C 39 38.795045 38.795045 39 38.5 39 L 25.5 39 L 25.5 21.5 L 25.5 20.5 C 25.5 19.101774 26.601774 18 28 18 z"/></svg>