<svg xmlns="http://www.w3.org/2000/svg"  viewBox="0 0 48 48" width="24px" height="24px"><path d="M 26.517578 3 C 25.715578 3 24.937359 3.1010625 24.193359 3.2890625 C 23.821359 3.3830625 23.557719 3.71375 23.511719 4.09375 L 23.419922 4.8535156 C 23.365922 5.2985156 23.10675 5.6939687 22.71875 5.9179688 C 22.33075 6.1419688 21.858312 6.1711406 21.445312 5.9941406 L 20.748047 5.6972656 C 20.396047 5.5462656 19.977937 5.6127188 19.710938 5.8867188 C 18.628937 6.9977187 17.816859 8.3693437 17.380859 9.9023438 C 17.275859 10.271344 17.426375 10.668437 17.734375 10.898438 L 18.347656 11.359375 C 18.706656 11.628375 18.917969 12.050047 18.917969 12.498047 C 18.917969 12.946047 18.706656 13.369672 18.347656 13.638672 L 17.734375 14.099609 C 17.427375 14.329609 17.276859 14.726703 17.380859 15.095703 C 17.816859 16.628703 18.628937 18.000328 19.710938 19.111328 C 19.977937 19.386328 20.396047 19.451781 20.748047 19.300781 L 21.445312 19.003906 C 21.858313 18.827906 22.32975 18.856078 22.71875 19.080078 C 23.10675 19.304078 23.366922 19.698531 23.419922 20.144531 L 23.511719 20.904297 C 23.557719 21.284297 23.824312 21.613984 24.195312 21.708984 C 24.938312 21.896984 25.715578 21.998047 26.517578 21.998047 C 27.319578 21.998047 28.097797 21.896984 28.841797 21.708984 C 29.213797 21.614984 29.477438 21.285297 29.523438 20.904297 L 29.615234 20.144531 C 29.669234 19.699531 29.930359 19.304078 30.318359 19.080078 C 30.706359 18.856078 31.178797 18.826906 31.591797 19.003906 L 32.287109 19.300781 C 32.639109 19.451781 33.057219 19.385328 33.324219 19.111328 C 34.406219 18.000328 35.22025 16.628703 35.65625 15.095703 C 35.76125 14.726703 35.608781 14.329609 35.300781 14.099609 L 34.6875 13.640625 C 34.3285 13.371625 34.117187 12.948 34.117188 12.5 C 34.117188 12.052 34.3285 11.628375 34.6875 11.359375 L 35.300781 10.900391 C 35.607781 10.670391 35.758297 10.273297 35.654297 9.9042969 C 35.218297 8.3712969 34.406219 6.9996719 33.324219 5.8886719 C 33.057219 5.6136719 32.637156 5.5462656 32.285156 5.6972656 L 31.589844 5.9941406 C 31.176844 6.1701406 30.705406 6.1439219 30.316406 5.9199219 C 29.928406 5.6959219 29.668234 5.3014688 29.615234 4.8554688 L 29.523438 4.09375 C 29.477438 3.71375 29.210844 3.3850156 28.839844 3.2910156 C 28.096844 3.1020156 27.319578 3 26.517578 3 z M 26.517578 10 C 27.898578 10 29.017578 11.119 29.017578 12.5 C 29.017578 13.881 27.898578 15 26.517578 15 C 25.136578 15 24.017578 13.881 24.017578 12.5 C 24.017578 11.119 25.136578 10 26.517578 10 z M 41.613281 22.019531 C 40.493082 22.029231 39.429184 22.473279 38.484375 23.175781 C 37.470126 23.929243 34.418425 26.208042 31.777344 28.179688 C 31.204622 26.351508 29.505924 25 27.5 25 L 23.107422 25 C 20.296203 25 18.985532 24.772226 17.859375 24.533203 C 16.733218 24.29418 15.646783 24 13.826172 24 C 9.9413941 24 7.0123317 26.492986 5.09375 28.791016 C 3.1751683 31.089045 2.1347656 33.384766 2.1347656 33.384766 A 1.5002787 1.5002787 0 1 0 4.8652344 34.628906 C 4.8652344 34.628906 5.7643161 32.669814 7.3964844 30.714844 C 9.0286527 28.759873 11.25995 27 13.826172 27 C 15.347561 27 16.006735 27.20582 17.236328 27.466797 C 18.465921 27.727774 20.123641 28 23.107422 28 L 27.5 28 C 28.346499 28 29 28.653501 29 29.5 C 29 29.969499 28.794195 30.374296 28.470703 30.646484 C 28.470416 30.646699 28.429688 30.677734 28.429688 30.677734 A 1.5001988 1.5001988 0 0 0 28.345703 30.748047 A 1.5001988 1.5001988 0 0 0 28.34375 30.75 C 28.105295 30.908613 27.816466 31 27.5 31 L 20.5 31 A 1.50015 1.50015 0 1 0 20.5 34 L 27.5 34 C 28.440637 34 29.315307 33.701451 30.041016 33.199219 C 30.042186 33.198409 30.043753 33.198076 30.044922 33.197266 A 1.5001988 1.5001988 0 0 0 30.224609 33.082031 C 30.224609 33.082031 38.775959 26.696426 40.273438 25.583984 A 1.50015 1.50015 0 0 0 40.273438 25.582031 C 40.837627 25.162534 41.309824 25.022381 41.640625 25.019531 C 41.971426 25.016631 42.218287 25.096901 42.560547 25.439453 C 43.150922 26.029324 43.147391 26.935102 42.572266 27.533203 C 37.217133 32.036197 33.848465 35.036886 31.623047 36.794922 C 29.369881 38.574924 28.424996 39 27.5 39 C 23.847885 39 19.80067 38 15.5 38 C 13 38 11.242781 39.343609 10.300781 40.599609 C 9.3587815 41.855609 9.0449219 43.136719 9.0449219 43.136719 A 1.50015 1.50015 0 1 0 11.955078 43.863281 C 11.955078 43.863281 12.141219 43.144391 12.699219 42.400391 C 13.257219 41.656391 14 41 15.5 41 C 19.30733 41 23.336115 42 27.5 42 C 29.402004 42 31.084837 41.044435 33.482422 39.150391 C 35.849764 37.280238 39.175413 34.30991 44.498047 29.833984 A 1.50015 1.50015 0 0 0 44.681641 29.681641 C 44.688541 29.674741 44.690436 29.665143 44.697266 29.658203 L 44.701172 29.662109 L 44.753906 29.607422 A 1.50015 1.50015 0 0 0 45.083984 29.074219 C 46.330485 27.321792 46.248887 24.884269 44.681641 23.318359 C 43.8529 22.488911 42.73348 22.009881 41.613281 22.019531 z"/></svg>