<svg xmlns="http://www.w3.org/2000/svg"  viewBox="0 0 48 48" width="24px" height="24px"><path d="M 6.5 10 C 4.0324991 10 2 12.032499 2 14.5 L 2 31.5 C 2 33.967501 4.0324991 36 6.5 36 L 7.2148438 36 C 7.8742368 38.298413 10.000264 40 12.5 40 C 14.999736 40 17.125763 38.298413 17.785156 36 L 30.214844 36 C 30.874237 38.298413 33.000264 40 35.5 40 C 37.999736 40 40.125763 38.298413 40.785156 36 L 41.5 36 C 43.967501 36 46 33.967501 46 31.5 L 46 21.136719 C 46 20.508481 45.867637 19.885956 45.611328 19.310547 L 42.662109 12.673828 L 42.662109 12.671875 C 41.941876 11.050283 40.324799 10 38.550781 10 L 6.5 10 z M 6.5 13 L 38.550781 13 C 39.148248 13 39.677843 13.345067 39.919922 13.890625 L 42.871094 20.527344 A 1.50015 1.50015 0 0 0 42.871094 20.53125 C 42.955748 20.720862 43 20.926243 43 21.136719 L 43 31.5 C 43 32.346499 42.346499 33 41.5 33 L 40.785156 33 C 40.125763 30.701587 37.999736 29 35.5 29 C 33.000264 29 30.874237 30.701587 30.214844 33 L 17.785156 33 C 17.125763 30.701587 14.999736 29 12.5 29 C 10.000264 29 7.8742368 30.701587 7.2148438 33 L 6.5 33 C 5.6535009 33 5 32.346499 5 31.5 L 5 14.5 C 5 13.653501 5.6535009 13 6.5 13 z M 11 18 C 10.448 18 10 18.448 10 19 L 10 25 C 10 25.552 10.448 26 11 26 C 11.552 26 12 25.552 12 25 L 12 23 L 13.5 23 C 14.052 23 14.5 22.552 14.5 22 C 14.5 21.448 14.052 21 13.5 21 L 12 21 L 12 20 L 14 20 C 14.552 20 15 19.552 15 19 C 15 18.448 14.552 18 14 18 L 11 18 z M 18 18 C 17.448 18 17 18.448 17 19 L 17 25 C 17 25.552 17.448 26 18 26 C 18.552 26 19 25.552 19 25 L 19 24 L 20 24 L 21.199219 25.599609 C 21.396219 25.861609 21.697953 26 22.001953 26 C 22.210953 26 22.419609 25.935781 22.599609 25.800781 C 23.041609 25.469781 23.132781 24.842391 22.800781 24.400391 L 21.947266 23.263672 C 22.586467 22.713054 23 21.907707 23 21 C 23 19.346 21.654 18 20 18 L 18 18 z M 26 18 C 25.448 18 25 18.448 25 19 L 25 25 C 25 25.552 25.448 26 26 26 L 29 26 C 29.552 26 30 25.552 30 25 C 30 24.448 29.552 24 29 24 L 27 24 L 27 23 L 28.5 23 C 29.052 23 29.5 22.552 29.5 22 C 29.5 21.448 29.052 21 28.5 21 L 27 21 L 27 20 L 29 20 C 29.552 20 30 19.552 30 19 C 30 18.448 29.552 18 29 18 L 26 18 z M 33 18 C 32.448 18 32 18.448 32 19 L 32 25 C 32 25.552 32.448 26 33 26 L 36 26 C 36.552 26 37 25.552 37 25 C 37 24.448 36.552 24 36 24 L 34 24 L 34 23 L 35.5 23 C 36.052 23 36.5 22.552 36.5 22 C 36.5 21.448 36.052 21 35.5 21 L 34 21 L 34 20 L 36 20 C 36.552 20 37 19.552 37 19 C 37 18.448 36.552 18 36 18 L 33 18 z M 19 20 L 20 20 C 20.551 20 21 20.449 21 21 C 21 21.551 20.551 22 20 22 L 19 22 L 19 20 z M 12.5 32 C 13.896406 32 15 33.103594 15 34.5 C 15 35.896406 13.896406 37 12.5 37 C 11.103594 37 10 35.896406 10 34.5 C 10 33.103594 11.103594 32 12.5 32 z M 35.5 32 C 36.896406 32 38 33.103594 38 34.5 C 38 35.896406 36.896406 37 35.5 37 C 34.103594 37 33 35.896406 33 34.5 C 33 33.103594 34.103594 32 35.5 32 z"/></svg>