<svg xmlns="http://www.w3.org/2000/svg"  viewBox="0 0 48 48" width="24px" height="24px"><path d="M 12 5 A 1.50015 1.50015 0 0 0 10.982422 5.3984375 L 4.4824219 11.398438 A 1.50015 1.50015 0 0 0 4 12.5 L 4 16.5 C 4 18.437327 4.7645954 20.195561 6 21.525391 L 6 42.5 A 1.50015 1.50015 0 0 0 7.5 44 L 40.5 44 A 1.50015 1.50015 0 0 0 42 42.5 L 42 21.527344 C 43.236516 20.19728 44.001953 18.43831 44.001953 16.5 L 44.001953 12.5 L 43.998047 12.5 A 1.50015 1.50015 0 0 0 43.517578 11.398438 L 37.017578 5.3984375 A 1.50015 1.50015 0 0 0 36 5 L 12 5 z M 12.585938 8 L 35.414062 8 L 38.664062 11 L 9.3359375 11 L 12.585938 8 z M 7 14 L 16.332031 14 L 16.332031 16.5 C 16.332031 16.503947 16.332025 16.507773 16.332031 16.511719 C 16.32538 18.987047 14.281102 21 11.667969 21 C 9.0505768 21 7 18.980868 7 16.5 L 7 14 z M 19.333984 14 L 28.667969 14 L 28.667969 16.5 C 28.667969 18.980868 26.617392 21 24 21 C 21.386866 21 19.340642 18.987047 19.333984 16.511719 C 19.333991 16.507773 19.333984 16.503947 19.333984 16.5 L 19.333984 14 z M 31.667969 14 L 41.001953 14 L 41.001953 16.5 C 41.001953 18.980868 38.951376 21 36.333984 21 C 33.716593 21 31.667969 18.980868 31.667969 16.5 L 31.667969 14 z M 30.167969 20.707031 C 31.561551 22.648665 33.7539 24 36.333984 24 C 37.270255 24 38.166202 23.82517 39 23.519531 L 39 41 L 23 41 L 23 28.5 A 1.50015 1.50015 0 0 0 21.5 27 L 13.5 27 A 1.50015 1.50015 0 0 0 12 28.5 L 12 41 L 9 41 L 9 23.519531 C 9.8342814 23.825573 10.731051 24 11.667969 24 C 14.182343 24 16.429296 22.790036 17.832031 20.931641 C 19.235278 22.790575 21.485198 24 24 24 C 26.580487 24 28.774454 22.649178 30.167969 20.707031 z M 27.5 27 A 1.50015 1.50015 0 0 0 26 28.5 L 26 35.5 A 1.50015 1.50015 0 0 0 27.5 37 L 34.5 37 A 1.50015 1.50015 0 0 0 36 35.5 L 36 28.5 A 1.50015 1.50015 0 0 0 34.5 27 L 27.5 27 z M 15 30 L 20 30 L 20 41 L 15 41 L 15 30 z M 29 30 L 33 30 L 33 34 L 29 34 L 29 30 z"/></svg>