<svg xmlns="http://www.w3.org/2000/svg"  viewBox="0 0 48 48" width="24px" height="24px"><path d="M 17 5 C 10.390343 5 5 10.390343 5 17 C 5 18.789533 5.4449983 20.466765 6.1484375 21.990234 C 6.0713132 22.638979 6 23.297118 6 24 C 6 33.9236 14.0764 42 24 42 C 24.702882 42 25.361021 41.928691 26.009766 41.851562 C 27.533235 42.555003 29.210467 43 31 43 C 37.609657 43 43 37.609657 43 31 C 43 29.210467 42.555003 27.533235 41.851562 26.009766 C 41.928687 25.361021 42 24.702882 42 24 C 42 14.0764 33.9236 6 24 6 C 23.297118 6 22.638979 6.0713132 21.990234 6.1484375 C 20.466765 5.4449983 18.789533 5 17 5 z M 17 8 C 18.482051 8 19.868762 8.3616329 21.105469 8.9980469 A 1.50015 1.50015 0 0 0 21.990234 9.1523438 C 22.673612 9.0607862 23.339546 9 24 9 C 32.3024 9 39 15.6976 39 24 C 39 24.660454 38.93921 25.326388 38.847656 26.009766 A 1.50015 1.50015 0 0 0 39.001953 26.894531 C 39.638367 28.131238 40 29.517949 40 31 C 40 35.988343 35.988343 40 31 40 C 29.517949 40 28.131238 39.638367 26.894531 39.001953 A 1.50015 1.50015 0 0 0 26.009766 38.847656 C 25.326388 38.939214 24.660454 39 24 39 C 15.6976 39 9 32.3024 9 24 C 9 23.339546 9.0607862 22.673612 9.1523438 21.990234 A 1.50015 1.50015 0 0 0 8.9980469 21.105469 C 8.3616329 19.868762 8 18.482051 8 17 C 8 12.011657 12.011657 8 17 8 z M 24.695312 13.783203 C 17.196312 13.783203 16.910156 18.540125 16.910156 19.578125 C 16.910156 25.544125 27.025391 25.268516 27.025391 28.853516 C 27.025391 31.040516 24.659469 31.142578 23.605469 31.142578 C 21.618469 31.142578 19.545734 29.691406 18.802734 29.691406 C 18.059734 29.691406 16.970703 30.279406 16.970703 31.316406 C 16.970703 33.856406 21.473797 34.400391 22.591797 34.400391 C 23.680797 34.400391 31.171875 34.726937 31.171875 28.585938 C 31.171875 22.347937 21.099609 22.347078 21.099609 19.330078 C 21.099609 19.024078 21.011531 16.923828 24.519531 16.923828 C 27.059531 16.923828 27.560688 18.046875 28.804688 18.046875 C 29.446688 18.046875 30.404297 17.683344 30.404297 16.277344 C 30.404297 14.361344 26.711312 13.783203 24.695312 13.783203 z"/></svg>