<svg xmlns="http://www.w3.org/2000/svg"  viewBox="0 0 48 48" width="24px" height="24px"><path d="M 18.5 6 A 1.5 1.5 0 0 0 18.5 9 A 1.5 1.5 0 0 0 18.5 6 z M 29.5 6 A 1.5 1.5 0 0 0 29.5 9 A 1.5 1.5 0 0 0 29.5 6 z M 8.7949219 7.96875 C 7.7713222 7.9515733 6.7399038 8.3654886 6.03125 9.2148438 L 4.0507812 11.589844 A 1.50015 1.50015 0 0 0 4.0507812 11.591797 C 2.668242 13.251142 2.655371 15.681881 4.0195312 17.355469 A 1.50015 1.50015 0 0 0 4.0214844 17.355469 L 8 22.234375 L 8 37.5 C 8 40.519774 10.480226 43 13.5 43 A 1.50015 1.50015 0 0 0 13.503906 43 L 34.5 42.949219 C 37.519774 42.949219 40 40.468993 40 37.449219 L 40 22.236328 L 43.980469 17.355469 A 1.50015 1.50015 0 0 0 43.982422 17.355469 C 45.345531 15.681345 45.331993 13.250865 43.951172 11.591797 L 41.970703 9.2167969 C 40.55401 7.5150476 37.845632 7.5614077 36.486328 9.3085938 A 1.50015 1.50015 0 0 0 36.478516 9.3183594 L 33.027344 13.837891 A 1.50015 1.50015 0 0 0 33.011719 15.636719 L 36.189453 19.949219 L 11.90625 19.949219 L 15.164062 16 A 1.50015 1.50015 0 0 0 15.201172 14.134766 L 11.521484 9.3183594 A 1.50015 1.50015 0 0 0 11.513672 9.3066406 C 10.83405 8.4331015 9.8185215 7.9859267 8.7949219 7.96875 z M 8.7441406 10.929688 C 8.8898316 10.931663 9.0340945 11.003976 9.1464844 11.148438 L 12.09375 15.007812 L 9.0429688 18.705078 C 9.0429688 18.705078 9.0429688 18.707031 9.0429688 18.707031 C 9.0336288 18.718251 9.0365587 18.734804 9.0273438 18.746094 L 6.3457031 15.458984 C 5.8758634 14.882572 5.8800079 14.082374 6.3554688 13.511719 L 8.3339844 11.136719 C 8.4513306 10.996074 8.5984496 10.927712 8.7441406 10.929688 z M 39.257812 10.929688 C 39.403199 10.926851 39.549362 10.994643 39.666016 11.134766 A 1.50015 1.50015 0 0 0 39.666016 11.136719 L 41.646484 13.511719 L 41.644531 13.511719 C 42.119711 14.082651 42.12514 14.885061 41.65625 15.460938 L 39.003906 18.710938 L 38.996094 18.720703 C 38.979714 18.700333 38.973801 18.674417 38.957031 18.654297 L 39.003906 18.710938 L 36.095703 14.763672 L 38.855469 11.150391 C 38.967817 11.005984 39.112426 10.932524 39.257812 10.929688 z M 18.478516 10.986328 A 1.50015 1.50015 0 0 0 17.552734 13.664062 C 21.34619 16.749499 26.65381 16.749499 30.447266 13.664062 A 1.5007842 1.5007842 0 1 0 28.552734 11.335938 C 25.78819 13.584501 22.21181 13.584501 19.447266 11.335938 A 1.50015 1.50015 0 0 0 18.478516 10.986328 z M 11 22.949219 L 37 22.949219 L 37 37.449219 C 37 38.847445 35.898226 39.949219 34.5 39.949219 A 1.50015 1.50015 0 0 0 34.496094 39.949219 L 13.5 40 C 12.101774 40 11 38.898226 11 37.5 L 11 22.949219 z M 19.5 26.949219 A 1.50015 1.50015 0 1 0 19.5 29.949219 L 28.5 29.949219 A 1.50015 1.50015 0 1 0 28.5 26.949219 L 19.5 26.949219 z"/></svg>