<svg width="16" height="16" viewBox="0 0 16 16" fill="none" xmlns="http://www.w3.org/2000/svg">
<path d="M11.9998 1.66602C10.7171 1.66602 9.6665 2.71661 9.6665 3.99935C9.6665 4.1946 9.73268 4.36917 9.77848 4.55078L5.78174 6.55013C5.35288 6.024 4.72701 5.66602 3.99984 5.66602C2.71709 5.66602 1.6665 6.71661 1.6665 7.99935C1.6665 9.28209 2.71709 10.3327 3.99984 10.3327C4.72701 10.3327 5.35288 9.9747 5.78174 9.44857L9.77848 11.4479C9.73268 11.6295 9.6665 11.8041 9.6665 11.9993C9.6665 13.2821 10.7171 14.3327 11.9998 14.3327C13.2826 14.3327 14.3332 13.2821 14.3332 11.9993C14.3332 10.7166 13.2826 9.66602 11.9998 9.66602C11.2727 9.66602 10.6468 10.024 10.2179 10.5501L6.22119 8.55078C6.26699 8.36917 6.33317 8.1946 6.33317 7.99935C6.33317 7.80409 6.26699 7.62953 6.22119 7.44792L10.2179 5.44857C10.6468 5.9747 11.2727 6.33268 11.9998 6.33268C13.2826 6.33268 14.3332 5.28209 14.3332 3.99935C14.3332 2.71661 13.2826 1.66602 11.9998 1.66602ZM11.9998 2.66602C12.7421 2.66602 13.3332 3.25705 13.3332 3.99935C13.3332 4.74165 12.7421 5.33268 11.9998 5.33268C11.2575 5.33268 10.6665 4.74165 10.6665 3.99935C10.6665 3.25705 11.2575 2.66602 11.9998 2.66602ZM3.99984 6.66602C4.74214 6.66602 5.33317 7.25705 5.33317 7.99935C5.33317 8.74165 4.74214 9.33268 3.99984 9.33268C3.25753 9.33268 2.6665 8.74165 2.6665 7.99935C2.6665 7.25705 3.25753 6.66602 3.99984 6.66602ZM11.9998 10.666C12.7421 10.666 13.3332 11.257 13.3332 11.9993C13.3332 12.7417 12.7421 13.3327 11.9998 13.3327C11.2575 13.3327 10.6665 12.7417 10.6665 11.9993C10.6665 11.257 11.2575 10.666 11.9998 10.666Z" fill="#1A1A1A"/>
</svg>
