<svg xmlns="http://www.w3.org/2000/svg"  viewBox="0 0 48 48" width="24px" height="24px"><path d="M 24.216797 6.1015625 C 24.084935 6.1013567 23.952471 6.1110209 23.820312 6.1289062 C 23.29168 6.2004472 22.770296 6.4185563 22.339844 6.8007812 A 1.50015 1.50015 0 0 0 22.339844 6.8027344 L 13.117188 15 L 6.5 15 C 4.0324991 15 2 17.032499 2 19.5 L 2 28.5 C 2 30.967501 4.0324991 33 6.5 33 L 13.117188 33 L 22.339844 41.197266 C 23.200649 41.96254 24.421458 42.075139 25.345703 41.660156 C 26.269948 41.245173 27 40.257378 27 39.105469 L 27 8.8945312 C 27 7.7430679 26.271967 6.7549754 25.347656 6.3398438 C 25.00104 6.1841693 24.612384 6.10218 24.216797 6.1015625 z M 45 8.5 A 1.5 1.5 0 0 0 45 11.5 A 1.5 1.5 0 0 0 45 8.5 z M 24 9.3398438 L 24 38.660156 L 14.683594 30.378906 A 1.50015 1.50015 0 0 0 13.6875 30 L 6.5 30 C 5.6535009 30 5 29.346499 5 28.5 L 5 19.5 C 5 18.653501 5.6535009 18 6.5 18 L 13.6875 18 A 1.50015 1.50015 0 0 0 14.683594 17.621094 L 24 9.3398438 z M 38 12.5 A 1.5 1.5 0 0 0 38 15.5 A 1.5 1.5 0 0 0 38 12.5 z M 31 15.5 A 1.5 1.5 0 0 0 31 18.5 A 1.5 1.5 0 0 0 31 15.5 z M 31 22.5 A 1.5 1.5 0 0 0 31 25.5 A 1.5 1.5 0 0 0 31 22.5 z M 38 22.5 A 1.5 1.5 0 0 0 38 25.5 A 1.5 1.5 0 0 0 38 22.5 z M 45 22.5 A 1.5 1.5 0 0 0 45 25.5 A 1.5 1.5 0 0 0 45 22.5 z M 31 29.5 A 1.5 1.5 0 0 0 31 32.5 A 1.5 1.5 0 0 0 31 29.5 z M 38 32.5 A 1.5 1.5 0 0 0 38 35.5 A 1.5 1.5 0 0 0 38 32.5 z M 45 36.5 A 1.5 1.5 0 0 0 45 39.5 A 1.5 1.5 0 0 0 45 36.5 z"/></svg>