<svg xmlns="http://www.w3.org/2000/svg"  viewBox="0 0 48 48" width="24px" height="24px"><path d="M 32.496094 6.015625 C 30.938166 5.9334327 29.292373 6.1153482 27.632812 6.5292969 C 23.207317 7.6331601 18.518762 10.360002 14.439453 14.439453 C 10.360145 18.518904 7.6330056 23.207279 6.5292969 27.632812 C 5.425588 32.058346 5.9666313 36.386652 8.7910156 39.210938 C 11.6154 42.035223 15.941692 42.574566 20.367188 41.470703 C 24.792683 40.366839 29.481238 37.639998 33.560547 33.560547 C 37.639855 29.481096 40.366994 24.792721 41.470703 20.367188 C 42.574411 15.941654 42.033368 11.613348 39.208984 8.7890625 C 37.443744 7.0238839 35.092641 6.1526122 32.496094 6.015625 z M 32.283203 8.9980469 C 34.273443 9.091734 35.919022 9.7432815 37.087891 10.912109 C 38.95808 12.782233 39.501254 15.870632 38.560547 19.642578 C 37.61984 23.414522 35.174404 27.704371 31.439453 31.439453 C 27.704501 35.174535 23.41449 37.619708 19.642578 38.560547 C 15.870666 39.501386 12.782298 38.958015 10.912109 37.087891 C 9.0419197 35.217767 8.4987465 32.129368 9.4394531 28.357422 C 10.38016 24.585478 12.825596 20.295629 16.560547 16.560547 C 20.295499 12.825465 24.58551 10.380292 28.357422 9.4394531 C 29.771889 9.0866388 31.089059 8.9418346 32.283203 8.9980469 z M 30.486328 14.978516 A 1.50015 1.50015 0 0 0 29.439453 15.439453 L 28.5 16.378906 L 27.560547 15.439453 A 1.50015 1.50015 0 0 0 26.484375 14.984375 A 1.50015 1.50015 0 0 0 25.439453 17.560547 L 26.378906 18.5 L 23.5 21.378906 L 22.560547 20.439453 A 1.50015 1.50015 0 1 0 20.439453 22.560547 L 21.378906 23.5 L 18.5 26.378906 L 17.560547 25.439453 A 1.50015 1.50015 0 1 0 15.439453 27.560547 L 16.378906 28.5 L 15.439453 29.439453 A 1.50015 1.50015 0 1 0 17.560547 31.560547 L 18.5 30.621094 L 19.439453 31.560547 A 1.50015 1.50015 0 1 0 21.560547 29.439453 L 20.621094 28.5 L 23.5 25.621094 L 24.439453 26.560547 A 1.50015 1.50015 0 1 0 26.560547 24.439453 L 25.621094 23.5 L 28.5 20.621094 L 29.439453 21.560547 A 1.50015 1.50015 0 1 0 31.560547 19.439453 L 30.621094 18.5 L 31.560547 17.560547 A 1.50015 1.50015 0 0 0 30.486328 14.978516 z"/></svg>