<svg xmlns="http://www.w3.org/2000/svg"  viewBox="0 0 48 48" width="24px" height="24px"><path d="M 26.5 3 A 1.5 1.5 0 0 0 26.5 6 A 1.5 1.5 0 0 0 26.5 3 z M 22.470703 6.9863281 A 1.50015 1.50015 0 0 0 21.439453 7.4394531 L 18.439453 10.439453 A 1.50015 1.50015 0 1 0 20.560547 12.560547 L 23.560547 9.5605469 A 1.50015 1.50015 0 0 0 22.470703 6.9863281 z M 38.470703 8.9863281 A 1.50015 1.50015 0 0 0 37.439453 9.4394531 L 34.439453 12.439453 A 1.50015 1.50015 0 1 0 36.560547 14.560547 L 39.560547 11.560547 A 1.50015 1.50015 0 0 0 38.470703 8.9863281 z M 14.017578 11.421875 A 1.50015 1.50015 0 0 0 12.654297 12.257812 L 11.21875 15.169922 L 8.0039062 15.636719 A 1.50015 1.50015 0 0 0 7.171875 18.197266 L 9.4980469 20.462891 L 8.9492188 23.664062 A 1.50015 1.50015 0 0 0 11.125 25.246094 L 14 23.734375 L 16.875 25.246094 A 1.50015 1.50015 0 0 0 19.050781 23.664062 L 18.501953 20.462891 L 20.828125 18.197266 A 1.50015 1.50015 0 0 0 19.996094 15.636719 L 16.78125 15.169922 L 15.345703 12.257812 A 1.50015 1.50015 0 0 0 14.017578 11.421875 z M 31.470703 15.986328 A 1.50015 1.50015 0 0 0 30.439453 16.439453 L 19.439453 27.439453 A 1.50015 1.50015 0 1 0 21.560547 29.560547 L 32.560547 18.560547 A 1.50015 1.50015 0 0 0 31.470703 15.986328 z M 14 16.310547 L 14.441406 17.205078 A 1.50015 1.50015 0 0 0 15.570312 18.025391 L 16.558594 18.167969 L 15.84375 18.865234 A 1.50015 1.50015 0 0 0 15.412109 20.193359 L 15.580078 21.175781 L 14.697266 20.710938 A 1.50015 1.50015 0 0 0 13.302734 20.710938 L 12.419922 21.175781 L 12.587891 20.193359 A 1.50015 1.50015 0 0 0 12.15625 18.865234 L 11.441406 18.167969 L 12.429688 18.025391 A 1.50015 1.50015 0 0 0 13.558594 17.205078 L 14 16.310547 z M 44.5 19 A 1.5 1.5 0 0 0 44.5 22 A 1.5 1.5 0 0 0 44.5 19 z M 40.470703 22.986328 A 1.50015 1.50015 0 0 0 39.439453 23.439453 L 36.439453 26.439453 A 1.50015 1.50015 0 1 0 38.560547 28.560547 L 41.560547 25.560547 A 1.50015 1.50015 0 0 0 40.470703 22.986328 z M 32.017578 27.421875 A 1.50015 1.50015 0 0 0 30.654297 28.257812 L 29.21875 31.169922 L 26.003906 31.636719 A 1.50015 1.50015 0 0 0 25.171875 34.197266 L 27.498047 36.462891 L 26.949219 39.664062 A 1.50015 1.50015 0 0 0 29.125 41.246094 L 32 39.734375 L 34.875 41.246094 A 1.50015 1.50015 0 0 0 37.050781 39.664062 L 36.501953 36.462891 L 38.828125 34.197266 A 1.50015 1.50015 0 0 0 37.996094 31.636719 L 34.78125 31.169922 L 33.345703 28.257812 A 1.50015 1.50015 0 0 0 32.017578 27.421875 z M 15.017578 28.421875 A 1.50015 1.50015 0 0 0 13.654297 29.257812 L 12.21875 32.169922 L 9.0039062 32.636719 A 1.50015 1.50015 0 0 0 8.171875 35.197266 L 10.498047 37.462891 L 9.9492188 40.664062 A 1.50015 1.50015 0 0 0 12.125 42.246094 L 15 40.734375 L 17.875 42.246094 A 1.50015 1.50015 0 0 0 20.050781 40.664062 L 19.501953 37.462891 L 21.828125 35.197266 A 1.50015 1.50015 0 0 0 20.996094 32.636719 L 17.78125 32.169922 L 16.345703 29.257812 A 1.50015 1.50015 0 0 0 15.017578 28.421875 z M 32 32.310547 L 32.441406 33.205078 A 1.50015 1.50015 0 0 0 33.570312 34.025391 L 34.558594 34.167969 L 33.84375 34.865234 A 1.50015 1.50015 0 0 0 33.412109 36.193359 L 33.580078 37.175781 L 32.697266 36.710938 A 1.50015 1.50015 0 0 0 31.302734 36.710938 L 30.419922 37.175781 L 30.587891 36.193359 A 1.50015 1.50015 0 0 0 30.15625 34.865234 L 29.441406 34.167969 L 30.429688 34.025391 A 1.50015 1.50015 0 0 0 31.558594 33.205078 L 32 32.310547 z M 15 33.310547 L 15.441406 34.205078 A 1.50015 1.50015 0 0 0 16.570312 35.025391 L 17.558594 35.167969 L 16.84375 35.865234 A 1.50015 1.50015 0 0 0 16.412109 37.193359 L 16.580078 38.175781 L 15.697266 37.710938 A 1.50015 1.50015 0 0 0 14.302734 37.710938 L 13.419922 38.175781 L 13.587891 37.193359 A 1.50015 1.50015 0 0 0 13.15625 35.865234 L 12.441406 35.167969 L 13.429688 35.025391 A 1.50015 1.50015 0 0 0 14.558594 34.205078 L 15 33.310547 z"/></svg>