<svg width="24" height="24" viewBox="0 0 24 24" fill="#1fb141" xmlns="http://www.w3.org/2000/svg">
<path d="M15.2217 2.72168C15.1791 2.7223 15.1366 2.72654 15.0947 2.73437L4.78906 4.48926C3.47208 4.71321 2.5 5.86468 2.5 7.20019V15.75C2.49859 15.8494 2.51695 15.9481 2.55402 16.0403C2.59108 16.1325 2.6461 16.2164 2.71588 16.2872C2.78566 16.358 2.86882 16.4142 2.96051 16.4526C3.0522 16.4909 3.15061 16.5107 3.25 16.5107C3.34939 16.5107 3.4478 16.4909 3.53949 16.4526C3.63118 16.4142 3.71434 16.358 3.78412 16.2872C3.8539 16.2164 3.90892 16.1325 3.94598 16.0403C3.98304 15.9481 4.00141 15.8494 4 15.75V7.20019C4 6.58571 4.43402 6.07082 5.04004 5.96777L15.3467 4.21289C15.5342 4.18378 15.7038 4.08465 15.8212 3.93547C15.9385 3.7863 15.995 3.59818 15.9791 3.40903C15.9632 3.21989 15.8763 3.04379 15.7357 2.91623C15.5952 2.78868 15.4115 2.71916 15.2217 2.72168ZM18.2217 5.22168C18.1791 5.2223 18.1366 5.22654 18.0947 5.23437L7.78906 6.98926C6.47208 7.21321 5.5 8.36468 5.5 9.70019V18.25C5.49859 18.3494 5.51696 18.4481 5.55402 18.5403C5.59108 18.6325 5.6461 18.7164 5.71588 18.7872C5.78566 18.858 5.86882 18.9142 5.96051 18.9526C6.0522 18.9909 6.15061 19.0107 6.25 19.0107C6.34939 19.0107 6.4478 18.9909 6.53949 18.9526C6.63118 18.9142 6.71434 18.858 6.78412 18.7872C6.8539 18.7164 6.90892 18.6325 6.94598 18.5403C6.98304 18.4481 7.00141 18.3494 7 18.25V9.70019C7 9.08571 7.43402 8.57082 8.04004 8.46777L18.3467 6.71289C18.5342 6.68378 18.7038 6.58465 18.8212 6.43547C18.9385 6.2863 18.995 6.09818 18.9791 5.90903C18.9632 5.71989 18.8763 5.54379 18.7357 5.41623C18.5952 5.28868 18.4115 5.21916 18.2217 5.22168ZM19.6221 8.00391C19.538 8.00844 19.4532 8.01778 19.3682 8.03223L10.793 9.48828C9.47498 9.71262 8.5 10.8637 8.5 12.2002V19.25C8.5 20.63 9.77132 21.699 11.1318 21.4678L19.707 20.0117C21.025 19.7874 22 18.6363 22 17.2998V10.25C22 8.95623 20.8828 7.9359 19.6221 8.00391ZM19.7949 9.5C20.1908 9.51788 20.5 9.83177 20.5 10.25V17.2998C20.5 17.9133 20.0651 18.4286 19.4561 18.5322L10.8809 19.9893C10.8805 19.9893 10.8802 19.9893 10.8799 19.9893C10.4044 20.0701 10 19.728 10 19.25V12.2002C10 11.5867 10.4349 11.0714 11.0439 10.9678L19.6191 9.51074C19.6195 9.51074 19.6198 9.51074 19.6201 9.51074C19.6795 9.50064 19.7384 9.49745 19.7949 9.5Z" />
</svg>
