<svg xmlns="http://www.w3.org/2000/svg"  viewBox="0 0 48 48" width="24px" height="24px"><path d="M 19.96875 3.5 A 1.50015 1.50015 0 0 0 19.597656 3.5449219 L 15.597656 4.5449219 A 1.50015 1.50015 0 0 0 14.462891 5.9179688 C 14.454287 6.0744575 14.465585 6.2257875 14.462891 6.3808594 C 12.279177 8.2106552 9.3513333 11.365693 8.1191406 13.830078 A 1.50015 1.50015 0 0 0 8.1191406 15.169922 C 9.192752 17.317145 10.792447 19.667322 12.316406 21.46875 A 1.50015 1.50015 0 1 0 14.605469 19.53125 C 13.41893 18.128678 12.20433 16.230568 11.273438 14.535156 C 12.030906 13.329083 13.501377 11.547806 14.876953 10.125 C 15.363261 12.234111 16.134627 14.0641 16.519531 15.412109 C 17.094501 17.426531 16.989502 18.808216 16.964844 20.080078 C 12.568312 25.761011 11.960937 31.746727 11.960938 41.5 A 1.50015 1.50015 0 0 0 12.71875 42.804688 C 12.71875 42.804688 13.827143 43.415187 15.832031 43.949219 C 17.836919 44.48325 20.844171 45 24.960938 45 C 29.081094 45 32.089517 44.483325 34.09375 43.949219 C 36.097983 43.415113 37.203125 42.802734 37.203125 42.802734 A 1.50015 1.50015 0 0 0 37.960938 41.5 C 37.960938 31.746727 37.353563 25.761011 32.957031 20.080078 C 32.932371 18.808216 32.829327 17.426531 33.404297 15.412109 C 33.787252 14.070926 34.550958 12.251843 35.037109 10.15625 C 36.442634 11.655629 37.930057 13.433882 38.642578 14.544922 C 37.71206 16.238083 36.501129 18.131796 35.316406 19.53125 A 1.50015 1.50015 0 1 0 37.605469 21.46875 C 39.130933 19.666795 40.729302 17.316787 41.802734 15.169922 A 1.50015 1.50015 0 0 0 41.802734 13.830078 C 40.613611 11.451831 37.647806 8.2639272 35.458984 6.3359375 C 35.456044 6.1957862 35.466753 6.0592708 35.458984 5.9179688 A 1.50015 1.50015 0 0 0 34.324219 4.5449219 L 30.324219 3.5449219 A 1.50015 1.50015 0 0 0 28.480469 4.7539062 C 28.011571 7.5672912 27.555726 8.0144555 26.859375 8.6113281 C 26.424756 8.9838589 25.710963 9.6070601 24.960938 10.460938 C 24.210911 9.6070601 23.497119 8.9838589 23.0625 8.6113281 C 22.366149 8.0144555 21.910304 7.5672912 21.441406 4.7539062 A 1.50015 1.50015 0 0 0 19.96875 3.5 z M 18.953125 6.7988281 C 19.525161 8.8030742 20.278157 10.176199 21.109375 10.888672 C 22.163024 11.791799 22.753305 11.93825 23.619141 13.669922 A 1.50015 1.50015 0 0 0 26.302734 13.669922 C 27.16857 11.93825 27.758851 11.791799 28.8125 10.888672 C 29.643718 10.176199 30.396714 8.8030742 30.96875 6.7988281 L 32.310547 7.1328125 C 32.154887 9.6808189 31.175387 12.290958 30.519531 14.587891 C 29.857639 16.906846 29.923006 18.6323 29.957031 19.783203 C 26.2599 21.467668 23.373198 21.407489 19.964844 19.789062 C 19.998844 18.63864 20.06718 16.910319 19.404297 14.587891 C 18.748441 12.290917 17.766988 9.6808189 17.611328 7.1328125 L 18.953125 6.7988281 z M 31.017578 22.566406 C 34.310153 27.155318 34.904785 31.960523 34.939453 40.474609 C 34.622611 40.622712 34.500532 40.736266 33.320312 41.050781 C 31.572045 41.516675 28.83078 42 24.960938 42 C 21.094704 42 18.352877 41.51675 16.603516 41.050781 C 15.422002 40.736068 15.299883 40.620863 14.982422 40.472656 C 15.017142 31.963533 15.611881 27.158944 18.900391 22.572266 C 22.828576 24.354649 26.822654 24.407986 31.017578 22.566406 z"/></svg>