<svg xmlns="http://www.w3.org/2000/svg"  viewBox="0 0 48 48" width="24px" height="24px"><path d="M 10.476562 5.9785156 A 1.50015 1.50015 0 0 0 9 7.5 L 9 8.2539062 A 1.50015 1.50015 0 0 0 9 8.7402344 L 9 9.5 A 1.50015 1.50015 0 0 0 11.919922 10 L 22.5 10 L 22.5 39 L 20.5 39 A 1.50015 1.50015 0 1 0 20.5 42 L 23.753906 42 A 1.50015 1.50015 0 0 0 24.240234 42 L 27.5 42 A 1.50015 1.50015 0 1 0 27.5 39 L 25.5 39 L 25.5 10 L 36.080078 10 A 1.50015 1.50015 0 0 0 39 9.5 L 39 8.7460938 A 1.50015 1.50015 0 0 0 39 8.2597656 L 39 7.5 A 1.50015 1.50015 0 0 0 36.080078 7 L 24.246094 7 A 1.50015 1.50015 0 0 0 23.759766 7 L 11.919922 7 A 1.50015 1.50015 0 0 0 10.476562 5.9785156 z"/></svg>