<svg width="24" height="24" viewBox="0 0 24 24" fill="none" xmlns="http://www.w3.org/2000/svg">
<path d="M12 1.99414C11.2573 1.99414 10.5152 2.16784 9.83594 2.51562L9.83398 2.5166L3.99121 5.52441C3.07703 5.99523 2.5 6.94104 2.5 7.96973V16.0303C2.5 17.0586 3.07637 18.0041 3.99121 18.4746L9.83398 21.4834L9.83496 21.4844C11.1934 22.1799 12.8056 22.1799 14.1641 21.4844L14.166 21.4834L20.0088 18.4746C20.923 18.0038 21.499 17.0586 21.499 16.0303V7.96973C21.499 6.9416 20.9232 5.99597 20.0088 5.52539L14.166 2.5166L14.165 2.51562C13.4858 2.16784 12.7427 1.99414 12 1.99414ZM12 3.49414C12.5078 3.49414 13.0162 3.61334 13.4814 3.85156L19.3213 6.8584L19.3223 6.85938C19.7394 7.07391 19.999 7.5001 19.999 7.96973V16.0303C19.999 16.4999 19.7391 16.9264 19.3213 17.1416L13.4805 20.1484C12.5506 20.6245 11.4506 20.6248 10.5205 20.1494L10.5186 20.1484L4.67773 17.1416C4.26054 16.9271 4 16.4999 4 16.0303V7.96973C4 7.49941 4.25991 7.07358 4.67773 6.8584L10.5195 3.85156C10.9848 3.61334 11.4922 3.49414 12 3.49414ZM5.73535 7.24512C5.56713 7.24655 5.40428 7.3045 5.27296 7.40964C5.14164 7.51478 5.04947 7.66102 5.01128 7.82485C4.97308 7.98868 4.99106 8.1606 5.06234 8.31298C5.13362 8.46536 5.25406 8.58935 5.4043 8.66504L9.82031 10.96C10.2735 11.1953 10.7585 11.3231 11.25 11.4023V18.75C11.2486 18.8494 11.267 18.9481 11.304 19.0403C11.3411 19.1325 11.3961 19.2164 11.4659 19.2872C11.5357 19.358 11.6188 19.4142 11.7105 19.4526C11.8022 19.4909 11.9006 19.5107 12 19.5107C12.0994 19.5107 12.1978 19.4909 12.2895 19.4526C12.3812 19.4142 12.4643 19.358 12.5341 19.2872C12.6039 19.2164 12.6589 19.1325 12.696 19.0403C12.733 18.9481 12.7514 18.8494 12.75 18.75V11.4023C13.2415 11.3231 13.7256 11.1953 14.1787 10.96L18.5957 8.66602C18.7723 8.57433 18.9053 8.41623 18.9654 8.22649C19.0255 8.03676 19.0077 7.83094 18.916 7.6543C18.8243 7.47766 18.6662 7.34468 18.4765 7.28461C18.2868 7.22454 18.0809 7.2423 17.9043 7.33398L13.4873 9.62891C13.0238 9.86947 12.5177 9.98834 12.0117 9.99023C12.0029 9.98975 11.9941 9.98943 11.9854 9.98926C11.4801 9.98686 10.9746 9.86928 10.5117 9.62891L6.0957 7.33496C5.98502 7.27528 5.8611 7.24438 5.73535 7.24512Z" fill="#1A1A1A"/>
</svg>
