<svg xmlns="http://www.w3.org/2000/svg"  viewBox="0 0 48 48" width="24px" height="24px"><path d="M 22.566406 4.1015625 A 1.50015 1.50015 0 0 0 21.376953 4.7480469 C 21.376953 4.7480469 19.800401 7.0353874 17.894531 9.6328125 C 15.988661 12.230238 13.667085 15.199917 12.564453 16.242188 C 10.476915 18.216003 9 20.901502 9 23.941406 L 9 30.5 C 9 36.83361 14.16639 42 20.5 42 L 29.839844 42 C 33.608263 42 36.80997 39.17385 37.28125 35.435547 L 37.802734 31.707031 L 38.642578 25.707031 L 38.986328 23.261719 C 39.44602 19.979767 36.852377 17 33.539062 17 L 25.068359 17 C 25.760675 15.285488 26.269684 13.733223 26.625 11.986328 A 1.50015 1.50015 0 0 0 26.626953 11.986328 C 26.834844 10.962945 27.009766 10.160054 27.009766 9.3066406 C 27.009766 7.2502388 25.959673 5.7737331 24.941406 5.0351562 C 23.923093 4.2965795 22.865234 4.1210937 22.865234 4.1210938 A 1.50015 1.50015 0 0 0 22.566406 4.1015625 z M 23.138672 7.4453125 C 23.160002 7.4597825 23.158108 7.4491928 23.179688 7.4648438 C 23.610421 7.7772669 24.009766 8.1530425 24.009766 9.3066406 C 24.009766 9.6812269 23.891656 10.374055 23.685547 11.388672 C 23.317219 13.199539 22.89917 14.610616 22.125 16.417969 A 1.50015 1.50015 0 0 0 22.125 16.419922 C 21.799959 17.181231 21.832249 18.040712 22.230469 18.751953 C 22.628685 19.463147 23.478462 20 24.375 20 L 33.539062 20 C 35.083748 20 36.22798 21.315655 36.013672 22.845703 L 35.671875 25.292969 L 34.832031 31.292969 L 34.308594 35.035156 A 1.50015 1.50015 0 0 0 34.304688 35.058594 C 34.021141 37.323145 32.121296 39 29.839844 39 L 20.5 39 C 15.78761 39 12 35.21239 12 30.5 L 12 23.941406 C 12 21.873311 13.004538 19.954059 14.625 18.421875 C 16.189368 16.943146 18.37662 14.046528 20.3125 11.408203 C 21.860136 9.2989994 22.666748 8.1244476 23.138672 7.4453125 z"/></svg>