<svg xmlns="http://www.w3.org/2000/svg"  viewBox="0 0 48 48" width="24px" height="24px"><path d="M 11.5 6 C 8.468 6 6 8.468 6 11.5 L 6 36.5 C 6 39.532 8.468 42 11.5 42 L 36.5 42 C 39.532 42 42 39.532 42 36.5 L 42 15.949219 L 39 18.949219 L 39 36.5 C 39 37.879 37.879 39 36.5 39 L 11.5 39 C 10.121 39 9 37.879 9 36.5 L 9 11.5 C 9 10.121 10.121 9 11.5 9 L 36.5 9 C 37.202 9 37.834062 9.2937188 38.289062 9.7617188 L 40.410156 7.640625 C 39.412156 6.629625 38.029 6 36.5 6 L 11.5 6 z M 41.470703 9.9863281 A 1.50015 1.50015 0 0 0 40.439453 10.439453 L 21.5 29.378906 L 17.560547 25.439453 A 1.50015 1.50015 0 1 0 15.439453 27.560547 L 20.439453 32.560547 A 1.50015 1.50015 0 0 0 22.560547 32.560547 L 42.560547 12.560547 A 1.50015 1.50015 0 0 0 41.470703 9.9863281 z"/></svg>