<svg width="16" height="16" viewBox="0 0 16 16" fill="none" xmlns="http://www.w3.org/2000/svg">
<path d="M8.00016 1.33398C4.32418 1.33398 1.3335 4.32468 1.3335 8.00065C1.3335 11.6766 4.32418 14.6673 8.00016 14.6673C11.6761 14.6673 14.6668 11.6766 14.6668 8.00065C14.6668 4.32468 11.6761 1.33398 8.00016 1.33398ZM8.00016 2.33398C11.1357 2.33398 13.6668 4.86511 13.6668 8.00065C13.6668 11.1362 11.1357 13.6673 8.00016 13.6673C4.86462 13.6673 2.3335 11.1362 2.3335 8.00065C2.3335 4.86511 4.86462 2.33398 8.00016 2.33398ZM7.82568 3.99349C7.69319 3.99556 7.56693 4.05013 7.47465 4.14523C7.38236 4.24032 7.3316 4.36815 7.3335 4.50065V8.50065C7.33351 8.63325 7.38619 8.76042 7.47996 8.85419C7.57372 8.94795 7.70089 9.00064 7.8335 9.00065H10.5002C10.5664 9.00159 10.6322 8.98935 10.6937 8.96464C10.7552 8.93993 10.8111 8.90325 10.8583 8.85673C10.9055 8.81021 10.943 8.75477 10.9685 8.69364C10.9941 8.63252 11.0073 8.56691 11.0073 8.50065C11.0073 8.43439 10.9941 8.36879 10.9685 8.30766C10.943 8.24653 10.9055 8.19109 10.8583 8.14457C10.8111 8.09805 10.7552 8.06137 10.6937 8.03666C10.6322 8.01195 10.5664 7.99971 10.5002 8.00065H8.3335V4.50065C8.33446 4.43373 8.32197 4.3673 8.29678 4.30529C8.27159 4.24328 8.23421 4.18696 8.18686 4.13966C8.1395 4.09237 8.08313 4.05506 8.02109 4.02995C7.95905 4.00484 7.8926 3.99244 7.82568 3.99349Z" fill="#1A1A1A"/>
</svg>
