<svg xmlns="http://www.w3.org/2000/svg"  viewBox="0 0 48 48" width="24px" height="24px"><path d="M 21.5 9.3222656 C 21.3745 9.3326875 21.249609 9.3667344 21.130859 9.4277344 C 18.258993 11.025366 15.88523 14.16739 15.167969 16.589844 L 14.259766 15.185547 A 1.50015 1.50015 0 0 0 12.996094 14.5 A 1.50015 1.50015 0 0 0 12.185547 14.740234 C 7.0345643 18.070579 4.6031638 22.078411 3.7578125 27.005859 C 3.363134 26.767938 2.9681119 26.551372 2.5859375 26.388672 C 2.2609375 26.306672 1.9157813 26.399766 1.6757812 26.634766 C 1.4367812 26.869766 1.3370625 27.211109 1.4140625 27.537109 C 2.1060331 30.632013 2.75177 33.974067 2.9394531 36 L 2.5 36 A 1.50015 1.50015 0 1 0 2.5 39 L 45.5 39 A 1.50015 1.50015 0 1 0 45.5 36 L 45.066406 36 C 45.260766 33.958576 45.898124 30.620698 46.582031 27.546875 C 46.658031 27.219875 46.560313 26.876578 46.320312 26.642578 C 46.081312 26.407578 45.735156 26.316391 45.410156 26.400391 C 45.005482 26.576373 44.587584 26.809661 44.169922 27.070312 C 43.25749 22.340048 40.814223 18.472813 35.814453 15.240234 A 1.50015 1.50015 0 0 0 34.960938 15 A 1.50015 1.50015 0 0 0 33.740234 15.685547 L 33.363281 16.267578 C 32.122341 13.881437 29.411313 11.187663 27.960938 9.8417969 C 27.736937 9.6287969 27.427094 9.531125 27.121094 9.578125 C 26.816094 9.625125 26.548437 9.8120313 26.398438 10.082031 C 26.091438 10.635031 25.711047 11.317734 25.373047 11.927734 C 25.197047 12.244734 24.863 12.441406 24.5 12.441406 C 24.137 12.441406 23.802953 12.244734 23.626953 11.927734 C 23.232953 11.218734 22.782266 10.410125 22.447266 9.828125 C 22.253016 9.477875 21.8765 9.291 21.5 9.3222656 z M 24 16.705078 C 26.818514 19.385409 29.256651 22.655099 30.513672 26.326172 C 27.794505 28.627863 25.777801 31.52674 24 34.458984 C 22.222199 31.52674 20.205495 28.627863 17.486328 26.326172 C 18.743349 22.655099 21.181486 19.385409 24 16.705078 z M 12.625 18.183594 L 15.685547 22.916016 C 15.428956 23.464869 15.189741 24.022267 14.972656 24.589844 C 14.022809 24.037649 13.106065 23.453324 11.974609 23.076172 A 1.50015 1.50015 0 0 0 10.355469 23.53125 C 8.8854086 25.267685 7.8076036 27.551703 7.0917969 29.892578 C 6.9178543 29.663638 6.7123989 29.428091 6.4882812 29.191406 A 1.5003827 1.5003827 0 0 0 6.4941406 29.136719 C 6.9244037 24.403825 8.4565071 21.252051 12.625 18.183594 z M 35.375 18.683594 C 39.438943 21.675091 40.988594 24.757138 41.462891 29.294922 C 41.262103 29.511978 41.079039 29.726039 40.919922 29.935547 C 40.204303 27.579706 39.123553 25.27827 37.644531 23.53125 A 1.50015 1.50015 0 0 0 36.025391 23.076172 C 34.893935 23.453324 33.977191 24.037649 33.027344 24.589844 C 32.849208 24.1241 32.650241 23.668081 32.445312 23.214844 L 35.375 18.683594 z M 12.041016 26.439453 C 16.28557 28.266464 18.8507 31.901618 21.345703 36 L 9.0898438 36 C 9.2034461 33.211067 10.362209 29.03118 12.041016 26.439453 z M 35.958984 26.439453 C 37.637791 29.03118 38.796554 33.211067 38.910156 36 L 26.654297 36 C 29.1493 31.901618 31.71443 28.266464 35.958984 26.439453 z"/></svg>