<svg xmlns="http://www.w3.org/2000/svg"  viewBox="0 0 48 48" width="24px" height="24px"><path d="M 16.824219 3.8007812 A 6 6 0 0 0 11 9.7988281 L 11 9.9179688 A 6.379 6.379 0 0 0 6 16.078125 A 6.187 6.187 0 0 0 7.3378906 19.900391 A 7.686 7.686 0 0 0 4 26.220703 A 7.9 7.9 0 0 0 12 34 A 8.311 8.311 0 0 0 13 33.939453 L 13 42.5 A 1.5 1.5 0 0 0 14.5 44 L 19.5 44 A 1.5 1.5 0 0 0 21 42.5 L 21 37 L 19.5 37 A 3.493 3.493 0 0 1 18 36.660156 L 18 41 L 16 41 L 16 32.019531 A 1.5 1.5 0 0 0 13.939453 30.626953 A 5.147 5.147 0 0 1 12 31 A 4.9 4.9 0 0 1 7 26.220703 A 4.791 4.791 0 0 1 10.455078 21.677734 A 1.5 1.5 0 0 0 10.742188 18.935547 A 3.272 3.272 0 0 1 9 16.078125 A 3.411 3.411 0 0 1 12.458984 12.748047 C 12.540984 12.759047 12.623031 12.769438 12.707031 12.773438 A 1.5 1.5 0 0 0 14.1875 10.748047 A 2.692 2.692 0 0 1 14 9.8007812 A 3 3 0 0 1 20 9.8007812 A 2.692 2.692 0 0 1 19.8125 10.748047 A 1.5 1.5 0 0 0 20.005859 12.162109 A 1.483 1.483 0 0 0 21.175781 12.761719 L 22.943359 10.248047 A 1.132 1.132 0 0 0 23 9.9179688 L 23 9.7988281 A 6 6 0 0 0 16.824219 3.8007812 z M 31.041016 4 A 1.50015 1.50015 0 0 0 29.800781 4.5996094 L 22.300781 14.599609 A 1.50015 1.50015 0 0 0 23.5 17 L 25.169922 17 L 20.292969 23.609375 A 1.50015 1.50015 0 0 0 21.5 26 L 23.228516 26 L 18.298828 32.601562 A 1.50015 1.50015 0 0 0 19.5 35 L 27 35 L 27 42.5 A 1.50015 1.50015 0 0 0 28.5 44 L 33.5 44 A 1.50015 1.50015 0 0 0 35 42.5 L 35 35 L 42.5 35 A 1.50015 1.50015 0 0 0 43.701172 32.601562 L 38.771484 26 L 40.5 26 A 1.50015 1.50015 0 0 0 41.707031 23.609375 L 36.830078 17 L 38.5 17 A 1.50015 1.50015 0 0 0 39.699219 14.599609 L 32.199219 4.5996094 A 1.50015 1.50015 0 0 0 31.041016 4 z M 31 8 L 35.5 14 L 26.5 14 L 31 8 z M 28.898438 17 L 33.101562 17 L 37.529297 23 L 24.470703 23 L 28.898438 17 z M 26.972656 26 L 35.027344 26 L 39.507812 32 L 33.5 32 L 28.5 32 L 22.492188 32 L 26.972656 26 z M 30 35 L 32 35 L 32 41 L 30 41 L 30 35 z"/></svg>