<svg xmlns="http://www.w3.org/2000/svg"  viewBox="0 0 48 48" width="24px" height="24px"><path d="M 8.5 7 C 5.4802259 7 3 9.4802259 3 12.5 L 3 30.5 C 3 33.519774 5.4802259 36 8.5 36 L 39.5 36 C 42.519774 36 45 33.519774 45 30.5 L 45 12.5 C 45 9.4802259 42.519774 7 39.5 7 L 8.5 7 z M 8.5 10 L 39.5 10 C 40.898226 10 42 11.101774 42 12.5 L 42 30.5 C 42 31.898226 40.898226 33 39.5 33 L 8.5 33 C 7.1017741 33 6 31.898226 6 30.5 L 6 12.5 C 6 11.101774 7.1017741 10 8.5 10 z M 15.5 39 A 1.50015 1.50015 0 1 0 15.5 42 L 32.5 42 A 1.50015 1.50015 0 1 0 32.5 39 L 15.5 39 z"/></svg>