<svg width="16" height="16" viewBox="0 0 16 16" fill="none" xmlns="http://www.w3.org/2000/svg">
<path d="M7.99984 1.33398C6.16481 1.33398 4.6665 2.83229 4.6665 4.66732C4.6665 6.50234 6.16481 8.00065 7.99984 8.00065C9.83487 8.00065 11.3332 6.50234 11.3332 4.66732C11.3332 2.83229 9.83487 1.33398 7.99984 1.33398ZM7.99984 2.33398C9.29443 2.33398 10.3332 3.37273 10.3332 4.66732C10.3332 5.9619 9.29443 7.00065 7.99984 7.00065C6.70525 7.00065 5.6665 5.9619 5.6665 4.66732C5.6665 3.37273 6.70525 2.33398 7.99984 2.33398ZM4.1665 9.33398C3.344 9.33398 2.6665 10.0115 2.6665 10.834V11.2337C2.6665 12.214 3.28808 13.0933 4.23617 13.6979C5.18426 14.3025 6.48145 14.6673 7.99984 14.6673C9.51822 14.6673 10.8154 14.3025 11.7635 13.6979C12.7116 13.0933 13.3332 12.214 13.3332 11.2337V10.834C13.3332 10.0115 12.6557 9.33398 11.8332 9.33398H4.1665ZM4.1665 10.334H11.8332C12.1153 10.334 12.3332 10.5518 12.3332 10.834V11.2337C12.3332 11.7888 11.9757 12.3766 11.2257 12.8548C10.4758 13.333 9.35612 13.6673 7.99984 13.6673C6.64356 13.6673 5.52384 13.333 4.77393 12.8548C4.02402 12.3766 3.6665 11.7888 3.6665 11.2337V10.834C3.6665 10.5518 3.88434 10.334 4.1665 10.334Z" fill="#1A1A1A"/>
</svg>
