<svg width="16" height="16" viewBox="0 0 16 16" fill="none" xmlns="http://www.w3.org/2000/svg">
<g id="Vector 24">
<path id="Vector" d="M7.16668 3.3335C6.71215 3.3335 6.33334 3.7123 6.33334 4.16683V4.3335H2.5534C2.45883 4.13413 2.30966 3.96567 2.12321 3.84767C1.93676 3.72967 1.72067 3.66696 1.50001 3.66683C1.3468 3.66683 1.19509 3.69701 1.05355 3.75564C0.912 3.81427 0.783387 3.9002 0.675052 4.00854C0.566717 4.11687 0.480781 4.24549 0.422151 4.38703C0.36352 4.52858 0.333344 4.68029 0.333344 4.8335C0.333344 4.9867 0.36352 5.13841 0.422151 5.27996C0.480781 5.42151 0.566717 5.55012 0.675052 5.65845C0.783387 5.76679 0.912 5.85272 1.05355 5.91136C1.19509 5.96999 1.3468 6.00016 1.50001 6.00016C1.72055 5.99991 1.93651 5.93714 2.12284 5.81915C2.30916 5.70115 2.45823 5.53276 2.55274 5.3335H4.68816C3.1558 6.35133 2.12164 8.05347 2.01433 10.0002H1.83334C1.37881 10.0002 1.00001 10.379 1.00001 10.8335V12.1668C1.00001 12.6214 1.37881 13.0002 1.83334 13.0002H3.16668C3.62121 13.0002 4.00001 12.6214 4.00001 12.1668V10.8335C4.00001 10.379 3.62121 10.0002 3.16668 10.0002H3.01433C3.1482 7.96566 4.49276 6.27104 6.33334 5.62061V5.8335C6.33334 6.28803 6.71215 6.66683 7.16668 6.66683H8.83334C9.28788 6.66683 9.66668 6.28803 9.66668 5.8335V5.62256C11.5068 6.27312 12.8518 7.96618 12.9857 10.0002H12.8333C12.3788 10.0002 12 10.379 12 10.8335V12.1668C12 12.6214 12.3788 13.0002 12.8333 13.0002H14.1667C14.6212 13.0002 15 12.6214 15 12.1668V10.8335C15 10.379 14.6212 10.0002 14.1667 10.0002H13.9896C13.8812 8.04755 12.8279 6.35016 11.2865 5.3335H13.4466C13.5412 5.53286 13.6904 5.70132 13.8768 5.81932C14.0633 5.93732 14.2794 6.00003 14.5 6.00016C14.6532 6.00016 14.8049 5.96999 14.9465 5.91136C15.088 5.85272 15.2166 5.76679 15.325 5.65845C15.4333 5.55012 15.5192 5.42151 15.5779 5.27996C15.6365 5.13841 15.6667 4.9867 15.6667 4.8335C15.6667 4.68029 15.6365 4.52858 15.5779 4.38703C15.5192 4.24549 15.4333 4.11687 15.325 4.00854C15.2166 3.9002 15.088 3.81427 14.9465 3.75564C14.8049 3.69701 14.6532 3.66683 14.5 3.66683C14.2795 3.66709 14.0635 3.72985 13.8772 3.84785C13.6909 3.96584 13.5418 4.13423 13.4473 4.3335H9.66668V4.16683C9.66668 3.7123 9.28788 3.3335 8.83334 3.3335H7.16668ZM7.33334 4.3335H8.66668V4.75732C8.65883 4.80802 8.65883 4.85962 8.66668 4.91032V5.66683H7.33334V4.91553C7.34216 4.86185 7.34216 4.80709 7.33334 4.75342V4.3335ZM2.00001 11.0002H3.00001V12.0002H2.00001V11.0002ZM13 11.0002H14V12.0002H13V11.0002Z" fill="#1A1A1A"/>
</g>
</svg>
