<svg width="16" height="16" viewBox="0 0 16 16" fill="none" xmlns="http://www.w3.org/2000/svg">
<path d="M7.99215 1.32623C7.85965 1.3283 7.7334 1.38288 7.64111 1.47797C7.54883 1.57306 7.49806 1.7009 7.49996 1.83339V2.83339C7.49902 2.89965 7.51126 2.96543 7.53597 3.02692C7.56068 3.0884 7.59736 3.14436 7.64388 3.19155C7.6904 3.23873 7.74584 3.2762 7.80697 3.30177C7.8681 3.32735 7.9337 3.34052 7.99996 3.34052C8.06622 3.34052 8.13182 3.32735 8.19295 3.30177C8.25408 3.2762 8.30952 3.23873 8.35604 3.19155C8.40256 3.14436 8.43924 3.0884 8.46395 3.02692C8.48866 2.96543 8.5009 2.89965 8.49996 2.83339V1.83339C8.50092 1.76647 8.48844 1.70004 8.46325 1.63803C8.43806 1.57602 8.40068 1.5197 8.35332 1.47241C8.30597 1.42511 8.2496 1.3878 8.18756 1.36269C8.12552 1.33759 8.05907 1.32519 7.99215 1.32623ZM3.63407 3.13483C3.53457 3.13485 3.43733 3.16456 3.3548 3.22016C3.27228 3.27576 3.20822 3.35471 3.17081 3.44692C3.13341 3.53913 3.12437 3.64041 3.14485 3.73778C3.16533 3.83516 3.21439 3.92421 3.28577 3.99355L3.9928 4.70058C4.08664 4.79443 4.21392 4.84715 4.34664 4.84715C4.47936 4.84715 4.60664 4.79443 4.70048 4.70058C4.79432 4.60674 4.84705 4.47946 4.84705 4.34674C4.84705 4.21402 4.79432 4.08674 4.70048 3.9929L3.99345 3.28587C3.94671 3.23791 3.89082 3.19983 3.82909 3.17389C3.76735 3.14794 3.70104 3.13466 3.63407 3.13483ZM12.3502 3.13483C12.2204 3.13861 12.0971 3.19278 12.0065 3.28587L11.2994 3.9929C11.2056 4.08674 11.1529 4.21402 11.1529 4.34674C11.1529 4.47946 11.2056 4.60674 11.2994 4.70058C11.3933 4.79443 11.5206 4.84715 11.6533 4.84715C11.786 4.84715 11.9133 4.79443 12.0071 4.70058L12.7142 3.99355C12.7866 3.9233 12.836 3.83279 12.8561 3.73391C12.8761 3.63503 12.8658 3.5324 12.8264 3.4395C12.787 3.34661 12.7205 3.2678 12.6355 3.21342C12.5505 3.15905 12.4511 3.13165 12.3502 3.13483ZM7.99996 4.33339C5.98084 4.33339 4.33329 5.98094 4.33329 8.00006C4.33329 10.0192 5.98084 11.6667 7.99996 11.6667C10.0191 11.6667 11.6666 10.0192 11.6666 8.00006C11.6666 5.98094 10.0191 4.33339 7.99996 4.33339ZM7.99996 5.33339C9.47864 5.33339 10.6666 6.52138 10.6666 8.00006C10.6666 9.47874 9.47864 10.6667 7.99996 10.6667C6.52128 10.6667 5.33329 9.47874 5.33329 8.00006C5.33329 6.52138 6.52128 5.33339 7.99996 5.33339ZM1.83329 7.50006C1.76704 7.49912 1.70126 7.51136 1.63977 7.53607C1.57829 7.56078 1.52233 7.59746 1.47514 7.64398C1.42796 7.6905 1.39049 7.74594 1.36492 7.80707C1.33934 7.8682 1.32617 7.9338 1.32617 8.00006C1.32617 8.06632 1.33934 8.13193 1.36492 8.19305C1.39049 8.25418 1.42796 8.30962 1.47514 8.35614C1.52233 8.40266 1.57829 8.43934 1.63977 8.46405C1.70126 8.48876 1.76704 8.501 1.83329 8.50006H2.83329C2.89955 8.501 2.96533 8.48876 3.02681 8.46405C3.0883 8.43934 3.14426 8.40266 3.19144 8.35614C3.23863 8.30962 3.2761 8.25418 3.30167 8.19305C3.32724 8.13193 3.34041 8.06632 3.34041 8.00006C3.34041 7.9338 3.32724 7.8682 3.30167 7.80707C3.2761 7.74594 3.23863 7.6905 3.19144 7.64398C3.14426 7.59746 3.0883 7.56078 3.02681 7.53607C2.96533 7.51136 2.89955 7.49912 2.83329 7.50006H1.83329ZM13.1666 7.50006C13.1004 7.49912 13.0346 7.51136 12.9731 7.53607C12.9116 7.56078 12.8557 7.59746 12.8085 7.64398C12.7613 7.6905 12.7238 7.74594 12.6982 7.80707C12.6727 7.8682 12.6595 7.9338 12.6595 8.00006C12.6595 8.06632 12.6727 8.13193 12.6982 8.19305C12.7238 8.25418 12.7613 8.30962 12.8085 8.35614C12.8557 8.40266 12.9116 8.43934 12.9731 8.46405C13.0346 8.48876 13.1004 8.501 13.1666 8.50006H14.1666C14.2329 8.501 14.2987 8.48876 14.3601 8.46405C14.4216 8.43934 14.4776 8.40266 14.5248 8.35614C14.572 8.30962 14.6094 8.25418 14.635 8.19305C14.6606 8.13193 14.6737 8.06632 14.6737 8.00006C14.6737 7.9338 14.6606 7.8682 14.635 7.80707C14.6094 7.74594 14.572 7.6905 14.5248 7.64398C14.4776 7.59746 14.4216 7.56078 14.3601 7.53607C14.2987 7.51136 14.2329 7.49912 14.1666 7.50006H13.1666ZM4.33655 11.1485C4.2067 11.1523 4.08341 11.2065 3.9928 11.2995L3.28577 12.0066C3.23928 12.053 3.20241 12.1082 3.17725 12.1689C3.15209 12.2296 3.13913 12.2947 3.13913 12.3604C3.13912 12.4262 3.15206 12.4912 3.17721 12.552C3.20235 12.6127 3.23922 12.6679 3.28569 12.7143C3.33217 12.7608 3.38734 12.7977 3.44806 12.8228C3.50878 12.848 3.57386 12.8609 3.63959 12.8609C3.70531 12.8609 3.77039 12.8479 3.8311 12.8228C3.89182 12.7976 3.94699 12.7607 3.99345 12.7143L4.70048 12.0072C4.7729 11.937 4.82237 11.8465 4.8424 11.7476C4.86243 11.6487 4.85208 11.5461 4.81272 11.4532C4.77335 11.3603 4.7068 11.2815 4.62182 11.2271C4.53683 11.1727 4.43739 11.1453 4.33655 11.1485ZM11.6477 11.1485C11.5482 11.1485 11.451 11.1782 11.3685 11.2338C11.2859 11.2894 11.2219 11.3684 11.1845 11.4606C11.1471 11.5528 11.138 11.6541 11.1585 11.7515C11.179 11.8488 11.2281 11.9379 11.2994 12.0072L12.0065 12.7143C12.0529 12.7607 12.1081 12.7976 12.1688 12.8227C12.2295 12.8479 12.2946 12.8608 12.3603 12.8608C12.426 12.8608 12.4911 12.8479 12.5518 12.8227C12.6125 12.7976 12.6677 12.7607 12.7142 12.7143C12.7606 12.6678 12.7975 12.6126 12.8226 12.5519C12.8478 12.4912 12.8607 12.4261 12.8607 12.3604C12.8607 12.2947 12.8478 12.2296 12.8226 12.1689C12.7975 12.1082 12.7606 12.053 12.7142 12.0066L12.0071 11.2995C11.9604 11.2516 11.9045 11.2135 11.8428 11.1876C11.781 11.1616 11.7147 11.1483 11.6477 11.1485ZM7.99215 12.6596C7.85965 12.6616 7.7334 12.7162 7.64111 12.8113C7.54883 12.9064 7.49806 13.0342 7.49996 13.1667V14.1667C7.49902 14.233 7.51126 14.2988 7.53597 14.3602C7.56068 14.4217 7.59736 14.4777 7.64388 14.5249C7.6904 14.5721 7.74584 14.6095 7.80697 14.6351C7.8681 14.6607 7.9337 14.6738 7.99996 14.6738C8.06622 14.6738 8.13182 14.6607 8.19295 14.6351C8.25408 14.6095 8.30952 14.5721 8.35604 14.5249C8.40256 14.4777 8.43924 14.4217 8.46395 14.3602C8.48866 14.2988 8.5009 14.233 8.49996 14.1667V13.1667C8.50092 13.0998 8.48844 13.0334 8.46325 12.9714C8.43806 12.9094 8.40068 12.853 8.35332 12.8057C8.30597 12.7584 8.2496 12.7211 8.18756 12.696C8.12552 12.6709 8.05907 12.6585 7.99215 12.6596Z" fill="#1A1A1A"/>
</svg>
