<svg xmlns="http://www.w3.org/2000/svg"  viewBox="0 0 48 48" width="24px" height="24px"><path d="M 23.810547 7.1054688 C 15.94203 7.1054687 8.0747054 10.103029 2.0800781 16.097656 A 1.50015 1.50015 0 1 0 4.2011719 18.21875 C 15.043917 7.3760045 32.579129 7.3760045 43.421875 18.21875 A 1.50015 1.50015 0 1 0 45.542969 16.097656 C 39.548342 10.103029 31.679063 7.1054688 23.810547 7.1054688 z M 23.810547 16.025391 C 18.224534 16.025391 12.639854 18.151161 8.3867188 22.404297 A 1.50015 1.50015 0 1 0 10.507812 24.525391 C 17.867542 17.165661 29.755505 17.165661 37.115234 24.525391 A 1.50015 1.50015 0 1 0 39.236328 22.404297 C 34.983193 18.151161 29.396559 16.025391 23.810547 16.025391 z M 23.810547 24.943359 C 20.507045 24.943359 17.203063 26.199281 14.691406 28.710938 A 1.5005302 1.5005302 0 0 0 16.814453 30.832031 C 20.69114 26.955344 26.931906 26.955344 30.808594 30.832031 A 1.50015 1.50015 0 1 0 32.929688 28.710938 C 30.418031 26.199281 27.114049 24.943359 23.810547 24.943359 z M 24 34 A 4 4 0 0 0 24 42 A 4 4 0 0 0 24 34 z"/></svg>