<svg xmlns="http://www.w3.org/2000/svg"  viewBox="0 0 48 48" width="24px" height="24px"><path d="M 24.064453 4 C 21.819453 4 20 5.791 20 8 C 20 10.209 21.819453 12 24.064453 12 C 26.320453 12 28.955469 9.8942813 30.230469 8.7382812 C 30.670469 8.3392812 30.670469 7.6597187 30.230469 7.2617188 C 28.955469 6.1057188 26.320453 4 24.064453 4 z M 24 14 C 21.255742 14 18.915423 16.057907 18.564453 18.779297 L 17.011719 30.808594 A 1.5005388 1.5005388 0 0 0 19 32.414062 L 19 42.5 A 1.50015 1.50015 0 1 0 22 42.5 L 22 32 L 26 32 L 26 42.5 A 1.50015 1.50015 0 1 0 29 42.5 L 29 32.416016 A 1.5005388 1.5005388 0 0 0 30.988281 30.808594 L 29.435547 18.779297 C 29.084577 16.057907 26.744258 14 24 14 z"/></svg>