<svg xmlns="http://www.w3.org/2000/svg"  viewBox="0 0 48 48" width="24px" height="24px"><path d="M 31.5 6 C 28.424958 6 25.718515 7.3881784 23.794922 9.5078125 C 22.791252 9.3618475 21.859238 9.5120325 21.140625 9.7636719 C 20.256822 10.073163 19.62057 10.452633 19.449219 10.556641 A 1.50015 1.50015 0 0 0 19.445312 10.556641 C 17.173448 11.942164 14.767702 13.260101 12.417969 14.707031 A 1.50015 1.50015 0 0 0 12.416016 14.708984 C 12.144004 14.877089 11.713837 15.071967 11.242188 15.242188 C 8.7408531 16.144084 7 18.504809 7 21.201172 L 7 27 C 7 28.380829 7.4303731 29.87211 8.234375 31.208984 L 7.78125 31.660156 C 5.4313874 34.000752 5.4135394 37.849193 7.7421875 40.210938 A 1.50015 1.50015 0 0 0 7.7441406 40.210938 C 10.068604 42.565842 13.906263 42.583777 16.251953 40.25 L 16.585938 39.917969 C 17.403657 40.684451 19.051069 42 21.769531 42 C 23.959655 42 26.01184 40.940328 27.455078 39.248047 C 29.093213 37.327442 32.25 34.039062 32.25 34.039062 A 1.50015 1.50015 0 0 0 32.300781 33.984375 C 32.573361 33.670859 32.966091 33.231238 33.302734 32.625 A 1.50015 1.50015 0 0 0 33.304688 32.623047 C 34.026564 31.319882 34.19775 29.782252 33.753906 28.369141 A 1.50015 1.50015 0 0 0 33.751953 28.367188 C 33.554684 27.741588 33.102283 27.264425 32.703125 26.755859 C 37.894848 26.129958 42 21.855295 42 16.5 C 42 14.927313 41.642857 13.437532 41.027344 12.105469 A 1.50015 1.50015 0 0 0 38.607422 11.671875 L 33.751953 16.507812 C 33.102738 17.15241 32.115633 17.149546 31.472656 16.498047 C 30.828003 15.844904 30.83189 14.821143 31.482422 14.173828 A 1.50015 1.50015 0 0 0 31.484375 14.171875 L 36.292969 9.3808594 A 1.50015 1.50015 0 0 0 35.857422 6.953125 C 34.534888 6.3493341 33.057388 6 31.5 6 z M 31.5 9 C 31.770506 9 31.99544 9.1376063 32.257812 9.1660156 L 29.367188 12.046875 C 27.565686 13.83956 27.552547 16.796611 29.337891 18.605469 C 31.118447 20.409531 34.072337 20.422752 35.869141 18.634766 A 1.50015 1.50015 0 0 0 35.869141 18.632812 L 38.820312 15.693359 C 38.852567 15.972455 39 16.211576 39 16.5 C 39 20.660499 35.660499 24 31.5 24 C 30.987681 24 30.491025 23.905037 29.996094 23.800781 C 29.341363 23.155023 28.681342 22.502722 27.943359 21.773438 C 26.062877 19.91512 24.518431 18.384508 24.214844 18.083984 C 24.099554 17.563886 24 17.040534 24 16.5 C 24 12.339501 27.339501 9 31.5 9 z M 21.757812 12.771484 C 21.308806 13.937819 21 15.179094 21 16.5 C 21 17.440857 21.135109 18.341039 21.359375 19.1875 A 1.50015 1.50015 0 0 0 21.753906 19.869141 C 21.753906 19.869141 23.775981 21.872504 25.833984 23.90625 C 26.586585 24.64998 27.26471 25.318784 27.929688 25.974609 A 1.50015 1.50015 0 0 0 28.447266 26.484375 C 28.521226 26.557255 28.628806 26.66503 28.699219 26.734375 C 29.098552 27.127652 29.439602 27.460549 29.689453 27.705078 C 29.939304 27.949607 29.987062 28.007813 30.183594 28.181641 A 1.50015 1.50015 0 0 0 30.183594 28.183594 C 30.520008 28.481022 30.756281 28.843486 30.890625 29.269531 C 31.088051 29.899813 31.025458 30.545721 30.679688 31.169922 C 30.534312 31.431327 30.31013 31.701601 30.037109 32.015625 C 29.973609 32.081585 26.925522 35.244746 25.171875 37.300781 C 24.239113 38.394453 22.981407 39 21.769531 39 C 19.793131 39 18.892383 38.080399 18.335938 37.517578 C 17.246184 36.414223 15.529017 34.705778 14.046875 33.238281 C 13.305635 32.504366 12.624492 31.831919 12.109375 31.326172 C 11.700195 30.924435 11.530827 30.7576 11.328125 30.568359 A 1.50015 1.50015 0 0 0 11.087891 30.310547 C 10.41417 29.675286 10 28.322869 10 27 L 10 21.201172 C 10 19.787534 10.89514 18.556509 12.259766 18.064453 C 12.851566 17.850871 13.442633 17.601133 13.992188 17.261719 C 16.253711 15.869107 18.654465 14.555021 21.005859 13.121094 L 21.007812 13.119141 C 21.047362 13.095171 21.437426 12.918921 21.757812 12.771484 z M 10.113281 33.570312 C 10.613136 34.061406 11.236958 34.679408 11.935547 35.371094 C 12.794842 36.221898 13.569152 36.999725 14.416016 37.845703 L 14.136719 38.123047 C 12.938409 39.31527 11.066447 39.30661 9.8789062 38.103516 C 8.6895549 36.89726 8.6983004 34.980561 9.8984375 33.785156 L 10.113281 33.570312 z"/></svg>